G04 #@! TF.GenerationSoftware,KiCad,Pcbnew,7.0.7+dfsg-1*
G04 #@! TF.CreationDate,2024-09-28T12:18:31+02:00*
G04 #@! TF.ProjectId,evo-cube-sensor,65766f2d-6375-4626-952d-73656e736f72,rev?*
G04 #@! TF.SameCoordinates,Original*
G04 #@! TF.FileFunction,Profile,NP*
%FSLAX46Y46*%
G04 Gerber Fmt 4.6, Leading zero omitted, Abs format (unit mm)*
G04 Created by KiCad (PCBNEW 7.0.7+dfsg-1) date 2024-09-28 12:18:31*
%MOMM*%
%LPD*%
G01*
G04 APERTURE LIST*
G04 #@! TA.AperFunction,Profile*
%ADD10C,0.100000*%
G04 #@! TD*
G04 APERTURE END LIST*
D10*
X114503200Y-73075800D02*
X124002800Y-73075800D01*
X125664200Y-131569200D02*
G75*
G03*
X132664200Y-124569200I0J7000000D01*
G01*
X46500453Y-131569203D02*
G75*
G03*
X53500453Y-124569200I-3J7000003D01*
G01*
X33670200Y-46233544D02*
X33664200Y-39569200D01*
X33664200Y-124569200D02*
G75*
G03*
X40664200Y-131569200I7000000J0D01*
G01*
X67348843Y-73089243D02*
G75*
G03*
X69303157Y-73089243I977157J0D01*
G01*
X55786453Y-107899153D02*
G75*
G03*
X53500453Y-110185200I47J-2286047D01*
G01*
X125664200Y-32569200D02*
X40664200Y-32569200D01*
X99756200Y-107899200D02*
X55786453Y-107899200D01*
X102042200Y-110185200D02*
G75*
G03*
X99756200Y-107899200I-2286000J0D01*
G01*
X46878200Y-51313544D02*
X46878200Y-63957200D01*
X53500453Y-110185200D02*
X53500453Y-124569200D01*
X46878156Y-51313544D02*
G75*
G03*
X44592200Y-49027544I-2285956J44D01*
G01*
X69303157Y-59918600D02*
G75*
G03*
X67348843Y-59918600I-977157J0D01*
G01*
X44592200Y-66243200D02*
X36464200Y-66243200D01*
X44592200Y-66243200D02*
G75*
G03*
X46878200Y-63957200I0J2286000D01*
G01*
X44592200Y-49027544D02*
X36464200Y-49027544D01*
X102042200Y-110185200D02*
X102042200Y-124569200D01*
X36464200Y-66243200D02*
G75*
G03*
X33670200Y-69037200I0J-2794000D01*
G01*
X114503200Y-73075886D02*
G75*
G03*
X114503200Y-75030114I0J-977114D01*
G01*
X109042200Y-131569200D02*
X125664200Y-131569200D01*
X124002800Y-75030114D02*
X114503200Y-75030114D01*
X67348843Y-73089243D02*
X67348843Y-59918600D01*
X67348843Y-52439043D02*
G75*
G03*
X69303157Y-52439043I977157J0D01*
G01*
X69303157Y-39268400D02*
X69303157Y-52439043D01*
X33670200Y-69037200D02*
X33670200Y-124569200D01*
X124002800Y-75030200D02*
G75*
G03*
X124002800Y-73075800I0J977200D01*
G01*
X40664200Y-32569200D02*
G75*
G03*
X33664200Y-39569200I0J-7000000D01*
G01*
X67348843Y-39268400D02*
X67348843Y-52439043D01*
X69303157Y-59918600D02*
X69303157Y-73089243D01*
X132664200Y-39569200D02*
G75*
G03*
X125664200Y-32569200I-7000000J0D01*
G01*
X33670156Y-46233544D02*
G75*
G03*
X36464200Y-49027544I2794044J44D01*
G01*
X69303157Y-39268400D02*
G75*
G03*
X67348843Y-39268400I-977157J0D01*
G01*
X40664200Y-131569200D02*
X46500453Y-131569200D01*
X102042200Y-124569200D02*
G75*
G03*
X109042200Y-131569200I7000000J0D01*
G01*
X132664200Y-124569200D02*
X132664200Y-39569200D01*
M02*
