G04 #@! TF.GenerationSoftware,KiCad,Pcbnew,7.0.7+dfsg-1*
G04 #@! TF.CreationDate,2024-09-28T12:18:31+02:00*
G04 #@! TF.ProjectId,evo-cube-sensor,65766f2d-6375-4626-952d-73656e736f72,rev?*
G04 #@! TF.SameCoordinates,Original*
G04 #@! TF.FileFunction,Legend,Bot*
G04 #@! TF.FilePolarity,Positive*
%FSLAX46Y46*%
G04 Gerber Fmt 4.6, Leading zero omitted, Abs format (unit mm)*
G04 Created by KiCad (PCBNEW 7.0.7+dfsg-1) date 2024-09-28 12:18:31*
%MOMM*%
%LPD*%
G01*
G04 APERTURE LIST*
%ADD10C,0.150000*%
%ADD11C,0.508000*%
%ADD12C,0.120000*%
G04 #@! TA.AperFunction,Profile*
%ADD13C,0.100000*%
G04 #@! TD*
G04 APERTURE END LIST*
D10*
X95380980Y-63796942D02*
X95428600Y-63749323D01*
X95428600Y-63749323D02*
X95476219Y-63606466D01*
X95476219Y-63606466D02*
X95476219Y-63511228D01*
X95476219Y-63511228D02*
X95428600Y-63368371D01*
X95428600Y-63368371D02*
X95333361Y-63273133D01*
X95333361Y-63273133D02*
X95238123Y-63225514D01*
X95238123Y-63225514D02*
X95047647Y-63177895D01*
X95047647Y-63177895D02*
X94904790Y-63177895D01*
X94904790Y-63177895D02*
X94714314Y-63225514D01*
X94714314Y-63225514D02*
X94619076Y-63273133D01*
X94619076Y-63273133D02*
X94523838Y-63368371D01*
X94523838Y-63368371D02*
X94476219Y-63511228D01*
X94476219Y-63511228D02*
X94476219Y-63606466D01*
X94476219Y-63606466D02*
X94523838Y-63749323D01*
X94523838Y-63749323D02*
X94571457Y-63796942D01*
X94476219Y-64130276D02*
X94476219Y-64749323D01*
X94476219Y-64749323D02*
X94857171Y-64415990D01*
X94857171Y-64415990D02*
X94857171Y-64558847D01*
X94857171Y-64558847D02*
X94904790Y-64654085D01*
X94904790Y-64654085D02*
X94952409Y-64701704D01*
X94952409Y-64701704D02*
X95047647Y-64749323D01*
X95047647Y-64749323D02*
X95285742Y-64749323D01*
X95285742Y-64749323D02*
X95380980Y-64701704D01*
X95380980Y-64701704D02*
X95428600Y-64654085D01*
X95428600Y-64654085D02*
X95476219Y-64558847D01*
X95476219Y-64558847D02*
X95476219Y-64273133D01*
X95476219Y-64273133D02*
X95428600Y-64177895D01*
X95428600Y-64177895D02*
X95380980Y-64130276D01*
X94904790Y-65320752D02*
X94857171Y-65225514D01*
X94857171Y-65225514D02*
X94809552Y-65177895D01*
X94809552Y-65177895D02*
X94714314Y-65130276D01*
X94714314Y-65130276D02*
X94666695Y-65130276D01*
X94666695Y-65130276D02*
X94571457Y-65177895D01*
X94571457Y-65177895D02*
X94523838Y-65225514D01*
X94523838Y-65225514D02*
X94476219Y-65320752D01*
X94476219Y-65320752D02*
X94476219Y-65511228D01*
X94476219Y-65511228D02*
X94523838Y-65606466D01*
X94523838Y-65606466D02*
X94571457Y-65654085D01*
X94571457Y-65654085D02*
X94666695Y-65701704D01*
X94666695Y-65701704D02*
X94714314Y-65701704D01*
X94714314Y-65701704D02*
X94809552Y-65654085D01*
X94809552Y-65654085D02*
X94857171Y-65606466D01*
X94857171Y-65606466D02*
X94904790Y-65511228D01*
X94904790Y-65511228D02*
X94904790Y-65320752D01*
X94904790Y-65320752D02*
X94952409Y-65225514D01*
X94952409Y-65225514D02*
X95000028Y-65177895D01*
X95000028Y-65177895D02*
X95095266Y-65130276D01*
X95095266Y-65130276D02*
X95285742Y-65130276D01*
X95285742Y-65130276D02*
X95380980Y-65177895D01*
X95380980Y-65177895D02*
X95428600Y-65225514D01*
X95428600Y-65225514D02*
X95476219Y-65320752D01*
X95476219Y-65320752D02*
X95476219Y-65511228D01*
X95476219Y-65511228D02*
X95428600Y-65606466D01*
X95428600Y-65606466D02*
X95380980Y-65654085D01*
X95380980Y-65654085D02*
X95285742Y-65701704D01*
X95285742Y-65701704D02*
X95095266Y-65701704D01*
X95095266Y-65701704D02*
X95000028Y-65654085D01*
X95000028Y-65654085D02*
X94952409Y-65606466D01*
X94952409Y-65606466D02*
X94904790Y-65511228D01*
X111052780Y-78071742D02*
X111100400Y-78024123D01*
X111100400Y-78024123D02*
X111148019Y-77881266D01*
X111148019Y-77881266D02*
X111148019Y-77786028D01*
X111148019Y-77786028D02*
X111100400Y-77643171D01*
X111100400Y-77643171D02*
X111005161Y-77547933D01*
X111005161Y-77547933D02*
X110909923Y-77500314D01*
X110909923Y-77500314D02*
X110719447Y-77452695D01*
X110719447Y-77452695D02*
X110576590Y-77452695D01*
X110576590Y-77452695D02*
X110386114Y-77500314D01*
X110386114Y-77500314D02*
X110290876Y-77547933D01*
X110290876Y-77547933D02*
X110195638Y-77643171D01*
X110195638Y-77643171D02*
X110148019Y-77786028D01*
X110148019Y-77786028D02*
X110148019Y-77881266D01*
X110148019Y-77881266D02*
X110195638Y-78024123D01*
X110195638Y-78024123D02*
X110243257Y-78071742D01*
X110481352Y-78928885D02*
X111148019Y-78928885D01*
X110100400Y-78690790D02*
X110814685Y-78452695D01*
X110814685Y-78452695D02*
X110814685Y-79071742D01*
X110148019Y-79357457D02*
X110148019Y-79976504D01*
X110148019Y-79976504D02*
X110528971Y-79643171D01*
X110528971Y-79643171D02*
X110528971Y-79786028D01*
X110528971Y-79786028D02*
X110576590Y-79881266D01*
X110576590Y-79881266D02*
X110624209Y-79928885D01*
X110624209Y-79928885D02*
X110719447Y-79976504D01*
X110719447Y-79976504D02*
X110957542Y-79976504D01*
X110957542Y-79976504D02*
X111052780Y-79928885D01*
X111052780Y-79928885D02*
X111100400Y-79881266D01*
X111100400Y-79881266D02*
X111148019Y-79786028D01*
X111148019Y-79786028D02*
X111148019Y-79500314D01*
X111148019Y-79500314D02*
X111100400Y-79405076D01*
X111100400Y-79405076D02*
X111052780Y-79357457D01*
X84916180Y-79925942D02*
X84963800Y-79878323D01*
X84963800Y-79878323D02*
X85011419Y-79735466D01*
X85011419Y-79735466D02*
X85011419Y-79640228D01*
X85011419Y-79640228D02*
X84963800Y-79497371D01*
X84963800Y-79497371D02*
X84868561Y-79402133D01*
X84868561Y-79402133D02*
X84773323Y-79354514D01*
X84773323Y-79354514D02*
X84582847Y-79306895D01*
X84582847Y-79306895D02*
X84439990Y-79306895D01*
X84439990Y-79306895D02*
X84249514Y-79354514D01*
X84249514Y-79354514D02*
X84154276Y-79402133D01*
X84154276Y-79402133D02*
X84059038Y-79497371D01*
X84059038Y-79497371D02*
X84011419Y-79640228D01*
X84011419Y-79640228D02*
X84011419Y-79735466D01*
X84011419Y-79735466D02*
X84059038Y-79878323D01*
X84059038Y-79878323D02*
X84106657Y-79925942D01*
X84344752Y-80783085D02*
X85011419Y-80783085D01*
X83963800Y-80544990D02*
X84678085Y-80306895D01*
X84678085Y-80306895D02*
X84678085Y-80925942D01*
X84106657Y-81259276D02*
X84059038Y-81306895D01*
X84059038Y-81306895D02*
X84011419Y-81402133D01*
X84011419Y-81402133D02*
X84011419Y-81640228D01*
X84011419Y-81640228D02*
X84059038Y-81735466D01*
X84059038Y-81735466D02*
X84106657Y-81783085D01*
X84106657Y-81783085D02*
X84201895Y-81830704D01*
X84201895Y-81830704D02*
X84297133Y-81830704D01*
X84297133Y-81830704D02*
X84439990Y-81783085D01*
X84439990Y-81783085D02*
X85011419Y-81211657D01*
X85011419Y-81211657D02*
X85011419Y-81830704D01*
D11*
X113501800Y-114439700D02*
G75*
G03*
X113501800Y-114439700I-381000J0D01*
G01*
D12*
X90676200Y-64536025D02*
X90676200Y-65036025D01*
X90426200Y-64786025D02*
X90926200Y-64786025D01*
X89571200Y-67340800D02*
X94731200Y-67340800D01*
X89571200Y-67380800D02*
X94731200Y-67380800D01*
X89572200Y-67420800D02*
X94730200Y-67420800D01*
X89573200Y-67460800D02*
X94729200Y-67460800D01*
X89575200Y-67500800D02*
X94727200Y-67500800D01*
X89578200Y-67540800D02*
X94724200Y-67540800D01*
X93191200Y-67580800D02*
X94720200Y-67580800D01*
X89582200Y-67580800D02*
X91111200Y-67580800D01*
X93191200Y-67620800D02*
X94716200Y-67620800D01*
X89586200Y-67620800D02*
X91111200Y-67620800D01*
X93191200Y-67660800D02*
X94712200Y-67660800D01*
X89590200Y-67660800D02*
X91111200Y-67660800D01*
X93191200Y-67700800D02*
X94707200Y-67700800D01*
X89595200Y-67700800D02*
X91111200Y-67700800D01*
X93191200Y-67740800D02*
X94701200Y-67740800D01*
X89601200Y-67740800D02*
X91111200Y-67740800D01*
X93191200Y-67780800D02*
X94694200Y-67780800D01*
X89608200Y-67780800D02*
X91111200Y-67780800D01*
X93191200Y-67820800D02*
X94687200Y-67820800D01*
X89615200Y-67820800D02*
X91111200Y-67820800D01*
X93191200Y-67860800D02*
X94679200Y-67860800D01*
X89623200Y-67860800D02*
X91111200Y-67860800D01*
X93191200Y-67900800D02*
X94671200Y-67900800D01*
X89631200Y-67900800D02*
X91111200Y-67900800D01*
X93191200Y-67940800D02*
X94662200Y-67940800D01*
X89640200Y-67940800D02*
X91111200Y-67940800D01*
X93191200Y-67980800D02*
X94652200Y-67980800D01*
X89650200Y-67980800D02*
X91111200Y-67980800D01*
X93191200Y-68020800D02*
X94642200Y-68020800D01*
X89660200Y-68020800D02*
X91111200Y-68020800D01*
X93191200Y-68061800D02*
X94631200Y-68061800D01*
X89671200Y-68061800D02*
X91111200Y-68061800D01*
X93191200Y-68101800D02*
X94619200Y-68101800D01*
X89683200Y-68101800D02*
X91111200Y-68101800D01*
X93191200Y-68141800D02*
X94606200Y-68141800D01*
X89696200Y-68141800D02*
X91111200Y-68141800D01*
X93191200Y-68181800D02*
X94593200Y-68181800D01*
X89709200Y-68181800D02*
X91111200Y-68181800D01*
X93191200Y-68221800D02*
X94579200Y-68221800D01*
X89723200Y-68221800D02*
X91111200Y-68221800D01*
X93191200Y-68261800D02*
X94565200Y-68261800D01*
X89737200Y-68261800D02*
X91111200Y-68261800D01*
X93191200Y-68301800D02*
X94549200Y-68301800D01*
X89753200Y-68301800D02*
X91111200Y-68301800D01*
X93191200Y-68341800D02*
X94533200Y-68341800D01*
X89769200Y-68341800D02*
X91111200Y-68341800D01*
X93191200Y-68381800D02*
X94516200Y-68381800D01*
X89786200Y-68381800D02*
X91111200Y-68381800D01*
X93191200Y-68421800D02*
X94499200Y-68421800D01*
X89803200Y-68421800D02*
X91111200Y-68421800D01*
X93191200Y-68461800D02*
X94480200Y-68461800D01*
X89822200Y-68461800D02*
X91111200Y-68461800D01*
X93191200Y-68501800D02*
X94461200Y-68501800D01*
X89841200Y-68501800D02*
X91111200Y-68501800D01*
X93191200Y-68541800D02*
X94441200Y-68541800D01*
X89861200Y-68541800D02*
X91111200Y-68541800D01*
X93191200Y-68581800D02*
X94419200Y-68581800D01*
X89883200Y-68581800D02*
X91111200Y-68581800D01*
X93191200Y-68621800D02*
X94398200Y-68621800D01*
X89904200Y-68621800D02*
X91111200Y-68621800D01*
X93191200Y-68661800D02*
X94375200Y-68661800D01*
X89927200Y-68661800D02*
X91111200Y-68661800D01*
X93191200Y-68701800D02*
X94351200Y-68701800D01*
X89951200Y-68701800D02*
X91111200Y-68701800D01*
X93191200Y-68741800D02*
X94326200Y-68741800D01*
X89976200Y-68741800D02*
X91111200Y-68741800D01*
X93191200Y-68781800D02*
X94300200Y-68781800D01*
X90002200Y-68781800D02*
X91111200Y-68781800D01*
X93191200Y-68821800D02*
X94273200Y-68821800D01*
X90029200Y-68821800D02*
X91111200Y-68821800D01*
X93191200Y-68861800D02*
X94246200Y-68861800D01*
X90056200Y-68861800D02*
X91111200Y-68861800D01*
X93191200Y-68901800D02*
X94216200Y-68901800D01*
X90086200Y-68901800D02*
X91111200Y-68901800D01*
X93191200Y-68941800D02*
X94186200Y-68941800D01*
X90116200Y-68941800D02*
X91111200Y-68941800D01*
X93191200Y-68981800D02*
X94155200Y-68981800D01*
X90147200Y-68981800D02*
X91111200Y-68981800D01*
X93191200Y-69021800D02*
X94122200Y-69021800D01*
X90180200Y-69021800D02*
X91111200Y-69021800D01*
X93191200Y-69061800D02*
X94088200Y-69061800D01*
X90214200Y-69061800D02*
X91111200Y-69061800D01*
X93191200Y-69101800D02*
X94052200Y-69101800D01*
X90250200Y-69101800D02*
X91111200Y-69101800D01*
X93191200Y-69141800D02*
X94015200Y-69141800D01*
X90287200Y-69141800D02*
X91111200Y-69141800D01*
X93191200Y-69181800D02*
X93977200Y-69181800D01*
X90325200Y-69181800D02*
X91111200Y-69181800D01*
X93191200Y-69221800D02*
X93936200Y-69221800D01*
X90366200Y-69221800D02*
X91111200Y-69221800D01*
X93191200Y-69261800D02*
X93894200Y-69261800D01*
X90408200Y-69261800D02*
X91111200Y-69261800D01*
X93191200Y-69301800D02*
X93850200Y-69301800D01*
X90452200Y-69301800D02*
X91111200Y-69301800D01*
X93191200Y-69341800D02*
X93804200Y-69341800D01*
X90498200Y-69341800D02*
X91111200Y-69341800D01*
X93191200Y-69381800D02*
X93756200Y-69381800D01*
X90546200Y-69381800D02*
X91111200Y-69381800D01*
X93191200Y-69421800D02*
X93705200Y-69421800D01*
X90597200Y-69421800D02*
X91111200Y-69421800D01*
X93191200Y-69461800D02*
X93651200Y-69461800D01*
X90651200Y-69461800D02*
X91111200Y-69461800D01*
X93191200Y-69501800D02*
X93594200Y-69501800D01*
X90708200Y-69501800D02*
X91111200Y-69501800D01*
X93191200Y-69541800D02*
X93534200Y-69541800D01*
X90768200Y-69541800D02*
X91111200Y-69541800D01*
X93191200Y-69581800D02*
X93470200Y-69581800D01*
X90832200Y-69581800D02*
X91111200Y-69581800D01*
X93191200Y-69621800D02*
X93402200Y-69621800D01*
X90900200Y-69621800D02*
X91111200Y-69621800D01*
X90973200Y-69661800D02*
X93329200Y-69661800D01*
X91053200Y-69701800D02*
X93249200Y-69701800D01*
X91140200Y-69741800D02*
X93162200Y-69741800D01*
X91236200Y-69781800D02*
X93066200Y-69781800D01*
X91346200Y-69821800D02*
X92956200Y-69821800D01*
X91474200Y-69861800D02*
X92828200Y-69861800D01*
X91633200Y-69901800D02*
X92669200Y-69901800D01*
X91867200Y-69941800D02*
X92435200Y-69941800D01*
X94771200Y-67340800D02*
G75*
G03*
X94771200Y-67340800I-2620000J0D01*
G01*
X108840800Y-84028575D02*
X108840800Y-83528575D01*
X109090800Y-83778575D02*
X108590800Y-83778575D01*
X109945800Y-81223800D02*
X104785800Y-81223800D01*
X109945800Y-81183800D02*
X104785800Y-81183800D01*
X109944800Y-81143800D02*
X104786800Y-81143800D01*
X109943800Y-81103800D02*
X104787800Y-81103800D01*
X109941800Y-81063800D02*
X104789800Y-81063800D01*
X109938800Y-81023800D02*
X104792800Y-81023800D01*
X106325800Y-80983800D02*
X104796800Y-80983800D01*
X109934800Y-80983800D02*
X108405800Y-80983800D01*
X106325800Y-80943800D02*
X104800800Y-80943800D01*
X109930800Y-80943800D02*
X108405800Y-80943800D01*
X106325800Y-80903800D02*
X104804800Y-80903800D01*
X109926800Y-80903800D02*
X108405800Y-80903800D01*
X106325800Y-80863800D02*
X104809800Y-80863800D01*
X109921800Y-80863800D02*
X108405800Y-80863800D01*
X106325800Y-80823800D02*
X104815800Y-80823800D01*
X109915800Y-80823800D02*
X108405800Y-80823800D01*
X106325800Y-80783800D02*
X104822800Y-80783800D01*
X109908800Y-80783800D02*
X108405800Y-80783800D01*
X106325800Y-80743800D02*
X104829800Y-80743800D01*
X109901800Y-80743800D02*
X108405800Y-80743800D01*
X106325800Y-80703800D02*
X104837800Y-80703800D01*
X109893800Y-80703800D02*
X108405800Y-80703800D01*
X106325800Y-80663800D02*
X104845800Y-80663800D01*
X109885800Y-80663800D02*
X108405800Y-80663800D01*
X106325800Y-80623800D02*
X104854800Y-80623800D01*
X109876800Y-80623800D02*
X108405800Y-80623800D01*
X106325800Y-80583800D02*
X104864800Y-80583800D01*
X109866800Y-80583800D02*
X108405800Y-80583800D01*
X106325800Y-80543800D02*
X104874800Y-80543800D01*
X109856800Y-80543800D02*
X108405800Y-80543800D01*
X106325800Y-80502800D02*
X104885800Y-80502800D01*
X109845800Y-80502800D02*
X108405800Y-80502800D01*
X106325800Y-80462800D02*
X104897800Y-80462800D01*
X109833800Y-80462800D02*
X108405800Y-80462800D01*
X106325800Y-80422800D02*
X104910800Y-80422800D01*
X109820800Y-80422800D02*
X108405800Y-80422800D01*
X106325800Y-80382800D02*
X104923800Y-80382800D01*
X109807800Y-80382800D02*
X108405800Y-80382800D01*
X106325800Y-80342800D02*
X104937800Y-80342800D01*
X109793800Y-80342800D02*
X108405800Y-80342800D01*
X106325800Y-80302800D02*
X104951800Y-80302800D01*
X109779800Y-80302800D02*
X108405800Y-80302800D01*
X106325800Y-80262800D02*
X104967800Y-80262800D01*
X109763800Y-80262800D02*
X108405800Y-80262800D01*
X106325800Y-80222800D02*
X104983800Y-80222800D01*
X109747800Y-80222800D02*
X108405800Y-80222800D01*
X106325800Y-80182800D02*
X105000800Y-80182800D01*
X109730800Y-80182800D02*
X108405800Y-80182800D01*
X106325800Y-80142800D02*
X105017800Y-80142800D01*
X109713800Y-80142800D02*
X108405800Y-80142800D01*
X106325800Y-80102800D02*
X105036800Y-80102800D01*
X109694800Y-80102800D02*
X108405800Y-80102800D01*
X106325800Y-80062800D02*
X105055800Y-80062800D01*
X109675800Y-80062800D02*
X108405800Y-80062800D01*
X106325800Y-80022800D02*
X105075800Y-80022800D01*
X109655800Y-80022800D02*
X108405800Y-80022800D01*
X106325800Y-79982800D02*
X105097800Y-79982800D01*
X109633800Y-79982800D02*
X108405800Y-79982800D01*
X106325800Y-79942800D02*
X105118800Y-79942800D01*
X109612800Y-79942800D02*
X108405800Y-79942800D01*
X106325800Y-79902800D02*
X105141800Y-79902800D01*
X109589800Y-79902800D02*
X108405800Y-79902800D01*
X106325800Y-79862800D02*
X105165800Y-79862800D01*
X109565800Y-79862800D02*
X108405800Y-79862800D01*
X106325800Y-79822800D02*
X105190800Y-79822800D01*
X109540800Y-79822800D02*
X108405800Y-79822800D01*
X106325800Y-79782800D02*
X105216800Y-79782800D01*
X109514800Y-79782800D02*
X108405800Y-79782800D01*
X106325800Y-79742800D02*
X105243800Y-79742800D01*
X109487800Y-79742800D02*
X108405800Y-79742800D01*
X106325800Y-79702800D02*
X105270800Y-79702800D01*
X109460800Y-79702800D02*
X108405800Y-79702800D01*
X106325800Y-79662800D02*
X105300800Y-79662800D01*
X109430800Y-79662800D02*
X108405800Y-79662800D01*
X106325800Y-79622800D02*
X105330800Y-79622800D01*
X109400800Y-79622800D02*
X108405800Y-79622800D01*
X106325800Y-79582800D02*
X105361800Y-79582800D01*
X109369800Y-79582800D02*
X108405800Y-79582800D01*
X106325800Y-79542800D02*
X105394800Y-79542800D01*
X109336800Y-79542800D02*
X108405800Y-79542800D01*
X106325800Y-79502800D02*
X105428800Y-79502800D01*
X109302800Y-79502800D02*
X108405800Y-79502800D01*
X106325800Y-79462800D02*
X105464800Y-79462800D01*
X109266800Y-79462800D02*
X108405800Y-79462800D01*
X106325800Y-79422800D02*
X105501800Y-79422800D01*
X109229800Y-79422800D02*
X108405800Y-79422800D01*
X106325800Y-79382800D02*
X105539800Y-79382800D01*
X109191800Y-79382800D02*
X108405800Y-79382800D01*
X106325800Y-79342800D02*
X105580800Y-79342800D01*
X109150800Y-79342800D02*
X108405800Y-79342800D01*
X106325800Y-79302800D02*
X105622800Y-79302800D01*
X109108800Y-79302800D02*
X108405800Y-79302800D01*
X106325800Y-79262800D02*
X105666800Y-79262800D01*
X109064800Y-79262800D02*
X108405800Y-79262800D01*
X106325800Y-79222800D02*
X105712800Y-79222800D01*
X109018800Y-79222800D02*
X108405800Y-79222800D01*
X106325800Y-79182800D02*
X105760800Y-79182800D01*
X108970800Y-79182800D02*
X108405800Y-79182800D01*
X106325800Y-79142800D02*
X105811800Y-79142800D01*
X108919800Y-79142800D02*
X108405800Y-79142800D01*
X106325800Y-79102800D02*
X105865800Y-79102800D01*
X108865800Y-79102800D02*
X108405800Y-79102800D01*
X106325800Y-79062800D02*
X105922800Y-79062800D01*
X108808800Y-79062800D02*
X108405800Y-79062800D01*
X106325800Y-79022800D02*
X105982800Y-79022800D01*
X108748800Y-79022800D02*
X108405800Y-79022800D01*
X106325800Y-78982800D02*
X106046800Y-78982800D01*
X108684800Y-78982800D02*
X108405800Y-78982800D01*
X106325800Y-78942800D02*
X106114800Y-78942800D01*
X108616800Y-78942800D02*
X108405800Y-78942800D01*
X108543800Y-78902800D02*
X106187800Y-78902800D01*
X108463800Y-78862800D02*
X106267800Y-78862800D01*
X108376800Y-78822800D02*
X106354800Y-78822800D01*
X108280800Y-78782800D02*
X106450800Y-78782800D01*
X108170800Y-78742800D02*
X106560800Y-78742800D01*
X108042800Y-78702800D02*
X106688800Y-78702800D01*
X107883800Y-78662800D02*
X106847800Y-78662800D01*
X107649800Y-78622800D02*
X107081800Y-78622800D01*
X109985800Y-81223800D02*
G75*
G03*
X109985800Y-81223800I-2620000J0D01*
G01*
X89638400Y-84166888D02*
X89638400Y-83666888D01*
X89888400Y-83916888D02*
X89388400Y-83916888D01*
X90743400Y-81362113D02*
X85583400Y-81362113D01*
X90743400Y-81322113D02*
X85583400Y-81322113D01*
X90742400Y-81282113D02*
X85584400Y-81282113D01*
X90741400Y-81242113D02*
X85585400Y-81242113D01*
X90739400Y-81202113D02*
X85587400Y-81202113D01*
X90736400Y-81162113D02*
X85590400Y-81162113D01*
X87123400Y-81122113D02*
X85594400Y-81122113D01*
X90732400Y-81122113D02*
X89203400Y-81122113D01*
X87123400Y-81082113D02*
X85598400Y-81082113D01*
X90728400Y-81082113D02*
X89203400Y-81082113D01*
X87123400Y-81042113D02*
X85602400Y-81042113D01*
X90724400Y-81042113D02*
X89203400Y-81042113D01*
X87123400Y-81002113D02*
X85607400Y-81002113D01*
X90719400Y-81002113D02*
X89203400Y-81002113D01*
X87123400Y-80962113D02*
X85613400Y-80962113D01*
X90713400Y-80962113D02*
X89203400Y-80962113D01*
X87123400Y-80922113D02*
X85620400Y-80922113D01*
X90706400Y-80922113D02*
X89203400Y-80922113D01*
X87123400Y-80882113D02*
X85627400Y-80882113D01*
X90699400Y-80882113D02*
X89203400Y-80882113D01*
X87123400Y-80842113D02*
X85635400Y-80842113D01*
X90691400Y-80842113D02*
X89203400Y-80842113D01*
X87123400Y-80802113D02*
X85643400Y-80802113D01*
X90683400Y-80802113D02*
X89203400Y-80802113D01*
X87123400Y-80762113D02*
X85652400Y-80762113D01*
X90674400Y-80762113D02*
X89203400Y-80762113D01*
X87123400Y-80722113D02*
X85662400Y-80722113D01*
X90664400Y-80722113D02*
X89203400Y-80722113D01*
X87123400Y-80682113D02*
X85672400Y-80682113D01*
X90654400Y-80682113D02*
X89203400Y-80682113D01*
X87123400Y-80641113D02*
X85683400Y-80641113D01*
X90643400Y-80641113D02*
X89203400Y-80641113D01*
X87123400Y-80601113D02*
X85695400Y-80601113D01*
X90631400Y-80601113D02*
X89203400Y-80601113D01*
X87123400Y-80561113D02*
X85708400Y-80561113D01*
X90618400Y-80561113D02*
X89203400Y-80561113D01*
X87123400Y-80521113D02*
X85721400Y-80521113D01*
X90605400Y-80521113D02*
X89203400Y-80521113D01*
X87123400Y-80481113D02*
X85735400Y-80481113D01*
X90591400Y-80481113D02*
X89203400Y-80481113D01*
X87123400Y-80441113D02*
X85749400Y-80441113D01*
X90577400Y-80441113D02*
X89203400Y-80441113D01*
X87123400Y-80401113D02*
X85765400Y-80401113D01*
X90561400Y-80401113D02*
X89203400Y-80401113D01*
X87123400Y-80361113D02*
X85781400Y-80361113D01*
X90545400Y-80361113D02*
X89203400Y-80361113D01*
X87123400Y-80321113D02*
X85798400Y-80321113D01*
X90528400Y-80321113D02*
X89203400Y-80321113D01*
X87123400Y-80281113D02*
X85815400Y-80281113D01*
X90511400Y-80281113D02*
X89203400Y-80281113D01*
X87123400Y-80241113D02*
X85834400Y-80241113D01*
X90492400Y-80241113D02*
X89203400Y-80241113D01*
X87123400Y-80201113D02*
X85853400Y-80201113D01*
X90473400Y-80201113D02*
X89203400Y-80201113D01*
X87123400Y-80161113D02*
X85873400Y-80161113D01*
X90453400Y-80161113D02*
X89203400Y-80161113D01*
X87123400Y-80121113D02*
X85895400Y-80121113D01*
X90431400Y-80121113D02*
X89203400Y-80121113D01*
X87123400Y-80081113D02*
X85916400Y-80081113D01*
X90410400Y-80081113D02*
X89203400Y-80081113D01*
X87123400Y-80041113D02*
X85939400Y-80041113D01*
X90387400Y-80041113D02*
X89203400Y-80041113D01*
X87123400Y-80001113D02*
X85963400Y-80001113D01*
X90363400Y-80001113D02*
X89203400Y-80001113D01*
X87123400Y-79961113D02*
X85988400Y-79961113D01*
X90338400Y-79961113D02*
X89203400Y-79961113D01*
X87123400Y-79921113D02*
X86014400Y-79921113D01*
X90312400Y-79921113D02*
X89203400Y-79921113D01*
X87123400Y-79881113D02*
X86041400Y-79881113D01*
X90285400Y-79881113D02*
X89203400Y-79881113D01*
X87123400Y-79841113D02*
X86068400Y-79841113D01*
X90258400Y-79841113D02*
X89203400Y-79841113D01*
X87123400Y-79801113D02*
X86098400Y-79801113D01*
X90228400Y-79801113D02*
X89203400Y-79801113D01*
X87123400Y-79761113D02*
X86128400Y-79761113D01*
X90198400Y-79761113D02*
X89203400Y-79761113D01*
X87123400Y-79721113D02*
X86159400Y-79721113D01*
X90167400Y-79721113D02*
X89203400Y-79721113D01*
X87123400Y-79681113D02*
X86192400Y-79681113D01*
X90134400Y-79681113D02*
X89203400Y-79681113D01*
X87123400Y-79641113D02*
X86226400Y-79641113D01*
X90100400Y-79641113D02*
X89203400Y-79641113D01*
X87123400Y-79601113D02*
X86262400Y-79601113D01*
X90064400Y-79601113D02*
X89203400Y-79601113D01*
X87123400Y-79561113D02*
X86299400Y-79561113D01*
X90027400Y-79561113D02*
X89203400Y-79561113D01*
X87123400Y-79521113D02*
X86337400Y-79521113D01*
X89989400Y-79521113D02*
X89203400Y-79521113D01*
X87123400Y-79481113D02*
X86378400Y-79481113D01*
X89948400Y-79481113D02*
X89203400Y-79481113D01*
X87123400Y-79441113D02*
X86420400Y-79441113D01*
X89906400Y-79441113D02*
X89203400Y-79441113D01*
X87123400Y-79401113D02*
X86464400Y-79401113D01*
X89862400Y-79401113D02*
X89203400Y-79401113D01*
X87123400Y-79361113D02*
X86510400Y-79361113D01*
X89816400Y-79361113D02*
X89203400Y-79361113D01*
X87123400Y-79321113D02*
X86558400Y-79321113D01*
X89768400Y-79321113D02*
X89203400Y-79321113D01*
X87123400Y-79281113D02*
X86609400Y-79281113D01*
X89717400Y-79281113D02*
X89203400Y-79281113D01*
X87123400Y-79241113D02*
X86663400Y-79241113D01*
X89663400Y-79241113D02*
X89203400Y-79241113D01*
X87123400Y-79201113D02*
X86720400Y-79201113D01*
X89606400Y-79201113D02*
X89203400Y-79201113D01*
X87123400Y-79161113D02*
X86780400Y-79161113D01*
X89546400Y-79161113D02*
X89203400Y-79161113D01*
X87123400Y-79121113D02*
X86844400Y-79121113D01*
X89482400Y-79121113D02*
X89203400Y-79121113D01*
X87123400Y-79081113D02*
X86912400Y-79081113D01*
X89414400Y-79081113D02*
X89203400Y-79081113D01*
X89341400Y-79041113D02*
X86985400Y-79041113D01*
X89261400Y-79001113D02*
X87065400Y-79001113D01*
X89174400Y-78961113D02*
X87152400Y-78961113D01*
X89078400Y-78921113D02*
X87248400Y-78921113D01*
X88968400Y-78881113D02*
X87358400Y-78881113D01*
X88840400Y-78841113D02*
X87486400Y-78841113D01*
X88681400Y-78801113D02*
X87645400Y-78801113D01*
X88447400Y-78761113D02*
X87879400Y-78761113D01*
X90783400Y-81362113D02*
G75*
G03*
X90783400Y-81362113I-2620000J0D01*
G01*
D13*
X114503200Y-73075800D02*
X124002800Y-73075800D01*
X125664200Y-131569200D02*
G75*
G03*
X132664200Y-124569200I0J7000000D01*
G01*
X46500453Y-131569203D02*
G75*
G03*
X53500453Y-124569200I-3J7000003D01*
G01*
X33670200Y-46233544D02*
X33664200Y-39569200D01*
X33664200Y-124569200D02*
G75*
G03*
X40664200Y-131569200I7000000J0D01*
G01*
X67348843Y-73089243D02*
G75*
G03*
X69303157Y-73089243I977157J0D01*
G01*
X55786453Y-107899153D02*
G75*
G03*
X53500453Y-110185200I47J-2286047D01*
G01*
X125664200Y-32569200D02*
X40664200Y-32569200D01*
X99756200Y-107899200D02*
X55786453Y-107899200D01*
X102042200Y-110185200D02*
G75*
G03*
X99756200Y-107899200I-2286000J0D01*
G01*
X46878200Y-51313544D02*
X46878200Y-63957200D01*
X53500453Y-110185200D02*
X53500453Y-124569200D01*
X46878156Y-51313544D02*
G75*
G03*
X44592200Y-49027544I-2285956J44D01*
G01*
X69303157Y-59918600D02*
G75*
G03*
X67348843Y-59918600I-977157J0D01*
G01*
X44592200Y-66243200D02*
X36464200Y-66243200D01*
X44592200Y-66243200D02*
G75*
G03*
X46878200Y-63957200I0J2286000D01*
G01*
X44592200Y-49027544D02*
X36464200Y-49027544D01*
X102042200Y-110185200D02*
X102042200Y-124569200D01*
X36464200Y-66243200D02*
G75*
G03*
X33670200Y-69037200I0J-2794000D01*
G01*
X114503200Y-73075886D02*
G75*
G03*
X114503200Y-75030114I0J-977114D01*
G01*
X109042200Y-131569200D02*
X125664200Y-131569200D01*
X124002800Y-75030114D02*
X114503200Y-75030114D01*
X67348843Y-73089243D02*
X67348843Y-59918600D01*
X67348843Y-52439043D02*
G75*
G03*
X69303157Y-52439043I977157J0D01*
G01*
X69303157Y-39268400D02*
X69303157Y-52439043D01*
X33670200Y-69037200D02*
X33670200Y-124569200D01*
X124002800Y-75030200D02*
G75*
G03*
X124002800Y-73075800I0J977200D01*
G01*
X40664200Y-32569200D02*
G75*
G03*
X33664200Y-39569200I0J-7000000D01*
G01*
X67348843Y-39268400D02*
X67348843Y-52439043D01*
X69303157Y-59918600D02*
X69303157Y-73089243D01*
X132664200Y-39569200D02*
G75*
G03*
X125664200Y-32569200I-7000000J0D01*
G01*
X33670156Y-46233544D02*
G75*
G03*
X36464200Y-49027544I2794044J44D01*
G01*
X69303157Y-39268400D02*
G75*
G03*
X67348843Y-39268400I-977157J0D01*
G01*
X40664200Y-131569200D02*
X46500453Y-131569200D01*
X102042200Y-124569200D02*
G75*
G03*
X109042200Y-131569200I7000000J0D01*
G01*
X132664200Y-124569200D02*
X132664200Y-39569200D01*
M02*
