M48
METRIC,TZ
T1C0.400
T2C0.500
T3C0.800
T4C0.950
T5C1.000
T6C1.100
T7C1.200
T8C1.300
T9C1.397
T10C3.200
%
G90
G05
T1
X36982Y-69545
X36982Y-72187
X36982Y-79807
X37033Y-120167
X37440Y-92812
X37440Y-95352
X37440Y-97892
X37770Y-45796
X38075Y-89662
X39827Y-69545
X41808Y-89535
X41808Y-92075
X41808Y-94615
X41808Y-97155
X41808Y-99695
X41935Y-45898
X42367Y-69545
X44145Y-84074
X44272Y-88341
X44526Y-94640
X44526Y-97053
X44780Y-91084
X44907Y-69545
X44958Y-100635
X45517Y-86131
X46050Y-44120
X46685Y-84074
X46736Y-98755
X47066Y-41554
X47193Y-128041
X47219Y-120167
X47219Y-122707
X47219Y-125247
X47269Y-105816
X47447Y-69545
X47523Y-94056
X47752Y-89052
X47828Y-36525
X47828Y-39065
X48565Y-86208
X48895Y-91821
X48895Y-96596
X48997Y-104521
X49606Y-84099
X49759Y-121285
X49759Y-123825
X49759Y-126365
X50368Y-37795
X50368Y-40335
X50368Y-47955
X50368Y-50495
X50368Y-53035
X50368Y-55575
X50368Y-58115
X50368Y-67234
X50775Y-102641
X50800Y-117754
X50825Y-109880
X50825Y-112420
X50825Y-114960
X51232Y-106705
X51486Y-95377
X51841Y-84734
X51918Y-86589
X53086Y-39065
X53238Y-104953
X54077Y-95758
X54356Y-102591
X54650Y-97790
X55778Y-104953
X56134Y-84709
X57099Y-102819
X58318Y-104953
X59334Y-84734
X59614Y-102845
X60858Y-104953
X61951Y-68961
X62001Y-86004
X62154Y-102895
X62560Y-95836
X63398Y-104953
X63856Y-93726
X63881Y-72923
X63881Y-75463
X63906Y-39522
X63906Y-42062
X63906Y-44602
X63906Y-47142
X63906Y-49682
X63906Y-52222
X63906Y-54762
X63906Y-57302
X63906Y-59842
X63906Y-62560
X63906Y-65100
X63906Y-67640
X63906Y-70180
X64694Y-102895
X64719Y-78562
X65430Y-92634
X65888Y-80645
X65938Y-104953
X67234Y-102895
X67259Y-78562
X68428Y-80645
X68478Y-104953
X69774Y-102895
X69799Y-78562
X70104Y-98247
X71196Y-104953
X71501Y-80645
X72111Y-100254
X72365Y-102895
X73101Y-36551
X73101Y-39091
X73101Y-41631
X73101Y-44171
X73101Y-46711
X73101Y-49251
X73101Y-51791
X73101Y-54331
X73101Y-56871
X73101Y-59411
X73101Y-61951
X73101Y-64491
X73152Y-90424
X73330Y-93675
X73736Y-104953
X73762Y-79680
X74854Y-55702
X74905Y-102895
X75286Y-85217
X75362Y-50495
X75413Y-91618
X75590Y-57480
X75692Y-62967
X75997Y-95682
X76098Y-38125
X76098Y-40665
X76098Y-43205
X76124Y-46101
X76276Y-104953
X77445Y-102895
X78359Y-94894
X78613Y-55702
X78638Y-36855
X78638Y-39395
X78638Y-41935
X78638Y-45415
X78816Y-104953
X79324Y-90856
X79705Y-93396
X79985Y-65888
X79985Y-102895
X80467Y-81432
X80569Y-58420
X81356Y-104953
X81407Y-94564
X81458Y-86081
X82118Y-65049
X82525Y-102895
X82626Y-48641
X82779Y-58090
X83007Y-81458
X83007Y-88341
X83642Y-60376
X83896Y-104953
X83922Y-46812
X83947Y-94564
X84099Y-90805
X84760Y-86335
X85065Y-102895
X85166Y-82931
X85319Y-48641
X85750Y-50521
X86258Y-58522
X86436Y-104953
X86487Y-94564
X87071Y-78334
X87605Y-102895
X88520Y-62966
X88595Y-87909
X88595Y-89738
X88646Y-69875
X88849Y-36525
X88849Y-39065
X88849Y-41605
X88849Y-44145
X88976Y-104953
X89611Y-78334
X90145Y-102895
X90272Y-96114
X90449Y-90827
X90983Y-37897
X90983Y-40437
X90983Y-42977
X90983Y-45517
X91338Y-80416
X91491Y-84379
X91516Y-104953
X92151Y-78334
X92786Y-35585
X92939Y-102870
X93320Y-85801
X93345Y-44120
X93472Y-55575
X93650Y-46838
X94056Y-104953
X94590Y-79680
X94971Y-93548
X95098Y-57429
X95250Y-48819
X95504Y-102870
X96317Y-95783
X96571Y-46736
X96774Y-104953
X97130Y-51714
X97790Y-48819
X97866Y-35306
X98146Y-102870
X98679Y-97841
X98730Y-53696
X98847Y-90637
X98984Y-95301
X99111Y-46736
X99314Y-104953
X100330Y-48819
X100355Y-55550
X100457Y-59004
X100686Y-102870
X100711Y-65786
X100787Y-35966
X101143Y-96596
X101143Y-99365
X101270Y-81432
X101549Y-86157
X101651Y-46736
X101854Y-104953
X102235Y-89027
X102946Y-65024
X103226Y-102870
X103353Y-57048
X103480Y-90703
X103810Y-81483
X104013Y-96622
X104394Y-104953
X104546Y-60376
X105766Y-102870
X105918Y-108585
X107163Y-104953
X107239Y-58496
X107264Y-48285
X107290Y-51029
X107306Y-91846
X108026Y-111455
X108026Y-114198
X108026Y-116738
X108026Y-119278
X108026Y-121818
X108026Y-124358
X108026Y-126898
X108737Y-94361
X108763Y-102870
X108772Y-86986
X109398Y-78562
X109652Y-69850
X109931Y-49454
X110846Y-80924
X110895Y-62255
X111074Y-51257
X111506Y-110185
X111506Y-112928
X111506Y-115468
X111506Y-118008
X111506Y-120548
X111506Y-123088
X111506Y-125628
X111938Y-78562
X112100Y-91532
X112471Y-49454
X113817Y-84734
X113894Y-51892
X113944Y-57175
X113970Y-86589
X114427Y-78562
X114732Y-89256
X114783Y-59157
X114783Y-121463
X114783Y-124003
X114783Y-126543
X114986Y-54762
X115011Y-36881
X115011Y-39243
X115011Y-41707
X115011Y-44018
X115011Y-49454
X115621Y-109525
X116408Y-69342
X116484Y-57175
X116967Y-78562
X117196Y-118008
X117323Y-59157
X117551Y-36881
X117551Y-39243
X117551Y-41707
X117551Y-44018
X117551Y-83769
X117551Y-123190
X117551Y-125730
X117551Y-128270
X118948Y-69342
X119126Y-57175
X119126Y-93675
X119278Y-84760
X119355Y-90043
X119507Y-78562
X119685Y-100203
X119736Y-118008
X119863Y-59157
X120091Y-36881
X120091Y-39243
X120091Y-41707
X120269Y-67005
X120879Y-111074
X120879Y-112979
X121056Y-107950
X121488Y-69342
X121666Y-57175
X122276Y-118008
X122403Y-59157
X122453Y-100203
X122809Y-67005
X124028Y-69342
X124206Y-57175
X124816Y-118008
X125882Y-67005
X126314Y-45745
X126314Y-48362
X126340Y-51054
X126594Y-109626
X126746Y-57175
X127102Y-69342
X127381Y-54610
X128422Y-67005
X128854Y-45745
X128854Y-48362
X128854Y-109779
X128854Y-112319
X128854Y-114859
X128854Y-117399
X128854Y-119939
X128880Y-51054
X129286Y-57175
X129642Y-69342
T2
X38264Y-39569
X38264Y-124569
X38967Y-37872
X38967Y-41266
X38967Y-122872
X38967Y-126266
X40664Y-37169
X40664Y-41969
X40664Y-122169
X40664Y-126969
X42361Y-37872
X42361Y-41266
X42361Y-122872
X42361Y-126266
X43064Y-39569
X43064Y-124569
X123264Y-39569
X123264Y-124569
X123967Y-37872
X123967Y-41266
X123967Y-122872
X123967Y-126266
X125664Y-37169
X125664Y-41969
X125664Y-122169
X125664Y-126969
X127361Y-37872
X127361Y-41266
X127361Y-122872
X127361Y-126266
X128064Y-39569
X128064Y-124569
T3
X57760Y-86309
X57760Y-88849
X57760Y-91389
X66421Y-84927
X66421Y-87427
X76800Y-52045
X79340Y-52045
X81880Y-52045
X87173Y-52070
X88163Y-80112
X88163Y-82612
X89651Y-59334
X89713Y-52070
X92151Y-59334
X92151Y-66091
X92151Y-68591
X92253Y-52070
X94082Y-39980
X97582Y-39980
X106147Y-99187
X107366Y-79974
X107366Y-82474
X108647Y-99187
X110225Y-54508
X112725Y-54508
X114579Y-65176
X114579Y-67676
X118389Y-96418
X118389Y-104038
X118556Y-107950
X120929Y-96418
X120929Y-104038
X123469Y-96418
X123469Y-104038
X123556Y-107950
X124821Y-79703
X124821Y-82243
X124821Y-84783
T4
X106034Y-43383
X108534Y-43383
X111034Y-43383
T5
X37480Y-86030
X39980Y-86030
X42164Y-73731
X42164Y-78731
X44338Y-113487
X44338Y-115987
X49677Y-44145
X52217Y-44145
X54848Y-51816
X54940Y-62713
X54940Y-65253
X54940Y-67793
X54940Y-72873
X54940Y-75413
X54940Y-77953
X54940Y-80493
X57566Y-43383
X59848Y-51816
X60066Y-43383
X82646Y-43383
X85146Y-43383
X121914Y-47213
X121914Y-49713
X121950Y-54686
X124490Y-54686
X126213Y-61189
X126213Y-63689
T6
X44287Y-108382
X48097Y-108382
T7
X39599Y-103446
X39599Y-108526
T8
X113640Y-101092
X113640Y-106172
X128194Y-101092
X128194Y-106172
T9
X118520Y-114440
X123520Y-114440
T10
X40664Y-39569
X40664Y-124569
X125664Y-39569
X125664Y-124569
T0
M30
