G04 #@! TF.GenerationSoftware,KiCad,Pcbnew,7.0.7+dfsg-1*
G04 #@! TF.CreationDate,2024-09-28T12:18:31+02:00*
G04 #@! TF.ProjectId,evo-cube-sensor,65766f2d-6375-4626-952d-73656e736f72,rev?*
G04 #@! TF.SameCoordinates,Original*
G04 #@! TF.FileFunction,Soldermask,Bot*
G04 #@! TF.FilePolarity,Negative*
%FSLAX46Y46*%
G04 Gerber Fmt 4.6, Leading zero omitted, Abs format (unit mm)*
G04 Created by KiCad (PCBNEW 7.0.7+dfsg-1) date 2024-09-28 12:18:31*
%MOMM*%
%LPD*%
G01*
G04 APERTURE LIST*
G04 Aperture macros list*
%AMRoundRect*
0 Rectangle with rounded corners*
0 $1 Rounding radius*
0 $2 $3 $4 $5 $6 $7 $8 $9 X,Y pos of 4 corners*
0 Add a 4 corners polygon primitive as box body*
4,1,4,$2,$3,$4,$5,$6,$7,$8,$9,$2,$3,0*
0 Add four circle primitives for the rounded corners*
1,1,$1+$1,$2,$3*
1,1,$1+$1,$4,$5*
1,1,$1+$1,$6,$7*
1,1,$1+$1,$8,$9*
0 Add four rect primitives between the rounded corners*
20,1,$1+$1,$2,$3,$4,$5,0*
20,1,$1+$1,$4,$5,$6,$7,0*
20,1,$1+$1,$6,$7,$8,$9,0*
20,1,$1+$1,$8,$9,$2,$3,0*%
G04 Aperture macros list end*
%ADD10R,1.700000X1.700000*%
%ADD11O,1.700000X1.700000*%
%ADD12RoundRect,0.250000X0.600000X0.725000X-0.600000X0.725000X-0.600000X-0.725000X0.600000X-0.725000X0*%
%ADD13O,1.700000X1.950000*%
%ADD14R,1.600000X1.600000*%
%ADD15C,1.600000*%
%ADD16RoundRect,0.250000X0.750000X-0.600000X0.750000X0.600000X-0.750000X0.600000X-0.750000X-0.600000X0*%
%ADD17O,2.000000X1.700000*%
%ADD18C,1.440000*%
%ADD19C,1.905000*%
%ADD20C,2.400000*%
%ADD21O,2.400000X2.400000*%
%ADD22R,2.200000X2.200000*%
%ADD23O,2.200000X2.200000*%
%ADD24C,0.800000*%
%ADD25C,6.400000*%
%ADD26R,1.500000X1.500000*%
%ADD27C,1.500000*%
%ADD28R,1.600000X2.400000*%
%ADD29O,1.600000X2.400000*%
%ADD30R,2.600000X2.600000*%
%ADD31O,2.600000X2.600000*%
%ADD32RoundRect,0.250000X0.600000X0.750000X-0.600000X0.750000X-0.600000X-0.750000X0.600000X-0.750000X0*%
%ADD33O,1.700000X2.000000*%
%ADD34R,2.000000X2.000000*%
%ADD35C,2.000000*%
%ADD36RoundRect,0.250000X-0.750000X0.600000X-0.750000X-0.600000X0.750000X-0.600000X0.750000X0.600000X0*%
G04 #@! TA.AperFunction,Profile*
%ADD37C,0.100000*%
G04 #@! TD*
G04 APERTURE END LIST*
D10*
X49677400Y-44145200D03*
D11*
X52217400Y-44145200D03*
D12*
X111034200Y-43383200D03*
D13*
X108534200Y-43383200D03*
X106034200Y-43383200D03*
D14*
X114579400Y-65176400D03*
D15*
X114579400Y-67676400D03*
X123556400Y-107950000D03*
X118556400Y-107950000D03*
D16*
X121914200Y-49713200D03*
D17*
X121914200Y-47213200D03*
D18*
X81879600Y-52044600D03*
X79339600Y-52044600D03*
X76799600Y-52044600D03*
D14*
X110224688Y-54508400D03*
D15*
X112724688Y-54508400D03*
D19*
X118520200Y-114439700D03*
X123520200Y-114439700D03*
D18*
X57759600Y-91389200D03*
X57759600Y-88849200D03*
X57759600Y-86309200D03*
D20*
X39598600Y-103445800D03*
D21*
X39598600Y-108525800D03*
D22*
X44286817Y-108381800D03*
D23*
X48096817Y-108381800D03*
D16*
X126212600Y-63688600D03*
D17*
X126212600Y-61188600D03*
D14*
X97581600Y-39979600D03*
D15*
X94081600Y-39979600D03*
D10*
X124490400Y-54686200D03*
D11*
X121950400Y-54686200D03*
D14*
X66421000Y-87426800D03*
D15*
X66421000Y-84926800D03*
D24*
X123264200Y-124569200D03*
X123967144Y-122872144D03*
X123967144Y-126266256D03*
X125664200Y-122169200D03*
D25*
X125664200Y-124569200D03*
D24*
X125664200Y-126969200D03*
X127361256Y-122872144D03*
X127361256Y-126266256D03*
X128064200Y-124569200D03*
D26*
X54940200Y-62712600D03*
D27*
X54940200Y-65252600D03*
X54940200Y-67792600D03*
X54940200Y-72872600D03*
X54940200Y-75412600D03*
X54940200Y-77952600D03*
X54940200Y-80492600D03*
D24*
X38264200Y-39569200D03*
X38967144Y-37872144D03*
X38967144Y-41266256D03*
X40664200Y-37169200D03*
D25*
X40664200Y-39569200D03*
D24*
X40664200Y-41969200D03*
X42361256Y-37872144D03*
X42361256Y-41266256D03*
X43064200Y-39569200D03*
D14*
X108647113Y-99187000D03*
D15*
X106147113Y-99187000D03*
D18*
X124820500Y-84782750D03*
X124820500Y-82242750D03*
X124820500Y-79702750D03*
D28*
X118389400Y-104038400D03*
D29*
X120929400Y-104038400D03*
X123469400Y-104038400D03*
X123469400Y-96418400D03*
X120929400Y-96418400D03*
X118389400Y-96418400D03*
D18*
X92252800Y-52070000D03*
X89712800Y-52070000D03*
X87172800Y-52070000D03*
D30*
X113639600Y-106172000D03*
D31*
X113639600Y-101092000D03*
D32*
X39979600Y-86029800D03*
D33*
X37479600Y-86029800D03*
D34*
X59847877Y-51816000D03*
D35*
X54847877Y-51816000D03*
D14*
X89650688Y-59334400D03*
D15*
X92150688Y-59334400D03*
D32*
X60066200Y-43383200D03*
D33*
X57566200Y-43383200D03*
D24*
X38264200Y-124569200D03*
X38967144Y-122872144D03*
X38967144Y-126266256D03*
X40664200Y-122169200D03*
D25*
X40664200Y-124569200D03*
D24*
X40664200Y-126969200D03*
X42361256Y-122872144D03*
X42361256Y-126266256D03*
X43064200Y-124569200D03*
D34*
X42164000Y-73730723D03*
D35*
X42164000Y-78730723D03*
D24*
X123264200Y-39569200D03*
X123967144Y-37872144D03*
X123967144Y-41266256D03*
X125664200Y-37169200D03*
D25*
X125664200Y-39569200D03*
D24*
X125664200Y-41969200D03*
X127361256Y-37872144D03*
X127361256Y-41266256D03*
X128064200Y-39569200D03*
D30*
X128193800Y-106172000D03*
D31*
X128193800Y-101092000D03*
D32*
X85146200Y-43383200D03*
D33*
X82646200Y-43383200D03*
D36*
X44338200Y-113487200D03*
D17*
X44338200Y-115987200D03*
D14*
X92151200Y-66090800D03*
D15*
X92151200Y-68590800D03*
D14*
X107365800Y-82473800D03*
D15*
X107365800Y-79973800D03*
D14*
X88163400Y-82612113D03*
D15*
X88163400Y-80112113D03*
D37*
X114503200Y-73075800D02*
X124002800Y-73075800D01*
X125664200Y-131569200D02*
G75*
G03*
X132664200Y-124569200I0J7000000D01*
G01*
X46500453Y-131569203D02*
G75*
G03*
X53500453Y-124569200I-3J7000003D01*
G01*
X33670200Y-46233544D02*
X33664200Y-39569200D01*
X33664200Y-124569200D02*
G75*
G03*
X40664200Y-131569200I7000000J0D01*
G01*
X67348843Y-73089243D02*
G75*
G03*
X69303157Y-73089243I977157J0D01*
G01*
X55786453Y-107899153D02*
G75*
G03*
X53500453Y-110185200I47J-2286047D01*
G01*
X125664200Y-32569200D02*
X40664200Y-32569200D01*
X99756200Y-107899200D02*
X55786453Y-107899200D01*
X102042200Y-110185200D02*
G75*
G03*
X99756200Y-107899200I-2286000J0D01*
G01*
X46878200Y-51313544D02*
X46878200Y-63957200D01*
X53500453Y-110185200D02*
X53500453Y-124569200D01*
X46878156Y-51313544D02*
G75*
G03*
X44592200Y-49027544I-2285956J44D01*
G01*
X69303157Y-59918600D02*
G75*
G03*
X67348843Y-59918600I-977157J0D01*
G01*
X44592200Y-66243200D02*
X36464200Y-66243200D01*
X44592200Y-66243200D02*
G75*
G03*
X46878200Y-63957200I0J2286000D01*
G01*
X44592200Y-49027544D02*
X36464200Y-49027544D01*
X102042200Y-110185200D02*
X102042200Y-124569200D01*
X36464200Y-66243200D02*
G75*
G03*
X33670200Y-69037200I0J-2794000D01*
G01*
X114503200Y-73075886D02*
G75*
G03*
X114503200Y-75030114I0J-977114D01*
G01*
X109042200Y-131569200D02*
X125664200Y-131569200D01*
X124002800Y-75030114D02*
X114503200Y-75030114D01*
X67348843Y-73089243D02*
X67348843Y-59918600D01*
X67348843Y-52439043D02*
G75*
G03*
X69303157Y-52439043I977157J0D01*
G01*
X69303157Y-39268400D02*
X69303157Y-52439043D01*
X33670200Y-69037200D02*
X33670200Y-124569200D01*
X124002800Y-75030200D02*
G75*
G03*
X124002800Y-73075800I0J977200D01*
G01*
X40664200Y-32569200D02*
G75*
G03*
X33664200Y-39569200I0J-7000000D01*
G01*
X67348843Y-39268400D02*
X67348843Y-52439043D01*
X69303157Y-59918600D02*
X69303157Y-73089243D01*
X132664200Y-39569200D02*
G75*
G03*
X125664200Y-32569200I-7000000J0D01*
G01*
X33670156Y-46233544D02*
G75*
G03*
X36464200Y-49027544I2794044J44D01*
G01*
X69303157Y-39268400D02*
G75*
G03*
X67348843Y-39268400I-977157J0D01*
G01*
X40664200Y-131569200D02*
X46500453Y-131569200D01*
X102042200Y-124569200D02*
G75*
G03*
X109042200Y-131569200I7000000J0D01*
G01*
X132664200Y-124569200D02*
X132664200Y-39569200D01*
M02*
