G04 #@! TF.GenerationSoftware,KiCad,Pcbnew,7.0.7+dfsg-1*
G04 #@! TF.CreationDate,2024-09-08T18:38:53+02:00*
G04 #@! TF.ProjectId,evo-cube-pulseboard,65766f2d-6375-4626-952d-70756c736562,rev?*
G04 #@! TF.SameCoordinates,Original*
G04 #@! TF.FileFunction,Legend,Top*
G04 #@! TF.FilePolarity,Positive*
%FSLAX46Y46*%
G04 Gerber Fmt 4.6, Leading zero omitted, Abs format (unit mm)*
G04 Created by KiCad (PCBNEW 7.0.7+dfsg-1) date 2024-09-08 18:38:53*
%MOMM*%
%LPD*%
G01*
G04 APERTURE LIST*
%ADD10C,0.150000*%
%ADD11C,0.250000*%
%ADD12C,0.200000*%
%ADD13C,0.254000*%
%ADD14C,0.120000*%
%ADD15C,0.152400*%
%ADD16C,0.508000*%
%ADD17C,0.100000*%
G04 #@! TA.AperFunction,Profile*
%ADD18C,0.100000*%
G04 #@! TD*
G04 APERTURE END LIST*
D10*
X90335100Y-99136200D02*
X95846900Y-99136200D01*
X95846900Y-109423200D01*
X90335100Y-109423200D01*
X90335100Y-99136200D01*
X72514850Y-83546800D02*
X75893050Y-83546800D01*
X76731250Y-78365200D02*
X77747250Y-81311600D01*
X82458950Y-83546800D02*
X85837150Y-83546800D01*
X77747250Y-81311600D02*
X80236450Y-81311600D01*
X75893050Y-83546800D02*
X76731250Y-78365200D01*
X66444250Y-83546800D02*
X72514850Y-83546800D01*
X80236450Y-81311600D02*
X82458950Y-83546800D01*
X41500132Y-39906533D02*
X40738228Y-39906533D01*
X39928704Y-40049390D02*
X40262037Y-40049390D01*
X40262037Y-39525580D02*
X40262037Y-40525580D01*
X40262037Y-40525580D02*
X39785847Y-40525580D01*
X38976323Y-39525580D02*
X38976323Y-40049390D01*
X38976323Y-40049390D02*
X39023942Y-40144628D01*
X39023942Y-40144628D02*
X39119180Y-40192247D01*
X39119180Y-40192247D02*
X39309656Y-40192247D01*
X39309656Y-40192247D02*
X39404894Y-40144628D01*
X38976323Y-39573200D02*
X39071561Y-39525580D01*
X39071561Y-39525580D02*
X39309656Y-39525580D01*
X39309656Y-39525580D02*
X39404894Y-39573200D01*
X39404894Y-39573200D02*
X39452513Y-39668438D01*
X39452513Y-39668438D02*
X39452513Y-39763676D01*
X39452513Y-39763676D02*
X39404894Y-39858914D01*
X39404894Y-39858914D02*
X39309656Y-39906533D01*
X39309656Y-39906533D02*
X39071561Y-39906533D01*
X39071561Y-39906533D02*
X38976323Y-39954152D01*
X38500132Y-40192247D02*
X38500132Y-39525580D01*
X38500132Y-40097009D02*
X38452513Y-40144628D01*
X38452513Y-40144628D02*
X38357275Y-40192247D01*
X38357275Y-40192247D02*
X38214418Y-40192247D01*
X38214418Y-40192247D02*
X38119180Y-40144628D01*
X38119180Y-40144628D02*
X38071561Y-40049390D01*
X38071561Y-40049390D02*
X38071561Y-39525580D01*
X37595370Y-39906533D02*
X36833466Y-39906533D01*
X37214418Y-39525580D02*
X37214418Y-40287485D01*
D11*
X45174815Y-85071228D02*
X45174815Y-83571228D01*
X45174815Y-83571228D02*
X45746244Y-83571228D01*
X45746244Y-83571228D02*
X45889101Y-83642657D01*
X45889101Y-83642657D02*
X45960530Y-83714085D01*
X45960530Y-83714085D02*
X46031958Y-83856942D01*
X46031958Y-83856942D02*
X46031958Y-84071228D01*
X46031958Y-84071228D02*
X45960530Y-84214085D01*
X45960530Y-84214085D02*
X45889101Y-84285514D01*
X45889101Y-84285514D02*
X45746244Y-84356942D01*
X45746244Y-84356942D02*
X45174815Y-84356942D01*
X47317673Y-84071228D02*
X47317673Y-85071228D01*
X46674815Y-84071228D02*
X46674815Y-84856942D01*
X46674815Y-84856942D02*
X46746244Y-84999800D01*
X46746244Y-84999800D02*
X46889101Y-85071228D01*
X46889101Y-85071228D02*
X47103387Y-85071228D01*
X47103387Y-85071228D02*
X47246244Y-84999800D01*
X47246244Y-84999800D02*
X47317673Y-84928371D01*
X48246244Y-85071228D02*
X48103387Y-84999800D01*
X48103387Y-84999800D02*
X48031958Y-84856942D01*
X48031958Y-84856942D02*
X48031958Y-83571228D01*
X48746244Y-84999800D02*
X48889101Y-85071228D01*
X48889101Y-85071228D02*
X49174815Y-85071228D01*
X49174815Y-85071228D02*
X49317672Y-84999800D01*
X49317672Y-84999800D02*
X49389101Y-84856942D01*
X49389101Y-84856942D02*
X49389101Y-84785514D01*
X49389101Y-84785514D02*
X49317672Y-84642657D01*
X49317672Y-84642657D02*
X49174815Y-84571228D01*
X49174815Y-84571228D02*
X48960530Y-84571228D01*
X48960530Y-84571228D02*
X48817672Y-84499800D01*
X48817672Y-84499800D02*
X48746244Y-84356942D01*
X48746244Y-84356942D02*
X48746244Y-84285514D01*
X48746244Y-84285514D02*
X48817672Y-84142657D01*
X48817672Y-84142657D02*
X48960530Y-84071228D01*
X48960530Y-84071228D02*
X49174815Y-84071228D01*
X49174815Y-84071228D02*
X49317672Y-84142657D01*
X50603387Y-84999800D02*
X50460530Y-85071228D01*
X50460530Y-85071228D02*
X50174816Y-85071228D01*
X50174816Y-85071228D02*
X50031958Y-84999800D01*
X50031958Y-84999800D02*
X49960530Y-84856942D01*
X49960530Y-84856942D02*
X49960530Y-84285514D01*
X49960530Y-84285514D02*
X50031958Y-84142657D01*
X50031958Y-84142657D02*
X50174816Y-84071228D01*
X50174816Y-84071228D02*
X50460530Y-84071228D01*
X50460530Y-84071228D02*
X50603387Y-84142657D01*
X50603387Y-84142657D02*
X50674816Y-84285514D01*
X50674816Y-84285514D02*
X50674816Y-84428371D01*
X50674816Y-84428371D02*
X49960530Y-84571228D01*
X51317672Y-85071228D02*
X51317672Y-83571228D01*
X51317672Y-84142657D02*
X51460530Y-84071228D01*
X51460530Y-84071228D02*
X51746244Y-84071228D01*
X51746244Y-84071228D02*
X51889101Y-84142657D01*
X51889101Y-84142657D02*
X51960530Y-84214085D01*
X51960530Y-84214085D02*
X52031958Y-84356942D01*
X52031958Y-84356942D02*
X52031958Y-84785514D01*
X52031958Y-84785514D02*
X51960530Y-84928371D01*
X51960530Y-84928371D02*
X51889101Y-84999800D01*
X51889101Y-84999800D02*
X51746244Y-85071228D01*
X51746244Y-85071228D02*
X51460530Y-85071228D01*
X51460530Y-85071228D02*
X51317672Y-84999800D01*
X52889101Y-85071228D02*
X52746244Y-84999800D01*
X52746244Y-84999800D02*
X52674815Y-84928371D01*
X52674815Y-84928371D02*
X52603387Y-84785514D01*
X52603387Y-84785514D02*
X52603387Y-84356942D01*
X52603387Y-84356942D02*
X52674815Y-84214085D01*
X52674815Y-84214085D02*
X52746244Y-84142657D01*
X52746244Y-84142657D02*
X52889101Y-84071228D01*
X52889101Y-84071228D02*
X53103387Y-84071228D01*
X53103387Y-84071228D02*
X53246244Y-84142657D01*
X53246244Y-84142657D02*
X53317673Y-84214085D01*
X53317673Y-84214085D02*
X53389101Y-84356942D01*
X53389101Y-84356942D02*
X53389101Y-84785514D01*
X53389101Y-84785514D02*
X53317673Y-84928371D01*
X53317673Y-84928371D02*
X53246244Y-84999800D01*
X53246244Y-84999800D02*
X53103387Y-85071228D01*
X53103387Y-85071228D02*
X52889101Y-85071228D01*
X54674816Y-85071228D02*
X54674816Y-84285514D01*
X54674816Y-84285514D02*
X54603387Y-84142657D01*
X54603387Y-84142657D02*
X54460530Y-84071228D01*
X54460530Y-84071228D02*
X54174816Y-84071228D01*
X54174816Y-84071228D02*
X54031958Y-84142657D01*
X54674816Y-84999800D02*
X54531958Y-85071228D01*
X54531958Y-85071228D02*
X54174816Y-85071228D01*
X54174816Y-85071228D02*
X54031958Y-84999800D01*
X54031958Y-84999800D02*
X53960530Y-84856942D01*
X53960530Y-84856942D02*
X53960530Y-84714085D01*
X53960530Y-84714085D02*
X54031958Y-84571228D01*
X54031958Y-84571228D02*
X54174816Y-84499800D01*
X54174816Y-84499800D02*
X54531958Y-84499800D01*
X54531958Y-84499800D02*
X54674816Y-84428371D01*
X55389101Y-85071228D02*
X55389101Y-84071228D01*
X55389101Y-84356942D02*
X55460530Y-84214085D01*
X55460530Y-84214085D02*
X55531959Y-84142657D01*
X55531959Y-84142657D02*
X55674816Y-84071228D01*
X55674816Y-84071228D02*
X55817673Y-84071228D01*
X56960530Y-85071228D02*
X56960530Y-83571228D01*
X56960530Y-84999800D02*
X56817672Y-85071228D01*
X56817672Y-85071228D02*
X56531958Y-85071228D01*
X56531958Y-85071228D02*
X56389101Y-84999800D01*
X56389101Y-84999800D02*
X56317672Y-84928371D01*
X56317672Y-84928371D02*
X56246244Y-84785514D01*
X56246244Y-84785514D02*
X56246244Y-84356942D01*
X56246244Y-84356942D02*
X56317672Y-84214085D01*
X56317672Y-84214085D02*
X56389101Y-84142657D01*
X56389101Y-84142657D02*
X56531958Y-84071228D01*
X56531958Y-84071228D02*
X56817672Y-84071228D01*
X56817672Y-84071228D02*
X56960530Y-84142657D01*
X58817672Y-84285514D02*
X59317672Y-84285514D01*
X59531958Y-85071228D02*
X58817672Y-85071228D01*
X58817672Y-85071228D02*
X58817672Y-83571228D01*
X58817672Y-83571228D02*
X59531958Y-83571228D01*
X59960530Y-83571228D02*
X60460530Y-85071228D01*
X60460530Y-85071228D02*
X60960530Y-83571228D01*
X61746244Y-83571228D02*
X62031958Y-83571228D01*
X62031958Y-83571228D02*
X62174815Y-83642657D01*
X62174815Y-83642657D02*
X62317672Y-83785514D01*
X62317672Y-83785514D02*
X62389101Y-84071228D01*
X62389101Y-84071228D02*
X62389101Y-84571228D01*
X62389101Y-84571228D02*
X62317672Y-84856942D01*
X62317672Y-84856942D02*
X62174815Y-84999800D01*
X62174815Y-84999800D02*
X62031958Y-85071228D01*
X62031958Y-85071228D02*
X61746244Y-85071228D01*
X61746244Y-85071228D02*
X61603387Y-84999800D01*
X61603387Y-84999800D02*
X61460529Y-84856942D01*
X61460529Y-84856942D02*
X61389101Y-84571228D01*
X61389101Y-84571228D02*
X61389101Y-84071228D01*
X61389101Y-84071228D02*
X61460529Y-83785514D01*
X61460529Y-83785514D02*
X61603387Y-83642657D01*
X61603387Y-83642657D02*
X61746244Y-83571228D01*
X62960530Y-83214085D02*
X63103387Y-83142657D01*
X63103387Y-83142657D02*
X63317673Y-83142657D01*
X63317673Y-83142657D02*
X63460530Y-83214085D01*
X63460530Y-83214085D02*
X63531958Y-83356942D01*
X63531958Y-83356942D02*
X63531958Y-83499800D01*
X63531958Y-83499800D02*
X63460530Y-83642657D01*
X63460530Y-83642657D02*
X62960530Y-84142657D01*
X62960530Y-84142657D02*
X63531958Y-84142657D01*
D10*
X60067819Y-48177220D02*
X59067819Y-48177220D01*
X59067819Y-48177220D02*
X60067819Y-47605792D01*
X60067819Y-47605792D02*
X59067819Y-47605792D01*
X60067819Y-47129601D02*
X59067819Y-47129601D01*
X59067819Y-47129601D02*
X59067819Y-46748649D01*
X59067819Y-46748649D02*
X59115438Y-46653411D01*
X59115438Y-46653411D02*
X59163057Y-46605792D01*
X59163057Y-46605792D02*
X59258295Y-46558173D01*
X59258295Y-46558173D02*
X59401152Y-46558173D01*
X59401152Y-46558173D02*
X59496390Y-46605792D01*
X59496390Y-46605792D02*
X59544009Y-46653411D01*
X59544009Y-46653411D02*
X59591628Y-46748649D01*
X59591628Y-46748649D02*
X59591628Y-47129601D01*
X60067819Y-46129601D02*
X59067819Y-46129601D01*
X59067819Y-46129601D02*
X60067819Y-45558173D01*
X60067819Y-45558173D02*
X59067819Y-45558173D01*
X49853620Y-39728733D02*
X49091716Y-39728733D01*
X48663144Y-39395400D02*
X48520287Y-39347780D01*
X48520287Y-39347780D02*
X48282192Y-39347780D01*
X48282192Y-39347780D02*
X48186954Y-39395400D01*
X48186954Y-39395400D02*
X48139335Y-39443019D01*
X48139335Y-39443019D02*
X48091716Y-39538257D01*
X48091716Y-39538257D02*
X48091716Y-39633495D01*
X48091716Y-39633495D02*
X48139335Y-39728733D01*
X48139335Y-39728733D02*
X48186954Y-39776352D01*
X48186954Y-39776352D02*
X48282192Y-39823971D01*
X48282192Y-39823971D02*
X48472668Y-39871590D01*
X48472668Y-39871590D02*
X48567906Y-39919209D01*
X48567906Y-39919209D02*
X48615525Y-39966828D01*
X48615525Y-39966828D02*
X48663144Y-40062066D01*
X48663144Y-40062066D02*
X48663144Y-40157304D01*
X48663144Y-40157304D02*
X48615525Y-40252542D01*
X48615525Y-40252542D02*
X48567906Y-40300161D01*
X48567906Y-40300161D02*
X48472668Y-40347780D01*
X48472668Y-40347780D02*
X48234573Y-40347780D01*
X48234573Y-40347780D02*
X48091716Y-40300161D01*
X47329811Y-39871590D02*
X47186954Y-39823971D01*
X47186954Y-39823971D02*
X47139335Y-39776352D01*
X47139335Y-39776352D02*
X47091716Y-39681114D01*
X47091716Y-39681114D02*
X47091716Y-39538257D01*
X47091716Y-39538257D02*
X47139335Y-39443019D01*
X47139335Y-39443019D02*
X47186954Y-39395400D01*
X47186954Y-39395400D02*
X47282192Y-39347780D01*
X47282192Y-39347780D02*
X47663144Y-39347780D01*
X47663144Y-39347780D02*
X47663144Y-40347780D01*
X47663144Y-40347780D02*
X47329811Y-40347780D01*
X47329811Y-40347780D02*
X47234573Y-40300161D01*
X47234573Y-40300161D02*
X47186954Y-40252542D01*
X47186954Y-40252542D02*
X47139335Y-40157304D01*
X47139335Y-40157304D02*
X47139335Y-40062066D01*
X47139335Y-40062066D02*
X47186954Y-39966828D01*
X47186954Y-39966828D02*
X47234573Y-39919209D01*
X47234573Y-39919209D02*
X47329811Y-39871590D01*
X47329811Y-39871590D02*
X47663144Y-39871590D01*
X46663144Y-39728733D02*
X45901240Y-39728733D01*
X46282192Y-39347780D02*
X46282192Y-40109685D01*
D11*
X36528737Y-69207200D02*
X36743023Y-69278628D01*
X36743023Y-69278628D02*
X37100165Y-69278628D01*
X37100165Y-69278628D02*
X37243023Y-69207200D01*
X37243023Y-69207200D02*
X37314451Y-69135771D01*
X37314451Y-69135771D02*
X37385880Y-68992914D01*
X37385880Y-68992914D02*
X37385880Y-68850057D01*
X37385880Y-68850057D02*
X37314451Y-68707200D01*
X37314451Y-68707200D02*
X37243023Y-68635771D01*
X37243023Y-68635771D02*
X37100165Y-68564342D01*
X37100165Y-68564342D02*
X36814451Y-68492914D01*
X36814451Y-68492914D02*
X36671594Y-68421485D01*
X36671594Y-68421485D02*
X36600165Y-68350057D01*
X36600165Y-68350057D02*
X36528737Y-68207200D01*
X36528737Y-68207200D02*
X36528737Y-68064342D01*
X36528737Y-68064342D02*
X36600165Y-67921485D01*
X36600165Y-67921485D02*
X36671594Y-67850057D01*
X36671594Y-67850057D02*
X36814451Y-67778628D01*
X36814451Y-67778628D02*
X37171594Y-67778628D01*
X37171594Y-67778628D02*
X37385880Y-67850057D01*
X41457307Y-69278628D02*
X41457307Y-67778628D01*
X41457307Y-67778628D02*
X41814450Y-67778628D01*
X41814450Y-67778628D02*
X42028736Y-67850057D01*
X42028736Y-67850057D02*
X42171593Y-67992914D01*
X42171593Y-67992914D02*
X42243022Y-68135771D01*
X42243022Y-68135771D02*
X42314450Y-68421485D01*
X42314450Y-68421485D02*
X42314450Y-68635771D01*
X42314450Y-68635771D02*
X42243022Y-68921485D01*
X42243022Y-68921485D02*
X42171593Y-69064342D01*
X42171593Y-69064342D02*
X42028736Y-69207200D01*
X42028736Y-69207200D02*
X41814450Y-69278628D01*
X41814450Y-69278628D02*
X41457307Y-69278628D01*
X47171593Y-67850057D02*
X47028736Y-67778628D01*
X47028736Y-67778628D02*
X46814450Y-67778628D01*
X46814450Y-67778628D02*
X46600164Y-67850057D01*
X46600164Y-67850057D02*
X46457307Y-67992914D01*
X46457307Y-67992914D02*
X46385878Y-68135771D01*
X46385878Y-68135771D02*
X46314450Y-68421485D01*
X46314450Y-68421485D02*
X46314450Y-68635771D01*
X46314450Y-68635771D02*
X46385878Y-68921485D01*
X46385878Y-68921485D02*
X46457307Y-69064342D01*
X46457307Y-69064342D02*
X46600164Y-69207200D01*
X46600164Y-69207200D02*
X46814450Y-69278628D01*
X46814450Y-69278628D02*
X46957307Y-69278628D01*
X46957307Y-69278628D02*
X47171593Y-69207200D01*
X47171593Y-69207200D02*
X47243021Y-69135771D01*
X47243021Y-69135771D02*
X47243021Y-68635771D01*
X47243021Y-68635771D02*
X46957307Y-68635771D01*
D10*
X34547133Y-49990762D02*
X34547133Y-50752667D01*
X34166180Y-50371714D02*
X34928085Y-50371714D01*
X34166180Y-52514571D02*
X34166180Y-51943143D01*
X34166180Y-52228857D02*
X35166180Y-52228857D01*
X35166180Y-52228857D02*
X35023323Y-52133619D01*
X35023323Y-52133619D02*
X34928085Y-52038381D01*
X34928085Y-52038381D02*
X34880466Y-51943143D01*
X35070942Y-52895524D02*
X35118561Y-52943143D01*
X35118561Y-52943143D02*
X35166180Y-53038381D01*
X35166180Y-53038381D02*
X35166180Y-53276476D01*
X35166180Y-53276476D02*
X35118561Y-53371714D01*
X35118561Y-53371714D02*
X35070942Y-53419333D01*
X35070942Y-53419333D02*
X34975704Y-53466952D01*
X34975704Y-53466952D02*
X34880466Y-53466952D01*
X34880466Y-53466952D02*
X34737609Y-53419333D01*
X34737609Y-53419333D02*
X34166180Y-52847905D01*
X34166180Y-52847905D02*
X34166180Y-53466952D01*
X34832847Y-53800286D02*
X34166180Y-54038381D01*
X34166180Y-54038381D02*
X34832847Y-54276476D01*
X34547133Y-55419334D02*
X34547133Y-56181239D01*
X105930419Y-42182820D02*
X104930419Y-42182820D01*
X104930419Y-42182820D02*
X104930419Y-41801868D01*
X104930419Y-41801868D02*
X104978038Y-41706630D01*
X104978038Y-41706630D02*
X105025657Y-41659011D01*
X105025657Y-41659011D02*
X105120895Y-41611392D01*
X105120895Y-41611392D02*
X105263752Y-41611392D01*
X105263752Y-41611392D02*
X105358990Y-41659011D01*
X105358990Y-41659011D02*
X105406609Y-41706630D01*
X105406609Y-41706630D02*
X105454228Y-41801868D01*
X105454228Y-41801868D02*
X105454228Y-42182820D01*
X104930419Y-41278058D02*
X105930419Y-41039963D01*
X105930419Y-41039963D02*
X105216133Y-40849487D01*
X105216133Y-40849487D02*
X105930419Y-40659011D01*
X105930419Y-40659011D02*
X104930419Y-40420916D01*
X105930419Y-40039963D02*
X104930419Y-40039963D01*
X104930419Y-40039963D02*
X105644704Y-39706630D01*
X105644704Y-39706630D02*
X104930419Y-39373297D01*
X104930419Y-39373297D02*
X105930419Y-39373297D01*
X107159466Y-42182820D02*
X107159466Y-41420916D01*
X107540419Y-41801868D02*
X106778514Y-41801868D01*
X107159466Y-40182820D02*
X107159466Y-39420916D01*
D11*
X96320337Y-69232600D02*
X96534623Y-69304028D01*
X96534623Y-69304028D02*
X96891765Y-69304028D01*
X96891765Y-69304028D02*
X97034623Y-69232600D01*
X97034623Y-69232600D02*
X97106051Y-69161171D01*
X97106051Y-69161171D02*
X97177480Y-69018314D01*
X97177480Y-69018314D02*
X97177480Y-68875457D01*
X97177480Y-68875457D02*
X97106051Y-68732600D01*
X97106051Y-68732600D02*
X97034623Y-68661171D01*
X97034623Y-68661171D02*
X96891765Y-68589742D01*
X96891765Y-68589742D02*
X96606051Y-68518314D01*
X96606051Y-68518314D02*
X96463194Y-68446885D01*
X96463194Y-68446885D02*
X96391765Y-68375457D01*
X96391765Y-68375457D02*
X96320337Y-68232600D01*
X96320337Y-68232600D02*
X96320337Y-68089742D01*
X96320337Y-68089742D02*
X96391765Y-67946885D01*
X96391765Y-67946885D02*
X96463194Y-67875457D01*
X96463194Y-67875457D02*
X96606051Y-67804028D01*
X96606051Y-67804028D02*
X96963194Y-67804028D01*
X96963194Y-67804028D02*
X97177480Y-67875457D01*
X101248907Y-69304028D02*
X101248907Y-67804028D01*
X101248907Y-67804028D02*
X101606050Y-67804028D01*
X101606050Y-67804028D02*
X101820336Y-67875457D01*
X101820336Y-67875457D02*
X101963193Y-68018314D01*
X101963193Y-68018314D02*
X102034622Y-68161171D01*
X102034622Y-68161171D02*
X102106050Y-68446885D01*
X102106050Y-68446885D02*
X102106050Y-68661171D01*
X102106050Y-68661171D02*
X102034622Y-68946885D01*
X102034622Y-68946885D02*
X101963193Y-69089742D01*
X101963193Y-69089742D02*
X101820336Y-69232600D01*
X101820336Y-69232600D02*
X101606050Y-69304028D01*
X101606050Y-69304028D02*
X101248907Y-69304028D01*
X106963193Y-67875457D02*
X106820336Y-67804028D01*
X106820336Y-67804028D02*
X106606050Y-67804028D01*
X106606050Y-67804028D02*
X106391764Y-67875457D01*
X106391764Y-67875457D02*
X106248907Y-68018314D01*
X106248907Y-68018314D02*
X106177478Y-68161171D01*
X106177478Y-68161171D02*
X106106050Y-68446885D01*
X106106050Y-68446885D02*
X106106050Y-68661171D01*
X106106050Y-68661171D02*
X106177478Y-68946885D01*
X106177478Y-68946885D02*
X106248907Y-69089742D01*
X106248907Y-69089742D02*
X106391764Y-69232600D01*
X106391764Y-69232600D02*
X106606050Y-69304028D01*
X106606050Y-69304028D02*
X106748907Y-69304028D01*
X106748907Y-69304028D02*
X106963193Y-69232600D01*
X106963193Y-69232600D02*
X107034621Y-69161171D01*
X107034621Y-69161171D02*
X107034621Y-68661171D01*
X107034621Y-68661171D02*
X106748907Y-68661171D01*
D10*
X107140333Y-53829179D02*
X107140333Y-54591084D01*
X106759380Y-54210131D02*
X107521285Y-54210131D01*
X107140333Y-55067274D02*
X107140333Y-55829179D01*
X113207969Y-56400819D02*
X112731779Y-56400819D01*
X112731779Y-56400819D02*
X112684160Y-56877009D01*
X112684160Y-56877009D02*
X112731779Y-56829390D01*
X112731779Y-56829390D02*
X112827017Y-56781771D01*
X112827017Y-56781771D02*
X113065112Y-56781771D01*
X113065112Y-56781771D02*
X113160350Y-56829390D01*
X113160350Y-56829390D02*
X113207969Y-56877009D01*
X113207969Y-56877009D02*
X113255588Y-56972247D01*
X113255588Y-56972247D02*
X113255588Y-57210342D01*
X113255588Y-57210342D02*
X113207969Y-57305580D01*
X113207969Y-57305580D02*
X113160350Y-57353200D01*
X113160350Y-57353200D02*
X113065112Y-57400819D01*
X113065112Y-57400819D02*
X112827017Y-57400819D01*
X112827017Y-57400819D02*
X112731779Y-57353200D01*
X112731779Y-57353200D02*
X112684160Y-57305580D01*
X113588922Y-56734152D02*
X113827017Y-57400819D01*
X113827017Y-57400819D02*
X114065112Y-56734152D01*
X115398446Y-56400819D02*
X115588922Y-56400819D01*
X115588922Y-56400819D02*
X115684160Y-56448438D01*
X115684160Y-56448438D02*
X115779398Y-56543676D01*
X115779398Y-56543676D02*
X115827017Y-56734152D01*
X115827017Y-56734152D02*
X115827017Y-57067485D01*
X115827017Y-57067485D02*
X115779398Y-57257961D01*
X115779398Y-57257961D02*
X115684160Y-57353200D01*
X115684160Y-57353200D02*
X115588922Y-57400819D01*
X115588922Y-57400819D02*
X115398446Y-57400819D01*
X115398446Y-57400819D02*
X115303208Y-57353200D01*
X115303208Y-57353200D02*
X115207970Y-57257961D01*
X115207970Y-57257961D02*
X115160351Y-57067485D01*
X115160351Y-57067485D02*
X115160351Y-56734152D01*
X115160351Y-56734152D02*
X115207970Y-56543676D01*
X115207970Y-56543676D02*
X115303208Y-56448438D01*
X115303208Y-56448438D02*
X115398446Y-56400819D01*
X116684160Y-56734152D02*
X116684160Y-57400819D01*
X116255589Y-56734152D02*
X116255589Y-57257961D01*
X116255589Y-57257961D02*
X116303208Y-57353200D01*
X116303208Y-57353200D02*
X116398446Y-57400819D01*
X116398446Y-57400819D02*
X116541303Y-57400819D01*
X116541303Y-57400819D02*
X116636541Y-57353200D01*
X116636541Y-57353200D02*
X116684160Y-57305580D01*
X117017494Y-56734152D02*
X117398446Y-56734152D01*
X117160351Y-56400819D02*
X117160351Y-57257961D01*
X117160351Y-57257961D02*
X117207970Y-57353200D01*
X117207970Y-57353200D02*
X117303208Y-57400819D01*
X117303208Y-57400819D02*
X117398446Y-57400819D01*
X67138779Y-28190819D02*
X67138779Y-27190819D01*
X67138779Y-27190819D02*
X67710207Y-28190819D01*
X67710207Y-28190819D02*
X67710207Y-27190819D01*
X68186398Y-28190819D02*
X68186398Y-27190819D01*
X68186398Y-27190819D02*
X68567350Y-27190819D01*
X68567350Y-27190819D02*
X68662588Y-27238438D01*
X68662588Y-27238438D02*
X68710207Y-27286057D01*
X68710207Y-27286057D02*
X68757826Y-27381295D01*
X68757826Y-27381295D02*
X68757826Y-27524152D01*
X68757826Y-27524152D02*
X68710207Y-27619390D01*
X68710207Y-27619390D02*
X68662588Y-27667009D01*
X68662588Y-27667009D02*
X68567350Y-27714628D01*
X68567350Y-27714628D02*
X68186398Y-27714628D01*
X69186398Y-28190819D02*
X69186398Y-27190819D01*
X69186398Y-27190819D02*
X69757826Y-28190819D01*
X69757826Y-28190819D02*
X69757826Y-27190819D01*
X66189219Y-39287220D02*
X65189219Y-39287220D01*
X65189219Y-39287220D02*
X65189219Y-38906268D01*
X65189219Y-38906268D02*
X65236838Y-38811030D01*
X65236838Y-38811030D02*
X65284457Y-38763411D01*
X65284457Y-38763411D02*
X65379695Y-38715792D01*
X65379695Y-38715792D02*
X65522552Y-38715792D01*
X65522552Y-38715792D02*
X65617790Y-38763411D01*
X65617790Y-38763411D02*
X65665409Y-38811030D01*
X65665409Y-38811030D02*
X65713028Y-38906268D01*
X65713028Y-38906268D02*
X65713028Y-39287220D01*
X66189219Y-38287220D02*
X65189219Y-38287220D01*
X65189219Y-38287220D02*
X66189219Y-37715792D01*
X66189219Y-37715792D02*
X65189219Y-37715792D01*
X66189219Y-37239601D02*
X65189219Y-37239601D01*
X65189219Y-37239601D02*
X65189219Y-36858649D01*
X65189219Y-36858649D02*
X65236838Y-36763411D01*
X65236838Y-36763411D02*
X65284457Y-36715792D01*
X65284457Y-36715792D02*
X65379695Y-36668173D01*
X65379695Y-36668173D02*
X65522552Y-36668173D01*
X65522552Y-36668173D02*
X65617790Y-36715792D01*
X65617790Y-36715792D02*
X65665409Y-36763411D01*
X65665409Y-36763411D02*
X65713028Y-36858649D01*
X65713028Y-36858649D02*
X65713028Y-37239601D01*
D12*
X74102692Y-94906400D02*
X74316978Y-94977828D01*
X74316978Y-94977828D02*
X74674120Y-94977828D01*
X74674120Y-94977828D02*
X74816978Y-94906400D01*
X74816978Y-94906400D02*
X74888406Y-94834971D01*
X74888406Y-94834971D02*
X74959835Y-94692114D01*
X74959835Y-94692114D02*
X74959835Y-94549257D01*
X74959835Y-94549257D02*
X74888406Y-94406400D01*
X74888406Y-94406400D02*
X74816978Y-94334971D01*
X74816978Y-94334971D02*
X74674120Y-94263542D01*
X74674120Y-94263542D02*
X74388406Y-94192114D01*
X74388406Y-94192114D02*
X74245549Y-94120685D01*
X74245549Y-94120685D02*
X74174120Y-94049257D01*
X74174120Y-94049257D02*
X74102692Y-93906400D01*
X74102692Y-93906400D02*
X74102692Y-93763542D01*
X74102692Y-93763542D02*
X74174120Y-93620685D01*
X74174120Y-93620685D02*
X74245549Y-93549257D01*
X74245549Y-93549257D02*
X74388406Y-93477828D01*
X74388406Y-93477828D02*
X74745549Y-93477828D01*
X74745549Y-93477828D02*
X74959835Y-93549257D01*
X75602691Y-93977828D02*
X75602691Y-95477828D01*
X75602691Y-94049257D02*
X75745549Y-93977828D01*
X75745549Y-93977828D02*
X76031263Y-93977828D01*
X76031263Y-93977828D02*
X76174120Y-94049257D01*
X76174120Y-94049257D02*
X76245549Y-94120685D01*
X76245549Y-94120685D02*
X76316977Y-94263542D01*
X76316977Y-94263542D02*
X76316977Y-94692114D01*
X76316977Y-94692114D02*
X76245549Y-94834971D01*
X76245549Y-94834971D02*
X76174120Y-94906400D01*
X76174120Y-94906400D02*
X76031263Y-94977828D01*
X76031263Y-94977828D02*
X75745549Y-94977828D01*
X75745549Y-94977828D02*
X75602691Y-94906400D01*
X77602692Y-94977828D02*
X77602692Y-94192114D01*
X77602692Y-94192114D02*
X77531263Y-94049257D01*
X77531263Y-94049257D02*
X77388406Y-93977828D01*
X77388406Y-93977828D02*
X77102692Y-93977828D01*
X77102692Y-93977828D02*
X76959834Y-94049257D01*
X77602692Y-94906400D02*
X77459834Y-94977828D01*
X77459834Y-94977828D02*
X77102692Y-94977828D01*
X77102692Y-94977828D02*
X76959834Y-94906400D01*
X76959834Y-94906400D02*
X76888406Y-94763542D01*
X76888406Y-94763542D02*
X76888406Y-94620685D01*
X76888406Y-94620685D02*
X76959834Y-94477828D01*
X76959834Y-94477828D02*
X77102692Y-94406400D01*
X77102692Y-94406400D02*
X77459834Y-94406400D01*
X77459834Y-94406400D02*
X77602692Y-94334971D01*
X78316977Y-94977828D02*
X78316977Y-93977828D01*
X78316977Y-94263542D02*
X78388406Y-94120685D01*
X78388406Y-94120685D02*
X78459835Y-94049257D01*
X78459835Y-94049257D02*
X78602692Y-93977828D01*
X78602692Y-93977828D02*
X78745549Y-93977828D01*
X79245548Y-94977828D02*
X79245548Y-93477828D01*
X79388406Y-94406400D02*
X79816977Y-94977828D01*
X79816977Y-93977828D02*
X79245548Y-94549257D01*
X74174120Y-96821400D02*
X75316978Y-96821400D01*
X74745549Y-97392828D02*
X74745549Y-96249971D01*
X81745548Y-96821400D02*
X82888406Y-96821400D01*
D10*
X91836319Y-108857820D02*
X90836319Y-108857820D01*
X90836319Y-108857820D02*
X90836319Y-108619725D01*
X90836319Y-108619725D02*
X90883938Y-108476868D01*
X90883938Y-108476868D02*
X90979176Y-108381630D01*
X90979176Y-108381630D02*
X91074414Y-108334011D01*
X91074414Y-108334011D02*
X91264890Y-108286392D01*
X91264890Y-108286392D02*
X91407747Y-108286392D01*
X91407747Y-108286392D02*
X91598223Y-108334011D01*
X91598223Y-108334011D02*
X91693461Y-108381630D01*
X91693461Y-108381630D02*
X91788700Y-108476868D01*
X91788700Y-108476868D02*
X91836319Y-108619725D01*
X91836319Y-108619725D02*
X91836319Y-108857820D01*
X91550604Y-107905439D02*
X91550604Y-107429249D01*
X91836319Y-108000677D02*
X90836319Y-107667344D01*
X90836319Y-107667344D02*
X91836319Y-107334011D01*
X91836319Y-107000677D02*
X90836319Y-107000677D01*
X90836319Y-107000677D02*
X91836319Y-106429249D01*
X91836319Y-106429249D02*
X90836319Y-106429249D01*
X90883938Y-105429249D02*
X90836319Y-105524487D01*
X90836319Y-105524487D02*
X90836319Y-105667344D01*
X90836319Y-105667344D02*
X90883938Y-105810201D01*
X90883938Y-105810201D02*
X90979176Y-105905439D01*
X90979176Y-105905439D02*
X91074414Y-105953058D01*
X91074414Y-105953058D02*
X91264890Y-106000677D01*
X91264890Y-106000677D02*
X91407747Y-106000677D01*
X91407747Y-106000677D02*
X91598223Y-105953058D01*
X91598223Y-105953058D02*
X91693461Y-105905439D01*
X91693461Y-105905439D02*
X91788700Y-105810201D01*
X91788700Y-105810201D02*
X91836319Y-105667344D01*
X91836319Y-105667344D02*
X91836319Y-105572106D01*
X91836319Y-105572106D02*
X91788700Y-105429249D01*
X91788700Y-105429249D02*
X91741080Y-105381630D01*
X91741080Y-105381630D02*
X91407747Y-105381630D01*
X91407747Y-105381630D02*
X91407747Y-105572106D01*
X91312509Y-104953058D02*
X91312509Y-104619725D01*
X91836319Y-104476868D02*
X91836319Y-104953058D01*
X91836319Y-104953058D02*
X90836319Y-104953058D01*
X90836319Y-104953058D02*
X90836319Y-104476868D01*
X91836319Y-103476868D02*
X91360128Y-103810201D01*
X91836319Y-104048296D02*
X90836319Y-104048296D01*
X90836319Y-104048296D02*
X90836319Y-103667344D01*
X90836319Y-103667344D02*
X90883938Y-103572106D01*
X90883938Y-103572106D02*
X90931557Y-103524487D01*
X90931557Y-103524487D02*
X91026795Y-103476868D01*
X91026795Y-103476868D02*
X91169652Y-103476868D01*
X91169652Y-103476868D02*
X91264890Y-103524487D01*
X91264890Y-103524487D02*
X91312509Y-103572106D01*
X91312509Y-103572106D02*
X91360128Y-103667344D01*
X91360128Y-103667344D02*
X91360128Y-104048296D01*
X91741080Y-103048296D02*
X91788700Y-103000677D01*
X91788700Y-103000677D02*
X91836319Y-103048296D01*
X91836319Y-103048296D02*
X91788700Y-103095915D01*
X91788700Y-103095915D02*
X91741080Y-103048296D01*
X91741080Y-103048296D02*
X91836319Y-103048296D01*
X91455366Y-103048296D02*
X90883938Y-103095915D01*
X90883938Y-103095915D02*
X90836319Y-103048296D01*
X90836319Y-103048296D02*
X90883938Y-103000677D01*
X90883938Y-103000677D02*
X91455366Y-103048296D01*
X91455366Y-103048296D02*
X90836319Y-103048296D01*
X93446319Y-108857820D02*
X92446319Y-108857820D01*
X92922509Y-108857820D02*
X92922509Y-108286392D01*
X93446319Y-108286392D02*
X92446319Y-108286392D01*
X93446319Y-107810201D02*
X92779652Y-107810201D01*
X92446319Y-107810201D02*
X92493938Y-107857820D01*
X92493938Y-107857820D02*
X92541557Y-107810201D01*
X92541557Y-107810201D02*
X92493938Y-107762582D01*
X92493938Y-107762582D02*
X92446319Y-107810201D01*
X92446319Y-107810201D02*
X92541557Y-107810201D01*
X92779652Y-106905440D02*
X93589176Y-106905440D01*
X93589176Y-106905440D02*
X93684414Y-106953059D01*
X93684414Y-106953059D02*
X93732033Y-107000678D01*
X93732033Y-107000678D02*
X93779652Y-107095916D01*
X93779652Y-107095916D02*
X93779652Y-107238773D01*
X93779652Y-107238773D02*
X93732033Y-107334011D01*
X93398700Y-106905440D02*
X93446319Y-107000678D01*
X93446319Y-107000678D02*
X93446319Y-107191154D01*
X93446319Y-107191154D02*
X93398700Y-107286392D01*
X93398700Y-107286392D02*
X93351080Y-107334011D01*
X93351080Y-107334011D02*
X93255842Y-107381630D01*
X93255842Y-107381630D02*
X92970128Y-107381630D01*
X92970128Y-107381630D02*
X92874890Y-107334011D01*
X92874890Y-107334011D02*
X92827271Y-107286392D01*
X92827271Y-107286392D02*
X92779652Y-107191154D01*
X92779652Y-107191154D02*
X92779652Y-107000678D01*
X92779652Y-107000678D02*
X92827271Y-106905440D01*
X93446319Y-106429249D02*
X92446319Y-106429249D01*
X93446319Y-106000678D02*
X92922509Y-106000678D01*
X92922509Y-106000678D02*
X92827271Y-106048297D01*
X92827271Y-106048297D02*
X92779652Y-106143535D01*
X92779652Y-106143535D02*
X92779652Y-106286392D01*
X92779652Y-106286392D02*
X92827271Y-106381630D01*
X92827271Y-106381630D02*
X92874890Y-106429249D01*
X93351080Y-104191154D02*
X93398700Y-104238773D01*
X93398700Y-104238773D02*
X93446319Y-104381630D01*
X93446319Y-104381630D02*
X93446319Y-104476868D01*
X93446319Y-104476868D02*
X93398700Y-104619725D01*
X93398700Y-104619725D02*
X93303461Y-104714963D01*
X93303461Y-104714963D02*
X93208223Y-104762582D01*
X93208223Y-104762582D02*
X93017747Y-104810201D01*
X93017747Y-104810201D02*
X92874890Y-104810201D01*
X92874890Y-104810201D02*
X92684414Y-104762582D01*
X92684414Y-104762582D02*
X92589176Y-104714963D01*
X92589176Y-104714963D02*
X92493938Y-104619725D01*
X92493938Y-104619725D02*
X92446319Y-104476868D01*
X92446319Y-104476868D02*
X92446319Y-104381630D01*
X92446319Y-104381630D02*
X92493938Y-104238773D01*
X92493938Y-104238773D02*
X92541557Y-104191154D01*
X92779652Y-103334011D02*
X93446319Y-103334011D01*
X92779652Y-103762582D02*
X93303461Y-103762582D01*
X93303461Y-103762582D02*
X93398700Y-103714963D01*
X93398700Y-103714963D02*
X93446319Y-103619725D01*
X93446319Y-103619725D02*
X93446319Y-103476868D01*
X93446319Y-103476868D02*
X93398700Y-103381630D01*
X93398700Y-103381630D02*
X93351080Y-103334011D01*
X93446319Y-102857820D02*
X92779652Y-102857820D01*
X92970128Y-102857820D02*
X92874890Y-102810201D01*
X92874890Y-102810201D02*
X92827271Y-102762582D01*
X92827271Y-102762582D02*
X92779652Y-102667344D01*
X92779652Y-102667344D02*
X92779652Y-102572106D01*
X93446319Y-102238772D02*
X92779652Y-102238772D01*
X92970128Y-102238772D02*
X92874890Y-102191153D01*
X92874890Y-102191153D02*
X92827271Y-102143534D01*
X92827271Y-102143534D02*
X92779652Y-102048296D01*
X92779652Y-102048296D02*
X92779652Y-101953058D01*
X93398700Y-101238772D02*
X93446319Y-101334010D01*
X93446319Y-101334010D02*
X93446319Y-101524486D01*
X93446319Y-101524486D02*
X93398700Y-101619724D01*
X93398700Y-101619724D02*
X93303461Y-101667343D01*
X93303461Y-101667343D02*
X92922509Y-101667343D01*
X92922509Y-101667343D02*
X92827271Y-101619724D01*
X92827271Y-101619724D02*
X92779652Y-101524486D01*
X92779652Y-101524486D02*
X92779652Y-101334010D01*
X92779652Y-101334010D02*
X92827271Y-101238772D01*
X92827271Y-101238772D02*
X92922509Y-101191153D01*
X92922509Y-101191153D02*
X93017747Y-101191153D01*
X93017747Y-101191153D02*
X93112985Y-101667343D01*
X92779652Y-100762581D02*
X93446319Y-100762581D01*
X92874890Y-100762581D02*
X92827271Y-100714962D01*
X92827271Y-100714962D02*
X92779652Y-100619724D01*
X92779652Y-100619724D02*
X92779652Y-100476867D01*
X92779652Y-100476867D02*
X92827271Y-100381629D01*
X92827271Y-100381629D02*
X92922509Y-100334010D01*
X92922509Y-100334010D02*
X93446319Y-100334010D01*
X92779652Y-100000676D02*
X92779652Y-99619724D01*
X92446319Y-99857819D02*
X93303461Y-99857819D01*
X93303461Y-99857819D02*
X93398700Y-99810200D01*
X93398700Y-99810200D02*
X93446319Y-99714962D01*
X93446319Y-99714962D02*
X93446319Y-99619724D01*
X95056319Y-108857820D02*
X94056319Y-108857820D01*
X94532509Y-108857820D02*
X94532509Y-108286392D01*
X95056319Y-108286392D02*
X94056319Y-108286392D01*
X95056319Y-107810201D02*
X94389652Y-107810201D01*
X94056319Y-107810201D02*
X94103938Y-107857820D01*
X94103938Y-107857820D02*
X94151557Y-107810201D01*
X94151557Y-107810201D02*
X94103938Y-107762582D01*
X94103938Y-107762582D02*
X94056319Y-107810201D01*
X94056319Y-107810201D02*
X94151557Y-107810201D01*
X94389652Y-106905440D02*
X95199176Y-106905440D01*
X95199176Y-106905440D02*
X95294414Y-106953059D01*
X95294414Y-106953059D02*
X95342033Y-107000678D01*
X95342033Y-107000678D02*
X95389652Y-107095916D01*
X95389652Y-107095916D02*
X95389652Y-107238773D01*
X95389652Y-107238773D02*
X95342033Y-107334011D01*
X95008700Y-106905440D02*
X95056319Y-107000678D01*
X95056319Y-107000678D02*
X95056319Y-107191154D01*
X95056319Y-107191154D02*
X95008700Y-107286392D01*
X95008700Y-107286392D02*
X94961080Y-107334011D01*
X94961080Y-107334011D02*
X94865842Y-107381630D01*
X94865842Y-107381630D02*
X94580128Y-107381630D01*
X94580128Y-107381630D02*
X94484890Y-107334011D01*
X94484890Y-107334011D02*
X94437271Y-107286392D01*
X94437271Y-107286392D02*
X94389652Y-107191154D01*
X94389652Y-107191154D02*
X94389652Y-107000678D01*
X94389652Y-107000678D02*
X94437271Y-106905440D01*
X95056319Y-106429249D02*
X94056319Y-106429249D01*
X95056319Y-106000678D02*
X94532509Y-106000678D01*
X94532509Y-106000678D02*
X94437271Y-106048297D01*
X94437271Y-106048297D02*
X94389652Y-106143535D01*
X94389652Y-106143535D02*
X94389652Y-106286392D01*
X94389652Y-106286392D02*
X94437271Y-106381630D01*
X94437271Y-106381630D02*
X94484890Y-106429249D01*
X94056319Y-104905439D02*
X95056319Y-104572106D01*
X95056319Y-104572106D02*
X94056319Y-104238773D01*
X95056319Y-103762582D02*
X95008700Y-103857820D01*
X95008700Y-103857820D02*
X94961080Y-103905439D01*
X94961080Y-103905439D02*
X94865842Y-103953058D01*
X94865842Y-103953058D02*
X94580128Y-103953058D01*
X94580128Y-103953058D02*
X94484890Y-103905439D01*
X94484890Y-103905439D02*
X94437271Y-103857820D01*
X94437271Y-103857820D02*
X94389652Y-103762582D01*
X94389652Y-103762582D02*
X94389652Y-103619725D01*
X94389652Y-103619725D02*
X94437271Y-103524487D01*
X94437271Y-103524487D02*
X94484890Y-103476868D01*
X94484890Y-103476868D02*
X94580128Y-103429249D01*
X94580128Y-103429249D02*
X94865842Y-103429249D01*
X94865842Y-103429249D02*
X94961080Y-103476868D01*
X94961080Y-103476868D02*
X95008700Y-103524487D01*
X95008700Y-103524487D02*
X95056319Y-103619725D01*
X95056319Y-103619725D02*
X95056319Y-103762582D01*
X95056319Y-102857820D02*
X95008700Y-102953058D01*
X95008700Y-102953058D02*
X94913461Y-103000677D01*
X94913461Y-103000677D02*
X94056319Y-103000677D01*
X94389652Y-102619724D02*
X94389652Y-102238772D01*
X94056319Y-102476867D02*
X94913461Y-102476867D01*
X94913461Y-102476867D02*
X95008700Y-102429248D01*
X95008700Y-102429248D02*
X95056319Y-102334010D01*
X95056319Y-102334010D02*
X95056319Y-102238772D01*
X95056319Y-101476867D02*
X94532509Y-101476867D01*
X94532509Y-101476867D02*
X94437271Y-101524486D01*
X94437271Y-101524486D02*
X94389652Y-101619724D01*
X94389652Y-101619724D02*
X94389652Y-101810200D01*
X94389652Y-101810200D02*
X94437271Y-101905438D01*
X95008700Y-101476867D02*
X95056319Y-101572105D01*
X95056319Y-101572105D02*
X95056319Y-101810200D01*
X95056319Y-101810200D02*
X95008700Y-101905438D01*
X95008700Y-101905438D02*
X94913461Y-101953057D01*
X94913461Y-101953057D02*
X94818223Y-101953057D01*
X94818223Y-101953057D02*
X94722985Y-101905438D01*
X94722985Y-101905438D02*
X94675366Y-101810200D01*
X94675366Y-101810200D02*
X94675366Y-101572105D01*
X94675366Y-101572105D02*
X94627747Y-101476867D01*
X94389652Y-100572105D02*
X95199176Y-100572105D01*
X95199176Y-100572105D02*
X95294414Y-100619724D01*
X95294414Y-100619724D02*
X95342033Y-100667343D01*
X95342033Y-100667343D02*
X95389652Y-100762581D01*
X95389652Y-100762581D02*
X95389652Y-100905438D01*
X95389652Y-100905438D02*
X95342033Y-101000676D01*
X95008700Y-100572105D02*
X95056319Y-100667343D01*
X95056319Y-100667343D02*
X95056319Y-100857819D01*
X95056319Y-100857819D02*
X95008700Y-100953057D01*
X95008700Y-100953057D02*
X94961080Y-101000676D01*
X94961080Y-101000676D02*
X94865842Y-101048295D01*
X94865842Y-101048295D02*
X94580128Y-101048295D01*
X94580128Y-101048295D02*
X94484890Y-101000676D01*
X94484890Y-101000676D02*
X94437271Y-100953057D01*
X94437271Y-100953057D02*
X94389652Y-100857819D01*
X94389652Y-100857819D02*
X94389652Y-100667343D01*
X94389652Y-100667343D02*
X94437271Y-100572105D01*
X95008700Y-99714962D02*
X95056319Y-99810200D01*
X95056319Y-99810200D02*
X95056319Y-100000676D01*
X95056319Y-100000676D02*
X95008700Y-100095914D01*
X95008700Y-100095914D02*
X94913461Y-100143533D01*
X94913461Y-100143533D02*
X94532509Y-100143533D01*
X94532509Y-100143533D02*
X94437271Y-100095914D01*
X94437271Y-100095914D02*
X94389652Y-100000676D01*
X94389652Y-100000676D02*
X94389652Y-99810200D01*
X94389652Y-99810200D02*
X94437271Y-99714962D01*
X94437271Y-99714962D02*
X94532509Y-99667343D01*
X94532509Y-99667343D02*
X94627747Y-99667343D01*
X94627747Y-99667343D02*
X94722985Y-100143533D01*
D11*
X76736937Y-69232600D02*
X76951223Y-69304028D01*
X76951223Y-69304028D02*
X77308365Y-69304028D01*
X77308365Y-69304028D02*
X77451223Y-69232600D01*
X77451223Y-69232600D02*
X77522651Y-69161171D01*
X77522651Y-69161171D02*
X77594080Y-69018314D01*
X77594080Y-69018314D02*
X77594080Y-68875457D01*
X77594080Y-68875457D02*
X77522651Y-68732600D01*
X77522651Y-68732600D02*
X77451223Y-68661171D01*
X77451223Y-68661171D02*
X77308365Y-68589742D01*
X77308365Y-68589742D02*
X77022651Y-68518314D01*
X77022651Y-68518314D02*
X76879794Y-68446885D01*
X76879794Y-68446885D02*
X76808365Y-68375457D01*
X76808365Y-68375457D02*
X76736937Y-68232600D01*
X76736937Y-68232600D02*
X76736937Y-68089742D01*
X76736937Y-68089742D02*
X76808365Y-67946885D01*
X76808365Y-67946885D02*
X76879794Y-67875457D01*
X76879794Y-67875457D02*
X77022651Y-67804028D01*
X77022651Y-67804028D02*
X77379794Y-67804028D01*
X77379794Y-67804028D02*
X77594080Y-67875457D01*
X81665507Y-69304028D02*
X81665507Y-67804028D01*
X81665507Y-67804028D02*
X82022650Y-67804028D01*
X82022650Y-67804028D02*
X82236936Y-67875457D01*
X82236936Y-67875457D02*
X82379793Y-68018314D01*
X82379793Y-68018314D02*
X82451222Y-68161171D01*
X82451222Y-68161171D02*
X82522650Y-68446885D01*
X82522650Y-68446885D02*
X82522650Y-68661171D01*
X82522650Y-68661171D02*
X82451222Y-68946885D01*
X82451222Y-68946885D02*
X82379793Y-69089742D01*
X82379793Y-69089742D02*
X82236936Y-69232600D01*
X82236936Y-69232600D02*
X82022650Y-69304028D01*
X82022650Y-69304028D02*
X81665507Y-69304028D01*
X87379793Y-67875457D02*
X87236936Y-67804028D01*
X87236936Y-67804028D02*
X87022650Y-67804028D01*
X87022650Y-67804028D02*
X86808364Y-67875457D01*
X86808364Y-67875457D02*
X86665507Y-68018314D01*
X86665507Y-68018314D02*
X86594078Y-68161171D01*
X86594078Y-68161171D02*
X86522650Y-68446885D01*
X86522650Y-68446885D02*
X86522650Y-68661171D01*
X86522650Y-68661171D02*
X86594078Y-68946885D01*
X86594078Y-68946885D02*
X86665507Y-69089742D01*
X86665507Y-69089742D02*
X86808364Y-69232600D01*
X86808364Y-69232600D02*
X87022650Y-69304028D01*
X87022650Y-69304028D02*
X87165507Y-69304028D01*
X87165507Y-69304028D02*
X87379793Y-69232600D01*
X87379793Y-69232600D02*
X87451221Y-69161171D01*
X87451221Y-69161171D02*
X87451221Y-68661171D01*
X87451221Y-68661171D02*
X87165507Y-68661171D01*
X84441065Y-82435828D02*
X84441065Y-80935828D01*
X84441065Y-80935828D02*
X84941065Y-82007257D01*
X84941065Y-82007257D02*
X85441065Y-80935828D01*
X85441065Y-80935828D02*
X85441065Y-82435828D01*
X86798209Y-82435828D02*
X86798209Y-81650114D01*
X86798209Y-81650114D02*
X86726780Y-81507257D01*
X86726780Y-81507257D02*
X86583923Y-81435828D01*
X86583923Y-81435828D02*
X86298209Y-81435828D01*
X86298209Y-81435828D02*
X86155351Y-81507257D01*
X86798209Y-82364400D02*
X86655351Y-82435828D01*
X86655351Y-82435828D02*
X86298209Y-82435828D01*
X86298209Y-82435828D02*
X86155351Y-82364400D01*
X86155351Y-82364400D02*
X86083923Y-82221542D01*
X86083923Y-82221542D02*
X86083923Y-82078685D01*
X86083923Y-82078685D02*
X86155351Y-81935828D01*
X86155351Y-81935828D02*
X86298209Y-81864400D01*
X86298209Y-81864400D02*
X86655351Y-81864400D01*
X86655351Y-81864400D02*
X86798209Y-81792971D01*
X88155352Y-82364400D02*
X88012494Y-82435828D01*
X88012494Y-82435828D02*
X87726780Y-82435828D01*
X87726780Y-82435828D02*
X87583923Y-82364400D01*
X87583923Y-82364400D02*
X87512494Y-82292971D01*
X87512494Y-82292971D02*
X87441066Y-82150114D01*
X87441066Y-82150114D02*
X87441066Y-81721542D01*
X87441066Y-81721542D02*
X87512494Y-81578685D01*
X87512494Y-81578685D02*
X87583923Y-81507257D01*
X87583923Y-81507257D02*
X87726780Y-81435828D01*
X87726780Y-81435828D02*
X88012494Y-81435828D01*
X88012494Y-81435828D02*
X88155352Y-81507257D01*
X88798208Y-82435828D02*
X88798208Y-80935828D01*
X89441066Y-82435828D02*
X89441066Y-81650114D01*
X89441066Y-81650114D02*
X89369637Y-81507257D01*
X89369637Y-81507257D02*
X89226780Y-81435828D01*
X89226780Y-81435828D02*
X89012494Y-81435828D01*
X89012494Y-81435828D02*
X88869637Y-81507257D01*
X88869637Y-81507257D02*
X88798208Y-81578685D01*
X90155351Y-82435828D02*
X90155351Y-81435828D01*
X90155351Y-80935828D02*
X90083923Y-81007257D01*
X90083923Y-81007257D02*
X90155351Y-81078685D01*
X90155351Y-81078685D02*
X90226780Y-81007257D01*
X90226780Y-81007257D02*
X90155351Y-80935828D01*
X90155351Y-80935828D02*
X90155351Y-81078685D01*
X90869637Y-81435828D02*
X90869637Y-82435828D01*
X90869637Y-81578685D02*
X90941066Y-81507257D01*
X90941066Y-81507257D02*
X91083923Y-81435828D01*
X91083923Y-81435828D02*
X91298209Y-81435828D01*
X91298209Y-81435828D02*
X91441066Y-81507257D01*
X91441066Y-81507257D02*
X91512495Y-81650114D01*
X91512495Y-81650114D02*
X91512495Y-82435828D01*
X92226780Y-82435828D02*
X92226780Y-81435828D01*
X92226780Y-80935828D02*
X92155352Y-81007257D01*
X92155352Y-81007257D02*
X92226780Y-81078685D01*
X92226780Y-81078685D02*
X92298209Y-81007257D01*
X92298209Y-81007257D02*
X92226780Y-80935828D01*
X92226780Y-80935828D02*
X92226780Y-81078685D01*
X92941066Y-81435828D02*
X92941066Y-82435828D01*
X92941066Y-81578685D02*
X93012495Y-81507257D01*
X93012495Y-81507257D02*
X93155352Y-81435828D01*
X93155352Y-81435828D02*
X93369638Y-81435828D01*
X93369638Y-81435828D02*
X93512495Y-81507257D01*
X93512495Y-81507257D02*
X93583924Y-81650114D01*
X93583924Y-81650114D02*
X93583924Y-82435828D01*
X94941067Y-81435828D02*
X94941067Y-82650114D01*
X94941067Y-82650114D02*
X94869638Y-82792971D01*
X94869638Y-82792971D02*
X94798209Y-82864400D01*
X94798209Y-82864400D02*
X94655352Y-82935828D01*
X94655352Y-82935828D02*
X94441067Y-82935828D01*
X94441067Y-82935828D02*
X94298209Y-82864400D01*
X94941067Y-82364400D02*
X94798209Y-82435828D01*
X94798209Y-82435828D02*
X94512495Y-82435828D01*
X94512495Y-82435828D02*
X94369638Y-82364400D01*
X94369638Y-82364400D02*
X94298209Y-82292971D01*
X94298209Y-82292971D02*
X94226781Y-82150114D01*
X94226781Y-82150114D02*
X94226781Y-81721542D01*
X94226781Y-81721542D02*
X94298209Y-81578685D01*
X94298209Y-81578685D02*
X94369638Y-81507257D01*
X94369638Y-81507257D02*
X94512495Y-81435828D01*
X94512495Y-81435828D02*
X94798209Y-81435828D01*
X94798209Y-81435828D02*
X94941067Y-81507257D01*
X56264537Y-69207200D02*
X56478823Y-69278628D01*
X56478823Y-69278628D02*
X56835965Y-69278628D01*
X56835965Y-69278628D02*
X56978823Y-69207200D01*
X56978823Y-69207200D02*
X57050251Y-69135771D01*
X57050251Y-69135771D02*
X57121680Y-68992914D01*
X57121680Y-68992914D02*
X57121680Y-68850057D01*
X57121680Y-68850057D02*
X57050251Y-68707200D01*
X57050251Y-68707200D02*
X56978823Y-68635771D01*
X56978823Y-68635771D02*
X56835965Y-68564342D01*
X56835965Y-68564342D02*
X56550251Y-68492914D01*
X56550251Y-68492914D02*
X56407394Y-68421485D01*
X56407394Y-68421485D02*
X56335965Y-68350057D01*
X56335965Y-68350057D02*
X56264537Y-68207200D01*
X56264537Y-68207200D02*
X56264537Y-68064342D01*
X56264537Y-68064342D02*
X56335965Y-67921485D01*
X56335965Y-67921485D02*
X56407394Y-67850057D01*
X56407394Y-67850057D02*
X56550251Y-67778628D01*
X56550251Y-67778628D02*
X56907394Y-67778628D01*
X56907394Y-67778628D02*
X57121680Y-67850057D01*
X61193107Y-69278628D02*
X61193107Y-67778628D01*
X61193107Y-67778628D02*
X61550250Y-67778628D01*
X61550250Y-67778628D02*
X61764536Y-67850057D01*
X61764536Y-67850057D02*
X61907393Y-67992914D01*
X61907393Y-67992914D02*
X61978822Y-68135771D01*
X61978822Y-68135771D02*
X62050250Y-68421485D01*
X62050250Y-68421485D02*
X62050250Y-68635771D01*
X62050250Y-68635771D02*
X61978822Y-68921485D01*
X61978822Y-68921485D02*
X61907393Y-69064342D01*
X61907393Y-69064342D02*
X61764536Y-69207200D01*
X61764536Y-69207200D02*
X61550250Y-69278628D01*
X61550250Y-69278628D02*
X61193107Y-69278628D01*
X66907393Y-67850057D02*
X66764536Y-67778628D01*
X66764536Y-67778628D02*
X66550250Y-67778628D01*
X66550250Y-67778628D02*
X66335964Y-67850057D01*
X66335964Y-67850057D02*
X66193107Y-67992914D01*
X66193107Y-67992914D02*
X66121678Y-68135771D01*
X66121678Y-68135771D02*
X66050250Y-68421485D01*
X66050250Y-68421485D02*
X66050250Y-68635771D01*
X66050250Y-68635771D02*
X66121678Y-68921485D01*
X66121678Y-68921485D02*
X66193107Y-69064342D01*
X66193107Y-69064342D02*
X66335964Y-69207200D01*
X66335964Y-69207200D02*
X66550250Y-69278628D01*
X66550250Y-69278628D02*
X66693107Y-69278628D01*
X66693107Y-69278628D02*
X66907393Y-69207200D01*
X66907393Y-69207200D02*
X66978821Y-69135771D01*
X66978821Y-69135771D02*
X66978821Y-68635771D01*
X66978821Y-68635771D02*
X66693107Y-68635771D01*
D12*
X51949120Y-94774628D02*
X51949120Y-93274628D01*
X51949120Y-93274628D02*
X52520549Y-93274628D01*
X52520549Y-93274628D02*
X52663406Y-93346057D01*
X52663406Y-93346057D02*
X52734835Y-93417485D01*
X52734835Y-93417485D02*
X52806263Y-93560342D01*
X52806263Y-93560342D02*
X52806263Y-93774628D01*
X52806263Y-93774628D02*
X52734835Y-93917485D01*
X52734835Y-93917485D02*
X52663406Y-93988914D01*
X52663406Y-93988914D02*
X52520549Y-94060342D01*
X52520549Y-94060342D02*
X51949120Y-94060342D01*
X53663406Y-94774628D02*
X53520549Y-94703200D01*
X53520549Y-94703200D02*
X53449120Y-94631771D01*
X53449120Y-94631771D02*
X53377692Y-94488914D01*
X53377692Y-94488914D02*
X53377692Y-94060342D01*
X53377692Y-94060342D02*
X53449120Y-93917485D01*
X53449120Y-93917485D02*
X53520549Y-93846057D01*
X53520549Y-93846057D02*
X53663406Y-93774628D01*
X53663406Y-93774628D02*
X53877692Y-93774628D01*
X53877692Y-93774628D02*
X54020549Y-93846057D01*
X54020549Y-93846057D02*
X54091978Y-93917485D01*
X54091978Y-93917485D02*
X54163406Y-94060342D01*
X54163406Y-94060342D02*
X54163406Y-94488914D01*
X54163406Y-94488914D02*
X54091978Y-94631771D01*
X54091978Y-94631771D02*
X54020549Y-94703200D01*
X54020549Y-94703200D02*
X53877692Y-94774628D01*
X53877692Y-94774628D02*
X53663406Y-94774628D01*
X54663406Y-93774628D02*
X54949121Y-94774628D01*
X54949121Y-94774628D02*
X55234835Y-94060342D01*
X55234835Y-94060342D02*
X55520549Y-94774628D01*
X55520549Y-94774628D02*
X55806263Y-93774628D01*
X56949121Y-94703200D02*
X56806264Y-94774628D01*
X56806264Y-94774628D02*
X56520550Y-94774628D01*
X56520550Y-94774628D02*
X56377692Y-94703200D01*
X56377692Y-94703200D02*
X56306264Y-94560342D01*
X56306264Y-94560342D02*
X56306264Y-93988914D01*
X56306264Y-93988914D02*
X56377692Y-93846057D01*
X56377692Y-93846057D02*
X56520550Y-93774628D01*
X56520550Y-93774628D02*
X56806264Y-93774628D01*
X56806264Y-93774628D02*
X56949121Y-93846057D01*
X56949121Y-93846057D02*
X57020550Y-93988914D01*
X57020550Y-93988914D02*
X57020550Y-94131771D01*
X57020550Y-94131771D02*
X56306264Y-94274628D01*
X57663406Y-94774628D02*
X57663406Y-93774628D01*
X57663406Y-94060342D02*
X57734835Y-93917485D01*
X57734835Y-93917485D02*
X57806264Y-93846057D01*
X57806264Y-93846057D02*
X57949121Y-93774628D01*
X57949121Y-93774628D02*
X58091978Y-93774628D01*
X51949120Y-96618200D02*
X53091978Y-96618200D01*
X59520548Y-96618200D02*
X60663406Y-96618200D01*
X60091977Y-97189628D02*
X60091977Y-96046771D01*
D11*
X78776865Y-78932314D02*
X79276865Y-78932314D01*
X79491151Y-79718028D02*
X78776865Y-79718028D01*
X78776865Y-79718028D02*
X78776865Y-78218028D01*
X78776865Y-78218028D02*
X79491151Y-78218028D01*
X80348294Y-79718028D02*
X80205437Y-79646600D01*
X80205437Y-79646600D02*
X80134008Y-79503742D01*
X80134008Y-79503742D02*
X80134008Y-78218028D01*
X81491151Y-79646600D02*
X81348294Y-79718028D01*
X81348294Y-79718028D02*
X81062580Y-79718028D01*
X81062580Y-79718028D02*
X80919722Y-79646600D01*
X80919722Y-79646600D02*
X80848294Y-79503742D01*
X80848294Y-79503742D02*
X80848294Y-78932314D01*
X80848294Y-78932314D02*
X80919722Y-78789457D01*
X80919722Y-78789457D02*
X81062580Y-78718028D01*
X81062580Y-78718028D02*
X81348294Y-78718028D01*
X81348294Y-78718028D02*
X81491151Y-78789457D01*
X81491151Y-78789457D02*
X81562580Y-78932314D01*
X81562580Y-78932314D02*
X81562580Y-79075171D01*
X81562580Y-79075171D02*
X80848294Y-79218028D01*
X82848294Y-79646600D02*
X82705436Y-79718028D01*
X82705436Y-79718028D02*
X82419722Y-79718028D01*
X82419722Y-79718028D02*
X82276865Y-79646600D01*
X82276865Y-79646600D02*
X82205436Y-79575171D01*
X82205436Y-79575171D02*
X82134008Y-79432314D01*
X82134008Y-79432314D02*
X82134008Y-79003742D01*
X82134008Y-79003742D02*
X82205436Y-78860885D01*
X82205436Y-78860885D02*
X82276865Y-78789457D01*
X82276865Y-78789457D02*
X82419722Y-78718028D01*
X82419722Y-78718028D02*
X82705436Y-78718028D01*
X82705436Y-78718028D02*
X82848294Y-78789457D01*
X83276865Y-78718028D02*
X83848293Y-78718028D01*
X83491150Y-78218028D02*
X83491150Y-79503742D01*
X83491150Y-79503742D02*
X83562579Y-79646600D01*
X83562579Y-79646600D02*
X83705436Y-79718028D01*
X83705436Y-79718028D02*
X83848293Y-79718028D01*
X84348293Y-79718028D02*
X84348293Y-78718028D01*
X84348293Y-79003742D02*
X84419722Y-78860885D01*
X84419722Y-78860885D02*
X84491151Y-78789457D01*
X84491151Y-78789457D02*
X84634008Y-78718028D01*
X84634008Y-78718028D02*
X84776865Y-78718028D01*
X85276864Y-79718028D02*
X85276864Y-78718028D01*
X85276864Y-78218028D02*
X85205436Y-78289457D01*
X85205436Y-78289457D02*
X85276864Y-78360885D01*
X85276864Y-78360885D02*
X85348293Y-78289457D01*
X85348293Y-78289457D02*
X85276864Y-78218028D01*
X85276864Y-78218028D02*
X85276864Y-78360885D01*
X86634008Y-79646600D02*
X86491150Y-79718028D01*
X86491150Y-79718028D02*
X86205436Y-79718028D01*
X86205436Y-79718028D02*
X86062579Y-79646600D01*
X86062579Y-79646600D02*
X85991150Y-79575171D01*
X85991150Y-79575171D02*
X85919722Y-79432314D01*
X85919722Y-79432314D02*
X85919722Y-79003742D01*
X85919722Y-79003742D02*
X85991150Y-78860885D01*
X85991150Y-78860885D02*
X86062579Y-78789457D01*
X86062579Y-78789457D02*
X86205436Y-78718028D01*
X86205436Y-78718028D02*
X86491150Y-78718028D01*
X86491150Y-78718028D02*
X86634008Y-78789457D01*
X87919722Y-79718028D02*
X87919722Y-78932314D01*
X87919722Y-78932314D02*
X87848293Y-78789457D01*
X87848293Y-78789457D02*
X87705436Y-78718028D01*
X87705436Y-78718028D02*
X87419722Y-78718028D01*
X87419722Y-78718028D02*
X87276864Y-78789457D01*
X87919722Y-79646600D02*
X87776864Y-79718028D01*
X87776864Y-79718028D02*
X87419722Y-79718028D01*
X87419722Y-79718028D02*
X87276864Y-79646600D01*
X87276864Y-79646600D02*
X87205436Y-79503742D01*
X87205436Y-79503742D02*
X87205436Y-79360885D01*
X87205436Y-79360885D02*
X87276864Y-79218028D01*
X87276864Y-79218028D02*
X87419722Y-79146600D01*
X87419722Y-79146600D02*
X87776864Y-79146600D01*
X87776864Y-79146600D02*
X87919722Y-79075171D01*
X88848293Y-79718028D02*
X88705436Y-79646600D01*
X88705436Y-79646600D02*
X88634007Y-79503742D01*
X88634007Y-79503742D02*
X88634007Y-78218028D01*
X90562578Y-79718028D02*
X90562578Y-78218028D01*
X90562578Y-78218028D02*
X90919721Y-78218028D01*
X90919721Y-78218028D02*
X91134007Y-78289457D01*
X91134007Y-78289457D02*
X91276864Y-78432314D01*
X91276864Y-78432314D02*
X91348293Y-78575171D01*
X91348293Y-78575171D02*
X91419721Y-78860885D01*
X91419721Y-78860885D02*
X91419721Y-79075171D01*
X91419721Y-79075171D02*
X91348293Y-79360885D01*
X91348293Y-79360885D02*
X91276864Y-79503742D01*
X91276864Y-79503742D02*
X91134007Y-79646600D01*
X91134007Y-79646600D02*
X90919721Y-79718028D01*
X90919721Y-79718028D02*
X90562578Y-79718028D01*
X92062578Y-79718028D02*
X92062578Y-78718028D01*
X92062578Y-78218028D02*
X91991150Y-78289457D01*
X91991150Y-78289457D02*
X92062578Y-78360885D01*
X92062578Y-78360885D02*
X92134007Y-78289457D01*
X92134007Y-78289457D02*
X92062578Y-78218028D01*
X92062578Y-78218028D02*
X92062578Y-78360885D01*
X92705436Y-79646600D02*
X92848293Y-79718028D01*
X92848293Y-79718028D02*
X93134007Y-79718028D01*
X93134007Y-79718028D02*
X93276864Y-79646600D01*
X93276864Y-79646600D02*
X93348293Y-79503742D01*
X93348293Y-79503742D02*
X93348293Y-79432314D01*
X93348293Y-79432314D02*
X93276864Y-79289457D01*
X93276864Y-79289457D02*
X93134007Y-79218028D01*
X93134007Y-79218028D02*
X92919722Y-79218028D01*
X92919722Y-79218028D02*
X92776864Y-79146600D01*
X92776864Y-79146600D02*
X92705436Y-79003742D01*
X92705436Y-79003742D02*
X92705436Y-78932314D01*
X92705436Y-78932314D02*
X92776864Y-78789457D01*
X92776864Y-78789457D02*
X92919722Y-78718028D01*
X92919722Y-78718028D02*
X93134007Y-78718028D01*
X93134007Y-78718028D02*
X93276864Y-78789457D01*
X94634008Y-79646600D02*
X94491150Y-79718028D01*
X94491150Y-79718028D02*
X94205436Y-79718028D01*
X94205436Y-79718028D02*
X94062579Y-79646600D01*
X94062579Y-79646600D02*
X93991150Y-79575171D01*
X93991150Y-79575171D02*
X93919722Y-79432314D01*
X93919722Y-79432314D02*
X93919722Y-79003742D01*
X93919722Y-79003742D02*
X93991150Y-78860885D01*
X93991150Y-78860885D02*
X94062579Y-78789457D01*
X94062579Y-78789457D02*
X94205436Y-78718028D01*
X94205436Y-78718028D02*
X94491150Y-78718028D01*
X94491150Y-78718028D02*
X94634008Y-78789457D01*
X95276864Y-79718028D02*
X95276864Y-78218028D01*
X95919722Y-79718028D02*
X95919722Y-78932314D01*
X95919722Y-78932314D02*
X95848293Y-78789457D01*
X95848293Y-78789457D02*
X95705436Y-78718028D01*
X95705436Y-78718028D02*
X95491150Y-78718028D01*
X95491150Y-78718028D02*
X95348293Y-78789457D01*
X95348293Y-78789457D02*
X95276864Y-78860885D01*
X97276865Y-79718028D02*
X97276865Y-78932314D01*
X97276865Y-78932314D02*
X97205436Y-78789457D01*
X97205436Y-78789457D02*
X97062579Y-78718028D01*
X97062579Y-78718028D02*
X96776865Y-78718028D01*
X96776865Y-78718028D02*
X96634007Y-78789457D01*
X97276865Y-79646600D02*
X97134007Y-79718028D01*
X97134007Y-79718028D02*
X96776865Y-79718028D01*
X96776865Y-79718028D02*
X96634007Y-79646600D01*
X96634007Y-79646600D02*
X96562579Y-79503742D01*
X96562579Y-79503742D02*
X96562579Y-79360885D01*
X96562579Y-79360885D02*
X96634007Y-79218028D01*
X96634007Y-79218028D02*
X96776865Y-79146600D01*
X96776865Y-79146600D02*
X97134007Y-79146600D01*
X97134007Y-79146600D02*
X97276865Y-79075171D01*
X97991150Y-79718028D02*
X97991150Y-78718028D01*
X97991150Y-79003742D02*
X98062579Y-78860885D01*
X98062579Y-78860885D02*
X98134008Y-78789457D01*
X98134008Y-78789457D02*
X98276865Y-78718028D01*
X98276865Y-78718028D02*
X98419722Y-78718028D01*
X99562579Y-78718028D02*
X99562579Y-79932314D01*
X99562579Y-79932314D02*
X99491150Y-80075171D01*
X99491150Y-80075171D02*
X99419721Y-80146600D01*
X99419721Y-80146600D02*
X99276864Y-80218028D01*
X99276864Y-80218028D02*
X99062579Y-80218028D01*
X99062579Y-80218028D02*
X98919721Y-80146600D01*
X99562579Y-79646600D02*
X99419721Y-79718028D01*
X99419721Y-79718028D02*
X99134007Y-79718028D01*
X99134007Y-79718028D02*
X98991150Y-79646600D01*
X98991150Y-79646600D02*
X98919721Y-79575171D01*
X98919721Y-79575171D02*
X98848293Y-79432314D01*
X98848293Y-79432314D02*
X98848293Y-79003742D01*
X98848293Y-79003742D02*
X98919721Y-78860885D01*
X98919721Y-78860885D02*
X98991150Y-78789457D01*
X98991150Y-78789457D02*
X99134007Y-78718028D01*
X99134007Y-78718028D02*
X99419721Y-78718028D01*
X99419721Y-78718028D02*
X99562579Y-78789457D01*
X100848293Y-79646600D02*
X100705436Y-79718028D01*
X100705436Y-79718028D02*
X100419722Y-79718028D01*
X100419722Y-79718028D02*
X100276864Y-79646600D01*
X100276864Y-79646600D02*
X100205436Y-79503742D01*
X100205436Y-79503742D02*
X100205436Y-78932314D01*
X100205436Y-78932314D02*
X100276864Y-78789457D01*
X100276864Y-78789457D02*
X100419722Y-78718028D01*
X100419722Y-78718028D02*
X100705436Y-78718028D01*
X100705436Y-78718028D02*
X100848293Y-78789457D01*
X100848293Y-78789457D02*
X100919722Y-78932314D01*
X100919722Y-78932314D02*
X100919722Y-79075171D01*
X100919722Y-79075171D02*
X100205436Y-79218028D01*
D10*
X62399692Y-57309019D02*
X62066359Y-56832828D01*
X61828264Y-57309019D02*
X61828264Y-56309019D01*
X61828264Y-56309019D02*
X62209216Y-56309019D01*
X62209216Y-56309019D02*
X62304454Y-56356638D01*
X62304454Y-56356638D02*
X62352073Y-56404257D01*
X62352073Y-56404257D02*
X62399692Y-56499495D01*
X62399692Y-56499495D02*
X62399692Y-56642352D01*
X62399692Y-56642352D02*
X62352073Y-56737590D01*
X62352073Y-56737590D02*
X62304454Y-56785209D01*
X62304454Y-56785209D02*
X62209216Y-56832828D01*
X62209216Y-56832828D02*
X61828264Y-56832828D01*
X63352073Y-57309019D02*
X62780645Y-57309019D01*
X63066359Y-57309019D02*
X63066359Y-56309019D01*
X63066359Y-56309019D02*
X62971121Y-56451876D01*
X62971121Y-56451876D02*
X62875883Y-56547114D01*
X62875883Y-56547114D02*
X62780645Y-56594733D01*
X63685407Y-56309019D02*
X64304454Y-56309019D01*
X64304454Y-56309019D02*
X63971121Y-56689971D01*
X63971121Y-56689971D02*
X64113978Y-56689971D01*
X64113978Y-56689971D02*
X64209216Y-56737590D01*
X64209216Y-56737590D02*
X64256835Y-56785209D01*
X64256835Y-56785209D02*
X64304454Y-56880447D01*
X64304454Y-56880447D02*
X64304454Y-57118542D01*
X64304454Y-57118542D02*
X64256835Y-57213780D01*
X64256835Y-57213780D02*
X64209216Y-57261400D01*
X64209216Y-57261400D02*
X64113978Y-57309019D01*
X64113978Y-57309019D02*
X63828264Y-57309019D01*
X63828264Y-57309019D02*
X63733026Y-57261400D01*
X63733026Y-57261400D02*
X63685407Y-57213780D01*
X91469380Y-113190257D02*
X91517000Y-113237876D01*
X91517000Y-113237876D02*
X91564619Y-113380733D01*
X91564619Y-113380733D02*
X91564619Y-113475971D01*
X91564619Y-113475971D02*
X91517000Y-113618828D01*
X91517000Y-113618828D02*
X91421761Y-113714066D01*
X91421761Y-113714066D02*
X91326523Y-113761685D01*
X91326523Y-113761685D02*
X91136047Y-113809304D01*
X91136047Y-113809304D02*
X90993190Y-113809304D01*
X90993190Y-113809304D02*
X90802714Y-113761685D01*
X90802714Y-113761685D02*
X90707476Y-113714066D01*
X90707476Y-113714066D02*
X90612238Y-113618828D01*
X90612238Y-113618828D02*
X90564619Y-113475971D01*
X90564619Y-113475971D02*
X90564619Y-113380733D01*
X90564619Y-113380733D02*
X90612238Y-113237876D01*
X90612238Y-113237876D02*
X90659857Y-113190257D01*
X91564619Y-112237876D02*
X91564619Y-112809304D01*
X91564619Y-112523590D02*
X90564619Y-112523590D01*
X90564619Y-112523590D02*
X90707476Y-112618828D01*
X90707476Y-112618828D02*
X90802714Y-112714066D01*
X90802714Y-112714066D02*
X90850333Y-112809304D01*
X90897952Y-111380733D02*
X91564619Y-111380733D01*
X90517000Y-111618828D02*
X91231285Y-111856923D01*
X91231285Y-111856923D02*
X91231285Y-111237876D01*
X33194666Y-37554819D02*
X33194666Y-38269104D01*
X33194666Y-38269104D02*
X33147047Y-38411961D01*
X33147047Y-38411961D02*
X33051809Y-38507200D01*
X33051809Y-38507200D02*
X32908952Y-38554819D01*
X32908952Y-38554819D02*
X32813714Y-38554819D01*
X34099428Y-37888152D02*
X34099428Y-38554819D01*
X33861333Y-37507200D02*
X33623238Y-38221485D01*
X33623238Y-38221485D02*
X34242285Y-38221485D01*
D13*
X99928437Y-39156918D02*
X99928437Y-37886918D01*
X101258914Y-39035965D02*
X101198438Y-39096442D01*
X101198438Y-39096442D02*
X101017009Y-39156918D01*
X101017009Y-39156918D02*
X100896057Y-39156918D01*
X100896057Y-39156918D02*
X100714628Y-39096442D01*
X100714628Y-39096442D02*
X100593676Y-38975489D01*
X100593676Y-38975489D02*
X100533199Y-38854537D01*
X100533199Y-38854537D02*
X100472723Y-38612632D01*
X100472723Y-38612632D02*
X100472723Y-38431203D01*
X100472723Y-38431203D02*
X100533199Y-38189299D01*
X100533199Y-38189299D02*
X100593676Y-38068346D01*
X100593676Y-38068346D02*
X100714628Y-37947394D01*
X100714628Y-37947394D02*
X100896057Y-37886918D01*
X100896057Y-37886918D02*
X101017009Y-37886918D01*
X101017009Y-37886918D02*
X101198438Y-37947394D01*
X101198438Y-37947394D02*
X101258914Y-38007870D01*
X102407961Y-37886918D02*
X101803199Y-37886918D01*
X101803199Y-37886918D02*
X101742723Y-38491680D01*
X101742723Y-38491680D02*
X101803199Y-38431203D01*
X101803199Y-38431203D02*
X101924152Y-38370727D01*
X101924152Y-38370727D02*
X102226533Y-38370727D01*
X102226533Y-38370727D02*
X102347485Y-38431203D01*
X102347485Y-38431203D02*
X102407961Y-38491680D01*
X102407961Y-38491680D02*
X102468438Y-38612632D01*
X102468438Y-38612632D02*
X102468438Y-38915013D01*
X102468438Y-38915013D02*
X102407961Y-39035965D01*
X102407961Y-39035965D02*
X102347485Y-39096442D01*
X102347485Y-39096442D02*
X102226533Y-39156918D01*
X102226533Y-39156918D02*
X101924152Y-39156918D01*
X101924152Y-39156918D02*
X101803199Y-39096442D01*
X101803199Y-39096442D02*
X101742723Y-39035965D01*
D10*
X106734419Y-63107866D02*
X106258228Y-63441199D01*
X106734419Y-63679294D02*
X105734419Y-63679294D01*
X105734419Y-63679294D02*
X105734419Y-63298342D01*
X105734419Y-63298342D02*
X105782038Y-63203104D01*
X105782038Y-63203104D02*
X105829657Y-63155485D01*
X105829657Y-63155485D02*
X105924895Y-63107866D01*
X105924895Y-63107866D02*
X106067752Y-63107866D01*
X106067752Y-63107866D02*
X106162990Y-63155485D01*
X106162990Y-63155485D02*
X106210609Y-63203104D01*
X106210609Y-63203104D02*
X106258228Y-63298342D01*
X106258228Y-63298342D02*
X106258228Y-63679294D01*
X106734419Y-62631675D02*
X106734419Y-62441199D01*
X106734419Y-62441199D02*
X106686800Y-62345961D01*
X106686800Y-62345961D02*
X106639180Y-62298342D01*
X106639180Y-62298342D02*
X106496323Y-62203104D01*
X106496323Y-62203104D02*
X106305847Y-62155485D01*
X106305847Y-62155485D02*
X105924895Y-62155485D01*
X105924895Y-62155485D02*
X105829657Y-62203104D01*
X105829657Y-62203104D02*
X105782038Y-62250723D01*
X105782038Y-62250723D02*
X105734419Y-62345961D01*
X105734419Y-62345961D02*
X105734419Y-62536437D01*
X105734419Y-62536437D02*
X105782038Y-62631675D01*
X105782038Y-62631675D02*
X105829657Y-62679294D01*
X105829657Y-62679294D02*
X105924895Y-62726913D01*
X105924895Y-62726913D02*
X106162990Y-62726913D01*
X106162990Y-62726913D02*
X106258228Y-62679294D01*
X106258228Y-62679294D02*
X106305847Y-62631675D01*
X106305847Y-62631675D02*
X106353466Y-62536437D01*
X106353466Y-62536437D02*
X106353466Y-62345961D01*
X106353466Y-62345961D02*
X106305847Y-62250723D01*
X106305847Y-62250723D02*
X106258228Y-62203104D01*
X106258228Y-62203104D02*
X106162990Y-62155485D01*
X48479333Y-97635219D02*
X48146000Y-97159028D01*
X47907905Y-97635219D02*
X47907905Y-96635219D01*
X47907905Y-96635219D02*
X48288857Y-96635219D01*
X48288857Y-96635219D02*
X48384095Y-96682838D01*
X48384095Y-96682838D02*
X48431714Y-96730457D01*
X48431714Y-96730457D02*
X48479333Y-96825695D01*
X48479333Y-96825695D02*
X48479333Y-96968552D01*
X48479333Y-96968552D02*
X48431714Y-97063790D01*
X48431714Y-97063790D02*
X48384095Y-97111409D01*
X48384095Y-97111409D02*
X48288857Y-97159028D01*
X48288857Y-97159028D02*
X47907905Y-97159028D01*
X49384095Y-96635219D02*
X48907905Y-96635219D01*
X48907905Y-96635219D02*
X48860286Y-97111409D01*
X48860286Y-97111409D02*
X48907905Y-97063790D01*
X48907905Y-97063790D02*
X49003143Y-97016171D01*
X49003143Y-97016171D02*
X49241238Y-97016171D01*
X49241238Y-97016171D02*
X49336476Y-97063790D01*
X49336476Y-97063790D02*
X49384095Y-97111409D01*
X49384095Y-97111409D02*
X49431714Y-97206647D01*
X49431714Y-97206647D02*
X49431714Y-97444742D01*
X49431714Y-97444742D02*
X49384095Y-97539980D01*
X49384095Y-97539980D02*
X49336476Y-97587600D01*
X49336476Y-97587600D02*
X49241238Y-97635219D01*
X49241238Y-97635219D02*
X49003143Y-97635219D01*
X49003143Y-97635219D02*
X48907905Y-97587600D01*
X48907905Y-97587600D02*
X48860286Y-97539980D01*
X32029495Y-121231819D02*
X32029495Y-120231819D01*
X32029495Y-120708009D02*
X32600923Y-120708009D01*
X32600923Y-121231819D02*
X32600923Y-120231819D01*
X33029495Y-120327057D02*
X33077114Y-120279438D01*
X33077114Y-120279438D02*
X33172352Y-120231819D01*
X33172352Y-120231819D02*
X33410447Y-120231819D01*
X33410447Y-120231819D02*
X33505685Y-120279438D01*
X33505685Y-120279438D02*
X33553304Y-120327057D01*
X33553304Y-120327057D02*
X33600923Y-120422295D01*
X33600923Y-120422295D02*
X33600923Y-120517533D01*
X33600923Y-120517533D02*
X33553304Y-120660390D01*
X33553304Y-120660390D02*
X32981876Y-121231819D01*
X32981876Y-121231819D02*
X33600923Y-121231819D01*
X28838095Y-28254819D02*
X28838095Y-27254819D01*
X28838095Y-27731009D02*
X29409523Y-27731009D01*
X29409523Y-28254819D02*
X29409523Y-27254819D01*
X30409523Y-28254819D02*
X29838095Y-28254819D01*
X30123809Y-28254819D02*
X30123809Y-27254819D01*
X30123809Y-27254819D02*
X30028571Y-27397676D01*
X30028571Y-27397676D02*
X29933333Y-27492914D01*
X29933333Y-27492914D02*
X29838095Y-27540533D01*
X30009180Y-49664666D02*
X29294895Y-49664666D01*
X29294895Y-49664666D02*
X29152038Y-49617047D01*
X29152038Y-49617047D02*
X29056800Y-49521809D01*
X29056800Y-49521809D02*
X29009180Y-49378952D01*
X29009180Y-49378952D02*
X29009180Y-49283714D01*
X30009180Y-50569428D02*
X30009180Y-50378952D01*
X30009180Y-50378952D02*
X29961561Y-50283714D01*
X29961561Y-50283714D02*
X29913942Y-50236095D01*
X29913942Y-50236095D02*
X29771085Y-50140857D01*
X29771085Y-50140857D02*
X29580609Y-50093238D01*
X29580609Y-50093238D02*
X29199657Y-50093238D01*
X29199657Y-50093238D02*
X29104419Y-50140857D01*
X29104419Y-50140857D02*
X29056800Y-50188476D01*
X29056800Y-50188476D02*
X29009180Y-50283714D01*
X29009180Y-50283714D02*
X29009180Y-50474190D01*
X29009180Y-50474190D02*
X29056800Y-50569428D01*
X29056800Y-50569428D02*
X29104419Y-50617047D01*
X29104419Y-50617047D02*
X29199657Y-50664666D01*
X29199657Y-50664666D02*
X29437752Y-50664666D01*
X29437752Y-50664666D02*
X29532990Y-50617047D01*
X29532990Y-50617047D02*
X29580609Y-50569428D01*
X29580609Y-50569428D02*
X29628228Y-50474190D01*
X29628228Y-50474190D02*
X29628228Y-50283714D01*
X29628228Y-50283714D02*
X29580609Y-50188476D01*
X29580609Y-50188476D02*
X29532990Y-50140857D01*
X29532990Y-50140857D02*
X29437752Y-50093238D01*
X42591092Y-56722019D02*
X42257759Y-56245828D01*
X42019664Y-56722019D02*
X42019664Y-55722019D01*
X42019664Y-55722019D02*
X42400616Y-55722019D01*
X42400616Y-55722019D02*
X42495854Y-55769638D01*
X42495854Y-55769638D02*
X42543473Y-55817257D01*
X42543473Y-55817257D02*
X42591092Y-55912495D01*
X42591092Y-55912495D02*
X42591092Y-56055352D01*
X42591092Y-56055352D02*
X42543473Y-56150590D01*
X42543473Y-56150590D02*
X42495854Y-56198209D01*
X42495854Y-56198209D02*
X42400616Y-56245828D01*
X42400616Y-56245828D02*
X42019664Y-56245828D01*
X43543473Y-56722019D02*
X42972045Y-56722019D01*
X43257759Y-56722019D02*
X43257759Y-55722019D01*
X43257759Y-55722019D02*
X43162521Y-55864876D01*
X43162521Y-55864876D02*
X43067283Y-55960114D01*
X43067283Y-55960114D02*
X42972045Y-56007733D01*
X43924426Y-55817257D02*
X43972045Y-55769638D01*
X43972045Y-55769638D02*
X44067283Y-55722019D01*
X44067283Y-55722019D02*
X44305378Y-55722019D01*
X44305378Y-55722019D02*
X44400616Y-55769638D01*
X44400616Y-55769638D02*
X44448235Y-55817257D01*
X44448235Y-55817257D02*
X44495854Y-55912495D01*
X44495854Y-55912495D02*
X44495854Y-56007733D01*
X44495854Y-56007733D02*
X44448235Y-56150590D01*
X44448235Y-56150590D02*
X43876807Y-56722019D01*
X43876807Y-56722019D02*
X44495854Y-56722019D01*
X87679419Y-32078466D02*
X87203228Y-32411799D01*
X87679419Y-32649894D02*
X86679419Y-32649894D01*
X86679419Y-32649894D02*
X86679419Y-32268942D01*
X86679419Y-32268942D02*
X86727038Y-32173704D01*
X86727038Y-32173704D02*
X86774657Y-32126085D01*
X86774657Y-32126085D02*
X86869895Y-32078466D01*
X86869895Y-32078466D02*
X87012752Y-32078466D01*
X87012752Y-32078466D02*
X87107990Y-32126085D01*
X87107990Y-32126085D02*
X87155609Y-32173704D01*
X87155609Y-32173704D02*
X87203228Y-32268942D01*
X87203228Y-32268942D02*
X87203228Y-32649894D01*
X86774657Y-31697513D02*
X86727038Y-31649894D01*
X86727038Y-31649894D02*
X86679419Y-31554656D01*
X86679419Y-31554656D02*
X86679419Y-31316561D01*
X86679419Y-31316561D02*
X86727038Y-31221323D01*
X86727038Y-31221323D02*
X86774657Y-31173704D01*
X86774657Y-31173704D02*
X86869895Y-31126085D01*
X86869895Y-31126085D02*
X86965133Y-31126085D01*
X86965133Y-31126085D02*
X87107990Y-31173704D01*
X87107990Y-31173704D02*
X87679419Y-31745132D01*
X87679419Y-31745132D02*
X87679419Y-31126085D01*
X105681542Y-45641419D02*
X105348209Y-45165228D01*
X105110114Y-45641419D02*
X105110114Y-44641419D01*
X105110114Y-44641419D02*
X105491066Y-44641419D01*
X105491066Y-44641419D02*
X105586304Y-44689038D01*
X105586304Y-44689038D02*
X105633923Y-44736657D01*
X105633923Y-44736657D02*
X105681542Y-44831895D01*
X105681542Y-44831895D02*
X105681542Y-44974752D01*
X105681542Y-44974752D02*
X105633923Y-45069990D01*
X105633923Y-45069990D02*
X105586304Y-45117609D01*
X105586304Y-45117609D02*
X105491066Y-45165228D01*
X105491066Y-45165228D02*
X105110114Y-45165228D01*
X106538685Y-44974752D02*
X106538685Y-45641419D01*
X106300590Y-44593800D02*
X106062495Y-45308085D01*
X106062495Y-45308085D02*
X106681542Y-45308085D01*
X107014876Y-44736657D02*
X107062495Y-44689038D01*
X107062495Y-44689038D02*
X107157733Y-44641419D01*
X107157733Y-44641419D02*
X107395828Y-44641419D01*
X107395828Y-44641419D02*
X107491066Y-44689038D01*
X107491066Y-44689038D02*
X107538685Y-44736657D01*
X107538685Y-44736657D02*
X107586304Y-44831895D01*
X107586304Y-44831895D02*
X107586304Y-44927133D01*
X107586304Y-44927133D02*
X107538685Y-45069990D01*
X107538685Y-45069990D02*
X106967257Y-45641419D01*
X106967257Y-45641419D02*
X107586304Y-45641419D01*
X56639619Y-33053257D02*
X56163428Y-33386590D01*
X56639619Y-33624685D02*
X55639619Y-33624685D01*
X55639619Y-33624685D02*
X55639619Y-33243733D01*
X55639619Y-33243733D02*
X55687238Y-33148495D01*
X55687238Y-33148495D02*
X55734857Y-33100876D01*
X55734857Y-33100876D02*
X55830095Y-33053257D01*
X55830095Y-33053257D02*
X55972952Y-33053257D01*
X55972952Y-33053257D02*
X56068190Y-33100876D01*
X56068190Y-33100876D02*
X56115809Y-33148495D01*
X56115809Y-33148495D02*
X56163428Y-33243733D01*
X56163428Y-33243733D02*
X56163428Y-33624685D01*
X55639619Y-32719923D02*
X55639619Y-32100876D01*
X55639619Y-32100876D02*
X56020571Y-32434209D01*
X56020571Y-32434209D02*
X56020571Y-32291352D01*
X56020571Y-32291352D02*
X56068190Y-32196114D01*
X56068190Y-32196114D02*
X56115809Y-32148495D01*
X56115809Y-32148495D02*
X56211047Y-32100876D01*
X56211047Y-32100876D02*
X56449142Y-32100876D01*
X56449142Y-32100876D02*
X56544380Y-32148495D01*
X56544380Y-32148495D02*
X56592000Y-32196114D01*
X56592000Y-32196114D02*
X56639619Y-32291352D01*
X56639619Y-32291352D02*
X56639619Y-32577066D01*
X56639619Y-32577066D02*
X56592000Y-32672304D01*
X56592000Y-32672304D02*
X56544380Y-32719923D01*
X55639619Y-31767542D02*
X55639619Y-31148495D01*
X55639619Y-31148495D02*
X56020571Y-31481828D01*
X56020571Y-31481828D02*
X56020571Y-31338971D01*
X56020571Y-31338971D02*
X56068190Y-31243733D01*
X56068190Y-31243733D02*
X56115809Y-31196114D01*
X56115809Y-31196114D02*
X56211047Y-31148495D01*
X56211047Y-31148495D02*
X56449142Y-31148495D01*
X56449142Y-31148495D02*
X56544380Y-31196114D01*
X56544380Y-31196114D02*
X56592000Y-31243733D01*
X56592000Y-31243733D02*
X56639619Y-31338971D01*
X56639619Y-31338971D02*
X56639619Y-31624685D01*
X56639619Y-31624685D02*
X56592000Y-31719923D01*
X56592000Y-31719923D02*
X56544380Y-31767542D01*
D13*
X77330905Y-112122084D02*
X77330905Y-113029227D01*
X77330905Y-113029227D02*
X77270428Y-113210655D01*
X77270428Y-113210655D02*
X77149476Y-113331608D01*
X77149476Y-113331608D02*
X76968047Y-113392084D01*
X76968047Y-113392084D02*
X76847095Y-113392084D01*
X78600905Y-113392084D02*
X77875190Y-113392084D01*
X78238047Y-113392084D02*
X78238047Y-112122084D01*
X78238047Y-112122084D02*
X78117095Y-112303512D01*
X78117095Y-112303512D02*
X77996143Y-112424465D01*
X77996143Y-112424465D02*
X77875190Y-112484941D01*
X79024238Y-112122084D02*
X79870905Y-112122084D01*
X79870905Y-112122084D02*
X79326619Y-113392084D01*
D10*
X44072980Y-49207657D02*
X44120600Y-49255276D01*
X44120600Y-49255276D02*
X44168219Y-49398133D01*
X44168219Y-49398133D02*
X44168219Y-49493371D01*
X44168219Y-49493371D02*
X44120600Y-49636228D01*
X44120600Y-49636228D02*
X44025361Y-49731466D01*
X44025361Y-49731466D02*
X43930123Y-49779085D01*
X43930123Y-49779085D02*
X43739647Y-49826704D01*
X43739647Y-49826704D02*
X43596790Y-49826704D01*
X43596790Y-49826704D02*
X43406314Y-49779085D01*
X43406314Y-49779085D02*
X43311076Y-49731466D01*
X43311076Y-49731466D02*
X43215838Y-49636228D01*
X43215838Y-49636228D02*
X43168219Y-49493371D01*
X43168219Y-49493371D02*
X43168219Y-49398133D01*
X43168219Y-49398133D02*
X43215838Y-49255276D01*
X43215838Y-49255276D02*
X43263457Y-49207657D01*
X44168219Y-48255276D02*
X44168219Y-48826704D01*
X44168219Y-48540990D02*
X43168219Y-48540990D01*
X43168219Y-48540990D02*
X43311076Y-48636228D01*
X43311076Y-48636228D02*
X43406314Y-48731466D01*
X43406314Y-48731466D02*
X43453933Y-48826704D01*
X43168219Y-47350514D02*
X43168219Y-47826704D01*
X43168219Y-47826704D02*
X43644409Y-47874323D01*
X43644409Y-47874323D02*
X43596790Y-47826704D01*
X43596790Y-47826704D02*
X43549171Y-47731466D01*
X43549171Y-47731466D02*
X43549171Y-47493371D01*
X43549171Y-47493371D02*
X43596790Y-47398133D01*
X43596790Y-47398133D02*
X43644409Y-47350514D01*
X43644409Y-47350514D02*
X43739647Y-47302895D01*
X43739647Y-47302895D02*
X43977742Y-47302895D01*
X43977742Y-47302895D02*
X44072980Y-47350514D01*
X44072980Y-47350514D02*
X44120600Y-47398133D01*
X44120600Y-47398133D02*
X44168219Y-47493371D01*
X44168219Y-47493371D02*
X44168219Y-47731466D01*
X44168219Y-47731466D02*
X44120600Y-47826704D01*
X44120600Y-47826704D02*
X44072980Y-47874323D01*
X75607942Y-38484980D02*
X75560323Y-38532600D01*
X75560323Y-38532600D02*
X75417466Y-38580219D01*
X75417466Y-38580219D02*
X75322228Y-38580219D01*
X75322228Y-38580219D02*
X75179371Y-38532600D01*
X75179371Y-38532600D02*
X75084133Y-38437361D01*
X75084133Y-38437361D02*
X75036514Y-38342123D01*
X75036514Y-38342123D02*
X74988895Y-38151647D01*
X74988895Y-38151647D02*
X74988895Y-38008790D01*
X74988895Y-38008790D02*
X75036514Y-37818314D01*
X75036514Y-37818314D02*
X75084133Y-37723076D01*
X75084133Y-37723076D02*
X75179371Y-37627838D01*
X75179371Y-37627838D02*
X75322228Y-37580219D01*
X75322228Y-37580219D02*
X75417466Y-37580219D01*
X75417466Y-37580219D02*
X75560323Y-37627838D01*
X75560323Y-37627838D02*
X75607942Y-37675457D01*
X76560323Y-38580219D02*
X75988895Y-38580219D01*
X76274609Y-38580219D02*
X76274609Y-37580219D01*
X76274609Y-37580219D02*
X76179371Y-37723076D01*
X76179371Y-37723076D02*
X76084133Y-37818314D01*
X76084133Y-37818314D02*
X75988895Y-37865933D01*
X77036514Y-38580219D02*
X77226990Y-38580219D01*
X77226990Y-38580219D02*
X77322228Y-38532600D01*
X77322228Y-38532600D02*
X77369847Y-38484980D01*
X77369847Y-38484980D02*
X77465085Y-38342123D01*
X77465085Y-38342123D02*
X77512704Y-38151647D01*
X77512704Y-38151647D02*
X77512704Y-37770695D01*
X77512704Y-37770695D02*
X77465085Y-37675457D01*
X77465085Y-37675457D02*
X77417466Y-37627838D01*
X77417466Y-37627838D02*
X77322228Y-37580219D01*
X77322228Y-37580219D02*
X77131752Y-37580219D01*
X77131752Y-37580219D02*
X77036514Y-37627838D01*
X77036514Y-37627838D02*
X76988895Y-37675457D01*
X76988895Y-37675457D02*
X76941276Y-37770695D01*
X76941276Y-37770695D02*
X76941276Y-38008790D01*
X76941276Y-38008790D02*
X76988895Y-38104028D01*
X76988895Y-38104028D02*
X77036514Y-38151647D01*
X77036514Y-38151647D02*
X77131752Y-38199266D01*
X77131752Y-38199266D02*
X77322228Y-38199266D01*
X77322228Y-38199266D02*
X77417466Y-38151647D01*
X77417466Y-38151647D02*
X77465085Y-38104028D01*
X77465085Y-38104028D02*
X77512704Y-38008790D01*
X32830542Y-95888980D02*
X32782923Y-95936600D01*
X32782923Y-95936600D02*
X32640066Y-95984219D01*
X32640066Y-95984219D02*
X32544828Y-95984219D01*
X32544828Y-95984219D02*
X32401971Y-95936600D01*
X32401971Y-95936600D02*
X32306733Y-95841361D01*
X32306733Y-95841361D02*
X32259114Y-95746123D01*
X32259114Y-95746123D02*
X32211495Y-95555647D01*
X32211495Y-95555647D02*
X32211495Y-95412790D01*
X32211495Y-95412790D02*
X32259114Y-95222314D01*
X32259114Y-95222314D02*
X32306733Y-95127076D01*
X32306733Y-95127076D02*
X32401971Y-95031838D01*
X32401971Y-95031838D02*
X32544828Y-94984219D01*
X32544828Y-94984219D02*
X32640066Y-94984219D01*
X32640066Y-94984219D02*
X32782923Y-95031838D01*
X32782923Y-95031838D02*
X32830542Y-95079457D01*
X33782923Y-95984219D02*
X33211495Y-95984219D01*
X33497209Y-95984219D02*
X33497209Y-94984219D01*
X33497209Y-94984219D02*
X33401971Y-95127076D01*
X33401971Y-95127076D02*
X33306733Y-95222314D01*
X33306733Y-95222314D02*
X33211495Y-95269933D01*
X34735304Y-95984219D02*
X34163876Y-95984219D01*
X34449590Y-95984219D02*
X34449590Y-94984219D01*
X34449590Y-94984219D02*
X34354352Y-95127076D01*
X34354352Y-95127076D02*
X34259114Y-95222314D01*
X34259114Y-95222314D02*
X34163876Y-95269933D01*
X100563514Y-111656019D02*
X100563514Y-110656019D01*
X100563514Y-110656019D02*
X100801609Y-110656019D01*
X100801609Y-110656019D02*
X100944466Y-110703638D01*
X100944466Y-110703638D02*
X101039704Y-110798876D01*
X101039704Y-110798876D02*
X101087323Y-110894114D01*
X101087323Y-110894114D02*
X101134942Y-111084590D01*
X101134942Y-111084590D02*
X101134942Y-111227447D01*
X101134942Y-111227447D02*
X101087323Y-111417923D01*
X101087323Y-111417923D02*
X101039704Y-111513161D01*
X101039704Y-111513161D02*
X100944466Y-111608400D01*
X100944466Y-111608400D02*
X100801609Y-111656019D01*
X100801609Y-111656019D02*
X100563514Y-111656019D01*
X101515895Y-110751257D02*
X101563514Y-110703638D01*
X101563514Y-110703638D02*
X101658752Y-110656019D01*
X101658752Y-110656019D02*
X101896847Y-110656019D01*
X101896847Y-110656019D02*
X101992085Y-110703638D01*
X101992085Y-110703638D02*
X102039704Y-110751257D01*
X102039704Y-110751257D02*
X102087323Y-110846495D01*
X102087323Y-110846495D02*
X102087323Y-110941733D01*
X102087323Y-110941733D02*
X102039704Y-111084590D01*
X102039704Y-111084590D02*
X101468276Y-111656019D01*
X101468276Y-111656019D02*
X102087323Y-111656019D01*
X103039704Y-111656019D02*
X102468276Y-111656019D01*
X102753990Y-111656019D02*
X102753990Y-110656019D01*
X102753990Y-110656019D02*
X102658752Y-110798876D01*
X102658752Y-110798876D02*
X102563514Y-110894114D01*
X102563514Y-110894114D02*
X102468276Y-110941733D01*
X99672304Y-120126094D02*
X99672304Y-119649904D01*
X99958019Y-120221332D02*
X98958019Y-119887999D01*
X98958019Y-119887999D02*
X99958019Y-119554666D01*
X34545655Y-65739019D02*
X34545655Y-64739019D01*
X34545655Y-64739019D02*
X34783750Y-64739019D01*
X34783750Y-64739019D02*
X34926607Y-64786638D01*
X34926607Y-64786638D02*
X35021845Y-64881876D01*
X35021845Y-64881876D02*
X35069464Y-64977114D01*
X35069464Y-64977114D02*
X35117083Y-65167590D01*
X35117083Y-65167590D02*
X35117083Y-65310447D01*
X35117083Y-65310447D02*
X35069464Y-65500923D01*
X35069464Y-65500923D02*
X35021845Y-65596161D01*
X35021845Y-65596161D02*
X34926607Y-65691400D01*
X34926607Y-65691400D02*
X34783750Y-65739019D01*
X34783750Y-65739019D02*
X34545655Y-65739019D01*
X35974226Y-64739019D02*
X35783750Y-64739019D01*
X35783750Y-64739019D02*
X35688512Y-64786638D01*
X35688512Y-64786638D02*
X35640893Y-64834257D01*
X35640893Y-64834257D02*
X35545655Y-64977114D01*
X35545655Y-64977114D02*
X35498036Y-65167590D01*
X35498036Y-65167590D02*
X35498036Y-65548542D01*
X35498036Y-65548542D02*
X35545655Y-65643780D01*
X35545655Y-65643780D02*
X35593274Y-65691400D01*
X35593274Y-65691400D02*
X35688512Y-65739019D01*
X35688512Y-65739019D02*
X35878988Y-65739019D01*
X35878988Y-65739019D02*
X35974226Y-65691400D01*
X35974226Y-65691400D02*
X36021845Y-65643780D01*
X36021845Y-65643780D02*
X36069464Y-65548542D01*
X36069464Y-65548542D02*
X36069464Y-65310447D01*
X36069464Y-65310447D02*
X36021845Y-65215209D01*
X36021845Y-65215209D02*
X35974226Y-65167590D01*
X35974226Y-65167590D02*
X35878988Y-65119971D01*
X35878988Y-65119971D02*
X35688512Y-65119971D01*
X35688512Y-65119971D02*
X35593274Y-65167590D01*
X35593274Y-65167590D02*
X35545655Y-65215209D01*
X35545655Y-65215209D02*
X35498036Y-65310447D01*
X34193314Y-100276819D02*
X34193314Y-99276819D01*
X34193314Y-99276819D02*
X34431409Y-99276819D01*
X34431409Y-99276819D02*
X34574266Y-99324438D01*
X34574266Y-99324438D02*
X34669504Y-99419676D01*
X34669504Y-99419676D02*
X34717123Y-99514914D01*
X34717123Y-99514914D02*
X34764742Y-99705390D01*
X34764742Y-99705390D02*
X34764742Y-99848247D01*
X34764742Y-99848247D02*
X34717123Y-100038723D01*
X34717123Y-100038723D02*
X34669504Y-100133961D01*
X34669504Y-100133961D02*
X34574266Y-100229200D01*
X34574266Y-100229200D02*
X34431409Y-100276819D01*
X34431409Y-100276819D02*
X34193314Y-100276819D01*
X35717123Y-100276819D02*
X35145695Y-100276819D01*
X35431409Y-100276819D02*
X35431409Y-99276819D01*
X35431409Y-99276819D02*
X35336171Y-99419676D01*
X35336171Y-99419676D02*
X35240933Y-99514914D01*
X35240933Y-99514914D02*
X35145695Y-99562533D01*
X36574266Y-99610152D02*
X36574266Y-100276819D01*
X36336171Y-99229200D02*
X36098076Y-99943485D01*
X36098076Y-99943485D02*
X36717123Y-99943485D01*
X25822305Y-97843504D02*
X26298495Y-97843504D01*
X25727067Y-98129219D02*
X26060400Y-97129219D01*
X26060400Y-97129219D02*
X26393733Y-98129219D01*
X54506655Y-66275219D02*
X54506655Y-65275219D01*
X54506655Y-65275219D02*
X54744750Y-65275219D01*
X54744750Y-65275219D02*
X54887607Y-65322838D01*
X54887607Y-65322838D02*
X54982845Y-65418076D01*
X54982845Y-65418076D02*
X55030464Y-65513314D01*
X55030464Y-65513314D02*
X55078083Y-65703790D01*
X55078083Y-65703790D02*
X55078083Y-65846647D01*
X55078083Y-65846647D02*
X55030464Y-66037123D01*
X55030464Y-66037123D02*
X54982845Y-66132361D01*
X54982845Y-66132361D02*
X54887607Y-66227600D01*
X54887607Y-66227600D02*
X54744750Y-66275219D01*
X54744750Y-66275219D02*
X54506655Y-66275219D01*
X55411417Y-65275219D02*
X56078083Y-65275219D01*
X56078083Y-65275219D02*
X55649512Y-66275219D01*
D13*
X98593718Y-43238069D02*
X99621813Y-43238069D01*
X99621813Y-43238069D02*
X99742765Y-43177592D01*
X99742765Y-43177592D02*
X99803242Y-43117116D01*
X99803242Y-43117116D02*
X99863718Y-42996164D01*
X99863718Y-42996164D02*
X99863718Y-42754259D01*
X99863718Y-42754259D02*
X99803242Y-42633307D01*
X99803242Y-42633307D02*
X99742765Y-42572830D01*
X99742765Y-42572830D02*
X99621813Y-42512354D01*
X99621813Y-42512354D02*
X98593718Y-42512354D01*
X98714670Y-41968069D02*
X98654194Y-41907593D01*
X98654194Y-41907593D02*
X98593718Y-41786640D01*
X98593718Y-41786640D02*
X98593718Y-41484259D01*
X98593718Y-41484259D02*
X98654194Y-41363307D01*
X98654194Y-41363307D02*
X98714670Y-41302831D01*
X98714670Y-41302831D02*
X98835622Y-41242354D01*
X98835622Y-41242354D02*
X98956575Y-41242354D01*
X98956575Y-41242354D02*
X99138003Y-41302831D01*
X99138003Y-41302831D02*
X99863718Y-42028545D01*
X99863718Y-42028545D02*
X99863718Y-41242354D01*
X53965193Y-112058084D02*
X53965193Y-112965227D01*
X53965193Y-112965227D02*
X53904716Y-113146655D01*
X53904716Y-113146655D02*
X53783764Y-113267608D01*
X53783764Y-113267608D02*
X53602335Y-113328084D01*
X53602335Y-113328084D02*
X53481383Y-113328084D01*
X55235193Y-113328084D02*
X54509478Y-113328084D01*
X54872335Y-113328084D02*
X54872335Y-112058084D01*
X54872335Y-112058084D02*
X54751383Y-112239512D01*
X54751383Y-112239512D02*
X54630431Y-112360465D01*
X54630431Y-112360465D02*
X54509478Y-112420941D01*
X55839955Y-113328084D02*
X56081859Y-113328084D01*
X56081859Y-113328084D02*
X56202812Y-113267608D01*
X56202812Y-113267608D02*
X56263288Y-113207131D01*
X56263288Y-113207131D02*
X56384240Y-113025703D01*
X56384240Y-113025703D02*
X56444717Y-112783798D01*
X56444717Y-112783798D02*
X56444717Y-112299988D01*
X56444717Y-112299988D02*
X56384240Y-112179036D01*
X56384240Y-112179036D02*
X56323764Y-112118560D01*
X56323764Y-112118560D02*
X56202812Y-112058084D01*
X56202812Y-112058084D02*
X55960907Y-112058084D01*
X55960907Y-112058084D02*
X55839955Y-112118560D01*
X55839955Y-112118560D02*
X55779478Y-112179036D01*
X55779478Y-112179036D02*
X55719002Y-112299988D01*
X55719002Y-112299988D02*
X55719002Y-112602369D01*
X55719002Y-112602369D02*
X55779478Y-112723322D01*
X55779478Y-112723322D02*
X55839955Y-112783798D01*
X55839955Y-112783798D02*
X55960907Y-112844274D01*
X55960907Y-112844274D02*
X56202812Y-112844274D01*
X56202812Y-112844274D02*
X56323764Y-112783798D01*
X56323764Y-112783798D02*
X56384240Y-112723322D01*
X56384240Y-112723322D02*
X56444717Y-112602369D01*
D10*
X26438266Y-111672019D02*
X26438266Y-112386304D01*
X26438266Y-112386304D02*
X26390647Y-112529161D01*
X26390647Y-112529161D02*
X26295409Y-112624400D01*
X26295409Y-112624400D02*
X26152552Y-112672019D01*
X26152552Y-112672019D02*
X26057314Y-112672019D01*
X26819219Y-111672019D02*
X27485885Y-111672019D01*
X27485885Y-111672019D02*
X27057314Y-112672019D01*
X87122219Y-63093166D02*
X86646028Y-63426499D01*
X87122219Y-63664594D02*
X86122219Y-63664594D01*
X86122219Y-63664594D02*
X86122219Y-63283642D01*
X86122219Y-63283642D02*
X86169838Y-63188404D01*
X86169838Y-63188404D02*
X86217457Y-63140785D01*
X86217457Y-63140785D02*
X86312695Y-63093166D01*
X86312695Y-63093166D02*
X86455552Y-63093166D01*
X86455552Y-63093166D02*
X86550790Y-63140785D01*
X86550790Y-63140785D02*
X86598409Y-63188404D01*
X86598409Y-63188404D02*
X86646028Y-63283642D01*
X86646028Y-63283642D02*
X86646028Y-63664594D01*
X86550790Y-62521737D02*
X86503171Y-62616975D01*
X86503171Y-62616975D02*
X86455552Y-62664594D01*
X86455552Y-62664594D02*
X86360314Y-62712213D01*
X86360314Y-62712213D02*
X86312695Y-62712213D01*
X86312695Y-62712213D02*
X86217457Y-62664594D01*
X86217457Y-62664594D02*
X86169838Y-62616975D01*
X86169838Y-62616975D02*
X86122219Y-62521737D01*
X86122219Y-62521737D02*
X86122219Y-62331261D01*
X86122219Y-62331261D02*
X86169838Y-62236023D01*
X86169838Y-62236023D02*
X86217457Y-62188404D01*
X86217457Y-62188404D02*
X86312695Y-62140785D01*
X86312695Y-62140785D02*
X86360314Y-62140785D01*
X86360314Y-62140785D02*
X86455552Y-62188404D01*
X86455552Y-62188404D02*
X86503171Y-62236023D01*
X86503171Y-62236023D02*
X86550790Y-62331261D01*
X86550790Y-62331261D02*
X86550790Y-62521737D01*
X86550790Y-62521737D02*
X86598409Y-62616975D01*
X86598409Y-62616975D02*
X86646028Y-62664594D01*
X86646028Y-62664594D02*
X86741266Y-62712213D01*
X86741266Y-62712213D02*
X86931742Y-62712213D01*
X86931742Y-62712213D02*
X87026980Y-62664594D01*
X87026980Y-62664594D02*
X87074600Y-62616975D01*
X87074600Y-62616975D02*
X87122219Y-62521737D01*
X87122219Y-62521737D02*
X87122219Y-62331261D01*
X87122219Y-62331261D02*
X87074600Y-62236023D01*
X87074600Y-62236023D02*
X87026980Y-62188404D01*
X87026980Y-62188404D02*
X86931742Y-62140785D01*
X86931742Y-62140785D02*
X86741266Y-62140785D01*
X86741266Y-62140785D02*
X86646028Y-62188404D01*
X86646028Y-62188404D02*
X86598409Y-62236023D01*
X86598409Y-62236023D02*
X86550790Y-62331261D01*
X94362655Y-66224419D02*
X94362655Y-65224419D01*
X94362655Y-65224419D02*
X94600750Y-65224419D01*
X94600750Y-65224419D02*
X94743607Y-65272038D01*
X94743607Y-65272038D02*
X94838845Y-65367276D01*
X94838845Y-65367276D02*
X94886464Y-65462514D01*
X94886464Y-65462514D02*
X94934083Y-65652990D01*
X94934083Y-65652990D02*
X94934083Y-65795847D01*
X94934083Y-65795847D02*
X94886464Y-65986323D01*
X94886464Y-65986323D02*
X94838845Y-66081561D01*
X94838845Y-66081561D02*
X94743607Y-66176800D01*
X94743607Y-66176800D02*
X94600750Y-66224419D01*
X94600750Y-66224419D02*
X94362655Y-66224419D01*
X95267417Y-65224419D02*
X95886464Y-65224419D01*
X95886464Y-65224419D02*
X95553131Y-65605371D01*
X95553131Y-65605371D02*
X95695988Y-65605371D01*
X95695988Y-65605371D02*
X95791226Y-65652990D01*
X95791226Y-65652990D02*
X95838845Y-65700609D01*
X95838845Y-65700609D02*
X95886464Y-65795847D01*
X95886464Y-65795847D02*
X95886464Y-66033942D01*
X95886464Y-66033942D02*
X95838845Y-66129180D01*
X95838845Y-66129180D02*
X95791226Y-66176800D01*
X95791226Y-66176800D02*
X95695988Y-66224419D01*
X95695988Y-66224419D02*
X95410274Y-66224419D01*
X95410274Y-66224419D02*
X95315036Y-66176800D01*
X95315036Y-66176800D02*
X95267417Y-66129180D01*
X49471342Y-48654619D02*
X49138009Y-48178428D01*
X48899914Y-48654619D02*
X48899914Y-47654619D01*
X48899914Y-47654619D02*
X49280866Y-47654619D01*
X49280866Y-47654619D02*
X49376104Y-47702238D01*
X49376104Y-47702238D02*
X49423723Y-47749857D01*
X49423723Y-47749857D02*
X49471342Y-47845095D01*
X49471342Y-47845095D02*
X49471342Y-47987952D01*
X49471342Y-47987952D02*
X49423723Y-48083190D01*
X49423723Y-48083190D02*
X49376104Y-48130809D01*
X49376104Y-48130809D02*
X49280866Y-48178428D01*
X49280866Y-48178428D02*
X48899914Y-48178428D01*
X49804676Y-47654619D02*
X50423723Y-47654619D01*
X50423723Y-47654619D02*
X50090390Y-48035571D01*
X50090390Y-48035571D02*
X50233247Y-48035571D01*
X50233247Y-48035571D02*
X50328485Y-48083190D01*
X50328485Y-48083190D02*
X50376104Y-48130809D01*
X50376104Y-48130809D02*
X50423723Y-48226047D01*
X50423723Y-48226047D02*
X50423723Y-48464142D01*
X50423723Y-48464142D02*
X50376104Y-48559380D01*
X50376104Y-48559380D02*
X50328485Y-48607000D01*
X50328485Y-48607000D02*
X50233247Y-48654619D01*
X50233247Y-48654619D02*
X49947533Y-48654619D01*
X49947533Y-48654619D02*
X49852295Y-48607000D01*
X49852295Y-48607000D02*
X49804676Y-48559380D01*
X51376104Y-48654619D02*
X50804676Y-48654619D01*
X51090390Y-48654619D02*
X51090390Y-47654619D01*
X51090390Y-47654619D02*
X50995152Y-47797476D01*
X50995152Y-47797476D02*
X50899914Y-47892714D01*
X50899914Y-47892714D02*
X50804676Y-47940333D01*
X86773633Y-38078580D02*
X86726014Y-38126200D01*
X86726014Y-38126200D02*
X86583157Y-38173819D01*
X86583157Y-38173819D02*
X86487919Y-38173819D01*
X86487919Y-38173819D02*
X86345062Y-38126200D01*
X86345062Y-38126200D02*
X86249824Y-38030961D01*
X86249824Y-38030961D02*
X86202205Y-37935723D01*
X86202205Y-37935723D02*
X86154586Y-37745247D01*
X86154586Y-37745247D02*
X86154586Y-37602390D01*
X86154586Y-37602390D02*
X86202205Y-37411914D01*
X86202205Y-37411914D02*
X86249824Y-37316676D01*
X86249824Y-37316676D02*
X86345062Y-37221438D01*
X86345062Y-37221438D02*
X86487919Y-37173819D01*
X86487919Y-37173819D02*
X86583157Y-37173819D01*
X86583157Y-37173819D02*
X86726014Y-37221438D01*
X86726014Y-37221438D02*
X86773633Y-37269057D01*
X87726014Y-38173819D02*
X87154586Y-38173819D01*
X87440300Y-38173819D02*
X87440300Y-37173819D01*
X87440300Y-37173819D02*
X87345062Y-37316676D01*
X87345062Y-37316676D02*
X87249824Y-37411914D01*
X87249824Y-37411914D02*
X87154586Y-37459533D01*
X52600266Y-26455019D02*
X52600266Y-27169304D01*
X52600266Y-27169304D02*
X52552647Y-27312161D01*
X52552647Y-27312161D02*
X52457409Y-27407400D01*
X52457409Y-27407400D02*
X52314552Y-27455019D01*
X52314552Y-27455019D02*
X52219314Y-27455019D01*
X53028838Y-26550257D02*
X53076457Y-26502638D01*
X53076457Y-26502638D02*
X53171695Y-26455019D01*
X53171695Y-26455019D02*
X53409790Y-26455019D01*
X53409790Y-26455019D02*
X53505028Y-26502638D01*
X53505028Y-26502638D02*
X53552647Y-26550257D01*
X53552647Y-26550257D02*
X53600266Y-26645495D01*
X53600266Y-26645495D02*
X53600266Y-26740733D01*
X53600266Y-26740733D02*
X53552647Y-26883590D01*
X53552647Y-26883590D02*
X52981219Y-27455019D01*
X52981219Y-27455019D02*
X53600266Y-27455019D01*
X94543714Y-111529019D02*
X94543714Y-110529019D01*
X94543714Y-110529019D02*
X94781809Y-110529019D01*
X94781809Y-110529019D02*
X94924666Y-110576638D01*
X94924666Y-110576638D02*
X95019904Y-110671876D01*
X95019904Y-110671876D02*
X95067523Y-110767114D01*
X95067523Y-110767114D02*
X95115142Y-110957590D01*
X95115142Y-110957590D02*
X95115142Y-111100447D01*
X95115142Y-111100447D02*
X95067523Y-111290923D01*
X95067523Y-111290923D02*
X95019904Y-111386161D01*
X95019904Y-111386161D02*
X94924666Y-111481400D01*
X94924666Y-111481400D02*
X94781809Y-111529019D01*
X94781809Y-111529019D02*
X94543714Y-111529019D01*
X96067523Y-111529019D02*
X95496095Y-111529019D01*
X95781809Y-111529019D02*
X95781809Y-110529019D01*
X95781809Y-110529019D02*
X95686571Y-110671876D01*
X95686571Y-110671876D02*
X95591333Y-110767114D01*
X95591333Y-110767114D02*
X95496095Y-110814733D01*
X96972285Y-110529019D02*
X96496095Y-110529019D01*
X96496095Y-110529019D02*
X96448476Y-111005209D01*
X96448476Y-111005209D02*
X96496095Y-110957590D01*
X96496095Y-110957590D02*
X96591333Y-110909971D01*
X96591333Y-110909971D02*
X96829428Y-110909971D01*
X96829428Y-110909971D02*
X96924666Y-110957590D01*
X96924666Y-110957590D02*
X96972285Y-111005209D01*
X96972285Y-111005209D02*
X97019904Y-111100447D01*
X97019904Y-111100447D02*
X97019904Y-111338542D01*
X97019904Y-111338542D02*
X96972285Y-111433780D01*
X96972285Y-111433780D02*
X96924666Y-111481400D01*
X96924666Y-111481400D02*
X96829428Y-111529019D01*
X96829428Y-111529019D02*
X96591333Y-111529019D01*
X96591333Y-111529019D02*
X96496095Y-111481400D01*
X96496095Y-111481400D02*
X96448476Y-111433780D01*
X93564904Y-119937894D02*
X93564904Y-119461704D01*
X93850619Y-120033132D02*
X92850619Y-119699799D01*
X92850619Y-119699799D02*
X93850619Y-119366466D01*
X66464419Y-63594757D02*
X65988228Y-63928090D01*
X66464419Y-64166185D02*
X65464419Y-64166185D01*
X65464419Y-64166185D02*
X65464419Y-63785233D01*
X65464419Y-63785233D02*
X65512038Y-63689995D01*
X65512038Y-63689995D02*
X65559657Y-63642376D01*
X65559657Y-63642376D02*
X65654895Y-63594757D01*
X65654895Y-63594757D02*
X65797752Y-63594757D01*
X65797752Y-63594757D02*
X65892990Y-63642376D01*
X65892990Y-63642376D02*
X65940609Y-63689995D01*
X65940609Y-63689995D02*
X65988228Y-63785233D01*
X65988228Y-63785233D02*
X65988228Y-64166185D01*
X66464419Y-62642376D02*
X66464419Y-63213804D01*
X66464419Y-62928090D02*
X65464419Y-62928090D01*
X65464419Y-62928090D02*
X65607276Y-63023328D01*
X65607276Y-63023328D02*
X65702514Y-63118566D01*
X65702514Y-63118566D02*
X65750133Y-63213804D01*
X65464419Y-61737614D02*
X65464419Y-62213804D01*
X65464419Y-62213804D02*
X65940609Y-62261423D01*
X65940609Y-62261423D02*
X65892990Y-62213804D01*
X65892990Y-62213804D02*
X65845371Y-62118566D01*
X65845371Y-62118566D02*
X65845371Y-61880471D01*
X65845371Y-61880471D02*
X65892990Y-61785233D01*
X65892990Y-61785233D02*
X65940609Y-61737614D01*
X65940609Y-61737614D02*
X66035847Y-61689995D01*
X66035847Y-61689995D02*
X66273942Y-61689995D01*
X66273942Y-61689995D02*
X66369180Y-61737614D01*
X66369180Y-61737614D02*
X66416800Y-61785233D01*
X66416800Y-61785233D02*
X66464419Y-61880471D01*
X66464419Y-61880471D02*
X66464419Y-62118566D01*
X66464419Y-62118566D02*
X66416800Y-62213804D01*
X66416800Y-62213804D02*
X66369180Y-62261423D01*
X74866655Y-66275219D02*
X74866655Y-65275219D01*
X74866655Y-65275219D02*
X75104750Y-65275219D01*
X75104750Y-65275219D02*
X75247607Y-65322838D01*
X75247607Y-65322838D02*
X75342845Y-65418076D01*
X75342845Y-65418076D02*
X75390464Y-65513314D01*
X75390464Y-65513314D02*
X75438083Y-65703790D01*
X75438083Y-65703790D02*
X75438083Y-65846647D01*
X75438083Y-65846647D02*
X75390464Y-66037123D01*
X75390464Y-66037123D02*
X75342845Y-66132361D01*
X75342845Y-66132361D02*
X75247607Y-66227600D01*
X75247607Y-66227600D02*
X75104750Y-66275219D01*
X75104750Y-66275219D02*
X74866655Y-66275219D01*
X76390464Y-66275219D02*
X75819036Y-66275219D01*
X76104750Y-66275219D02*
X76104750Y-65275219D01*
X76104750Y-65275219D02*
X76009512Y-65418076D01*
X76009512Y-65418076D02*
X75914274Y-65513314D01*
X75914274Y-65513314D02*
X75819036Y-65560933D01*
X108708866Y-35243419D02*
X108708866Y-35957704D01*
X108708866Y-35957704D02*
X108661247Y-36100561D01*
X108661247Y-36100561D02*
X108566009Y-36195800D01*
X108566009Y-36195800D02*
X108423152Y-36243419D01*
X108423152Y-36243419D02*
X108327914Y-36243419D01*
X109327914Y-35671990D02*
X109232676Y-35624371D01*
X109232676Y-35624371D02*
X109185057Y-35576752D01*
X109185057Y-35576752D02*
X109137438Y-35481514D01*
X109137438Y-35481514D02*
X109137438Y-35433895D01*
X109137438Y-35433895D02*
X109185057Y-35338657D01*
X109185057Y-35338657D02*
X109232676Y-35291038D01*
X109232676Y-35291038D02*
X109327914Y-35243419D01*
X109327914Y-35243419D02*
X109518390Y-35243419D01*
X109518390Y-35243419D02*
X109613628Y-35291038D01*
X109613628Y-35291038D02*
X109661247Y-35338657D01*
X109661247Y-35338657D02*
X109708866Y-35433895D01*
X109708866Y-35433895D02*
X109708866Y-35481514D01*
X109708866Y-35481514D02*
X109661247Y-35576752D01*
X109661247Y-35576752D02*
X109613628Y-35624371D01*
X109613628Y-35624371D02*
X109518390Y-35671990D01*
X109518390Y-35671990D02*
X109327914Y-35671990D01*
X109327914Y-35671990D02*
X109232676Y-35719609D01*
X109232676Y-35719609D02*
X109185057Y-35767228D01*
X109185057Y-35767228D02*
X109137438Y-35862466D01*
X109137438Y-35862466D02*
X109137438Y-36052942D01*
X109137438Y-36052942D02*
X109185057Y-36148180D01*
X109185057Y-36148180D02*
X109232676Y-36195800D01*
X109232676Y-36195800D02*
X109327914Y-36243419D01*
X109327914Y-36243419D02*
X109518390Y-36243419D01*
X109518390Y-36243419D02*
X109613628Y-36195800D01*
X109613628Y-36195800D02*
X109661247Y-36148180D01*
X109661247Y-36148180D02*
X109708866Y-36052942D01*
X109708866Y-36052942D02*
X109708866Y-35862466D01*
X109708866Y-35862466D02*
X109661247Y-35767228D01*
X109661247Y-35767228D02*
X109613628Y-35719609D01*
X109613628Y-35719609D02*
X109518390Y-35671990D01*
X113838095Y-28254819D02*
X113838095Y-27254819D01*
X113838095Y-27731009D02*
X114409523Y-27731009D01*
X114409523Y-28254819D02*
X114409523Y-27254819D01*
X114790476Y-27254819D02*
X115409523Y-27254819D01*
X115409523Y-27254819D02*
X115076190Y-27635771D01*
X115076190Y-27635771D02*
X115219047Y-27635771D01*
X115219047Y-27635771D02*
X115314285Y-27683390D01*
X115314285Y-27683390D02*
X115361904Y-27731009D01*
X115361904Y-27731009D02*
X115409523Y-27826247D01*
X115409523Y-27826247D02*
X115409523Y-28064342D01*
X115409523Y-28064342D02*
X115361904Y-28159580D01*
X115361904Y-28159580D02*
X115314285Y-28207200D01*
X115314285Y-28207200D02*
X115219047Y-28254819D01*
X115219047Y-28254819D02*
X114933333Y-28254819D01*
X114933333Y-28254819D02*
X114838095Y-28207200D01*
X114838095Y-28207200D02*
X114790476Y-28159580D01*
X100232380Y-50534866D02*
X100280000Y-50582485D01*
X100280000Y-50582485D02*
X100327619Y-50725342D01*
X100327619Y-50725342D02*
X100327619Y-50820580D01*
X100327619Y-50820580D02*
X100280000Y-50963437D01*
X100280000Y-50963437D02*
X100184761Y-51058675D01*
X100184761Y-51058675D02*
X100089523Y-51106294D01*
X100089523Y-51106294D02*
X99899047Y-51153913D01*
X99899047Y-51153913D02*
X99756190Y-51153913D01*
X99756190Y-51153913D02*
X99565714Y-51106294D01*
X99565714Y-51106294D02*
X99470476Y-51058675D01*
X99470476Y-51058675D02*
X99375238Y-50963437D01*
X99375238Y-50963437D02*
X99327619Y-50820580D01*
X99327619Y-50820580D02*
X99327619Y-50725342D01*
X99327619Y-50725342D02*
X99375238Y-50582485D01*
X99375238Y-50582485D02*
X99422857Y-50534866D01*
X99327619Y-50201532D02*
X99327619Y-49534866D01*
X99327619Y-49534866D02*
X100327619Y-49963437D01*
X114266852Y-96686666D02*
X114314472Y-96734285D01*
X114314472Y-96734285D02*
X114362091Y-96877142D01*
X114362091Y-96877142D02*
X114362091Y-96972380D01*
X114362091Y-96972380D02*
X114314472Y-97115237D01*
X114314472Y-97115237D02*
X114219233Y-97210475D01*
X114219233Y-97210475D02*
X114123995Y-97258094D01*
X114123995Y-97258094D02*
X113933519Y-97305713D01*
X113933519Y-97305713D02*
X113790662Y-97305713D01*
X113790662Y-97305713D02*
X113600186Y-97258094D01*
X113600186Y-97258094D02*
X113504948Y-97210475D01*
X113504948Y-97210475D02*
X113409710Y-97115237D01*
X113409710Y-97115237D02*
X113362091Y-96972380D01*
X113362091Y-96972380D02*
X113362091Y-96877142D01*
X113362091Y-96877142D02*
X113409710Y-96734285D01*
X113409710Y-96734285D02*
X113457329Y-96686666D01*
X113695424Y-95829523D02*
X114362091Y-95829523D01*
X113314472Y-96067618D02*
X114028757Y-96305713D01*
X114028757Y-96305713D02*
X114028757Y-95686666D01*
X66336057Y-49698038D02*
X66288438Y-49793276D01*
X66288438Y-49793276D02*
X66193200Y-49888514D01*
X66193200Y-49888514D02*
X66050342Y-50031371D01*
X66050342Y-50031371D02*
X66002723Y-50126609D01*
X66002723Y-50126609D02*
X66002723Y-50221847D01*
X66240819Y-50174228D02*
X66193200Y-50269466D01*
X66193200Y-50269466D02*
X66097961Y-50364704D01*
X66097961Y-50364704D02*
X65907485Y-50412323D01*
X65907485Y-50412323D02*
X65574152Y-50412323D01*
X65574152Y-50412323D02*
X65383676Y-50364704D01*
X65383676Y-50364704D02*
X65288438Y-50269466D01*
X65288438Y-50269466D02*
X65240819Y-50174228D01*
X65240819Y-50174228D02*
X65240819Y-49983752D01*
X65240819Y-49983752D02*
X65288438Y-49888514D01*
X65288438Y-49888514D02*
X65383676Y-49793276D01*
X65383676Y-49793276D02*
X65574152Y-49745657D01*
X65574152Y-49745657D02*
X65907485Y-49745657D01*
X65907485Y-49745657D02*
X66097961Y-49793276D01*
X66097961Y-49793276D02*
X66193200Y-49888514D01*
X66193200Y-49888514D02*
X66240819Y-49983752D01*
X66240819Y-49983752D02*
X66240819Y-50174228D01*
X65669390Y-49174228D02*
X65621771Y-49269466D01*
X65621771Y-49269466D02*
X65574152Y-49317085D01*
X65574152Y-49317085D02*
X65478914Y-49364704D01*
X65478914Y-49364704D02*
X65431295Y-49364704D01*
X65431295Y-49364704D02*
X65336057Y-49317085D01*
X65336057Y-49317085D02*
X65288438Y-49269466D01*
X65288438Y-49269466D02*
X65240819Y-49174228D01*
X65240819Y-49174228D02*
X65240819Y-48983752D01*
X65240819Y-48983752D02*
X65288438Y-48888514D01*
X65288438Y-48888514D02*
X65336057Y-48840895D01*
X65336057Y-48840895D02*
X65431295Y-48793276D01*
X65431295Y-48793276D02*
X65478914Y-48793276D01*
X65478914Y-48793276D02*
X65574152Y-48840895D01*
X65574152Y-48840895D02*
X65621771Y-48888514D01*
X65621771Y-48888514D02*
X65669390Y-48983752D01*
X65669390Y-48983752D02*
X65669390Y-49174228D01*
X65669390Y-49174228D02*
X65717009Y-49269466D01*
X65717009Y-49269466D02*
X65764628Y-49317085D01*
X65764628Y-49317085D02*
X65859866Y-49364704D01*
X65859866Y-49364704D02*
X66050342Y-49364704D01*
X66050342Y-49364704D02*
X66145580Y-49317085D01*
X66145580Y-49317085D02*
X66193200Y-49269466D01*
X66193200Y-49269466D02*
X66240819Y-49174228D01*
X66240819Y-49174228D02*
X66240819Y-48983752D01*
X66240819Y-48983752D02*
X66193200Y-48888514D01*
X66193200Y-48888514D02*
X66145580Y-48840895D01*
X66145580Y-48840895D02*
X66050342Y-48793276D01*
X66050342Y-48793276D02*
X65859866Y-48793276D01*
X65859866Y-48793276D02*
X65764628Y-48840895D01*
X65764628Y-48840895D02*
X65717009Y-48888514D01*
X65717009Y-48888514D02*
X65669390Y-48983752D01*
X53524161Y-36287857D02*
X53428923Y-36240238D01*
X53428923Y-36240238D02*
X53333685Y-36145000D01*
X53333685Y-36145000D02*
X53190828Y-36002142D01*
X53190828Y-36002142D02*
X53095590Y-35954523D01*
X53095590Y-35954523D02*
X53000352Y-35954523D01*
X53047971Y-36192619D02*
X52952733Y-36145000D01*
X52952733Y-36145000D02*
X52857495Y-36049761D01*
X52857495Y-36049761D02*
X52809876Y-35859285D01*
X52809876Y-35859285D02*
X52809876Y-35525952D01*
X52809876Y-35525952D02*
X52857495Y-35335476D01*
X52857495Y-35335476D02*
X52952733Y-35240238D01*
X52952733Y-35240238D02*
X53047971Y-35192619D01*
X53047971Y-35192619D02*
X53238447Y-35192619D01*
X53238447Y-35192619D02*
X53333685Y-35240238D01*
X53333685Y-35240238D02*
X53428923Y-35335476D01*
X53428923Y-35335476D02*
X53476542Y-35525952D01*
X53476542Y-35525952D02*
X53476542Y-35859285D01*
X53476542Y-35859285D02*
X53428923Y-36049761D01*
X53428923Y-36049761D02*
X53333685Y-36145000D01*
X53333685Y-36145000D02*
X53238447Y-36192619D01*
X53238447Y-36192619D02*
X53047971Y-36192619D01*
X53809876Y-35192619D02*
X54476542Y-35192619D01*
X54476542Y-35192619D02*
X54047971Y-36192619D01*
X32889533Y-92688580D02*
X32841914Y-92736200D01*
X32841914Y-92736200D02*
X32699057Y-92783819D01*
X32699057Y-92783819D02*
X32603819Y-92783819D01*
X32603819Y-92783819D02*
X32460962Y-92736200D01*
X32460962Y-92736200D02*
X32365724Y-92640961D01*
X32365724Y-92640961D02*
X32318105Y-92545723D01*
X32318105Y-92545723D02*
X32270486Y-92355247D01*
X32270486Y-92355247D02*
X32270486Y-92212390D01*
X32270486Y-92212390D02*
X32318105Y-92021914D01*
X32318105Y-92021914D02*
X32365724Y-91926676D01*
X32365724Y-91926676D02*
X32460962Y-91831438D01*
X32460962Y-91831438D02*
X32603819Y-91783819D01*
X32603819Y-91783819D02*
X32699057Y-91783819D01*
X32699057Y-91783819D02*
X32841914Y-91831438D01*
X32841914Y-91831438D02*
X32889533Y-91879057D01*
X33365724Y-92783819D02*
X33556200Y-92783819D01*
X33556200Y-92783819D02*
X33651438Y-92736200D01*
X33651438Y-92736200D02*
X33699057Y-92688580D01*
X33699057Y-92688580D02*
X33794295Y-92545723D01*
X33794295Y-92545723D02*
X33841914Y-92355247D01*
X33841914Y-92355247D02*
X33841914Y-91974295D01*
X33841914Y-91974295D02*
X33794295Y-91879057D01*
X33794295Y-91879057D02*
X33746676Y-91831438D01*
X33746676Y-91831438D02*
X33651438Y-91783819D01*
X33651438Y-91783819D02*
X33460962Y-91783819D01*
X33460962Y-91783819D02*
X33365724Y-91831438D01*
X33365724Y-91831438D02*
X33318105Y-91879057D01*
X33318105Y-91879057D02*
X33270486Y-91974295D01*
X33270486Y-91974295D02*
X33270486Y-92212390D01*
X33270486Y-92212390D02*
X33318105Y-92307628D01*
X33318105Y-92307628D02*
X33365724Y-92355247D01*
X33365724Y-92355247D02*
X33460962Y-92402866D01*
X33460962Y-92402866D02*
X33651438Y-92402866D01*
X33651438Y-92402866D02*
X33746676Y-92355247D01*
X33746676Y-92355247D02*
X33794295Y-92307628D01*
X33794295Y-92307628D02*
X33841914Y-92212390D01*
X83678483Y-57334419D02*
X83345150Y-56858228D01*
X83107055Y-57334419D02*
X83107055Y-56334419D01*
X83107055Y-56334419D02*
X83488007Y-56334419D01*
X83488007Y-56334419D02*
X83583245Y-56382038D01*
X83583245Y-56382038D02*
X83630864Y-56429657D01*
X83630864Y-56429657D02*
X83678483Y-56524895D01*
X83678483Y-56524895D02*
X83678483Y-56667752D01*
X83678483Y-56667752D02*
X83630864Y-56762990D01*
X83630864Y-56762990D02*
X83583245Y-56810609D01*
X83583245Y-56810609D02*
X83488007Y-56858228D01*
X83488007Y-56858228D02*
X83107055Y-56858228D01*
X84535626Y-56334419D02*
X84345150Y-56334419D01*
X84345150Y-56334419D02*
X84249912Y-56382038D01*
X84249912Y-56382038D02*
X84202293Y-56429657D01*
X84202293Y-56429657D02*
X84107055Y-56572514D01*
X84107055Y-56572514D02*
X84059436Y-56762990D01*
X84059436Y-56762990D02*
X84059436Y-57143942D01*
X84059436Y-57143942D02*
X84107055Y-57239180D01*
X84107055Y-57239180D02*
X84154674Y-57286800D01*
X84154674Y-57286800D02*
X84249912Y-57334419D01*
X84249912Y-57334419D02*
X84440388Y-57334419D01*
X84440388Y-57334419D02*
X84535626Y-57286800D01*
X84535626Y-57286800D02*
X84583245Y-57239180D01*
X84583245Y-57239180D02*
X84630864Y-57143942D01*
X84630864Y-57143942D02*
X84630864Y-56905847D01*
X84630864Y-56905847D02*
X84583245Y-56810609D01*
X84583245Y-56810609D02*
X84535626Y-56762990D01*
X84535626Y-56762990D02*
X84440388Y-56715371D01*
X84440388Y-56715371D02*
X84249912Y-56715371D01*
X84249912Y-56715371D02*
X84154674Y-56762990D01*
X84154674Y-56762990D02*
X84107055Y-56810609D01*
X84107055Y-56810609D02*
X84059436Y-56905847D01*
X46917419Y-63022457D02*
X46441228Y-63355790D01*
X46917419Y-63593885D02*
X45917419Y-63593885D01*
X45917419Y-63593885D02*
X45917419Y-63212933D01*
X45917419Y-63212933D02*
X45965038Y-63117695D01*
X45965038Y-63117695D02*
X46012657Y-63070076D01*
X46012657Y-63070076D02*
X46107895Y-63022457D01*
X46107895Y-63022457D02*
X46250752Y-63022457D01*
X46250752Y-63022457D02*
X46345990Y-63070076D01*
X46345990Y-63070076D02*
X46393609Y-63117695D01*
X46393609Y-63117695D02*
X46441228Y-63212933D01*
X46441228Y-63212933D02*
X46441228Y-63593885D01*
X46917419Y-62070076D02*
X46917419Y-62641504D01*
X46917419Y-62355790D02*
X45917419Y-62355790D01*
X45917419Y-62355790D02*
X46060276Y-62451028D01*
X46060276Y-62451028D02*
X46155514Y-62546266D01*
X46155514Y-62546266D02*
X46203133Y-62641504D01*
X46250752Y-61212933D02*
X46917419Y-61212933D01*
X45869800Y-61451028D02*
X46584085Y-61689123D01*
X46584085Y-61689123D02*
X46584085Y-61070076D01*
X105887733Y-29742019D02*
X105554400Y-29265828D01*
X105316305Y-29742019D02*
X105316305Y-28742019D01*
X105316305Y-28742019D02*
X105697257Y-28742019D01*
X105697257Y-28742019D02*
X105792495Y-28789638D01*
X105792495Y-28789638D02*
X105840114Y-28837257D01*
X105840114Y-28837257D02*
X105887733Y-28932495D01*
X105887733Y-28932495D02*
X105887733Y-29075352D01*
X105887733Y-29075352D02*
X105840114Y-29170590D01*
X105840114Y-29170590D02*
X105792495Y-29218209D01*
X105792495Y-29218209D02*
X105697257Y-29265828D01*
X105697257Y-29265828D02*
X105316305Y-29265828D01*
X106840114Y-29742019D02*
X106268686Y-29742019D01*
X106554400Y-29742019D02*
X106554400Y-28742019D01*
X106554400Y-28742019D02*
X106459162Y-28884876D01*
X106459162Y-28884876D02*
X106363924Y-28980114D01*
X106363924Y-28980114D02*
X106268686Y-29027733D01*
X116540114Y-46251019D02*
X116540114Y-45251019D01*
X116540114Y-45251019D02*
X116778209Y-45251019D01*
X116778209Y-45251019D02*
X116921066Y-45298638D01*
X116921066Y-45298638D02*
X117016304Y-45393876D01*
X117016304Y-45393876D02*
X117063923Y-45489114D01*
X117063923Y-45489114D02*
X117111542Y-45679590D01*
X117111542Y-45679590D02*
X117111542Y-45822447D01*
X117111542Y-45822447D02*
X117063923Y-46012923D01*
X117063923Y-46012923D02*
X117016304Y-46108161D01*
X117016304Y-46108161D02*
X116921066Y-46203400D01*
X116921066Y-46203400D02*
X116778209Y-46251019D01*
X116778209Y-46251019D02*
X116540114Y-46251019D01*
X118063923Y-46251019D02*
X117492495Y-46251019D01*
X117778209Y-46251019D02*
X117778209Y-45251019D01*
X117778209Y-45251019D02*
X117682971Y-45393876D01*
X117682971Y-45393876D02*
X117587733Y-45489114D01*
X117587733Y-45489114D02*
X117492495Y-45536733D01*
X118397257Y-45251019D02*
X119016304Y-45251019D01*
X119016304Y-45251019D02*
X118682971Y-45631971D01*
X118682971Y-45631971D02*
X118825828Y-45631971D01*
X118825828Y-45631971D02*
X118921066Y-45679590D01*
X118921066Y-45679590D02*
X118968685Y-45727209D01*
X118968685Y-45727209D02*
X119016304Y-45822447D01*
X119016304Y-45822447D02*
X119016304Y-46060542D01*
X119016304Y-46060542D02*
X118968685Y-46155780D01*
X118968685Y-46155780D02*
X118921066Y-46203400D01*
X118921066Y-46203400D02*
X118825828Y-46251019D01*
X118825828Y-46251019D02*
X118540114Y-46251019D01*
X118540114Y-46251019D02*
X118444876Y-46203400D01*
X118444876Y-46203400D02*
X118397257Y-46155780D01*
D13*
X34813518Y-115404294D02*
X36083518Y-114980961D01*
X36083518Y-114980961D02*
X34813518Y-114557627D01*
X36083518Y-113408580D02*
X35478756Y-113831914D01*
X36083518Y-114134295D02*
X34813518Y-114134295D01*
X34813518Y-114134295D02*
X34813518Y-113650485D01*
X34813518Y-113650485D02*
X34873994Y-113529533D01*
X34873994Y-113529533D02*
X34934470Y-113469056D01*
X34934470Y-113469056D02*
X35055422Y-113408580D01*
X35055422Y-113408580D02*
X35236851Y-113408580D01*
X35236851Y-113408580D02*
X35357803Y-113469056D01*
X35357803Y-113469056D02*
X35418280Y-113529533D01*
X35418280Y-113529533D02*
X35478756Y-113650485D01*
X35478756Y-113650485D02*
X35478756Y-114134295D01*
X36083518Y-112199056D02*
X36083518Y-112924771D01*
X36083518Y-112561914D02*
X34813518Y-112561914D01*
X34813518Y-112561914D02*
X34994946Y-112682866D01*
X34994946Y-112682866D02*
X35115899Y-112803818D01*
X35115899Y-112803818D02*
X35176375Y-112924771D01*
D10*
X103417683Y-57385219D02*
X103084350Y-56909028D01*
X102846255Y-57385219D02*
X102846255Y-56385219D01*
X102846255Y-56385219D02*
X103227207Y-56385219D01*
X103227207Y-56385219D02*
X103322445Y-56432838D01*
X103322445Y-56432838D02*
X103370064Y-56480457D01*
X103370064Y-56480457D02*
X103417683Y-56575695D01*
X103417683Y-56575695D02*
X103417683Y-56718552D01*
X103417683Y-56718552D02*
X103370064Y-56813790D01*
X103370064Y-56813790D02*
X103322445Y-56861409D01*
X103322445Y-56861409D02*
X103227207Y-56909028D01*
X103227207Y-56909028D02*
X102846255Y-56909028D01*
X103751017Y-56385219D02*
X104417683Y-56385219D01*
X104417683Y-56385219D02*
X103989112Y-57385219D01*
X117140095Y-113873420D02*
X117140095Y-112873420D01*
X117140095Y-113349610D02*
X117711523Y-113349610D01*
X117711523Y-113873420D02*
X117711523Y-112873420D01*
X118616285Y-113206753D02*
X118616285Y-113873420D01*
X118378190Y-112825801D02*
X118140095Y-113540086D01*
X118140095Y-113540086D02*
X118759142Y-113540086D01*
X105389514Y-111605219D02*
X105389514Y-110605219D01*
X105389514Y-110605219D02*
X105627609Y-110605219D01*
X105627609Y-110605219D02*
X105770466Y-110652838D01*
X105770466Y-110652838D02*
X105865704Y-110748076D01*
X105865704Y-110748076D02*
X105913323Y-110843314D01*
X105913323Y-110843314D02*
X105960942Y-111033790D01*
X105960942Y-111033790D02*
X105960942Y-111176647D01*
X105960942Y-111176647D02*
X105913323Y-111367123D01*
X105913323Y-111367123D02*
X105865704Y-111462361D01*
X105865704Y-111462361D02*
X105770466Y-111557600D01*
X105770466Y-111557600D02*
X105627609Y-111605219D01*
X105627609Y-111605219D02*
X105389514Y-111605219D01*
X106341895Y-110700457D02*
X106389514Y-110652838D01*
X106389514Y-110652838D02*
X106484752Y-110605219D01*
X106484752Y-110605219D02*
X106722847Y-110605219D01*
X106722847Y-110605219D02*
X106818085Y-110652838D01*
X106818085Y-110652838D02*
X106865704Y-110700457D01*
X106865704Y-110700457D02*
X106913323Y-110795695D01*
X106913323Y-110795695D02*
X106913323Y-110890933D01*
X106913323Y-110890933D02*
X106865704Y-111033790D01*
X106865704Y-111033790D02*
X106294276Y-111605219D01*
X106294276Y-111605219D02*
X106913323Y-111605219D01*
X107532371Y-110605219D02*
X107627609Y-110605219D01*
X107627609Y-110605219D02*
X107722847Y-110652838D01*
X107722847Y-110652838D02*
X107770466Y-110700457D01*
X107770466Y-110700457D02*
X107818085Y-110795695D01*
X107818085Y-110795695D02*
X107865704Y-110986171D01*
X107865704Y-110986171D02*
X107865704Y-111224266D01*
X107865704Y-111224266D02*
X107818085Y-111414742D01*
X107818085Y-111414742D02*
X107770466Y-111509980D01*
X107770466Y-111509980D02*
X107722847Y-111557600D01*
X107722847Y-111557600D02*
X107627609Y-111605219D01*
X107627609Y-111605219D02*
X107532371Y-111605219D01*
X107532371Y-111605219D02*
X107437133Y-111557600D01*
X107437133Y-111557600D02*
X107389514Y-111509980D01*
X107389514Y-111509980D02*
X107341895Y-111414742D01*
X107341895Y-111414742D02*
X107294276Y-111224266D01*
X107294276Y-111224266D02*
X107294276Y-110986171D01*
X107294276Y-110986171D02*
X107341895Y-110795695D01*
X107341895Y-110795695D02*
X107389514Y-110700457D01*
X107389514Y-110700457D02*
X107437133Y-110652838D01*
X107437133Y-110652838D02*
X107532371Y-110605219D01*
X105692104Y-120126094D02*
X105692104Y-119649904D01*
X105977819Y-120221332D02*
X104977819Y-119887999D01*
X104977819Y-119887999D02*
X105977819Y-119554666D01*
X108156476Y-56559419D02*
X108156476Y-57273704D01*
X108156476Y-57273704D02*
X108108857Y-57416561D01*
X108108857Y-57416561D02*
X108013619Y-57511800D01*
X108013619Y-57511800D02*
X107870762Y-57559419D01*
X107870762Y-57559419D02*
X107775524Y-57559419D01*
X109156476Y-57559419D02*
X108585048Y-57559419D01*
X108870762Y-57559419D02*
X108870762Y-56559419D01*
X108870762Y-56559419D02*
X108775524Y-56702276D01*
X108775524Y-56702276D02*
X108680286Y-56797514D01*
X108680286Y-56797514D02*
X108585048Y-56845133D01*
X110061238Y-56559419D02*
X109585048Y-56559419D01*
X109585048Y-56559419D02*
X109537429Y-57035609D01*
X109537429Y-57035609D02*
X109585048Y-56987990D01*
X109585048Y-56987990D02*
X109680286Y-56940371D01*
X109680286Y-56940371D02*
X109918381Y-56940371D01*
X109918381Y-56940371D02*
X110013619Y-56987990D01*
X110013619Y-56987990D02*
X110061238Y-57035609D01*
X110061238Y-57035609D02*
X110108857Y-57130847D01*
X110108857Y-57130847D02*
X110108857Y-57368942D01*
X110108857Y-57368942D02*
X110061238Y-57464180D01*
X110061238Y-57464180D02*
X110013619Y-57511800D01*
X110013619Y-57511800D02*
X109918381Y-57559419D01*
X109918381Y-57559419D02*
X109680286Y-57559419D01*
X109680286Y-57559419D02*
X109585048Y-57511800D01*
X109585048Y-57511800D02*
X109537429Y-57464180D01*
D14*
X62554614Y-61663000D02*
X58200486Y-61663000D01*
X62554614Y-58243000D02*
X58200486Y-58243000D01*
X92606800Y-115261400D02*
X92291800Y-115261400D01*
X92606800Y-115261400D02*
X92606800Y-120501400D01*
X90181800Y-115261400D02*
X89866800Y-115261400D01*
X89866800Y-115261400D02*
X89866800Y-120501400D01*
X92606800Y-120501400D02*
X92291800Y-120501400D01*
X90181800Y-120501400D02*
X89866800Y-120501400D01*
X42692000Y-38224000D02*
X41272000Y-38224000D01*
X42692000Y-26504000D02*
X42692000Y-38224000D01*
X41272000Y-38224000D02*
X41272000Y-33724000D01*
X41272000Y-33724000D02*
X38882000Y-33724000D01*
X40432000Y-37914000D02*
X39832000Y-37914000D01*
X40382000Y-32614000D02*
X40382000Y-27114000D01*
X40382000Y-27114000D02*
X39882000Y-27114000D01*
X40132000Y-37314000D02*
X40432000Y-37914000D01*
X39882000Y-32614000D02*
X40382000Y-32614000D01*
X39882000Y-27114000D02*
X39882000Y-32614000D01*
X39832000Y-37914000D02*
X40132000Y-37314000D01*
X38882000Y-26504000D02*
X42692000Y-26504000D01*
X38882000Y-26504000D02*
X35072000Y-26504000D01*
X37882000Y-32614000D02*
X37882000Y-27114000D01*
X37882000Y-27114000D02*
X37382000Y-27114000D01*
X37382000Y-32614000D02*
X37882000Y-32614000D01*
X37382000Y-27114000D02*
X37382000Y-32614000D01*
X36492000Y-38224000D02*
X36492000Y-33724000D01*
X36492000Y-33724000D02*
X38882000Y-33724000D01*
X35072000Y-38224000D02*
X36492000Y-38224000D01*
X35072000Y-26504000D02*
X35072000Y-38224000D01*
D12*
X102628000Y-37092200D02*
X100528000Y-37092200D01*
X100178000Y-37047200D02*
X93878000Y-37047200D01*
X100178000Y-27367200D02*
X100178000Y-37047200D01*
X93878000Y-37047200D02*
X93878000Y-27367200D01*
X93878000Y-27367200D02*
X100178000Y-27367200D01*
D14*
X107204600Y-63664937D02*
X107204600Y-62217463D01*
X109914600Y-63664937D02*
X109914600Y-62217463D01*
X51414052Y-101760600D02*
X48641548Y-101760600D01*
X51414052Y-98340600D02*
X48641548Y-98340600D01*
D15*
X33451800Y-43876600D02*
X24841200Y-43876600D01*
X24841200Y-43876600D02*
X24841200Y-56119400D01*
X33451800Y-56119400D02*
X33451800Y-43876600D01*
X24841200Y-56119400D02*
X33451800Y-56119400D01*
D16*
X29845000Y-42098600D02*
G75*
G03*
X29845000Y-42098600I-381000J0D01*
G01*
D14*
X42771414Y-61025200D02*
X38417286Y-61025200D01*
X42771414Y-57605200D02*
X38417286Y-57605200D01*
X88139600Y-32138864D02*
X88139600Y-31684736D01*
X89609600Y-32138864D02*
X89609600Y-31684736D01*
X110056664Y-47140800D02*
X109602536Y-47140800D01*
X110056664Y-45670800D02*
X109602536Y-45670800D01*
X61834000Y-32308800D02*
X60174000Y-32308800D01*
X65674000Y-32308800D02*
G75*
G03*
X65674000Y-32308800I-1920000J0D01*
G01*
D17*
X67579000Y-115547766D02*
X67579000Y-115547766D01*
X67679000Y-115547766D02*
X67679000Y-115547766D01*
D12*
X68199000Y-103467766D02*
X88519000Y-103467766D01*
X68199000Y-122167766D02*
X68199000Y-103467766D01*
X88519000Y-103467766D02*
X88519000Y-122167766D01*
X88519000Y-122167766D02*
X68199000Y-122167766D01*
D17*
X67679000Y-115547766D02*
G75*
G03*
X67579000Y-115547766I-50000J0D01*
G01*
X67579000Y-115547766D02*
G75*
G03*
X67679000Y-115547766I50000J0D01*
G01*
D14*
X41227800Y-41079102D02*
X41227800Y-41879102D01*
X41627800Y-41479102D02*
X40827800Y-41479102D01*
X42992800Y-45488800D02*
X34832800Y-45488800D01*
X42992800Y-45528800D02*
X34832800Y-45528800D01*
X42992800Y-45568800D02*
X34832800Y-45568800D01*
X42991800Y-45608800D02*
X34833800Y-45608800D01*
X42989800Y-45648800D02*
X34835800Y-45648800D01*
X42988800Y-45688800D02*
X34836800Y-45688800D01*
X42986800Y-45728800D02*
X34838800Y-45728800D01*
X42983800Y-45768800D02*
X34841800Y-45768800D01*
X42980800Y-45808800D02*
X34844800Y-45808800D01*
X42977800Y-45848800D02*
X34847800Y-45848800D01*
X42973800Y-45888800D02*
X34851800Y-45888800D01*
X42969800Y-45928800D02*
X34855800Y-45928800D01*
X42964800Y-45968800D02*
X34860800Y-45968800D01*
X42960800Y-46008800D02*
X34864800Y-46008800D01*
X42954800Y-46048800D02*
X34870800Y-46048800D01*
X42949800Y-46088800D02*
X34875800Y-46088800D01*
X42942800Y-46128800D02*
X34882800Y-46128800D01*
X42936800Y-46168800D02*
X34888800Y-46168800D01*
X42929800Y-46209800D02*
X39952800Y-46209800D01*
X37872800Y-46209800D02*
X34895800Y-46209800D01*
X42922800Y-46249800D02*
X39952800Y-46249800D01*
X37872800Y-46249800D02*
X34902800Y-46249800D01*
X42914800Y-46289800D02*
X39952800Y-46289800D01*
X37872800Y-46289800D02*
X34910800Y-46289800D01*
X42906800Y-46329800D02*
X39952800Y-46329800D01*
X37872800Y-46329800D02*
X34918800Y-46329800D01*
X42897800Y-46369800D02*
X39952800Y-46369800D01*
X37872800Y-46369800D02*
X34927800Y-46369800D01*
X42888800Y-46409800D02*
X39952800Y-46409800D01*
X37872800Y-46409800D02*
X34936800Y-46409800D01*
X42879800Y-46449800D02*
X39952800Y-46449800D01*
X37872800Y-46449800D02*
X34945800Y-46449800D01*
X42869800Y-46489800D02*
X39952800Y-46489800D01*
X37872800Y-46489800D02*
X34955800Y-46489800D01*
X42859800Y-46529800D02*
X39952800Y-46529800D01*
X37872800Y-46529800D02*
X34965800Y-46529800D01*
X42848800Y-46569800D02*
X39952800Y-46569800D01*
X37872800Y-46569800D02*
X34976800Y-46569800D01*
X42837800Y-46609800D02*
X39952800Y-46609800D01*
X37872800Y-46609800D02*
X34987800Y-46609800D01*
X42826800Y-46649800D02*
X39952800Y-46649800D01*
X37872800Y-46649800D02*
X34998800Y-46649800D01*
X42814800Y-46689800D02*
X39952800Y-46689800D01*
X37872800Y-46689800D02*
X35010800Y-46689800D01*
X42801800Y-46729800D02*
X39952800Y-46729800D01*
X37872800Y-46729800D02*
X35023800Y-46729800D01*
X42789800Y-46769800D02*
X39952800Y-46769800D01*
X37872800Y-46769800D02*
X35035800Y-46769800D01*
X42775800Y-46809800D02*
X39952800Y-46809800D01*
X37872800Y-46809800D02*
X35049800Y-46809800D01*
X42762800Y-46849800D02*
X39952800Y-46849800D01*
X37872800Y-46849800D02*
X35062800Y-46849800D01*
X42747800Y-46889800D02*
X39952800Y-46889800D01*
X37872800Y-46889800D02*
X35077800Y-46889800D01*
X42733800Y-46929800D02*
X39952800Y-46929800D01*
X37872800Y-46929800D02*
X35091800Y-46929800D01*
X42717800Y-46969800D02*
X39952800Y-46969800D01*
X37872800Y-46969800D02*
X35107800Y-46969800D01*
X42702800Y-47009800D02*
X39952800Y-47009800D01*
X37872800Y-47009800D02*
X35122800Y-47009800D01*
X42686800Y-47049800D02*
X39952800Y-47049800D01*
X37872800Y-47049800D02*
X35138800Y-47049800D01*
X42669800Y-47089800D02*
X39952800Y-47089800D01*
X37872800Y-47089800D02*
X35155800Y-47089800D01*
X42652800Y-47129800D02*
X39952800Y-47129800D01*
X37872800Y-47129800D02*
X35172800Y-47129800D01*
X42634800Y-47169800D02*
X39952800Y-47169800D01*
X37872800Y-47169800D02*
X35190800Y-47169800D01*
X42616800Y-47209800D02*
X39952800Y-47209800D01*
X37872800Y-47209800D02*
X35208800Y-47209800D01*
X42598800Y-47249800D02*
X39952800Y-47249800D01*
X37872800Y-47249800D02*
X35226800Y-47249800D01*
X42578800Y-47289800D02*
X39952800Y-47289800D01*
X37872800Y-47289800D02*
X35246800Y-47289800D01*
X42559800Y-47329800D02*
X39952800Y-47329800D01*
X37872800Y-47329800D02*
X35265800Y-47329800D01*
X42539800Y-47369800D02*
X39952800Y-47369800D01*
X37872800Y-47369800D02*
X35285800Y-47369800D01*
X42518800Y-47409800D02*
X39952800Y-47409800D01*
X37872800Y-47409800D02*
X35306800Y-47409800D01*
X42496800Y-47449800D02*
X39952800Y-47449800D01*
X37872800Y-47449800D02*
X35328800Y-47449800D01*
X42474800Y-47489800D02*
X39952800Y-47489800D01*
X37872800Y-47489800D02*
X35350800Y-47489800D01*
X42452800Y-47529800D02*
X39952800Y-47529800D01*
X37872800Y-47529800D02*
X35372800Y-47529800D01*
X42429800Y-47569800D02*
X39952800Y-47569800D01*
X37872800Y-47569800D02*
X35395800Y-47569800D01*
X42405800Y-47609800D02*
X39952800Y-47609800D01*
X37872800Y-47609800D02*
X35419800Y-47609800D01*
X42381800Y-47649800D02*
X39952800Y-47649800D01*
X37872800Y-47649800D02*
X35443800Y-47649800D01*
X42356800Y-47689800D02*
X39952800Y-47689800D01*
X37872800Y-47689800D02*
X35468800Y-47689800D01*
X42330800Y-47729800D02*
X39952800Y-47729800D01*
X37872800Y-47729800D02*
X35494800Y-47729800D01*
X42304800Y-47769800D02*
X39952800Y-47769800D01*
X37872800Y-47769800D02*
X35520800Y-47769800D01*
X42277800Y-47809800D02*
X39952800Y-47809800D01*
X37872800Y-47809800D02*
X35547800Y-47809800D01*
X42250800Y-47849800D02*
X39952800Y-47849800D01*
X37872800Y-47849800D02*
X35574800Y-47849800D01*
X42221800Y-47889800D02*
X39952800Y-47889800D01*
X37872800Y-47889800D02*
X35603800Y-47889800D01*
X42192800Y-47929800D02*
X39952800Y-47929800D01*
X37872800Y-47929800D02*
X35632800Y-47929800D01*
X42162800Y-47969800D02*
X39952800Y-47969800D01*
X37872800Y-47969800D02*
X35662800Y-47969800D01*
X42132800Y-48009800D02*
X39952800Y-48009800D01*
X37872800Y-48009800D02*
X35692800Y-48009800D01*
X42101800Y-48049800D02*
X39952800Y-48049800D01*
X37872800Y-48049800D02*
X35723800Y-48049800D01*
X42068800Y-48089800D02*
X39952800Y-48089800D01*
X37872800Y-48089800D02*
X35756800Y-48089800D01*
X42036800Y-48129800D02*
X39952800Y-48129800D01*
X37872800Y-48129800D02*
X35788800Y-48129800D01*
X42002800Y-48169800D02*
X39952800Y-48169800D01*
X37872800Y-48169800D02*
X35822800Y-48169800D01*
X41967800Y-48209800D02*
X39952800Y-48209800D01*
X37872800Y-48209800D02*
X35857800Y-48209800D01*
X41931800Y-48249800D02*
X39952800Y-48249800D01*
X37872800Y-48249800D02*
X35893800Y-48249800D01*
X41895800Y-48289800D02*
X35929800Y-48289800D01*
X41857800Y-48329800D02*
X35967800Y-48329800D01*
X41819800Y-48369800D02*
X36005800Y-48369800D01*
X41779800Y-48409800D02*
X36045800Y-48409800D01*
X41738800Y-48449800D02*
X36086800Y-48449800D01*
X41696800Y-48489800D02*
X36128800Y-48489800D01*
X41653800Y-48529800D02*
X36171800Y-48529800D01*
X41609800Y-48569800D02*
X36215800Y-48569800D01*
X41563800Y-48609800D02*
X36261800Y-48609800D01*
X41516800Y-48649800D02*
X36308800Y-48649800D01*
X41468800Y-48689800D02*
X36356800Y-48689800D01*
X41417800Y-48729800D02*
X36407800Y-48729800D01*
X41366800Y-48769800D02*
X36458800Y-48769800D01*
X41312800Y-48809800D02*
X36512800Y-48809800D01*
X41257800Y-48849800D02*
X36567800Y-48849800D01*
X41199800Y-48889800D02*
X36625800Y-48889800D01*
X41140800Y-48929800D02*
X36684800Y-48929800D01*
X41078800Y-48969800D02*
X36746800Y-48969800D01*
X41014800Y-49009800D02*
X36810800Y-49009800D01*
X40946800Y-49049800D02*
X36878800Y-49049800D01*
X40876800Y-49089800D02*
X36948800Y-49089800D01*
X40802800Y-49129800D02*
X37022800Y-49129800D01*
X40725800Y-49169800D02*
X37099800Y-49169800D01*
X40643800Y-49209800D02*
X37181800Y-49209800D01*
X40557800Y-49249800D02*
X37267800Y-49249800D01*
X40464800Y-49289800D02*
X37360800Y-49289800D01*
X40365800Y-49329800D02*
X37459800Y-49329800D01*
X40258800Y-49369800D02*
X37566800Y-49369800D01*
X40141800Y-49409800D02*
X37683800Y-49409800D01*
X40010800Y-49449800D02*
X37814800Y-49449800D01*
X39860800Y-49489800D02*
X37964800Y-49489800D01*
X39680800Y-49529800D02*
X38144800Y-49529800D01*
X39445800Y-49569800D02*
X38379800Y-49569800D01*
X43032800Y-45488800D02*
G75*
G03*
X43032800Y-45488800I-4120000J0D01*
G01*
X84747723Y-46512200D02*
X83747723Y-46512200D01*
X84247723Y-47012200D02*
X84247723Y-46012200D01*
X79268077Y-48717200D02*
X79268077Y-38557200D01*
X79228077Y-48717200D02*
X79228077Y-38557200D01*
X79188077Y-48717200D02*
X79188077Y-38557200D01*
X79148077Y-48716200D02*
X79148077Y-38558200D01*
X79108077Y-48715200D02*
X79108077Y-38559200D01*
X79068077Y-48714200D02*
X79068077Y-38560200D01*
X79028077Y-48712200D02*
X79028077Y-38562200D01*
X78988077Y-48710200D02*
X78988077Y-38564200D01*
X78948077Y-48707200D02*
X78948077Y-38567200D01*
X78908077Y-48705200D02*
X78908077Y-38569200D01*
X78868077Y-48702200D02*
X78868077Y-38572200D01*
X78828077Y-48699200D02*
X78828077Y-38575200D01*
X78788077Y-48695200D02*
X78788077Y-38579200D01*
X78748077Y-48691200D02*
X78748077Y-38583200D01*
X78708077Y-48687200D02*
X78708077Y-38587200D01*
X78668077Y-48682200D02*
X78668077Y-38592200D01*
X78628077Y-48677200D02*
X78628077Y-38597200D01*
X78588077Y-48672200D02*
X78588077Y-38602200D01*
X78547077Y-48667200D02*
X78547077Y-38607200D01*
X78507077Y-48661200D02*
X78507077Y-38613200D01*
X78467077Y-48655200D02*
X78467077Y-38619200D01*
X78427077Y-48648200D02*
X78427077Y-38626200D01*
X78387077Y-48641200D02*
X78387077Y-38633200D01*
X78347077Y-48634200D02*
X78347077Y-38640200D01*
X78307077Y-48627200D02*
X78307077Y-38647200D01*
X78267077Y-48619200D02*
X78267077Y-38655200D01*
X78227077Y-48611200D02*
X78227077Y-38663200D01*
X78187077Y-48602200D02*
X78187077Y-38672200D01*
X78147077Y-48593200D02*
X78147077Y-38681200D01*
X78107077Y-48584200D02*
X78107077Y-38690200D01*
X78067077Y-48575200D02*
X78067077Y-38699200D01*
X78027077Y-48565200D02*
X78027077Y-38709200D01*
X77987077Y-48555200D02*
X77987077Y-44878200D01*
X77987077Y-42396200D02*
X77987077Y-38719200D01*
X77947077Y-48544200D02*
X77947077Y-44878200D01*
X77947077Y-42396200D02*
X77947077Y-38730200D01*
X77907077Y-48534200D02*
X77907077Y-44878200D01*
X77907077Y-42396200D02*
X77907077Y-38740200D01*
X77867077Y-48522200D02*
X77867077Y-44878200D01*
X77867077Y-42396200D02*
X77867077Y-38752200D01*
X77827077Y-48511200D02*
X77827077Y-44878200D01*
X77827077Y-42396200D02*
X77827077Y-38763200D01*
X77787077Y-48499200D02*
X77787077Y-44878200D01*
X77787077Y-42396200D02*
X77787077Y-38775200D01*
X77747077Y-48487200D02*
X77747077Y-44878200D01*
X77747077Y-42396200D02*
X77747077Y-38787200D01*
X77707077Y-48474200D02*
X77707077Y-44878200D01*
X77707077Y-42396200D02*
X77707077Y-38800200D01*
X77667077Y-48461200D02*
X77667077Y-44878200D01*
X77667077Y-42396200D02*
X77667077Y-38813200D01*
X77627077Y-48448200D02*
X77627077Y-44878200D01*
X77627077Y-42396200D02*
X77627077Y-38826200D01*
X77587077Y-48434200D02*
X77587077Y-44878200D01*
X77587077Y-42396200D02*
X77587077Y-38840200D01*
X77547077Y-48420200D02*
X77547077Y-44878200D01*
X77547077Y-42396200D02*
X77547077Y-38854200D01*
X77507077Y-48405200D02*
X77507077Y-44878200D01*
X77507077Y-42396200D02*
X77507077Y-38869200D01*
X77467077Y-48391200D02*
X77467077Y-44878200D01*
X77467077Y-42396200D02*
X77467077Y-38883200D01*
X77427077Y-48375200D02*
X77427077Y-44878200D01*
X77427077Y-42396200D02*
X77427077Y-38899200D01*
X77387077Y-48360200D02*
X77387077Y-44878200D01*
X77387077Y-42396200D02*
X77387077Y-38914200D01*
X77347077Y-48344200D02*
X77347077Y-44878200D01*
X77347077Y-42396200D02*
X77347077Y-38930200D01*
X77307077Y-48327200D02*
X77307077Y-44878200D01*
X77307077Y-42396200D02*
X77307077Y-38947200D01*
X77267077Y-48311200D02*
X77267077Y-44878200D01*
X77267077Y-42396200D02*
X77267077Y-38963200D01*
X77227077Y-48294200D02*
X77227077Y-44878200D01*
X77227077Y-42396200D02*
X77227077Y-38980200D01*
X77187077Y-48276200D02*
X77187077Y-44878200D01*
X77187077Y-42396200D02*
X77187077Y-38998200D01*
X77147077Y-48258200D02*
X77147077Y-44878200D01*
X77147077Y-42396200D02*
X77147077Y-39016200D01*
X77107077Y-48240200D02*
X77107077Y-44878200D01*
X77107077Y-42396200D02*
X77107077Y-39034200D01*
X77067077Y-48221200D02*
X77067077Y-44878200D01*
X77067077Y-42396200D02*
X77067077Y-39053200D01*
X77027077Y-48201200D02*
X77027077Y-44878200D01*
X77027077Y-42396200D02*
X77027077Y-39073200D01*
X76987077Y-48182200D02*
X76987077Y-44878200D01*
X76987077Y-42396200D02*
X76987077Y-39092200D01*
X76947077Y-48162200D02*
X76947077Y-44878200D01*
X76947077Y-42396200D02*
X76947077Y-39112200D01*
X76907077Y-48141200D02*
X76907077Y-44878200D01*
X76907077Y-42396200D02*
X76907077Y-39133200D01*
X76867077Y-48120200D02*
X76867077Y-44878200D01*
X76867077Y-42396200D02*
X76867077Y-39154200D01*
X76827077Y-48099200D02*
X76827077Y-44878200D01*
X76827077Y-42396200D02*
X76827077Y-39175200D01*
X76787077Y-48077200D02*
X76787077Y-44878200D01*
X76787077Y-42396200D02*
X76787077Y-39197200D01*
X76747077Y-48054200D02*
X76747077Y-44878200D01*
X76747077Y-42396200D02*
X76747077Y-39220200D01*
X76707077Y-48032200D02*
X76707077Y-44878200D01*
X76707077Y-42396200D02*
X76707077Y-39242200D01*
X76667077Y-48008200D02*
X76667077Y-44878200D01*
X76667077Y-42396200D02*
X76667077Y-39266200D01*
X76627077Y-47984200D02*
X76627077Y-44878200D01*
X76627077Y-42396200D02*
X76627077Y-39290200D01*
X76587077Y-47960200D02*
X76587077Y-44878200D01*
X76587077Y-42396200D02*
X76587077Y-39314200D01*
X76547077Y-47935200D02*
X76547077Y-44878200D01*
X76547077Y-42396200D02*
X76547077Y-39339200D01*
X76507077Y-47910200D02*
X76507077Y-44878200D01*
X76507077Y-42396200D02*
X76507077Y-39364200D01*
X76467077Y-47884200D02*
X76467077Y-44878200D01*
X76467077Y-42396200D02*
X76467077Y-39390200D01*
X76427077Y-47858200D02*
X76427077Y-44878200D01*
X76427077Y-42396200D02*
X76427077Y-39416200D01*
X76387077Y-47831200D02*
X76387077Y-44878200D01*
X76387077Y-42396200D02*
X76387077Y-39443200D01*
X76347077Y-47803200D02*
X76347077Y-44878200D01*
X76347077Y-42396200D02*
X76347077Y-39471200D01*
X76307077Y-47775200D02*
X76307077Y-44878200D01*
X76307077Y-42396200D02*
X76307077Y-39499200D01*
X76267077Y-47747200D02*
X76267077Y-44878200D01*
X76267077Y-42396200D02*
X76267077Y-39527200D01*
X76227077Y-47717200D02*
X76227077Y-44878200D01*
X76227077Y-42396200D02*
X76227077Y-39557200D01*
X76187077Y-47687200D02*
X76187077Y-44878200D01*
X76187077Y-42396200D02*
X76187077Y-39587200D01*
X76147077Y-47657200D02*
X76147077Y-44878200D01*
X76147077Y-42396200D02*
X76147077Y-39617200D01*
X76107077Y-47626200D02*
X76107077Y-44878200D01*
X76107077Y-42396200D02*
X76107077Y-39648200D01*
X76067077Y-47594200D02*
X76067077Y-44878200D01*
X76067077Y-42396200D02*
X76067077Y-39680200D01*
X76027077Y-47562200D02*
X76027077Y-44878200D01*
X76027077Y-42396200D02*
X76027077Y-39712200D01*
X75987077Y-47529200D02*
X75987077Y-44878200D01*
X75987077Y-42396200D02*
X75987077Y-39745200D01*
X75947077Y-47495200D02*
X75947077Y-44878200D01*
X75947077Y-42396200D02*
X75947077Y-39779200D01*
X75907077Y-47461200D02*
X75907077Y-44878200D01*
X75907077Y-42396200D02*
X75907077Y-39813200D01*
X75867077Y-47426200D02*
X75867077Y-44878200D01*
X75867077Y-42396200D02*
X75867077Y-39848200D01*
X75827077Y-47390200D02*
X75827077Y-44878200D01*
X75827077Y-42396200D02*
X75827077Y-39884200D01*
X75787077Y-47353200D02*
X75787077Y-44878200D01*
X75787077Y-42396200D02*
X75787077Y-39921200D01*
X75747077Y-47316200D02*
X75747077Y-44878200D01*
X75747077Y-42396200D02*
X75747077Y-39958200D01*
X75707077Y-47277200D02*
X75707077Y-44878200D01*
X75707077Y-42396200D02*
X75707077Y-39997200D01*
X75667077Y-47238200D02*
X75667077Y-44878200D01*
X75667077Y-42396200D02*
X75667077Y-40036200D01*
X75627077Y-47198200D02*
X75627077Y-44878200D01*
X75627077Y-42396200D02*
X75627077Y-40076200D01*
X75587077Y-47157200D02*
X75587077Y-44878200D01*
X75587077Y-42396200D02*
X75587077Y-40117200D01*
X75547077Y-47115200D02*
X75547077Y-44878200D01*
X75547077Y-42396200D02*
X75547077Y-40159200D01*
X75507077Y-47073200D02*
X75507077Y-40201200D01*
X75467077Y-47029200D02*
X75467077Y-40245200D01*
X75427077Y-46984200D02*
X75427077Y-40290200D01*
X75387077Y-46938200D02*
X75387077Y-40336200D01*
X75347077Y-46891200D02*
X75347077Y-40383200D01*
X75307077Y-46843200D02*
X75307077Y-40431200D01*
X75267077Y-46793200D02*
X75267077Y-40481200D01*
X75227077Y-46743200D02*
X75227077Y-40531200D01*
X75187077Y-46691200D02*
X75187077Y-40583200D01*
X75147077Y-46637200D02*
X75147077Y-40637200D01*
X75107077Y-46582200D02*
X75107077Y-40692200D01*
X75067077Y-46526200D02*
X75067077Y-40748200D01*
X75027077Y-46467200D02*
X75027077Y-40807200D01*
X74987077Y-46407200D02*
X74987077Y-40867200D01*
X74947077Y-46346200D02*
X74947077Y-40928200D01*
X74907077Y-46282200D02*
X74907077Y-40992200D01*
X74867077Y-46216200D02*
X74867077Y-41058200D01*
X74827077Y-46147200D02*
X74827077Y-41127200D01*
X74787077Y-46076200D02*
X74787077Y-41198200D01*
X74747077Y-46002200D02*
X74747077Y-41272200D01*
X74707077Y-45926200D02*
X74707077Y-41348200D01*
X74667077Y-45846200D02*
X74667077Y-41428200D01*
X74627077Y-45762200D02*
X74627077Y-41512200D01*
X74587077Y-45674200D02*
X74587077Y-41600200D01*
X74547077Y-45581200D02*
X74547077Y-41693200D01*
X74507077Y-45483200D02*
X74507077Y-41791200D01*
X74467077Y-45379200D02*
X74467077Y-41895200D01*
X74427077Y-45267200D02*
X74427077Y-42007200D01*
X74387077Y-45147200D02*
X74387077Y-42127200D01*
X74347077Y-45015200D02*
X74347077Y-42259200D01*
X74307077Y-44867200D02*
X74307077Y-42407200D01*
X74267077Y-44699200D02*
X74267077Y-42575200D01*
X74227077Y-44499200D02*
X74227077Y-42775200D01*
X74187077Y-44236200D02*
X74187077Y-43038200D01*
X84388077Y-43637200D02*
G75*
G03*
X84388077Y-43637200I-5120000J0D01*
G01*
X31002600Y-96848600D02*
X31002600Y-96533600D01*
X31002600Y-96848600D02*
X25762600Y-96848600D01*
X31002600Y-94423600D02*
X31002600Y-94108600D01*
X31002600Y-94108600D02*
X25762600Y-94108600D01*
X25762600Y-96848600D02*
X25762600Y-96533600D01*
X25762600Y-94423600D02*
X25762600Y-94108600D01*
X101803200Y-117533000D02*
X101803200Y-118288000D01*
X104528200Y-114808000D02*
G75*
G03*
X104528200Y-114808000I-2725000J0D01*
G01*
X36477950Y-62415000D02*
X36477950Y-65715000D01*
X36477950Y-62415000D02*
X43487950Y-62415000D01*
X36477950Y-65715000D02*
X43487950Y-65715000D01*
G36*
X101786666Y-102433277D02*
G01*
X101836966Y-102437996D01*
X101862795Y-102445709D01*
X101870140Y-102456822D01*
X101869027Y-102462987D01*
X101858169Y-102492090D01*
X101831553Y-102561946D01*
X101790876Y-102668138D01*
X101737836Y-102806249D01*
X101674134Y-102971861D01*
X101601465Y-103160556D01*
X101521530Y-103367918D01*
X101436026Y-103589528D01*
X101412893Y-103649450D01*
X101326821Y-103872889D01*
X101246514Y-104082340D01*
X101173585Y-104273525D01*
X101109647Y-104442170D01*
X101056314Y-104583997D01*
X101015198Y-104694733D01*
X100987914Y-104770099D01*
X100976073Y-104805821D01*
X100975754Y-104808149D01*
X100997546Y-104798505D01*
X101056230Y-104767197D01*
X101146886Y-104716991D01*
X101264593Y-104650656D01*
X101404431Y-104570958D01*
X101561479Y-104480664D01*
X101677286Y-104413640D01*
X101843396Y-104317616D01*
X101995740Y-104230251D01*
X102129389Y-104154317D01*
X102239412Y-104092587D01*
X102320879Y-104047833D01*
X102368859Y-104022828D01*
X102379862Y-104018536D01*
X102375718Y-104042832D01*
X102361004Y-104110046D01*
X102336692Y-104216062D01*
X102303758Y-104356768D01*
X102263177Y-104528050D01*
X102215922Y-104725793D01*
X102162968Y-104945885D01*
X102105290Y-105184211D01*
X102046760Y-105424773D01*
X101985549Y-105676814D01*
X101928293Y-105914693D01*
X101875952Y-106134276D01*
X101829487Y-106331433D01*
X101789857Y-106502031D01*
X101758023Y-106641936D01*
X101734945Y-106747019D01*
X101721584Y-106813145D01*
X101718769Y-106836121D01*
X101745148Y-106832644D01*
X101804105Y-106812035D01*
X101884649Y-106778307D01*
X101916336Y-106763948D01*
X101997197Y-106728826D01*
X102055769Y-106707743D01*
X102083261Y-106703659D01*
X102083445Y-106707690D01*
X102065497Y-106736145D01*
X102025829Y-106798174D01*
X101968323Y-106887763D01*
X101896856Y-106998897D01*
X101815307Y-107125562D01*
X101727557Y-107261742D01*
X101637483Y-107401424D01*
X101548965Y-107538592D01*
X101465882Y-107667232D01*
X101392113Y-107781329D01*
X101331537Y-107874868D01*
X101288033Y-107941835D01*
X101265480Y-107976216D01*
X101263248Y-107979445D01*
X101251994Y-107966945D01*
X101243152Y-107943124D01*
X101233223Y-107903681D01*
X101215272Y-107825911D01*
X101190869Y-107717100D01*
X101161586Y-107584533D01*
X101128994Y-107435495D01*
X101094663Y-107277273D01*
X101060164Y-107117151D01*
X101027070Y-106962415D01*
X100996949Y-106820350D01*
X100971375Y-106698241D01*
X100951917Y-106603374D01*
X100940147Y-106543035D01*
X100937309Y-106524810D01*
X100952930Y-106527789D01*
X100994870Y-106559582D01*
X101055749Y-106614227D01*
X101094697Y-106651929D01*
X101163562Y-106718770D01*
X101217738Y-106768678D01*
X101249557Y-106794726D01*
X101254731Y-106796511D01*
X101258413Y-106768057D01*
X101266298Y-106698731D01*
X101277694Y-106595101D01*
X101291908Y-106463736D01*
X101308250Y-106311205D01*
X101326027Y-106144077D01*
X101344547Y-105968920D01*
X101363121Y-105792304D01*
X101381055Y-105620798D01*
X101397657Y-105460969D01*
X101412238Y-105319388D01*
X101424104Y-105202622D01*
X101432564Y-105117241D01*
X101436926Y-105069813D01*
X101437327Y-105062284D01*
X101416466Y-105073317D01*
X101359031Y-105106311D01*
X101269994Y-105158342D01*
X101154324Y-105226487D01*
X101016993Y-105307821D01*
X100862972Y-105399421D01*
X100773868Y-105452567D01*
X100613312Y-105547615D01*
X100466883Y-105632739D01*
X100339492Y-105705209D01*
X100236045Y-105762295D01*
X100161451Y-105801267D01*
X100120618Y-105819394D01*
X100114328Y-105819428D01*
X100120156Y-105791479D01*
X100136761Y-105721459D01*
X100162990Y-105613923D01*
X100197691Y-105473422D01*
X100239711Y-105304509D01*
X100287898Y-105111737D01*
X100341101Y-104899658D01*
X100398165Y-104672824D01*
X100457939Y-104435790D01*
X100519271Y-104193106D01*
X100581007Y-103949325D01*
X100641997Y-103709001D01*
X100701086Y-103476685D01*
X100757124Y-103256931D01*
X100808957Y-103054290D01*
X100855432Y-102873316D01*
X100895399Y-102718560D01*
X100927704Y-102594576D01*
X100951195Y-102505916D01*
X100964719Y-102457133D01*
X100967509Y-102448930D01*
X100993596Y-102445587D01*
X101060393Y-102442058D01*
X101160182Y-102438609D01*
X101285246Y-102435507D01*
X101427870Y-102433018D01*
X101429106Y-102433000D01*
X101588721Y-102431187D01*
X101705913Y-102431144D01*
X101786666Y-102433277D01*
G37*
G36*
X101569424Y-100650992D02*
G01*
X101767667Y-100701873D01*
X101947815Y-100796885D01*
X102107241Y-100934267D01*
X102232287Y-101094922D01*
X102267087Y-101151032D01*
X102323147Y-101244504D01*
X102398836Y-101372495D01*
X102492520Y-101532160D01*
X102602568Y-101720657D01*
X102727347Y-101935142D01*
X102865226Y-102172770D01*
X103014571Y-102430699D01*
X103173750Y-102706084D01*
X103341132Y-102996083D01*
X103515084Y-103297851D01*
X103693973Y-103608544D01*
X103876167Y-103925320D01*
X104060035Y-104245335D01*
X104243943Y-104565744D01*
X104426260Y-104883705D01*
X104605353Y-105196373D01*
X104779590Y-105500906D01*
X104947338Y-105794458D01*
X105106966Y-106074188D01*
X105256841Y-106337250D01*
X105395331Y-106580803D01*
X105520803Y-106802000D01*
X105631625Y-106998001D01*
X105726165Y-107165959D01*
X105802791Y-107303033D01*
X105859870Y-107406378D01*
X105895770Y-107473150D01*
X105908548Y-107499403D01*
X105945123Y-107669487D01*
X105947743Y-107855976D01*
X105917622Y-108041980D01*
X105857661Y-108207209D01*
X105744023Y-108385000D01*
X105595959Y-108531543D01*
X105419009Y-108642934D01*
X105218712Y-108715275D01*
X105106376Y-108736267D01*
X105062986Y-108738740D01*
X104974500Y-108741019D01*
X104844250Y-108743106D01*
X104675567Y-108745000D01*
X104471782Y-108746705D01*
X104236227Y-108748220D01*
X103972232Y-108749547D01*
X103683129Y-108750688D01*
X103372249Y-108751643D01*
X103042923Y-108752413D01*
X102698483Y-108753001D01*
X102342260Y-108753407D01*
X101977585Y-108753633D01*
X101607789Y-108753679D01*
X101236203Y-108753547D01*
X100866159Y-108753238D01*
X100500988Y-108752753D01*
X100144021Y-108752094D01*
X99798589Y-108751261D01*
X99468024Y-108750257D01*
X99155656Y-108749081D01*
X98864818Y-108747737D01*
X98598839Y-108746223D01*
X98361052Y-108744543D01*
X98154788Y-108742697D01*
X97983378Y-108740686D01*
X97850152Y-108738511D01*
X97758443Y-108736174D01*
X97711581Y-108733677D01*
X97710531Y-108733554D01*
X97524033Y-108687370D01*
X97346588Y-108599529D01*
X97187272Y-108476802D01*
X97055163Y-108325960D01*
X96971942Y-108182662D01*
X96921479Y-108028980D01*
X96896657Y-107854590D01*
X96897855Y-107740736D01*
X97408855Y-107740736D01*
X97412133Y-107849732D01*
X97443979Y-107963648D01*
X97497335Y-108061644D01*
X97529863Y-108098148D01*
X97547100Y-108114856D01*
X97561963Y-108130019D01*
X97576758Y-108143714D01*
X97593793Y-108156014D01*
X97615376Y-108166996D01*
X97643813Y-108176733D01*
X97681412Y-108185300D01*
X97730479Y-108192774D01*
X97793322Y-108199227D01*
X97872248Y-108204736D01*
X97969564Y-108209375D01*
X98087577Y-108213218D01*
X98228594Y-108216342D01*
X98394923Y-108218820D01*
X98588870Y-108220728D01*
X98812743Y-108222140D01*
X99068849Y-108223132D01*
X99359495Y-108223778D01*
X99686988Y-108224153D01*
X100053635Y-108224331D01*
X100461743Y-108224389D01*
X100913620Y-108224400D01*
X101411572Y-108224439D01*
X101421580Y-108224441D01*
X105114145Y-108225012D01*
X105210283Y-108170561D01*
X105321200Y-108082477D01*
X105397892Y-107968114D01*
X105435531Y-107837495D01*
X105431457Y-107711271D01*
X105417804Y-107681589D01*
X105381208Y-107612369D01*
X105323010Y-107505972D01*
X105244551Y-107364758D01*
X105147171Y-107191087D01*
X105032212Y-106987320D01*
X104901013Y-106755817D01*
X104754917Y-106498940D01*
X104595264Y-106219048D01*
X104423394Y-105918502D01*
X104240648Y-105599663D01*
X104048368Y-105264891D01*
X103847893Y-104916546D01*
X103640565Y-104556989D01*
X103592458Y-104473657D01*
X103335865Y-104029494D01*
X103102294Y-103625651D01*
X102890724Y-103260407D01*
X102700137Y-102932044D01*
X102529515Y-102638841D01*
X102377839Y-102379080D01*
X102244090Y-102151039D01*
X102127250Y-101953001D01*
X102026299Y-101783244D01*
X101940219Y-101640050D01*
X101867992Y-101521699D01*
X101808598Y-101426471D01*
X101761019Y-101352646D01*
X101724236Y-101298506D01*
X101697230Y-101262330D01*
X101678983Y-101242398D01*
X101677499Y-101241150D01*
X101622366Y-101200897D01*
X101570947Y-101178689D01*
X101505138Y-101169321D01*
X101421580Y-101167563D01*
X101368150Y-101167754D01*
X101321126Y-101170376D01*
X101278115Y-101178501D01*
X101236723Y-101195201D01*
X101194557Y-101223549D01*
X101149224Y-101266617D01*
X101098328Y-101327477D01*
X101039478Y-101409203D01*
X100970279Y-101514865D01*
X100888338Y-101647536D01*
X100791261Y-101810289D01*
X100676655Y-102006196D01*
X100542126Y-102238330D01*
X100412201Y-102463171D01*
X100093115Y-103015468D01*
X99797395Y-103527405D01*
X99524159Y-104000538D01*
X99272519Y-104436422D01*
X99041590Y-104836614D01*
X98830487Y-105202669D01*
X98638325Y-105536145D01*
X98464218Y-105838595D01*
X98307280Y-106111578D01*
X98166626Y-106356647D01*
X98041371Y-106575361D01*
X97930629Y-106769273D01*
X97833514Y-106939941D01*
X97749142Y-107088920D01*
X97676626Y-107217767D01*
X97615082Y-107328037D01*
X97563623Y-107421286D01*
X97521365Y-107499070D01*
X97487422Y-107562945D01*
X97460908Y-107614467D01*
X97440938Y-107655192D01*
X97426627Y-107686676D01*
X97417088Y-107710476D01*
X97411438Y-107728146D01*
X97408855Y-107740736D01*
X96897855Y-107740736D01*
X96898510Y-107678449D01*
X96928075Y-107519515D01*
X96934593Y-107499403D01*
X96951845Y-107463382D01*
X96992005Y-107387875D01*
X97053702Y-107275295D01*
X97135567Y-107128055D01*
X97236227Y-106948571D01*
X97354312Y-106739255D01*
X97488452Y-106502522D01*
X97637275Y-106240786D01*
X97799411Y-105956460D01*
X97973489Y-105651960D01*
X98158138Y-105329698D01*
X98351987Y-104992089D01*
X98553665Y-104641547D01*
X98761802Y-104280486D01*
X98804582Y-104206362D01*
X99072373Y-103742753D01*
X99317003Y-103319896D01*
X99539261Y-102936453D01*
X99739939Y-102591087D01*
X99919825Y-102282460D01*
X100079710Y-102009234D01*
X100220385Y-101770073D01*
X100342640Y-101563639D01*
X100447264Y-101388594D01*
X100535049Y-101243600D01*
X100606783Y-101127321D01*
X100663258Y-101038419D01*
X100705263Y-100975556D01*
X100733590Y-100937394D01*
X100740582Y-100929455D01*
X100901061Y-100795665D01*
X101085295Y-100702175D01*
X101287458Y-100650941D01*
X101501721Y-100643921D01*
X101569424Y-100650992D01*
G37*
X28415400Y-99974400D02*
X27660400Y-99974400D01*
X33865400Y-99974400D02*
G75*
G03*
X33865400Y-99974400I-2725000J0D01*
G01*
X56449750Y-62976600D02*
X56449750Y-66276600D01*
X56449750Y-62976600D02*
X63459750Y-62976600D01*
X56449750Y-66276600D02*
X63459750Y-66276600D01*
D12*
X87266000Y-41634000D02*
X87266000Y-44704000D01*
X97666000Y-41634000D02*
X87266000Y-41634000D01*
X97666000Y-46234000D02*
X97666000Y-41634000D01*
D17*
X44213288Y-115483766D02*
X44213288Y-115483766D01*
X44313288Y-115483766D02*
X44313288Y-115483766D01*
D12*
X44833288Y-103403766D02*
X65153288Y-103403766D01*
X44833288Y-122103766D02*
X44833288Y-103403766D01*
X65153288Y-103403766D02*
X65153288Y-122103766D01*
X65153288Y-122103766D02*
X44833288Y-122103766D01*
D17*
X44313288Y-115483766D02*
G75*
G03*
X44213288Y-115483766I-50000J0D01*
G01*
X44213288Y-115483766D02*
G75*
G03*
X44313288Y-115483766I50000J0D01*
G01*
G36*
X53997677Y-80754250D02*
G01*
X53997677Y-81165079D01*
X52604428Y-81165079D01*
X51211179Y-81165079D01*
X51211179Y-80754250D01*
X51211179Y-80343420D01*
X52604428Y-80343420D01*
X53997677Y-80343420D01*
X53997677Y-80754250D01*
G37*
G36*
X64168780Y-78273264D02*
G01*
X64495229Y-78277062D01*
X64762622Y-78283538D01*
X64967449Y-78292676D01*
X65106199Y-78304459D01*
X65150841Y-78311576D01*
X65448252Y-78409621D01*
X65709260Y-78567772D01*
X65928621Y-78781838D01*
X66101089Y-79047625D01*
X66119858Y-79085898D01*
X66233261Y-79325276D01*
X66233261Y-80218385D01*
X66233261Y-81111493D01*
X66137518Y-81315767D01*
X65979647Y-81572863D01*
X65768249Y-81796399D01*
X65519063Y-81970344D01*
X65469727Y-81995982D01*
X65234555Y-82111774D01*
X62884893Y-82121454D01*
X60535230Y-82131134D01*
X60535230Y-80224919D01*
X60535230Y-79164517D01*
X61392614Y-79164517D01*
X61392614Y-80218385D01*
X61392614Y-81272252D01*
X63233800Y-81272252D01*
X65074987Y-81272252D01*
X65225432Y-81131919D01*
X65375877Y-80991585D01*
X65375877Y-80218385D01*
X65375877Y-79445184D01*
X65225432Y-79304850D01*
X65074987Y-79164517D01*
X63233800Y-79164517D01*
X61392614Y-79164517D01*
X60535230Y-79164517D01*
X60535230Y-78318704D01*
X61773556Y-78295056D01*
X62342631Y-78285203D01*
X62870200Y-78278114D01*
X63352755Y-78273773D01*
X63786786Y-78272162D01*
X64168780Y-78273264D01*
G37*
G36*
X57454519Y-78272845D02*
G01*
X57973459Y-78278540D01*
X58560355Y-78287529D01*
X58976468Y-78295077D01*
X60215878Y-78318745D01*
X60205863Y-78732700D01*
X60195849Y-79146655D01*
X57921280Y-79164517D01*
X55646711Y-79182379D01*
X55551149Y-79271690D01*
X55424885Y-79426434D01*
X55361610Y-79591717D01*
X55355202Y-79662621D01*
X55355202Y-79771305D01*
X57650490Y-79780499D01*
X59945778Y-79789693D01*
X59955843Y-80209453D01*
X59965908Y-80629214D01*
X57660555Y-80629214D01*
X55355202Y-80629214D01*
X55355202Y-80756024D01*
X55389965Y-80938889D01*
X55494380Y-81106458D01*
X55551152Y-81165079D01*
X55646719Y-81254390D01*
X57921284Y-81272252D01*
X60195849Y-81290115D01*
X60205914Y-81709875D01*
X60215978Y-82129636D01*
X57919556Y-82127247D01*
X57431010Y-82126432D01*
X57009268Y-82125016D01*
X56649687Y-82122904D01*
X56347626Y-82120002D01*
X56098441Y-82116217D01*
X55897491Y-82111455D01*
X55740131Y-82105623D01*
X55621720Y-82098625D01*
X55537616Y-82090369D01*
X55483175Y-82080761D01*
X55472593Y-82077809D01*
X55199662Y-81956390D01*
X54954455Y-81776081D01*
X54749239Y-81547749D01*
X54610821Y-81314342D01*
X54581532Y-81250505D01*
X54558971Y-81192732D01*
X54542259Y-81130904D01*
X54530519Y-81054900D01*
X54522874Y-80954603D01*
X54518445Y-80819891D01*
X54516353Y-80640645D01*
X54515723Y-80406745D01*
X54515680Y-80217633D01*
X54515680Y-79323774D01*
X54629819Y-79092317D01*
X54802751Y-78813083D01*
X55017817Y-78591523D01*
X55275294Y-78427406D01*
X55550260Y-78326853D01*
X55651657Y-78308945D01*
X55806473Y-78294467D01*
X56016784Y-78283399D01*
X56284668Y-78275722D01*
X56612200Y-78271417D01*
X57001458Y-78270465D01*
X57454519Y-78272845D01*
G37*
G36*
X50596077Y-78725905D02*
G01*
X50586003Y-79146655D01*
X48329037Y-79164517D01*
X47871715Y-79168188D01*
X47480415Y-79171553D01*
X47149710Y-79174824D01*
X46874175Y-79178211D01*
X46648385Y-79181926D01*
X46466914Y-79186180D01*
X46324336Y-79191185D01*
X46215226Y-79197152D01*
X46134158Y-79204292D01*
X46075706Y-79212817D01*
X46034446Y-79222938D01*
X46004951Y-79234866D01*
X45981795Y-79248813D01*
X45971231Y-79256367D01*
X45896164Y-79318299D01*
X45839623Y-79386291D01*
X45799054Y-79471135D01*
X45771902Y-79583621D01*
X45755615Y-79734541D01*
X45747638Y-79934686D01*
X45745418Y-80194848D01*
X45745412Y-80210601D01*
X45747078Y-80471916D01*
X45753644Y-80672977D01*
X45767382Y-80824928D01*
X45790566Y-80938917D01*
X45825469Y-81026088D01*
X45874365Y-81097588D01*
X45939527Y-81164562D01*
X45940087Y-81165079D01*
X46036852Y-81254390D01*
X47686252Y-81262005D01*
X49335652Y-81269619D01*
X49559617Y-80958348D01*
X49783581Y-80647077D01*
X48014539Y-80637812D01*
X46245497Y-80628547D01*
X46245497Y-80199112D01*
X46245497Y-79769677D01*
X48382835Y-79779685D01*
X50520173Y-79789693D01*
X50646303Y-79885918D01*
X50741827Y-79977596D01*
X50819184Y-80083156D01*
X50831046Y-80105663D01*
X50871705Y-80238208D01*
X50887852Y-80393669D01*
X50878503Y-80541224D01*
X50848169Y-80640494D01*
X50815649Y-80689994D01*
X50746350Y-80787564D01*
X50646725Y-80924391D01*
X50523228Y-81091661D01*
X50382313Y-81280559D01*
X50274393Y-81424081D01*
X49742109Y-82129636D01*
X47877699Y-82127247D01*
X47429245Y-82126207D01*
X47047622Y-82124253D01*
X46728219Y-82121277D01*
X46466422Y-82117168D01*
X46257620Y-82111818D01*
X46097199Y-82105117D01*
X45980547Y-82096956D01*
X45903052Y-82087226D01*
X45870392Y-82079664D01*
X45582088Y-81952780D01*
X45335959Y-81770798D01*
X45138042Y-81540088D01*
X44994375Y-81267021D01*
X44939782Y-81097641D01*
X44919353Y-81003087D01*
X44904787Y-80895366D01*
X44895534Y-80762708D01*
X44891043Y-80593341D01*
X44890766Y-80375491D01*
X44893882Y-80114415D01*
X44905835Y-79357010D01*
X45040599Y-79084475D01*
X45206692Y-78815759D01*
X45414296Y-78602474D01*
X45670766Y-78437297D01*
X45709632Y-78418238D01*
X45906116Y-78324995D01*
X48256133Y-78315075D01*
X50606150Y-78305155D01*
X50596077Y-78725905D01*
G37*
G36*
X67378941Y-78204319D02*
G01*
X67415852Y-78215057D01*
X67451527Y-78229055D01*
X67489811Y-78250397D01*
X67534548Y-78283166D01*
X67589582Y-78331446D01*
X67658757Y-78399322D01*
X67745918Y-78490876D01*
X67854909Y-78610194D01*
X67989574Y-78761358D01*
X68153758Y-78948453D01*
X68351304Y-79175562D01*
X68586057Y-79446769D01*
X68861861Y-79766159D01*
X69001897Y-79928438D01*
X69227204Y-80188474D01*
X69439107Y-80430958D01*
X69632926Y-80650682D01*
X69803982Y-80842439D01*
X69947593Y-81001020D01*
X70059082Y-81121217D01*
X70133767Y-81197822D01*
X70166968Y-81225627D01*
X70167516Y-81225634D01*
X70197994Y-81198020D01*
X70270561Y-81121292D01*
X70380718Y-81000507D01*
X70523968Y-80840722D01*
X70695810Y-80646995D01*
X70891747Y-80424381D01*
X71107280Y-80177940D01*
X71337909Y-79912726D01*
X71429022Y-79807555D01*
X71666302Y-79533791D01*
X71891709Y-79274527D01*
X72100502Y-79035160D01*
X72287941Y-78821086D01*
X72449286Y-78637702D01*
X72579797Y-78490407D01*
X72674734Y-78384596D01*
X72729356Y-78325667D01*
X72737882Y-78317287D01*
X72891155Y-78223840D01*
X73068018Y-78187069D01*
X73249032Y-78206613D01*
X73414760Y-78282107D01*
X73475826Y-78331063D01*
X73521270Y-78374376D01*
X73559484Y-78415901D01*
X73591094Y-78461917D01*
X73616728Y-78518703D01*
X73637010Y-78592537D01*
X73652567Y-78689699D01*
X73664027Y-78816469D01*
X73672014Y-78979124D01*
X73677156Y-79183944D01*
X73680078Y-79437208D01*
X73681408Y-79745195D01*
X73681770Y-80114184D01*
X73681784Y-80395859D01*
X73681784Y-82129636D01*
X73253532Y-82129636D01*
X72825280Y-82129636D01*
X72815909Y-80817937D01*
X72806538Y-79506237D01*
X71657439Y-80828693D01*
X71427169Y-81092396D01*
X71208494Y-81340318D01*
X71006346Y-81567041D01*
X70825659Y-81767145D01*
X70671368Y-81935212D01*
X70548406Y-82065823D01*
X70461707Y-82153558D01*
X70416206Y-82193000D01*
X70414337Y-82193979D01*
X70292319Y-82225742D01*
X70141453Y-82233528D01*
X69995120Y-82217946D01*
X69895005Y-82184512D01*
X69854237Y-82148104D01*
X69771991Y-82062900D01*
X69653215Y-81934416D01*
X69502856Y-81768167D01*
X69325864Y-81569665D01*
X69127186Y-81344425D01*
X68911770Y-81097963D01*
X68684565Y-80835791D01*
X68680378Y-80830938D01*
X68455363Y-80570741D01*
X68244257Y-80327735D01*
X68051685Y-80107165D01*
X67882269Y-79914274D01*
X67740635Y-79754308D01*
X67631407Y-79632510D01*
X67559208Y-79554127D01*
X67528664Y-79524401D01*
X67528268Y-79524280D01*
X67522161Y-79558096D01*
X67516544Y-79655464D01*
X67511577Y-79808487D01*
X67507425Y-80009270D01*
X67504248Y-80249917D01*
X67502211Y-80522532D01*
X67501475Y-80819218D01*
X67501475Y-80825698D01*
X67501475Y-82129636D01*
X67072783Y-82129636D01*
X66644091Y-82129636D01*
X66644290Y-80441662D01*
X66645225Y-79982966D01*
X66647893Y-79587107D01*
X66652263Y-79255580D01*
X66658302Y-78989880D01*
X66665979Y-78791501D01*
X66675262Y-78661937D01*
X66683268Y-78610790D01*
X66764565Y-78435459D01*
X66894343Y-78300581D01*
X67058391Y-78214461D01*
X67242500Y-78185401D01*
X67378941Y-78204319D01*
G37*
D14*
X35684000Y-103358000D02*
X35684000Y-104778000D01*
X23964000Y-103358000D02*
X35684000Y-103358000D01*
X35684000Y-104778000D02*
X31184000Y-104778000D01*
X31184000Y-104778000D02*
X31184000Y-107168000D01*
X35374000Y-105618000D02*
X35374000Y-106218000D01*
X30074000Y-105668000D02*
X24574000Y-105668000D01*
X24574000Y-105668000D02*
X24574000Y-106168000D01*
X34774000Y-105918000D02*
X35374000Y-105618000D01*
X30074000Y-106168000D02*
X30074000Y-105668000D01*
X24574000Y-106168000D02*
X30074000Y-106168000D01*
X35374000Y-106218000D02*
X34774000Y-105918000D01*
X23964000Y-107168000D02*
X23964000Y-103358000D01*
X23964000Y-107168000D02*
X23964000Y-110978000D01*
X30074000Y-108168000D02*
X24574000Y-108168000D01*
X24574000Y-108168000D02*
X24574000Y-108668000D01*
X30074000Y-108668000D02*
X30074000Y-108168000D01*
X24574000Y-108668000D02*
X30074000Y-108668000D01*
X35684000Y-109558000D02*
X31184000Y-109558000D01*
X31184000Y-109558000D02*
X31184000Y-107168000D01*
X35684000Y-110978000D02*
X35684000Y-109558000D01*
X23964000Y-110978000D02*
X35684000Y-110978000D01*
X87592400Y-63650237D02*
X87592400Y-62202763D01*
X90302400Y-63650237D02*
X90302400Y-62202763D01*
X96331150Y-62976600D02*
X96331150Y-66276600D01*
X96331150Y-62976600D02*
X103341150Y-62976600D01*
X96331150Y-66276600D02*
X103341150Y-66276600D01*
X47744200Y-44643800D02*
X46534200Y-44643800D01*
X52484200Y-44643800D02*
G75*
G03*
X52484200Y-44643800I-2370000J0D01*
G01*
X88094452Y-36726800D02*
X87571948Y-36726800D01*
X88094452Y-35256800D02*
X87571948Y-35256800D01*
X51562000Y-38224000D02*
X50142000Y-38224000D01*
X51562000Y-26504000D02*
X51562000Y-38224000D01*
X50142000Y-38224000D02*
X50142000Y-33724000D01*
X50142000Y-33724000D02*
X47752000Y-33724000D01*
X49302000Y-37914000D02*
X48702000Y-37914000D01*
X49252000Y-32614000D02*
X49252000Y-27114000D01*
X49252000Y-27114000D02*
X48752000Y-27114000D01*
X49002000Y-37314000D02*
X49302000Y-37914000D01*
X48752000Y-32614000D02*
X49252000Y-32614000D01*
X48752000Y-27114000D02*
X48752000Y-32614000D01*
X48702000Y-37914000D02*
X49002000Y-37314000D01*
X47752000Y-26504000D02*
X51562000Y-26504000D01*
X47752000Y-26504000D02*
X43942000Y-26504000D01*
X46752000Y-32614000D02*
X46752000Y-27114000D01*
X46752000Y-27114000D02*
X46252000Y-27114000D01*
X46252000Y-32614000D02*
X46752000Y-32614000D01*
X46252000Y-27114000D02*
X46252000Y-32614000D01*
X45362000Y-38224000D02*
X45362000Y-33724000D01*
X45362000Y-33724000D02*
X47752000Y-33724000D01*
X43942000Y-38224000D02*
X45362000Y-38224000D01*
X43942000Y-26504000D02*
X43942000Y-38224000D01*
X95732600Y-117533000D02*
X95732600Y-118288000D01*
X98457600Y-114808000D02*
G75*
G03*
X98457600Y-114808000I-2725000J0D01*
G01*
X66934600Y-63675637D02*
X66934600Y-62228163D01*
X69644600Y-63675637D02*
X69644600Y-62228163D01*
X76769750Y-62925800D02*
X76769750Y-66225800D01*
X76769750Y-62925800D02*
X83779750Y-62925800D01*
X76769750Y-66225800D02*
X83779750Y-66225800D01*
X108440000Y-44704000D02*
X108440000Y-43284000D01*
X120160000Y-44704000D02*
X108440000Y-44704000D01*
X108440000Y-43284000D02*
X112940000Y-43284000D01*
X112940000Y-43284000D02*
X112940000Y-40894000D01*
X108750000Y-42444000D02*
X108750000Y-41844000D01*
X114050000Y-42394000D02*
X119550000Y-42394000D01*
X119550000Y-42394000D02*
X119550000Y-41894000D01*
X109350000Y-42144000D02*
X108750000Y-42444000D01*
X114050000Y-41894000D02*
X114050000Y-42394000D01*
X119550000Y-41894000D02*
X114050000Y-41894000D01*
X108750000Y-41844000D02*
X109350000Y-42144000D01*
X120160000Y-40894000D02*
X120160000Y-44704000D01*
X120160000Y-40894000D02*
X120160000Y-37084000D01*
X114050000Y-39894000D02*
X119550000Y-39894000D01*
X119550000Y-39894000D02*
X119550000Y-39394000D01*
X114050000Y-39394000D02*
X114050000Y-39894000D01*
X119550000Y-39394000D02*
X114050000Y-39394000D01*
X108440000Y-38504000D02*
X112940000Y-38504000D01*
X112940000Y-38504000D02*
X112940000Y-40894000D01*
X108440000Y-37084000D02*
X108440000Y-38504000D01*
X120160000Y-37084000D02*
X108440000Y-37084000D01*
X106106000Y-47279759D02*
X106106000Y-47909759D01*
X106421000Y-47594759D02*
X105791000Y-47594759D01*
X107497000Y-50780000D02*
X101037000Y-50780000D01*
X107497000Y-50820000D02*
X101037000Y-50820000D01*
X107497000Y-50860000D02*
X101037000Y-50860000D01*
X107495000Y-50900000D02*
X101039000Y-50900000D01*
X107494000Y-50940000D02*
X101040000Y-50940000D01*
X107491000Y-50980000D02*
X101043000Y-50980000D01*
X107489000Y-51020000D02*
X105307000Y-51020000D01*
X103227000Y-51020000D02*
X101045000Y-51020000D01*
X107485000Y-51060000D02*
X105307000Y-51060000D01*
X103227000Y-51060000D02*
X101049000Y-51060000D01*
X107482000Y-51100000D02*
X105307000Y-51100000D01*
X103227000Y-51100000D02*
X101052000Y-51100000D01*
X107478000Y-51140000D02*
X105307000Y-51140000D01*
X103227000Y-51140000D02*
X101056000Y-51140000D01*
X107473000Y-51180000D02*
X105307000Y-51180000D01*
X103227000Y-51180000D02*
X101061000Y-51180000D01*
X107468000Y-51220000D02*
X105307000Y-51220000D01*
X103227000Y-51220000D02*
X101066000Y-51220000D01*
X107462000Y-51260000D02*
X105307000Y-51260000D01*
X103227000Y-51260000D02*
X101072000Y-51260000D01*
X107456000Y-51300000D02*
X105307000Y-51300000D01*
X103227000Y-51300000D02*
X101078000Y-51300000D01*
X107449000Y-51340000D02*
X105307000Y-51340000D01*
X103227000Y-51340000D02*
X101085000Y-51340000D01*
X107442000Y-51380000D02*
X105307000Y-51380000D01*
X103227000Y-51380000D02*
X101092000Y-51380000D01*
X107434000Y-51420000D02*
X105307000Y-51420000D01*
X103227000Y-51420000D02*
X101100000Y-51420000D01*
X107426000Y-51460000D02*
X105307000Y-51460000D01*
X103227000Y-51460000D02*
X101108000Y-51460000D01*
X107417000Y-51501000D02*
X105307000Y-51501000D01*
X103227000Y-51501000D02*
X101117000Y-51501000D01*
X107408000Y-51541000D02*
X105307000Y-51541000D01*
X103227000Y-51541000D02*
X101126000Y-51541000D01*
X107398000Y-51581000D02*
X105307000Y-51581000D01*
X103227000Y-51581000D02*
X101136000Y-51581000D01*
X107388000Y-51621000D02*
X105307000Y-51621000D01*
X103227000Y-51621000D02*
X101146000Y-51621000D01*
X107377000Y-51661000D02*
X105307000Y-51661000D01*
X103227000Y-51661000D02*
X101157000Y-51661000D01*
X107365000Y-51701000D02*
X105307000Y-51701000D01*
X103227000Y-51701000D02*
X101169000Y-51701000D01*
X107353000Y-51741000D02*
X105307000Y-51741000D01*
X103227000Y-51741000D02*
X101181000Y-51741000D01*
X107341000Y-51781000D02*
X105307000Y-51781000D01*
X103227000Y-51781000D02*
X101193000Y-51781000D01*
X107328000Y-51821000D02*
X105307000Y-51821000D01*
X103227000Y-51821000D02*
X101206000Y-51821000D01*
X107314000Y-51861000D02*
X105307000Y-51861000D01*
X103227000Y-51861000D02*
X101220000Y-51861000D01*
X107300000Y-51901000D02*
X105307000Y-51901000D01*
X103227000Y-51901000D02*
X101234000Y-51901000D01*
X107285000Y-51941000D02*
X105307000Y-51941000D01*
X103227000Y-51941000D02*
X101249000Y-51941000D01*
X107269000Y-51981000D02*
X105307000Y-51981000D01*
X103227000Y-51981000D02*
X101265000Y-51981000D01*
X107253000Y-52021000D02*
X105307000Y-52021000D01*
X103227000Y-52021000D02*
X101281000Y-52021000D01*
X107237000Y-52061000D02*
X105307000Y-52061000D01*
X103227000Y-52061000D02*
X101297000Y-52061000D01*
X107219000Y-52101000D02*
X105307000Y-52101000D01*
X103227000Y-52101000D02*
X101315000Y-52101000D01*
X107201000Y-52141000D02*
X105307000Y-52141000D01*
X103227000Y-52141000D02*
X101333000Y-52141000D01*
X107183000Y-52181000D02*
X105307000Y-52181000D01*
X103227000Y-52181000D02*
X101351000Y-52181000D01*
X107163000Y-52221000D02*
X105307000Y-52221000D01*
X103227000Y-52221000D02*
X101371000Y-52221000D01*
X107143000Y-52261000D02*
X105307000Y-52261000D01*
X103227000Y-52261000D02*
X101391000Y-52261000D01*
X107123000Y-52301000D02*
X105307000Y-52301000D01*
X103227000Y-52301000D02*
X101411000Y-52301000D01*
X107101000Y-52341000D02*
X105307000Y-52341000D01*
X103227000Y-52341000D02*
X101433000Y-52341000D01*
X107079000Y-52381000D02*
X105307000Y-52381000D01*
X103227000Y-52381000D02*
X101455000Y-52381000D01*
X107057000Y-52421000D02*
X105307000Y-52421000D01*
X103227000Y-52421000D02*
X101477000Y-52421000D01*
X107033000Y-52461000D02*
X105307000Y-52461000D01*
X103227000Y-52461000D02*
X101501000Y-52461000D01*
X107009000Y-52501000D02*
X105307000Y-52501000D01*
X103227000Y-52501000D02*
X101525000Y-52501000D01*
X106983000Y-52541000D02*
X105307000Y-52541000D01*
X103227000Y-52541000D02*
X101551000Y-52541000D01*
X106957000Y-52581000D02*
X105307000Y-52581000D01*
X103227000Y-52581000D02*
X101577000Y-52581000D01*
X106931000Y-52621000D02*
X105307000Y-52621000D01*
X103227000Y-52621000D02*
X101603000Y-52621000D01*
X106903000Y-52661000D02*
X105307000Y-52661000D01*
X103227000Y-52661000D02*
X101631000Y-52661000D01*
X106874000Y-52701000D02*
X105307000Y-52701000D01*
X103227000Y-52701000D02*
X101660000Y-52701000D01*
X106845000Y-52741000D02*
X105307000Y-52741000D01*
X103227000Y-52741000D02*
X101689000Y-52741000D01*
X106815000Y-52781000D02*
X105307000Y-52781000D01*
X103227000Y-52781000D02*
X101719000Y-52781000D01*
X106783000Y-52821000D02*
X105307000Y-52821000D01*
X103227000Y-52821000D02*
X101751000Y-52821000D01*
X106751000Y-52861000D02*
X105307000Y-52861000D01*
X103227000Y-52861000D02*
X101783000Y-52861000D01*
X106717000Y-52901000D02*
X105307000Y-52901000D01*
X103227000Y-52901000D02*
X101817000Y-52901000D01*
X106683000Y-52941000D02*
X105307000Y-52941000D01*
X103227000Y-52941000D02*
X101851000Y-52941000D01*
X106647000Y-52981000D02*
X105307000Y-52981000D01*
X103227000Y-52981000D02*
X101887000Y-52981000D01*
X106610000Y-53021000D02*
X105307000Y-53021000D01*
X103227000Y-53021000D02*
X101924000Y-53021000D01*
X106572000Y-53061000D02*
X105307000Y-53061000D01*
X103227000Y-53061000D02*
X101962000Y-53061000D01*
X106532000Y-53101000D02*
X102002000Y-53101000D01*
X106491000Y-53141000D02*
X102043000Y-53141000D01*
X106449000Y-53181000D02*
X102085000Y-53181000D01*
X106404000Y-53221000D02*
X102130000Y-53221000D01*
X106359000Y-53261000D02*
X102175000Y-53261000D01*
X106311000Y-53301000D02*
X102223000Y-53301000D01*
X106262000Y-53341000D02*
X102272000Y-53341000D01*
X106211000Y-53381000D02*
X102323000Y-53381000D01*
X106157000Y-53421000D02*
X102377000Y-53421000D01*
X106101000Y-53461000D02*
X102433000Y-53461000D01*
X106043000Y-53501000D02*
X102491000Y-53501000D01*
X105981000Y-53541000D02*
X102553000Y-53541000D01*
X105917000Y-53581000D02*
X102617000Y-53581000D01*
X105848000Y-53621000D02*
X102686000Y-53621000D01*
X105776000Y-53661000D02*
X102758000Y-53661000D01*
X105699000Y-53701000D02*
X102835000Y-53701000D01*
X105617000Y-53741000D02*
X102917000Y-53741000D01*
X105529000Y-53781000D02*
X103005000Y-53781000D01*
X105432000Y-53821000D02*
X103102000Y-53821000D01*
X105326000Y-53861000D02*
X103208000Y-53861000D01*
X105207000Y-53901000D02*
X103327000Y-53901000D01*
X105069000Y-53941000D02*
X103465000Y-53941000D01*
X104900000Y-53981000D02*
X103634000Y-53981000D01*
X104669000Y-54021000D02*
X103865000Y-54021000D01*
X107537000Y-50780000D02*
G75*
G03*
X107537000Y-50780000I-3270000J0D01*
G01*
X106222329Y-101034000D02*
X107622329Y-101034000D01*
X106922329Y-100334000D02*
X106922329Y-101734000D01*
X113841872Y-97949000D02*
X113841872Y-112109000D01*
X113881872Y-97949000D02*
X113881872Y-112109000D01*
X113921872Y-97949000D02*
X113921872Y-112109000D01*
X113961872Y-97950000D02*
X113961872Y-112108000D01*
X114001872Y-97950000D02*
X114001872Y-112108000D01*
X114041872Y-97951000D02*
X114041872Y-112107000D01*
X114081872Y-97953000D02*
X114081872Y-112105000D01*
X114121872Y-97954000D02*
X114121872Y-112104000D01*
X114161872Y-97956000D02*
X114161872Y-112102000D01*
X114201872Y-97958000D02*
X114201872Y-112100000D01*
X114241872Y-97960000D02*
X114241872Y-112098000D01*
X114281872Y-97962000D02*
X114281872Y-112096000D01*
X114321872Y-97965000D02*
X114321872Y-112093000D01*
X114361872Y-97968000D02*
X114361872Y-112090000D01*
X114401872Y-97971000D02*
X114401872Y-112087000D01*
X114441872Y-97974000D02*
X114441872Y-112084000D01*
X114481872Y-97977000D02*
X114481872Y-112081000D01*
X114521872Y-97981000D02*
X114521872Y-112077000D01*
X114562872Y-97985000D02*
X114562872Y-112073000D01*
X114602872Y-97989000D02*
X114602872Y-112069000D01*
X114642872Y-97994000D02*
X114642872Y-112064000D01*
X114682872Y-97998000D02*
X114682872Y-112060000D01*
X114722872Y-98003000D02*
X114722872Y-112055000D01*
X114762872Y-98008000D02*
X114762872Y-112050000D01*
X114802872Y-98014000D02*
X114802872Y-112044000D01*
X114842872Y-98019000D02*
X114842872Y-112039000D01*
X114882872Y-98025000D02*
X114882872Y-112033000D01*
X114922872Y-98031000D02*
X114922872Y-103589000D01*
X114922872Y-106469000D02*
X114922872Y-112027000D01*
X114962872Y-98037000D02*
X114962872Y-103589000D01*
X114962872Y-106469000D02*
X114962872Y-112021000D01*
X115002872Y-98044000D02*
X115002872Y-103589000D01*
X115002872Y-106469000D02*
X115002872Y-112014000D01*
X115042872Y-98050000D02*
X115042872Y-103589000D01*
X115042872Y-106469000D02*
X115042872Y-112008000D01*
X115082872Y-98057000D02*
X115082872Y-103589000D01*
X115082872Y-106469000D02*
X115082872Y-112001000D01*
X115122872Y-98065000D02*
X115122872Y-103589000D01*
X115122872Y-106469000D02*
X115122872Y-111993000D01*
X115162872Y-98072000D02*
X115162872Y-103589000D01*
X115162872Y-106469000D02*
X115162872Y-111986000D01*
X115202872Y-98080000D02*
X115202872Y-103589000D01*
X115202872Y-106469000D02*
X115202872Y-111978000D01*
X115242872Y-98087000D02*
X115242872Y-103589000D01*
X115242872Y-106469000D02*
X115242872Y-111971000D01*
X115282872Y-98096000D02*
X115282872Y-103589000D01*
X115282872Y-106469000D02*
X115282872Y-111962000D01*
X115322872Y-98104000D02*
X115322872Y-103589000D01*
X115322872Y-106469000D02*
X115322872Y-111954000D01*
X115362872Y-98113000D02*
X115362872Y-103589000D01*
X115362872Y-106469000D02*
X115362872Y-111945000D01*
X115402872Y-98122000D02*
X115402872Y-103589000D01*
X115402872Y-106469000D02*
X115402872Y-111936000D01*
X115442872Y-98131000D02*
X115442872Y-103589000D01*
X115442872Y-106469000D02*
X115442872Y-111927000D01*
X115482872Y-98140000D02*
X115482872Y-103589000D01*
X115482872Y-106469000D02*
X115482872Y-111918000D01*
X115522872Y-98150000D02*
X115522872Y-103589000D01*
X115522872Y-106469000D02*
X115522872Y-111908000D01*
X115562872Y-98159000D02*
X115562872Y-103589000D01*
X115562872Y-106469000D02*
X115562872Y-111899000D01*
X115602872Y-98169000D02*
X115602872Y-103589000D01*
X115602872Y-106469000D02*
X115602872Y-111889000D01*
X115642872Y-98180000D02*
X115642872Y-103589000D01*
X115642872Y-106469000D02*
X115642872Y-111878000D01*
X115682872Y-98190000D02*
X115682872Y-103589000D01*
X115682872Y-106469000D02*
X115682872Y-111868000D01*
X115722872Y-98201000D02*
X115722872Y-103589000D01*
X115722872Y-106469000D02*
X115722872Y-111857000D01*
X115762872Y-98212000D02*
X115762872Y-103589000D01*
X115762872Y-106469000D02*
X115762872Y-111846000D01*
X115802872Y-98224000D02*
X115802872Y-103589000D01*
X115802872Y-106469000D02*
X115802872Y-111834000D01*
X115842872Y-98235000D02*
X115842872Y-103589000D01*
X115842872Y-106469000D02*
X115842872Y-111823000D01*
X115882872Y-98247000D02*
X115882872Y-103589000D01*
X115882872Y-106469000D02*
X115882872Y-111811000D01*
X115922872Y-98259000D02*
X115922872Y-103589000D01*
X115922872Y-106469000D02*
X115922872Y-111799000D01*
X115962872Y-98271000D02*
X115962872Y-103589000D01*
X115962872Y-106469000D02*
X115962872Y-111787000D01*
X116002872Y-98284000D02*
X116002872Y-103589000D01*
X116002872Y-106469000D02*
X116002872Y-111774000D01*
X116042872Y-98297000D02*
X116042872Y-103589000D01*
X116042872Y-106469000D02*
X116042872Y-111761000D01*
X116082872Y-98310000D02*
X116082872Y-103589000D01*
X116082872Y-106469000D02*
X116082872Y-111748000D01*
X116122872Y-98323000D02*
X116122872Y-103589000D01*
X116122872Y-106469000D02*
X116122872Y-111735000D01*
X116162872Y-98337000D02*
X116162872Y-103589000D01*
X116162872Y-106469000D02*
X116162872Y-111721000D01*
X116202872Y-98351000D02*
X116202872Y-103589000D01*
X116202872Y-106469000D02*
X116202872Y-111707000D01*
X116242872Y-98365000D02*
X116242872Y-103589000D01*
X116242872Y-106469000D02*
X116242872Y-111693000D01*
X116282872Y-98380000D02*
X116282872Y-103589000D01*
X116282872Y-106469000D02*
X116282872Y-111678000D01*
X116322872Y-98394000D02*
X116322872Y-103589000D01*
X116322872Y-106469000D02*
X116322872Y-111664000D01*
X116362872Y-98409000D02*
X116362872Y-103589000D01*
X116362872Y-106469000D02*
X116362872Y-111649000D01*
X116402872Y-98425000D02*
X116402872Y-103589000D01*
X116402872Y-106469000D02*
X116402872Y-111633000D01*
X116442872Y-98440000D02*
X116442872Y-103589000D01*
X116442872Y-106469000D02*
X116442872Y-111618000D01*
X116482872Y-98456000D02*
X116482872Y-103589000D01*
X116482872Y-106469000D02*
X116482872Y-111602000D01*
X116522872Y-98472000D02*
X116522872Y-103589000D01*
X116522872Y-106469000D02*
X116522872Y-111586000D01*
X116562872Y-98489000D02*
X116562872Y-103589000D01*
X116562872Y-106469000D02*
X116562872Y-111569000D01*
X116602872Y-98505000D02*
X116602872Y-103589000D01*
X116602872Y-106469000D02*
X116602872Y-111553000D01*
X116642872Y-98522000D02*
X116642872Y-103589000D01*
X116642872Y-106469000D02*
X116642872Y-111536000D01*
X116682872Y-98539000D02*
X116682872Y-103589000D01*
X116682872Y-106469000D02*
X116682872Y-111519000D01*
X116722872Y-98557000D02*
X116722872Y-103589000D01*
X116722872Y-106469000D02*
X116722872Y-111501000D01*
X116762872Y-98575000D02*
X116762872Y-103589000D01*
X116762872Y-106469000D02*
X116762872Y-111483000D01*
X116802872Y-98593000D02*
X116802872Y-103589000D01*
X116802872Y-106469000D02*
X116802872Y-111465000D01*
X116842872Y-98611000D02*
X116842872Y-103589000D01*
X116842872Y-106469000D02*
X116842872Y-111447000D01*
X116882872Y-98630000D02*
X116882872Y-103589000D01*
X116882872Y-106469000D02*
X116882872Y-111428000D01*
X116922872Y-98649000D02*
X116922872Y-103589000D01*
X116922872Y-106469000D02*
X116922872Y-111409000D01*
X116962872Y-98669000D02*
X116962872Y-103589000D01*
X116962872Y-106469000D02*
X116962872Y-111389000D01*
X117002872Y-98688000D02*
X117002872Y-103589000D01*
X117002872Y-106469000D02*
X117002872Y-111370000D01*
X117042872Y-98708000D02*
X117042872Y-103589000D01*
X117042872Y-106469000D02*
X117042872Y-111350000D01*
X117082872Y-98728000D02*
X117082872Y-103589000D01*
X117082872Y-106469000D02*
X117082872Y-111330000D01*
X117122872Y-98749000D02*
X117122872Y-103589000D01*
X117122872Y-106469000D02*
X117122872Y-111309000D01*
X117162872Y-98770000D02*
X117162872Y-103589000D01*
X117162872Y-106469000D02*
X117162872Y-111288000D01*
X117202872Y-98791000D02*
X117202872Y-103589000D01*
X117202872Y-106469000D02*
X117202872Y-111267000D01*
X117242872Y-98813000D02*
X117242872Y-103589000D01*
X117242872Y-106469000D02*
X117242872Y-111245000D01*
X117282872Y-98835000D02*
X117282872Y-103589000D01*
X117282872Y-106469000D02*
X117282872Y-111223000D01*
X117322872Y-98857000D02*
X117322872Y-103589000D01*
X117322872Y-106469000D02*
X117322872Y-111201000D01*
X117362872Y-98879000D02*
X117362872Y-103589000D01*
X117362872Y-106469000D02*
X117362872Y-111179000D01*
X117402872Y-98902000D02*
X117402872Y-103589000D01*
X117402872Y-106469000D02*
X117402872Y-111156000D01*
X117442872Y-98926000D02*
X117442872Y-103589000D01*
X117442872Y-106469000D02*
X117442872Y-111132000D01*
X117482872Y-98949000D02*
X117482872Y-103589000D01*
X117482872Y-106469000D02*
X117482872Y-111109000D01*
X117522872Y-98973000D02*
X117522872Y-103589000D01*
X117522872Y-106469000D02*
X117522872Y-111085000D01*
X117562872Y-98998000D02*
X117562872Y-103589000D01*
X117562872Y-106469000D02*
X117562872Y-111060000D01*
X117602872Y-99022000D02*
X117602872Y-103589000D01*
X117602872Y-106469000D02*
X117602872Y-111036000D01*
X117642872Y-99047000D02*
X117642872Y-103589000D01*
X117642872Y-106469000D02*
X117642872Y-111011000D01*
X117682872Y-99073000D02*
X117682872Y-103589000D01*
X117682872Y-106469000D02*
X117682872Y-110985000D01*
X117722872Y-99099000D02*
X117722872Y-103589000D01*
X117722872Y-106469000D02*
X117722872Y-110959000D01*
X117762872Y-99125000D02*
X117762872Y-103589000D01*
X117762872Y-106469000D02*
X117762872Y-110933000D01*
X117802872Y-99151000D02*
X117802872Y-110907000D01*
X117842872Y-99178000D02*
X117842872Y-110880000D01*
X117882872Y-99206000D02*
X117882872Y-110852000D01*
X117922872Y-99233000D02*
X117922872Y-110825000D01*
X117962872Y-99262000D02*
X117962872Y-110796000D01*
X118002872Y-99290000D02*
X118002872Y-110768000D01*
X118042872Y-99319000D02*
X118042872Y-110739000D01*
X118082872Y-99349000D02*
X118082872Y-110709000D01*
X118122872Y-99379000D02*
X118122872Y-110679000D01*
X118162872Y-99409000D02*
X118162872Y-110649000D01*
X118202872Y-99440000D02*
X118202872Y-110618000D01*
X118242872Y-99471000D02*
X118242872Y-110587000D01*
X118282872Y-99502000D02*
X118282872Y-110556000D01*
X118322872Y-99535000D02*
X118322872Y-110523000D01*
X118362872Y-99567000D02*
X118362872Y-110491000D01*
X118402872Y-99600000D02*
X118402872Y-110458000D01*
X118442872Y-99634000D02*
X118442872Y-110424000D01*
X118482872Y-99668000D02*
X118482872Y-110390000D01*
X118522872Y-99703000D02*
X118522872Y-110355000D01*
X118562872Y-99738000D02*
X118562872Y-110320000D01*
X118602872Y-99774000D02*
X118602872Y-110284000D01*
X118642872Y-99810000D02*
X118642872Y-110248000D01*
X118682872Y-99847000D02*
X118682872Y-110211000D01*
X118722872Y-99884000D02*
X118722872Y-110174000D01*
X118762872Y-99922000D02*
X118762872Y-110136000D01*
X118802872Y-99960000D02*
X118802872Y-110098000D01*
X118842872Y-100000000D02*
X118842872Y-110058000D01*
X118882872Y-100039000D02*
X118882872Y-110019000D01*
X118922872Y-100080000D02*
X118922872Y-109978000D01*
X118962872Y-100121000D02*
X118962872Y-109937000D01*
X119002872Y-100163000D02*
X119002872Y-109895000D01*
X119042872Y-100205000D02*
X119042872Y-109853000D01*
X119082872Y-100248000D02*
X119082872Y-109810000D01*
X119122872Y-100292000D02*
X119122872Y-109766000D01*
X119162872Y-100336000D02*
X119162872Y-109722000D01*
X119202872Y-100382000D02*
X119202872Y-109676000D01*
X119242872Y-100428000D02*
X119242872Y-109630000D01*
X119282872Y-100475000D02*
X119282872Y-109583000D01*
X119322872Y-100523000D02*
X119322872Y-109535000D01*
X119362872Y-100571000D02*
X119362872Y-109487000D01*
X119402872Y-100621000D02*
X119402872Y-109437000D01*
X119442872Y-100671000D02*
X119442872Y-109387000D01*
X119482872Y-100723000D02*
X119482872Y-109335000D01*
X119522872Y-100775000D02*
X119522872Y-109283000D01*
X119562872Y-100829000D02*
X119562872Y-109229000D01*
X119602872Y-100883000D02*
X119602872Y-109175000D01*
X119642872Y-100939000D02*
X119642872Y-109119000D01*
X119682872Y-100996000D02*
X119682872Y-109062000D01*
X119722872Y-101054000D02*
X119722872Y-109004000D01*
X119762872Y-101113000D02*
X119762872Y-108945000D01*
X119802872Y-101173000D02*
X119802872Y-108885000D01*
X119842872Y-101235000D02*
X119842872Y-108823000D01*
X119882872Y-101299000D02*
X119882872Y-108759000D01*
X119922872Y-101363000D02*
X119922872Y-108695000D01*
X119962872Y-101430000D02*
X119962872Y-108628000D01*
X120002872Y-101498000D02*
X120002872Y-108560000D01*
X120042872Y-101568000D02*
X120042872Y-108490000D01*
X120082872Y-101640000D02*
X120082872Y-108418000D01*
X120122872Y-101714000D02*
X120122872Y-108344000D01*
X120162872Y-101789000D02*
X120162872Y-108269000D01*
X120202872Y-101868000D02*
X120202872Y-108190000D01*
X120242872Y-101949000D02*
X120242872Y-108109000D01*
X120282872Y-102032000D02*
X120282872Y-108026000D01*
X120322872Y-102118000D02*
X120322872Y-107940000D01*
X120362872Y-102208000D02*
X120362872Y-107850000D01*
X120402872Y-102301000D02*
X120402872Y-107757000D01*
X120442872Y-102397000D02*
X120442872Y-107661000D01*
X120482872Y-102499000D02*
X120482872Y-107559000D01*
X120522872Y-102604000D02*
X120522872Y-107454000D01*
X120562872Y-102716000D02*
X120562872Y-107342000D01*
X120602872Y-102833000D02*
X120602872Y-107225000D01*
X120642872Y-102958000D02*
X120642872Y-107100000D01*
X120682872Y-103091000D02*
X120682872Y-106967000D01*
X120722872Y-103235000D02*
X120722872Y-106823000D01*
X120762872Y-103393000D02*
X120762872Y-106665000D01*
X120802872Y-103568000D02*
X120802872Y-106490000D01*
X120842872Y-103767000D02*
X120842872Y-106291000D01*
X120882872Y-104004000D02*
X120882872Y-106054000D01*
X120922872Y-104315000D02*
X120922872Y-105743000D01*
X120961872Y-105029000D02*
G75*
G03*
X120961872Y-105029000I-7120000J0D01*
G01*
X71924000Y-36718800D02*
X66884000Y-36718800D01*
X71924000Y-36718800D02*
X71924000Y-37788800D01*
X69683000Y-36718800D02*
X69683000Y-37788800D01*
X66884000Y-36718800D02*
X66884000Y-52558800D01*
X71924000Y-40588800D02*
X71924000Y-43239800D01*
X69683000Y-40588800D02*
X69683000Y-43239800D01*
X71924000Y-43038800D02*
X69683000Y-43038800D01*
X71924000Y-46038800D02*
X71924000Y-48688800D01*
X69683000Y-46038800D02*
X69683000Y-48688800D01*
X71924000Y-46239800D02*
X69683000Y-46239800D01*
X71924000Y-51488800D02*
X71924000Y-52558800D01*
X69683000Y-51488800D02*
X69683000Y-52558800D01*
X71924000Y-52558800D02*
X66884000Y-52558800D01*
X57954000Y-36718800D02*
X52914000Y-36718800D01*
X57954000Y-36718800D02*
X57954000Y-37788800D01*
X55713000Y-36718800D02*
X55713000Y-37788800D01*
X52914000Y-36718800D02*
X52914000Y-52558800D01*
X57954000Y-40588800D02*
X57954000Y-43239800D01*
X55713000Y-40588800D02*
X55713000Y-43239800D01*
X57954000Y-43038800D02*
X55713000Y-43038800D01*
X57954000Y-46038800D02*
X57954000Y-48688800D01*
X55713000Y-46038800D02*
X55713000Y-48688800D01*
X57954000Y-46239800D02*
X55713000Y-46239800D01*
X57954000Y-51488800D02*
X57954000Y-52558800D01*
X55713000Y-51488800D02*
X55713000Y-52558800D01*
X57954000Y-52558800D02*
X52914000Y-52558800D01*
X31017200Y-93673600D02*
X31017200Y-93358600D01*
X31017200Y-93673600D02*
X25777200Y-93673600D01*
X31017200Y-91248600D02*
X31017200Y-90933600D01*
X31017200Y-90933600D02*
X25777200Y-90933600D01*
X25777200Y-93673600D02*
X25777200Y-93358600D01*
X25777200Y-91248600D02*
X25777200Y-90933600D01*
X82925414Y-61510600D02*
X78571286Y-61510600D01*
X82925414Y-58090600D02*
X78571286Y-58090600D01*
X47387600Y-63103337D02*
X47387600Y-61655863D01*
X50097600Y-63103337D02*
X50097600Y-61655863D01*
X105827336Y-30202200D02*
X106281464Y-30202200D01*
X105827336Y-31672200D02*
X106281464Y-31672200D01*
X116312400Y-47365800D02*
X116312400Y-45445800D01*
X116312400Y-45445800D02*
X113452400Y-45445800D01*
X113452400Y-47365800D02*
X116312400Y-47365800D01*
D12*
X42598800Y-101572600D02*
X37768800Y-101572600D01*
X37768800Y-101572600D02*
X37768800Y-111122600D01*
X43198800Y-104622600D02*
X43198800Y-104622600D01*
X43198800Y-104622600D02*
X43098800Y-104622600D01*
X43098800Y-104622600D02*
X43098800Y-104622600D01*
X37768800Y-113622600D02*
X37768800Y-120622600D01*
X42598800Y-120622600D02*
X42598800Y-101572600D01*
X41363800Y-120622600D02*
X41363800Y-122142600D01*
X39003800Y-120622600D02*
X41363800Y-120622600D01*
X37768800Y-120622600D02*
X42598800Y-120622600D01*
X41363800Y-122142600D02*
X39003800Y-122142600D01*
X39003800Y-122142600D02*
X39003800Y-120622600D01*
X43098800Y-104622600D02*
G75*
G03*
X43198800Y-104622600I50000J0D01*
G01*
X43198800Y-104622600D02*
G75*
G03*
X43098800Y-104622600I-50000J0D01*
G01*
D14*
X102588414Y-61510600D02*
X98234286Y-61510600D01*
X102588414Y-58090600D02*
X98234286Y-58090600D01*
X107823000Y-117533000D02*
X107823000Y-118288000D01*
X110548000Y-114808000D02*
G75*
G03*
X110548000Y-114808000I-2725000J0D01*
G01*
X108440000Y-55580600D02*
X108440000Y-54160600D01*
X120160000Y-55580600D02*
X108440000Y-55580600D01*
X108440000Y-54160600D02*
X112940000Y-54160600D01*
X112940000Y-54160600D02*
X112940000Y-51770600D01*
X108750000Y-53320600D02*
X108750000Y-52720600D01*
X114050000Y-53270600D02*
X119550000Y-53270600D01*
X119550000Y-53270600D02*
X119550000Y-52770600D01*
X109350000Y-53020600D02*
X108750000Y-53320600D01*
X114050000Y-52770600D02*
X114050000Y-53270600D01*
X119550000Y-52770600D02*
X114050000Y-52770600D01*
X108750000Y-52720600D02*
X109350000Y-53020600D01*
X120160000Y-51770600D02*
X120160000Y-55580600D01*
X120160000Y-51770600D02*
X120160000Y-47960600D01*
X114050000Y-50770600D02*
X119550000Y-50770600D01*
X119550000Y-50770600D02*
X119550000Y-50270600D01*
X114050000Y-50270600D02*
X114050000Y-50770600D01*
X119550000Y-50270600D02*
X114050000Y-50270600D01*
X108440000Y-49380600D02*
X112940000Y-49380600D01*
X112940000Y-49380600D02*
X112940000Y-51770600D01*
X108440000Y-47960600D02*
X108440000Y-49380600D01*
X120160000Y-47960600D02*
X108440000Y-47960600D01*
D18*
X121600000Y-67056000D02*
X121600000Y-117000000D01*
X22600000Y-117000000D02*
X22600000Y-32000000D01*
X29600000Y-25000000D02*
G75*
G03*
X22600000Y-32000000I0J-7000000D01*
G01*
X114600000Y-124000000D02*
G75*
G03*
X121600000Y-117000000I0J7000000D01*
G01*
X29600000Y-25000000D02*
X114600000Y-25000000D01*
X121600000Y-32000000D02*
X121600000Y-67056000D01*
X121600000Y-32000000D02*
G75*
G03*
X114600000Y-25000000I-7000000J0D01*
G01*
X22600000Y-117000000D02*
G75*
G03*
X29600000Y-124000000I7000000J0D01*
G01*
X114600000Y-124000000D02*
X29600000Y-124000000D01*
M02*
