M48
METRIC,TZ
T1C0.400
T2C0.500
T3C0.500
T4C0.700
T5C0.800
T6C0.950
T7C1.000
T8C1.200
T9C1.300
T10C1.397
T11C1.400
T12C1.450
T13C1.500
T14C3.200
%
G90
G05
T1
X220243Y-105029
X220269Y-135128
X220269Y-151638
X220269Y-154178
X220269Y-156718
X220269Y-159258
X220269Y-162052
X220269Y-164592
X220320Y-112878
X220320Y-115418
X220320Y-117958
X220320Y-120498
X220421Y-110084
X220472Y-124714
X220472Y-129794
X220472Y-143916
X220472Y-146456
X220523Y-149098
X220726Y-167386
X220726Y-169926
X220726Y-172466
X220726Y-175006
X220726Y-177546
X230124Y-189230
X230886Y-95758
X232664Y-189230
X233426Y-95758
X235204Y-189230
X235966Y-95758
X237744Y-189230
X238506Y-95758
X239522Y-120650
X239522Y-139192
X239522Y-157480
X239522Y-176276
X240284Y-189230
X241046Y-95758
X242926Y-189179
X243332Y-120650
X243332Y-139192
X243332Y-157480
X243332Y-176276
X243688Y-95707
X245466Y-189179
X246228Y-95707
X247904Y-189179
X248768Y-95707
X248787Y-114300
X248787Y-132842
X248787Y-151130
X248787Y-169926
X250444Y-189179
X251308Y-95707
X253086Y-189128
X253867Y-114300
X253867Y-132842
X253867Y-151130
X253867Y-169926
X253975Y-95707
X255626Y-189128
X257175Y-95707
X257810Y-189128
X259842Y-95707
X262534Y-95758
X265074Y-95758
X267056Y-179070
X267614Y-95758
X269596Y-179070
X269748Y-181610
X270154Y-95758
X271780Y-179070
X272542Y-188722
X272694Y-95758
X274269Y-142421
X274269Y-160963
X274777Y-123879
X275336Y-95707
X275336Y-99060
X275336Y-101600
X275336Y-104140
X275590Y-138684
X275590Y-157226
X275844Y-175514
X276098Y-120142
X277622Y-100330
X277622Y-102870
X277876Y-95707
X277876Y-173482
X278384Y-182372
X279908Y-171450
X280086Y-167615
X280162Y-99060
X280162Y-101600
X280162Y-104140
X280416Y-95707
X281940Y-169418
X283007Y-105512
X283921Y-98730
X285140Y-96368
X285826Y-109855
X285953Y-104267
X286660Y-189560
X288214Y-96342
X289103Y-118288
X289103Y-120828
X289103Y-123368
X289128Y-126111
X289255Y-102337
X289357Y-106147
X290480Y-189540
X293000Y-125000
X293000Y-127000
X293000Y-129000
X295000Y-125000
X295000Y-127000
X295000Y-129000
X296164Y-175209
X297000Y-125000
X297000Y-127000
X297000Y-129000
X297078Y-173787
X297663Y-98806
X297840Y-160249
X297993Y-165684
X298958Y-104877
X299000Y-102500
X300025Y-133020
X300025Y-135560
X300025Y-138100
X300025Y-140919
X300203Y-98806
X300965Y-165075
X301000Y-102500
X302006Y-144983
X302006Y-147523
X302006Y-150063
X302006Y-152603
X302006Y-155143
X302057Y-129184
X302057Y-131724
X302057Y-134264
X302057Y-136804
X302057Y-139624
X302057Y-142291
X302108Y-126492
X302514Y-122961
X302717Y-116256
X303174Y-113690
X303174Y-168351
X303251Y-95860
X303251Y-98400
X303327Y-174650
X304546Y-176581
X312420Y-182118
X312674Y-178816
X312928Y-187706
X313944Y-175768
X314000Y-117000
X314280Y-96250
X314500Y-113000
X314500Y-128000
X314850Y-167640
X314850Y-172720
X314960Y-138430
X314960Y-140860
X314960Y-143510
X314960Y-146050
X314960Y-148590
X314960Y-151130
X314960Y-189484
X315780Y-98250
X316000Y-115000
X316120Y-170180
X317000Y-117000
X317280Y-96250
X317500Y-113000
X317500Y-137160
X317500Y-139810
X317500Y-142350
X317500Y-144890
X317500Y-147430
X317500Y-167640
X317500Y-172720
X318000Y-128000
X318500Y-110500
X318770Y-170180
X318780Y-98250
X319000Y-115000
X320040Y-138430
X320040Y-140860
X320040Y-143510
X320040Y-146050
X320040Y-148590
X320040Y-151130
X320040Y-172720
X320220Y-102700
X320490Y-96250
X320500Y-108500
X320500Y-113000
X321000Y-128000
X321310Y-158750
X321310Y-161290
X321310Y-163940
X321310Y-170180
X321990Y-98250
X322500Y-106500
X322580Y-172720
X323220Y-102700
X323400Y-124400
X323490Y-96250
X323500Y-110500
X323750Y-187000
X323750Y-189000
X323850Y-160020
X323850Y-162560
X323850Y-165210
X323850Y-170180
X324150Y-139925
X324990Y-98250
X325120Y-172720
X325500Y-108500
X326060Y-128905
X326136Y-135382
X326220Y-102700
X326390Y-170180
X326850Y-178300
X327500Y-106500
X328050Y-98250
X328566Y-135382
X328651Y-128905
X328930Y-102700
X329650Y-178300
X330500Y-106500
X331000Y-111500
X331050Y-98250
X331216Y-128905
X331216Y-135382
X331236Y-146664
X331930Y-102700
X332450Y-139600
X332500Y-113500
X333500Y-106500
X334000Y-111500
X334260Y-98250
X334500Y-115500
X334500Y-173750
X334500Y-178250
X335500Y-113500
X336000Y-118000
X336000Y-128000
X336042Y-183896
X336042Y-186436
X336042Y-188976
X336200Y-135800
X336400Y-146200
X336400Y-148850
X336440Y-154940
X336500Y-106500
X336550Y-152654
X337000Y-111500
X337100Y-102750
X337250Y-173750
X337250Y-178250
X337260Y-98250
X337500Y-115500
X338500Y-113500
X338582Y-183896
X338582Y-186436
X338582Y-188976
X339000Y-118000
X339090Y-154940
X339090Y-165100
X339500Y-106500
X339500Y-128000
X340000Y-111500
X340360Y-162560
X340400Y-135800
X340500Y-115500
X340720Y-98270
X341500Y-113500
X341630Y-154940
X341630Y-160020
X341630Y-165100
X342100Y-142275
X342125Y-139900
X342500Y-106500
X342500Y-128000
X342900Y-162560
X342920Y-150670
X343000Y-111500
X343790Y-188250
X344100Y-124400
X344170Y-154940
X344170Y-160020
X344180Y-97060
X344180Y-99420
X344425Y-142300
X344450Y-139875
X345500Y-106500
X346000Y-95500
X346000Y-100500
X346583Y-128905
X346710Y-135382
X348158Y-186766
X348500Y-106500
X349140Y-135382
X349174Y-128905
X350600Y-95500
X350600Y-100500
X351739Y-128905
X351790Y-135382
X351790Y-188250
X351800Y-146750
X353000Y-139650
X355300Y-142550
X355600Y-152400
X355600Y-182880
X355600Y-185420
X355600Y-187960
X356000Y-119000
X356000Y-122000
X356000Y-125000
X356750Y-135800
X357000Y-146200
X357120Y-150670
X358000Y-120500
X358000Y-123500
X358140Y-154830
X358140Y-180340
X358140Y-182880
X358140Y-185420
X358140Y-187960
X358800Y-128300
X360400Y-126500
X360680Y-154830
X360680Y-157480
X360680Y-160020
X360680Y-162560
X360680Y-165100
X360680Y-167530
X360680Y-170180
X360680Y-172720
X360680Y-175260
X360680Y-177800
X360680Y-180450
X360950Y-135800
X361800Y-128300
X363220Y-139700
X363220Y-142240
X363220Y-144780
X363220Y-147430
X363220Y-149970
X363220Y-152510
X363220Y-157480
X363220Y-160130
X363220Y-162670
X363220Y-165210
X363220Y-167750
X363220Y-170180
X363220Y-172830
X363220Y-175370
X363220Y-177910
X363400Y-126500
X364800Y-128300
X365760Y-137160
X365760Y-139700
X365760Y-142350
X365760Y-144890
X366700Y-126860
X368370Y-125150
X369800Y-105800
X369800Y-108400
X369800Y-110800
X369800Y-113300
X369800Y-115800
X369800Y-118500
X369800Y-121000
X369800Y-123500
T2
X318554Y-121000
X325150Y-175950
X325250Y-112750
X326550Y-168100
X327600Y-180350
X328225Y-156250
X329750Y-124000
X329900Y-139600
X338300Y-144200
X340000Y-121000
X346005Y-168455
X349200Y-156100
X350250Y-124000
X350459Y-139700
X358900Y-144100
T3
X222600Y-100000
X222600Y-185000
X223303Y-98303
X223303Y-101697
X223303Y-183303
X223303Y-186697
X225000Y-97600
X225000Y-102400
X225000Y-182600
X225000Y-187400
X226697Y-98303
X226697Y-101697
X226697Y-183303
X226697Y-186697
X227400Y-100000
X227400Y-185000
X362600Y-100000
X362600Y-185000
X363303Y-98303
X363303Y-101697
X363303Y-183303
X363303Y-186697
X365000Y-97600
X365000Y-102400
X365000Y-182600
X365000Y-187400
X366697Y-98303
X366697Y-101697
X366697Y-183303
X366697Y-186697
X367400Y-100000
X367400Y-185000
T4
X223080Y-138709
X228080Y-138709
T5
X260890Y-182775
X263430Y-185315
X265970Y-182775
T6
X362150Y-107100
X362150Y-109600
X362150Y-112100
X362150Y-114600
X362150Y-117100
T7
X277700Y-188740
X280200Y-188740
X301880Y-184670
X302030Y-158725
X302030Y-161225
X304420Y-184670
X306960Y-184670
X312040Y-184670
X314580Y-184670
X317120Y-184670
X317490Y-158685
X317490Y-161185
X319660Y-184670
X329000Y-187750
X331500Y-187750
T8
X223575Y-128016
X228575Y-128016
T9
X342277Y-171924
X342277Y-177004
X353961Y-171924
X353961Y-177004
T10
X289315Y-186973
X294315Y-186973
X345833Y-184766
X350833Y-184766
T11
X230022Y-146685
X230022Y-154185
X230022Y-161685
X230022Y-169185
T12
X286131Y-132996
X286131Y-136396
X287831Y-131296
X287831Y-134696
X287831Y-138096
T13
X262870Y-109100
X262870Y-114550
X262870Y-120000
X262890Y-127550
X262890Y-133000
X262890Y-138450
X262890Y-146000
X262890Y-151450
X262890Y-156900
X263175Y-164450
X263175Y-169900
X263175Y-175350
T14
X225000Y-100000
X225000Y-185000
X365000Y-100000
X365000Y-185000
T0
M30
