G04 #@! TF.GenerationSoftware,KiCad,Pcbnew,7.0.7+dfsg-1*
G04 #@! TF.CreationDate,2024-12-02T20:39:15+01:00*
G04 #@! TF.ProjectId,evoIII-pulseboard,65766f49-4949-42d7-9075-6c7365626f61,rev?*
G04 #@! TF.SameCoordinates,Original*
G04 #@! TF.FileFunction,Soldermask,Top*
G04 #@! TF.FilePolarity,Negative*
%FSLAX46Y46*%
G04 Gerber Fmt 4.6, Leading zero omitted, Abs format (unit mm)*
G04 Created by KiCad (PCBNEW 7.0.7+dfsg-1) date 2024-12-02 20:39:15*
%MOMM*%
%LPD*%
G01*
G04 APERTURE LIST*
G04 Aperture macros list*
%AMRoundRect*
0 Rectangle with rounded corners*
0 $1 Rounding radius*
0 $2 $3 $4 $5 $6 $7 $8 $9 X,Y pos of 4 corners*
0 Add a 4 corners polygon primitive as box body*
4,1,4,$2,$3,$4,$5,$6,$7,$8,$9,$2,$3,0*
0 Add four circle primitives for the rounded corners*
1,1,$1+$1,$2,$3*
1,1,$1+$1,$4,$5*
1,1,$1+$1,$6,$7*
1,1,$1+$1,$8,$9*
0 Add four rect primitives between the rounded corners*
20,1,$1+$1,$2,$3,$4,$5,0*
20,1,$1+$1,$4,$5,$6,$7,0*
20,1,$1+$1,$6,$7,$8,$9,0*
20,1,$1+$1,$8,$9,$2,$3,0*%
G04 Aperture macros list end*
%ADD10RoundRect,0.250000X-0.450000X0.350000X-0.450000X-0.350000X0.450000X-0.350000X0.450000X0.350000X0*%
%ADD11RoundRect,0.250000X0.337500X0.475000X-0.337500X0.475000X-0.337500X-0.475000X0.337500X-0.475000X0*%
%ADD12RoundRect,0.250000X0.475000X-0.337500X0.475000X0.337500X-0.475000X0.337500X-0.475000X-0.337500X0*%
%ADD13RoundRect,0.250000X0.350000X0.450000X-0.350000X0.450000X-0.350000X-0.450000X0.350000X-0.450000X0*%
%ADD14RoundRect,0.250000X0.550000X-1.250000X0.550000X1.250000X-0.550000X1.250000X-0.550000X-1.250000X0*%
%ADD15RoundRect,0.250000X-1.950000X-1.000000X1.950000X-1.000000X1.950000X1.000000X-1.950000X1.000000X0*%
%ADD16R,0.650000X1.525000*%
%ADD17RoundRect,0.249999X1.425001X-0.450001X1.425001X0.450001X-1.425001X0.450001X-1.425001X-0.450001X0*%
%ADD18RoundRect,0.250000X0.600000X0.750000X-0.600000X0.750000X-0.600000X-0.750000X0.600000X-0.750000X0*%
%ADD19O,1.700000X2.000000*%
%ADD20R,2.100000X1.450000*%
%ADD21R,1.300000X2.050000*%
%ADD22RoundRect,0.250000X-0.312500X-1.075000X0.312500X-1.075000X0.312500X1.075000X-0.312500X1.075000X0*%
%ADD23RoundRect,0.250000X-0.400000X-1.450000X0.400000X-1.450000X0.400000X1.450000X-0.400000X1.450000X0*%
%ADD24RoundRect,0.250000X-0.600000X-0.750000X0.600000X-0.750000X0.600000X0.750000X-0.600000X0.750000X0*%
%ADD25C,0.800000*%
%ADD26C,6.400000*%
%ADD27RoundRect,0.250000X0.412500X1.100000X-0.412500X1.100000X-0.412500X-1.100000X0.412500X-1.100000X0*%
%ADD28RoundRect,0.150000X-0.675000X-0.150000X0.675000X-0.150000X0.675000X0.150000X-0.675000X0.150000X0*%
%ADD29RoundRect,0.250000X0.450000X-0.350000X0.450000X0.350000X-0.450000X0.350000X-0.450000X-0.350000X0*%
%ADD30R,2.100000X2.100000*%
%ADD31C,2.100000*%
%ADD32RoundRect,0.250000X-0.350000X-0.450000X0.350000X-0.450000X0.350000X0.450000X-0.350000X0.450000X0*%
%ADD33RoundRect,0.250000X-0.412500X-0.650000X0.412500X-0.650000X0.412500X0.650000X-0.412500X0.650000X0*%
%ADD34RoundRect,0.250000X0.750000X-0.600000X0.750000X0.600000X-0.750000X0.600000X-0.750000X-0.600000X0*%
%ADD35O,2.000000X1.700000*%
%ADD36RoundRect,0.250000X1.500000X0.650000X-1.500000X0.650000X-1.500000X-0.650000X1.500000X-0.650000X0*%
%ADD37RoundRect,0.250000X-0.337500X-0.475000X0.337500X-0.475000X0.337500X0.475000X-0.337500X0.475000X0*%
%ADD38RoundRect,0.250000X1.950000X1.000000X-1.950000X1.000000X-1.950000X-1.000000X1.950000X-1.000000X0*%
%ADD39R,0.600000X1.200000*%
%ADD40C,1.200000*%
%ADD41RoundRect,0.250000X0.325000X0.450000X-0.325000X0.450000X-0.325000X-0.450000X0.325000X-0.450000X0*%
%ADD42R,3.000000X1.600000*%
%ADD43R,6.200000X5.800000*%
%ADD44RoundRect,0.250000X-0.650000X1.500000X-0.650000X-1.500000X0.650000X-1.500000X0.650000X1.500000X0*%
%ADD45RoundRect,0.250000X1.500000X0.900000X-1.500000X0.900000X-1.500000X-0.900000X1.500000X-0.900000X0*%
%ADD46C,2.175000*%
%ADD47RoundRect,0.250000X-1.075000X0.312500X-1.075000X-0.312500X1.075000X-0.312500X1.075000X0.312500X0*%
%ADD48RoundRect,0.250000X-0.475000X0.337500X-0.475000X-0.337500X0.475000X-0.337500X0.475000X0.337500X0*%
%ADD49RoundRect,0.250000X0.725000X-0.600000X0.725000X0.600000X-0.725000X0.600000X-0.725000X-0.600000X0*%
%ADD50O,1.950000X1.700000*%
%ADD51R,2.600000X2.600000*%
%ADD52O,2.600000X2.600000*%
%ADD53RoundRect,0.250000X-0.412500X-1.100000X0.412500X-1.100000X0.412500X1.100000X-0.412500X1.100000X0*%
%ADD54RoundRect,0.250000X-0.325000X-0.450000X0.325000X-0.450000X0.325000X0.450000X-0.325000X0.450000X0*%
%ADD55R,1.525000X0.650000*%
%ADD56C,1.905000*%
%ADD57RoundRect,0.250000X1.500000X0.550000X-1.500000X0.550000X-1.500000X-0.550000X1.500000X-0.550000X0*%
%ADD58RoundRect,0.250000X-2.000000X1.400000X-2.000000X-1.400000X2.000000X-1.400000X2.000000X1.400000X0*%
%ADD59R,2.400000X2.400000*%
%ADD60C,2.400000*%
%ADD61RoundRect,0.250000X-1.500000X-0.650000X1.500000X-0.650000X1.500000X0.650000X-1.500000X0.650000X0*%
%ADD62RoundRect,0.250000X-0.750000X0.600000X-0.750000X-0.600000X0.750000X-0.600000X0.750000X0.600000X0*%
%ADD63RoundRect,0.250000X0.300000X0.300000X-0.300000X0.300000X-0.300000X-0.300000X0.300000X-0.300000X0*%
%ADD64C,1.440000*%
%ADD65RoundRect,0.250000X-0.550000X1.250000X-0.550000X-1.250000X0.550000X-1.250000X0.550000X1.250000X0*%
%ADD66R,1.500000X1.500000*%
%ADD67C,1.500000*%
%ADD68O,3.600000X3.600000*%
%ADD69R,4.500000X2.500000*%
%ADD70O,4.500000X2.500000*%
G04 #@! TA.AperFunction,Profile*
%ADD71C,0.100000*%
G04 #@! TD*
G04 APERTURE END LIST*
D10*
X334634800Y-163312700D03*
X334634800Y-165312700D03*
D11*
X328000000Y-123750000D03*
X325925000Y-123750000D03*
D12*
X350520000Y-143197400D03*
X350520000Y-141122400D03*
D13*
X347720000Y-114812500D03*
X345720000Y-114812500D03*
D14*
X338300000Y-141800000D03*
X338300000Y-137400000D03*
D15*
X328390000Y-176000000D03*
X335790000Y-176000000D03*
D16*
X348808000Y-164430000D03*
X350078000Y-164430000D03*
X351348000Y-164430000D03*
X352618000Y-164430000D03*
X352618000Y-159006000D03*
X351348000Y-159006000D03*
X350078000Y-159006000D03*
X348808000Y-159006000D03*
D17*
X275307800Y-133648000D03*
X275307800Y-127548000D03*
D18*
X280200000Y-188740000D03*
D19*
X277700000Y-188740000D03*
D10*
X342490000Y-101800000D03*
X342490000Y-103800000D03*
D20*
X313985000Y-108810000D03*
X313985000Y-106270000D03*
X313985000Y-103730000D03*
X313985000Y-101190000D03*
X304885000Y-101190000D03*
X304885000Y-103730000D03*
X304885000Y-106270000D03*
X304885000Y-108810000D03*
D21*
X345379000Y-137879000D03*
X347919000Y-137879000D03*
X350459000Y-137879000D03*
X352999000Y-137879000D03*
X352999000Y-126629000D03*
X350459000Y-126629000D03*
X347919000Y-126629000D03*
X345379000Y-126629000D03*
D22*
X271460500Y-175387000D03*
X274385500Y-175387000D03*
D23*
X226450000Y-175514000D03*
X230900000Y-175514000D03*
D24*
X329000000Y-187750000D03*
D19*
X331500000Y-187750000D03*
D25*
X222600000Y-185000000D03*
X223302944Y-183302944D03*
X223302944Y-186697056D03*
X225000000Y-182600000D03*
D26*
X225000000Y-185000000D03*
D25*
X225000000Y-187400000D03*
X226697056Y-183302944D03*
X226697056Y-186697056D03*
X227400000Y-185000000D03*
D11*
X293192200Y-104343200D03*
X291117200Y-104343200D03*
X347751400Y-156050000D03*
X345676400Y-156050000D03*
D13*
X327170000Y-114816000D03*
X325170000Y-114816000D03*
D25*
X222600000Y-100000000D03*
X223302944Y-98302944D03*
X223302944Y-101697056D03*
X225000000Y-97600000D03*
D26*
X225000000Y-100000000D03*
D25*
X225000000Y-102400000D03*
X226697056Y-98302944D03*
X226697056Y-101697056D03*
X227400000Y-100000000D03*
D27*
X349720000Y-177639000D03*
X346595000Y-177639000D03*
D12*
X346302200Y-148045000D03*
X346302200Y-145970000D03*
X325779000Y-148054400D03*
X325779000Y-145979400D03*
D28*
X328970600Y-146249400D03*
X328970600Y-147519400D03*
X328970600Y-148789400D03*
X328970600Y-150059400D03*
X334220600Y-150059400D03*
X334220600Y-148789400D03*
X334220600Y-147519400D03*
X334220600Y-146249400D03*
D17*
X275824000Y-114808000D03*
X275824000Y-108708000D03*
D29*
X301610000Y-107830000D03*
X301610000Y-105830000D03*
D10*
X343889200Y-145976600D03*
X343889200Y-147976600D03*
D13*
X296180000Y-95570000D03*
X294180000Y-95570000D03*
D30*
X230022400Y-146685000D03*
D31*
X230022400Y-154185000D03*
X230022400Y-161685000D03*
X230022400Y-169185000D03*
D10*
X331764600Y-152929600D03*
X331764600Y-154929600D03*
D29*
X341100000Y-150350000D03*
X341100000Y-148350000D03*
D32*
X365000000Y-122750000D03*
X367000000Y-122750000D03*
D33*
X264417500Y-188200000D03*
X267542500Y-188200000D03*
D34*
X302030000Y-161224600D03*
D35*
X302030000Y-158724600D03*
D36*
X288290000Y-179578000D03*
X283290000Y-179578000D03*
D37*
X342476000Y-168450000D03*
X344551000Y-168450000D03*
D13*
X351920000Y-114822500D03*
X349920000Y-114822500D03*
D38*
X354750000Y-98125000D03*
X347350000Y-98125000D03*
D39*
X349130000Y-171710000D03*
X348180000Y-171710000D03*
X347230000Y-171710000D03*
X347230000Y-174210000D03*
X349130000Y-174210000D03*
D40*
X223080000Y-138709400D03*
X228080000Y-138709400D03*
D15*
X295310000Y-119630000D03*
X302710000Y-119630000D03*
D10*
X347903800Y-141122400D03*
X347903800Y-143122400D03*
X353021000Y-116962500D03*
X353021000Y-118962500D03*
D28*
X349519200Y-146224000D03*
X349519200Y-147494000D03*
X349519200Y-148764000D03*
X349519200Y-150034000D03*
X354769200Y-150034000D03*
X354769200Y-148764000D03*
X354769200Y-147494000D03*
X354769200Y-146224000D03*
D11*
X326125000Y-183150000D03*
X324050000Y-183150000D03*
D41*
X321945000Y-178294000D03*
X319895000Y-178294000D03*
D42*
X296509600Y-112190800D03*
D43*
X289409600Y-109905800D03*
D42*
X296509600Y-107620800D03*
D10*
X327300000Y-141020800D03*
X327300000Y-143020800D03*
D44*
X271074200Y-109802000D03*
X271074200Y-114802000D03*
D45*
X229090200Y-118338600D03*
X223690200Y-118338600D03*
D13*
X329046800Y-152904200D03*
X327046800Y-152904200D03*
D37*
X324750000Y-156250000D03*
X326825000Y-156250000D03*
D46*
X287831000Y-138096200D03*
X286131000Y-136396200D03*
X287831000Y-134696200D03*
X286131000Y-132996200D03*
X287831000Y-131296200D03*
D47*
X317575000Y-151179600D03*
X317575000Y-154104600D03*
D32*
X349350000Y-168100000D03*
X351350000Y-168100000D03*
D44*
X270634200Y-128680200D03*
X270634200Y-133680200D03*
D48*
X337174800Y-158851700D03*
X337174800Y-160926700D03*
X359200000Y-146262500D03*
X359200000Y-148337500D03*
D10*
X352287800Y-152920200D03*
X352287800Y-154920200D03*
X334634800Y-158867700D03*
X334634800Y-160867700D03*
D48*
X321100000Y-121250000D03*
X321100000Y-123325000D03*
D12*
X358750000Y-97537500D03*
X358750000Y-95462500D03*
X329920600Y-143095800D03*
X329920600Y-141020800D03*
D49*
X362150000Y-117100000D03*
D50*
X362150000Y-114600000D03*
X362150000Y-112100000D03*
X362150000Y-109600000D03*
X362150000Y-107100000D03*
D10*
X355539000Y-158797000D03*
X355539000Y-160797000D03*
D51*
X342277000Y-177004000D03*
D52*
X342277000Y-171924000D03*
D53*
X301611900Y-178689000D03*
X304736900Y-178689000D03*
D22*
X271206500Y-156942250D03*
X274131500Y-156942250D03*
D54*
X338260000Y-101040000D03*
X340310000Y-101040000D03*
D44*
X270919200Y-165199200D03*
X270919200Y-170199200D03*
D55*
X350272000Y-121428500D03*
X350272000Y-120158500D03*
X350272000Y-118888500D03*
X350272000Y-117618500D03*
X344848000Y-117618500D03*
X344848000Y-118888500D03*
X344848000Y-120158500D03*
X344848000Y-121428500D03*
D56*
X345833000Y-184766000D03*
X350833000Y-184766000D03*
D48*
X301640000Y-110450000D03*
X301640000Y-112525000D03*
D45*
X229090200Y-113512600D03*
X223690200Y-113512600D03*
D37*
X332389100Y-168093400D03*
X334464100Y-168093400D03*
D22*
X271272000Y-138510050D03*
X274197000Y-138510050D03*
D21*
X324830400Y-137842000D03*
X327370400Y-137842000D03*
X329910400Y-137842000D03*
X332450400Y-137842000D03*
X332450400Y-126592000D03*
X329910400Y-126592000D03*
X327370400Y-126592000D03*
X324830400Y-126592000D03*
D44*
X270634200Y-146774600D03*
X270634200Y-151774600D03*
D15*
X295410400Y-171754800D03*
X302810400Y-171754800D03*
D25*
X362600000Y-100000000D03*
X363302944Y-98302944D03*
X363302944Y-101697056D03*
X365000000Y-97600000D03*
D26*
X365000000Y-100000000D03*
D25*
X365000000Y-102400000D03*
X366697056Y-98302944D03*
X366697056Y-101697056D03*
X367400000Y-100000000D03*
D57*
X291970000Y-98110000D03*
X286570000Y-98110000D03*
D58*
X230612400Y-107594400D03*
X221812400Y-107594400D03*
D11*
X348787500Y-123750000D03*
X346712500Y-123750000D03*
D10*
X355539000Y-163242000D03*
X355539000Y-165242000D03*
D37*
X280662500Y-183680000D03*
X282737500Y-183680000D03*
D59*
X228574600Y-128016000D03*
D60*
X223574600Y-128016000D03*
D14*
X358900000Y-141800000D03*
X358900000Y-137400000D03*
D13*
X331380000Y-114786000D03*
X329380000Y-114786000D03*
X317475000Y-178294000D03*
X315475000Y-178294000D03*
D61*
X292688000Y-178308000D03*
X297688000Y-178308000D03*
D11*
X292395000Y-116700000D03*
X290320000Y-116700000D03*
D62*
X317490000Y-158684600D03*
D35*
X317490000Y-161184600D03*
D54*
X360450000Y-122750000D03*
X362500000Y-122750000D03*
D48*
X341750000Y-121250000D03*
X341750000Y-123325000D03*
D63*
X262060000Y-188170000D03*
X259260000Y-188170000D03*
D17*
X275409400Y-151793200D03*
X275409400Y-145693200D03*
D22*
X271653000Y-120056650D03*
X274578000Y-120056650D03*
D37*
X353589100Y-168100000D03*
X355664100Y-168100000D03*
D64*
X265970000Y-182775000D03*
X263430000Y-185315000D03*
X260890000Y-182775000D03*
D65*
X337750000Y-122300000D03*
X337750000Y-126700000D03*
D32*
X333960000Y-101040000D03*
X335960000Y-101040000D03*
D66*
X301880000Y-184670000D03*
D67*
X304420000Y-184670000D03*
X306960000Y-184670000D03*
X312040000Y-184670000D03*
X314580000Y-184670000D03*
X317120000Y-184670000D03*
X319660000Y-184670000D03*
D48*
X358333000Y-158797000D03*
X358333000Y-160872000D03*
D41*
X300612500Y-95570000D03*
X298562500Y-95570000D03*
D10*
X338900000Y-148350000D03*
X338900000Y-150350000D03*
D13*
X349570000Y-152894800D03*
X347570000Y-152894800D03*
D51*
X353961000Y-177004000D03*
D52*
X353961000Y-171924000D03*
D32*
X328150000Y-168093400D03*
X330150000Y-168093400D03*
D17*
X275745200Y-170180000D03*
X275745200Y-164080000D03*
D25*
X362600000Y-185000000D03*
X363302944Y-183302944D03*
X363302944Y-186697056D03*
X365000000Y-182600000D03*
D26*
X365000000Y-185000000D03*
D25*
X365000000Y-187400000D03*
X366697056Y-183302944D03*
X366697056Y-186697056D03*
X367400000Y-185000000D03*
D11*
X340337500Y-145950000D03*
X338262500Y-145950000D03*
D10*
X323366000Y-145986000D03*
X323366000Y-147986000D03*
D56*
X289314900Y-186972500D03*
X294314900Y-186972500D03*
D16*
X327649800Y-164423200D03*
X328919800Y-164423200D03*
X330189800Y-164423200D03*
X331459800Y-164423200D03*
X331459800Y-158999200D03*
X330189800Y-158999200D03*
X328919800Y-158999200D03*
X327649800Y-158999200D03*
D10*
X332500000Y-117036000D03*
X332500000Y-119036000D03*
D55*
X329783400Y-121405000D03*
X329783400Y-120135000D03*
X329783400Y-118865000D03*
X329783400Y-117595000D03*
X324359400Y-117595000D03*
X324359400Y-118865000D03*
X324359400Y-120135000D03*
X324359400Y-121405000D03*
D65*
X316250000Y-122300000D03*
X316250000Y-126700000D03*
D68*
X243010000Y-114550000D03*
D69*
X262870000Y-120000000D03*
D70*
X262870000Y-114550000D03*
X262870000Y-109100000D03*
D68*
X243315000Y-169900000D03*
D69*
X263175000Y-175350000D03*
D70*
X263175000Y-169900000D03*
X263175000Y-164450000D03*
D68*
X243030000Y-133000000D03*
D69*
X262890000Y-138450000D03*
D70*
X262890000Y-133000000D03*
X262890000Y-127550000D03*
D68*
X243030000Y-151450000D03*
D69*
X262890000Y-156900000D03*
D70*
X262890000Y-151450000D03*
X262890000Y-146000000D03*
D71*
X217500000Y-185000000D02*
X217500000Y-100000000D01*
X308515873Y-169241000D02*
X308515873Y-176126000D01*
X225000000Y-92500000D02*
G75*
G03*
X217500000Y-100000000I0J-7500000D01*
G01*
X308515873Y-125000000D02*
X308515873Y-161050000D01*
X365000000Y-192500000D02*
X225000000Y-192500000D01*
X325907400Y-92500000D02*
X328987600Y-95580200D01*
X356681400Y-133154200D02*
G75*
G03*
X356681400Y-131154000I0J1000100D01*
G01*
X217500000Y-185000000D02*
G75*
G03*
X225000000Y-192500000I7500000J0D01*
G01*
X310516127Y-169241000D02*
X310516127Y-176126000D01*
X320631400Y-133158254D02*
X356681400Y-133158254D01*
X328987600Y-95580200D02*
X341045800Y-95580200D01*
X372500000Y-100000000D02*
G75*
G03*
X365000000Y-92500000I-7500000J0D01*
G01*
X320631400Y-131157946D02*
G75*
G03*
X320631400Y-133158254I0J-1000154D01*
G01*
X308519873Y-161050000D02*
G75*
G03*
X310520127Y-161050000I1000127J0D01*
G01*
X308515873Y-176126000D02*
G75*
G03*
X310516127Y-176126000I1000127J0D01*
G01*
X308515873Y-115208873D02*
G75*
G03*
X310516127Y-115208873I1000127J0D01*
G01*
X225000000Y-92500000D02*
X325907400Y-92500000D01*
X365000000Y-192500000D02*
G75*
G03*
X372500000Y-185000000I0J7500000D01*
G01*
X310516127Y-99500000D02*
G75*
G03*
X309516000Y-98499873I-1000127J0D01*
G01*
X356681400Y-131154000D02*
X320631400Y-131154000D01*
X309516000Y-98499873D02*
G75*
G03*
X308515873Y-99500000I0J-1000127D01*
G01*
X372499673Y-125670327D02*
X367990000Y-130180000D01*
X372500000Y-100000000D02*
X372500000Y-125670000D01*
X372500000Y-185000000D02*
X372500000Y-144900000D01*
X310516127Y-169241000D02*
G75*
G03*
X308515873Y-169241000I-1000127J0D01*
G01*
X367990000Y-130180000D02*
X367990000Y-140390000D01*
X310516127Y-125000000D02*
G75*
G03*
X308515873Y-125000000I-1000127J0D01*
G01*
X367990000Y-140390000D02*
X372500055Y-144900055D01*
X308515873Y-115208873D02*
X308515873Y-99500000D01*
X344126000Y-92500000D02*
X365000000Y-92500000D01*
X310520127Y-161050000D02*
X310520127Y-125000000D01*
X341045800Y-95580200D02*
X344126000Y-92500000D01*
X310516127Y-99500000D02*
X310516127Y-115208873D01*
M02*
