G04 #@! TF.GenerationSoftware,KiCad,Pcbnew,7.0.7+dfsg-1*
G04 #@! TF.CreationDate,2024-12-03T08:15:38+01:00*
G04 #@! TF.ProjectId,evoIII-pulseboard,65766f49-4949-42d7-9075-6c7365626f61,rev?*
G04 #@! TF.SameCoordinates,Original*
G04 #@! TF.FileFunction,Other,User*
%FSLAX46Y46*%
G04 Gerber Fmt 4.6, Leading zero omitted, Abs format (unit mm)*
G04 Created by KiCad (PCBNEW 7.0.7+dfsg-1) date 2024-12-03 08:15:38*
%MOMM*%
%LPD*%
G01*
G04 APERTURE LIST*
%ADD10C,0.050000*%
%ADD11C,0.100000*%
%ADD12C,0.152400*%
G04 #@! TA.AperFunction,Profile*
%ADD13C,0.100000*%
G04 #@! TD*
G04 APERTURE END LIST*
D10*
X335584800Y-162462700D02*
X335584800Y-166162700D01*
X333684800Y-162462700D02*
X335584800Y-162462700D01*
X335584800Y-166162700D02*
X333684800Y-166162700D01*
X333684800Y-166162700D02*
X333684800Y-162462700D01*
X328842500Y-124730000D02*
X325082500Y-124730000D01*
X328842500Y-122770000D02*
X328842500Y-124730000D01*
X325082500Y-124730000D02*
X325082500Y-122770000D01*
X325082500Y-122770000D02*
X328842500Y-122770000D01*
X349540000Y-144039900D02*
X349540000Y-140279900D01*
X351500000Y-144039900D02*
X349540000Y-144039900D01*
X349540000Y-140279900D02*
X351500000Y-140279900D01*
X351500000Y-140279900D02*
X351500000Y-144039900D01*
X348570000Y-115762500D02*
X344870000Y-115762500D01*
X348570000Y-113862500D02*
X348570000Y-115762500D01*
X344870000Y-115762500D02*
X344870000Y-113862500D01*
X344870000Y-113862500D02*
X348570000Y-113862500D01*
X337250000Y-143550000D02*
X339350000Y-143550000D01*
X339350000Y-143550000D02*
X339350000Y-142500000D01*
X336550000Y-142500000D02*
X337250000Y-142500000D01*
X336550000Y-142500000D02*
X335400000Y-141350000D01*
X337250000Y-142500000D02*
X337250000Y-143550000D01*
X339350000Y-142500000D02*
X340050000Y-142500000D01*
X340050000Y-142500000D02*
X341200000Y-141350000D01*
X335400000Y-141350000D02*
X335400000Y-136700000D01*
X341200000Y-141350000D02*
X341200000Y-136700000D01*
X335400000Y-136700000D02*
X337250000Y-136700000D01*
X337250000Y-136700000D02*
X337250000Y-135650000D01*
X339350000Y-136700000D02*
X341200000Y-136700000D01*
X337250000Y-135650000D02*
X339350000Y-135650000D01*
X339350000Y-135650000D02*
X339350000Y-136700000D01*
X325940000Y-174500000D02*
X325940000Y-177500000D01*
X325940000Y-177500000D02*
X327590000Y-177500000D01*
X327590000Y-172650000D02*
X327590000Y-174500000D01*
X327590000Y-172650000D02*
X328740000Y-171500000D01*
X327590000Y-174500000D02*
X325940000Y-174500000D01*
X327590000Y-177500000D02*
X327590000Y-179350000D01*
X327590000Y-179350000D02*
X328740000Y-180500000D01*
X328740000Y-171500000D02*
X336590000Y-171500000D01*
X328740000Y-180500000D02*
X336590000Y-180500000D01*
X336590000Y-171500000D02*
X336590000Y-174500000D01*
X336590000Y-174500000D02*
X338240000Y-174500000D01*
X336590000Y-177500000D02*
X336590000Y-180500000D01*
X338240000Y-174500000D02*
X338240000Y-177500000D01*
X338240000Y-177500000D02*
X336590000Y-177500000D01*
X347963000Y-165443000D02*
X347963000Y-157993000D01*
X353463000Y-165443000D02*
X347963000Y-165443000D01*
X347963000Y-157993000D02*
X353463000Y-157993000D01*
X353463000Y-157993000D02*
X353463000Y-165443000D01*
X273387800Y-134598000D02*
X273387800Y-126598000D01*
X277227800Y-134598000D02*
X273387800Y-134598000D01*
X273387800Y-126598000D02*
X277227800Y-126598000D01*
X277227800Y-126598000D02*
X277227800Y-134598000D01*
X283150000Y-191590000D02*
X283150000Y-184840000D01*
X283150000Y-184840000D02*
X274750000Y-184840000D01*
X274750000Y-191590000D02*
X283150000Y-191590000D01*
X274750000Y-184840000D02*
X274750000Y-191590000D01*
X343440000Y-100950000D02*
X343440000Y-104650000D01*
X341540000Y-100950000D02*
X343440000Y-100950000D01*
X343440000Y-104650000D02*
X341540000Y-104650000D01*
X341540000Y-104650000D02*
X341540000Y-100950000D01*
X315285000Y-110340000D02*
X303585000Y-110340000D01*
X315285000Y-99660000D02*
X315285000Y-110340000D01*
X303585000Y-110340000D02*
X303585000Y-99660000D01*
X303585000Y-99660000D02*
X315285000Y-99660000D01*
X343289000Y-139154000D02*
X343289000Y-125354000D01*
X355089000Y-139154000D02*
X343289000Y-139154000D01*
X343289000Y-125354000D02*
X355089000Y-125354000D01*
X355089000Y-125354000D02*
X355089000Y-139154000D01*
X270643000Y-173807000D02*
X275203000Y-173807000D01*
X270643000Y-176967000D02*
X270643000Y-173807000D01*
X275203000Y-173807000D02*
X275203000Y-176967000D01*
X275203000Y-176967000D02*
X270643000Y-176967000D01*
X225555000Y-173564000D02*
X231795000Y-173564000D01*
X225555000Y-177464000D02*
X225555000Y-173564000D01*
X231795000Y-173564000D02*
X231795000Y-177464000D01*
X231795000Y-177464000D02*
X225555000Y-177464000D01*
X326050000Y-184900000D02*
X326050000Y-191650000D01*
X326050000Y-191650000D02*
X334450000Y-191650000D01*
X334450000Y-184900000D02*
X326050000Y-184900000D01*
X334450000Y-191650000D02*
X334450000Y-184900000D01*
X228450000Y-185000000D02*
G75*
G03*
X228450000Y-185000000I-3450000J0D01*
G01*
X294034700Y-105323200D02*
X290274700Y-105323200D01*
X294034700Y-103363200D02*
X294034700Y-105323200D01*
X290274700Y-105323200D02*
X290274700Y-103363200D01*
X290274700Y-103363200D02*
X294034700Y-103363200D01*
X348593900Y-157030000D02*
X344833900Y-157030000D01*
X348593900Y-155070000D02*
X348593900Y-157030000D01*
X344833900Y-157030000D02*
X344833900Y-155070000D01*
X344833900Y-155070000D02*
X348593900Y-155070000D01*
X328020000Y-115766000D02*
X324320000Y-115766000D01*
X328020000Y-113866000D02*
X328020000Y-115766000D01*
X324320000Y-115766000D02*
X324320000Y-113866000D01*
X324320000Y-113866000D02*
X328020000Y-113866000D01*
X228450000Y-100000000D02*
G75*
G03*
X228450000Y-100000000I-3450000J0D01*
G01*
X350637500Y-179239000D02*
X345677500Y-179239000D01*
X350637500Y-176039000D02*
X350637500Y-179239000D01*
X345677500Y-179239000D02*
X345677500Y-176039000D01*
X345677500Y-176039000D02*
X350637500Y-176039000D01*
X345322200Y-148887500D02*
X345322200Y-145127500D01*
X347282200Y-148887500D02*
X345322200Y-148887500D01*
X345322200Y-145127500D02*
X347282200Y-145127500D01*
X347282200Y-145127500D02*
X347282200Y-148887500D01*
X324799000Y-148896900D02*
X324799000Y-145136900D01*
X326759000Y-148896900D02*
X324799000Y-148896900D01*
X324799000Y-145136900D02*
X326759000Y-145136900D01*
X326759000Y-145136900D02*
X326759000Y-148896900D01*
X327895600Y-145454400D02*
X327895600Y-150854400D01*
X327895600Y-150854400D02*
X335295600Y-150854400D01*
X335295600Y-145454400D02*
X327895600Y-145454400D01*
X335295600Y-150854400D02*
X335295600Y-145454400D01*
X273904000Y-115758000D02*
X273904000Y-107758000D01*
X277744000Y-115758000D02*
X273904000Y-115758000D01*
X273904000Y-107758000D02*
X277744000Y-107758000D01*
X277744000Y-107758000D02*
X277744000Y-115758000D01*
X300660000Y-108680000D02*
X300660000Y-104980000D01*
X302560000Y-108680000D02*
X300660000Y-108680000D01*
X300660000Y-104980000D02*
X302560000Y-104980000D01*
X302560000Y-104980000D02*
X302560000Y-108680000D01*
X344839200Y-145126600D02*
X344839200Y-148826600D01*
X342939200Y-145126600D02*
X344839200Y-145126600D01*
X344839200Y-148826600D02*
X342939200Y-148826600D01*
X342939200Y-148826600D02*
X342939200Y-145126600D01*
X297030000Y-96520000D02*
X293330000Y-96520000D01*
X297030000Y-94620000D02*
X297030000Y-96520000D01*
X293330000Y-96520000D02*
X293330000Y-94620000D01*
X293330000Y-94620000D02*
X297030000Y-94620000D01*
D11*
X232872400Y-142185000D02*
X232872400Y-173085000D01*
X216872400Y-142185000D02*
X232872400Y-142185000D01*
X232872400Y-173085000D02*
X216872400Y-173085000D01*
X216872400Y-173085000D02*
X216872400Y-142185000D01*
D10*
X332714600Y-152079600D02*
X332714600Y-155779600D01*
X330814600Y-152079600D02*
X332714600Y-152079600D01*
X332714600Y-155779600D02*
X330814600Y-155779600D01*
X330814600Y-155779600D02*
X330814600Y-152079600D01*
X340150000Y-151200000D02*
X340150000Y-147500000D01*
X342050000Y-151200000D02*
X340150000Y-151200000D01*
X340150000Y-147500000D02*
X342050000Y-147500000D01*
X342050000Y-147500000D02*
X342050000Y-151200000D01*
X364150000Y-121800000D02*
X367850000Y-121800000D01*
X364150000Y-123700000D02*
X364150000Y-121800000D01*
X367850000Y-121800000D02*
X367850000Y-123700000D01*
X367850000Y-123700000D02*
X364150000Y-123700000D01*
X263500000Y-187050000D02*
X268460000Y-187050000D01*
X263500000Y-189350000D02*
X263500000Y-187050000D01*
X268460000Y-187050000D02*
X268460000Y-189350000D01*
X268460000Y-189350000D02*
X263500000Y-189350000D01*
X299180000Y-164174600D02*
X305930000Y-164174600D01*
X305930000Y-164174600D02*
X305930000Y-155774600D01*
X299180000Y-155774600D02*
X299180000Y-164174600D01*
X305930000Y-155774600D02*
X299180000Y-155774600D01*
X290290000Y-181328000D02*
X281290000Y-181328000D01*
X290290000Y-177828000D02*
X290290000Y-181328000D01*
X281290000Y-181328000D02*
X281290000Y-177828000D01*
X281290000Y-177828000D02*
X290290000Y-177828000D01*
X341633500Y-167470000D02*
X345393500Y-167470000D01*
X341633500Y-169430000D02*
X341633500Y-167470000D01*
X345393500Y-167470000D02*
X345393500Y-169430000D01*
X345393500Y-169430000D02*
X341633500Y-169430000D01*
X352770000Y-115772500D02*
X349070000Y-115772500D01*
X352770000Y-113872500D02*
X352770000Y-115772500D01*
X349070000Y-115772500D02*
X349070000Y-113872500D01*
X349070000Y-113872500D02*
X352770000Y-113872500D01*
X357200000Y-99625000D02*
X357200000Y-96625000D01*
X357200000Y-96625000D02*
X355550000Y-96625000D01*
X355550000Y-101475000D02*
X355550000Y-99625000D01*
X355550000Y-101475000D02*
X354400000Y-102625000D01*
X355550000Y-99625000D02*
X357200000Y-99625000D01*
X355550000Y-96625000D02*
X355550000Y-94775000D01*
X355550000Y-94775000D02*
X354400000Y-93625000D01*
X354400000Y-102625000D02*
X346550000Y-102625000D01*
X354400000Y-93625000D02*
X346550000Y-93625000D01*
X346550000Y-102625000D02*
X346550000Y-99625000D01*
X346550000Y-99625000D02*
X344900000Y-99625000D01*
X346550000Y-96625000D02*
X346550000Y-93625000D01*
X344900000Y-99625000D02*
X344900000Y-96625000D01*
X344900000Y-96625000D02*
X346550000Y-96625000D01*
X349955000Y-170860000D02*
X349955000Y-175060000D01*
X346405000Y-170860000D02*
X349955000Y-170860000D01*
X349955000Y-175060000D02*
X346405000Y-175060000D01*
X346405000Y-175060000D02*
X346405000Y-170860000D01*
D11*
X220980000Y-135459400D02*
X230180000Y-135459400D01*
X220980000Y-141959400D02*
X220980000Y-135459400D01*
X230180000Y-135459400D02*
X230180000Y-141959400D01*
X230180000Y-141959400D02*
X220980000Y-141959400D01*
D10*
X292860000Y-118130000D02*
X292860000Y-121130000D01*
X292860000Y-121130000D02*
X294510000Y-121130000D01*
X294510000Y-116280000D02*
X294510000Y-118130000D01*
X294510000Y-116280000D02*
X295660000Y-115130000D01*
X294510000Y-118130000D02*
X292860000Y-118130000D01*
X294510000Y-121130000D02*
X294510000Y-122980000D01*
X294510000Y-122980000D02*
X295660000Y-124130000D01*
X295660000Y-115130000D02*
X303510000Y-115130000D01*
X295660000Y-124130000D02*
X303510000Y-124130000D01*
X303510000Y-115130000D02*
X303510000Y-118130000D01*
X303510000Y-118130000D02*
X305160000Y-118130000D01*
X303510000Y-121130000D02*
X303510000Y-124130000D01*
X305160000Y-118130000D02*
X305160000Y-121130000D01*
X305160000Y-121130000D02*
X303510000Y-121130000D01*
X348853800Y-140272400D02*
X348853800Y-143972400D01*
X346953800Y-140272400D02*
X348853800Y-140272400D01*
X348853800Y-143972400D02*
X346953800Y-143972400D01*
X346953800Y-143972400D02*
X346953800Y-140272400D01*
X353971000Y-116112500D02*
X353971000Y-119812500D01*
X352071000Y-116112500D02*
X353971000Y-116112500D01*
X353971000Y-119812500D02*
X352071000Y-119812500D01*
X352071000Y-119812500D02*
X352071000Y-116112500D01*
X348444200Y-145429000D02*
X348444200Y-150829000D01*
X348444200Y-150829000D02*
X355844200Y-150829000D01*
X355844200Y-145429000D02*
X348444200Y-145429000D01*
X355844200Y-150829000D02*
X355844200Y-145429000D01*
X326967500Y-184130000D02*
X323207500Y-184130000D01*
X326967500Y-182170000D02*
X326967500Y-184130000D01*
X323207500Y-184130000D02*
X323207500Y-182170000D01*
X323207500Y-182170000D02*
X326967500Y-182170000D01*
X322770000Y-179244000D02*
X319070000Y-179244000D01*
X322770000Y-177344000D02*
X322770000Y-179244000D01*
X319070000Y-179244000D02*
X319070000Y-177344000D01*
X319070000Y-177344000D02*
X322770000Y-177344000D01*
D11*
X285309600Y-105655800D02*
X299855600Y-105655800D01*
X285309600Y-114155800D02*
X285309600Y-105655800D01*
X299855600Y-105655800D02*
X299855600Y-114155800D01*
X299855600Y-114155800D02*
X285309600Y-114155800D01*
D10*
X328250000Y-140170800D02*
X328250000Y-143870800D01*
X326350000Y-140170800D02*
X328250000Y-140170800D01*
X328250000Y-143870800D02*
X326350000Y-143870800D01*
X326350000Y-143870800D02*
X326350000Y-140170800D01*
X272824200Y-107802000D02*
X272824200Y-116802000D01*
X269324200Y-107802000D02*
X272824200Y-107802000D01*
X272824200Y-116802000D02*
X269324200Y-116802000D01*
X269324200Y-116802000D02*
X269324200Y-107802000D01*
X231090200Y-120588600D02*
X221690200Y-120588600D01*
X231090200Y-116088600D02*
X231090200Y-120588600D01*
X221690200Y-120588600D02*
X221690200Y-116088600D01*
X221690200Y-116088600D02*
X231090200Y-116088600D01*
X329896800Y-153854200D02*
X326196800Y-153854200D01*
X329896800Y-151954200D02*
X329896800Y-153854200D01*
X326196800Y-153854200D02*
X326196800Y-151954200D01*
X326196800Y-151954200D02*
X329896800Y-151954200D01*
X323907500Y-155270000D02*
X327667500Y-155270000D01*
X323907500Y-157230000D02*
X323907500Y-155270000D01*
X327667500Y-155270000D02*
X327667500Y-157230000D01*
X327667500Y-157230000D02*
X323907500Y-157230000D01*
D11*
X283906000Y-142346200D02*
X283906000Y-128584200D01*
X290480000Y-142346200D02*
X283906000Y-142346200D01*
X283906000Y-128584200D02*
X290480000Y-128584200D01*
X290480000Y-128584200D02*
X290480000Y-142346200D01*
D10*
X319155000Y-150362100D02*
X319155000Y-154922100D01*
X315995000Y-150362100D02*
X319155000Y-150362100D01*
X319155000Y-154922100D02*
X315995000Y-154922100D01*
X315995000Y-154922100D02*
X315995000Y-150362100D01*
X348500000Y-167150000D02*
X352200000Y-167150000D01*
X348500000Y-169050000D02*
X348500000Y-167150000D01*
X352200000Y-167150000D02*
X352200000Y-169050000D01*
X352200000Y-169050000D02*
X348500000Y-169050000D01*
X272384200Y-126680200D02*
X272384200Y-135680200D01*
X268884200Y-126680200D02*
X272384200Y-126680200D01*
X272384200Y-135680200D02*
X268884200Y-135680200D01*
X268884200Y-135680200D02*
X268884200Y-126680200D01*
X338154800Y-158009200D02*
X338154800Y-161769200D01*
X336194800Y-158009200D02*
X338154800Y-158009200D01*
X338154800Y-161769200D02*
X336194800Y-161769200D01*
X336194800Y-161769200D02*
X336194800Y-158009200D01*
X360180000Y-145420000D02*
X360180000Y-149180000D01*
X358220000Y-145420000D02*
X360180000Y-145420000D01*
X360180000Y-149180000D02*
X358220000Y-149180000D01*
X358220000Y-149180000D02*
X358220000Y-145420000D01*
X353237800Y-152070200D02*
X353237800Y-155770200D01*
X351337800Y-152070200D02*
X353237800Y-152070200D01*
X353237800Y-155770200D02*
X351337800Y-155770200D01*
X351337800Y-155770200D02*
X351337800Y-152070200D01*
X335584800Y-158017700D02*
X335584800Y-161717700D01*
X333684800Y-158017700D02*
X335584800Y-158017700D01*
X335584800Y-161717700D02*
X333684800Y-161717700D01*
X333684800Y-161717700D02*
X333684800Y-158017700D01*
X322080000Y-120407500D02*
X322080000Y-124167500D01*
X320120000Y-120407500D02*
X322080000Y-120407500D01*
X322080000Y-124167500D02*
X320120000Y-124167500D01*
X320120000Y-124167500D02*
X320120000Y-120407500D01*
X357770000Y-98380000D02*
X357770000Y-94620000D01*
X359730000Y-98380000D02*
X357770000Y-98380000D01*
X357770000Y-94620000D02*
X359730000Y-94620000D01*
X359730000Y-94620000D02*
X359730000Y-98380000D01*
X328940600Y-143938300D02*
X328940600Y-140178300D01*
X330900600Y-143938300D02*
X328940600Y-143938300D01*
X328940600Y-140178300D02*
X330900600Y-140178300D01*
X330900600Y-140178300D02*
X330900600Y-143938300D01*
X359350000Y-120050000D02*
X371850000Y-120050000D01*
X371850000Y-120050000D02*
X371850000Y-104150000D01*
X359350000Y-104150000D02*
X359350000Y-120050000D01*
X371850000Y-104150000D02*
X359350000Y-104150000D01*
X356489000Y-157947000D02*
X356489000Y-161647000D01*
X354589000Y-157947000D02*
X356489000Y-157947000D01*
X356489000Y-161647000D02*
X354589000Y-161647000D01*
X354589000Y-161647000D02*
X354589000Y-157947000D01*
X339417000Y-179864000D02*
X345137000Y-179864000D01*
X345137000Y-179864000D02*
X345137000Y-170364000D01*
X339417000Y-170364000D02*
X339417000Y-179864000D01*
X345137000Y-170364000D02*
X339417000Y-170364000D01*
X300694400Y-177089000D02*
X305654400Y-177089000D01*
X300694400Y-180289000D02*
X300694400Y-177089000D01*
X305654400Y-177089000D02*
X305654400Y-180289000D01*
X305654400Y-180289000D02*
X300694400Y-180289000D01*
X270389000Y-155362250D02*
X274949000Y-155362250D01*
X270389000Y-158522250D02*
X270389000Y-155362250D01*
X274949000Y-155362250D02*
X274949000Y-158522250D01*
X274949000Y-158522250D02*
X270389000Y-158522250D01*
X337435000Y-100090000D02*
X341135000Y-100090000D01*
X337435000Y-101990000D02*
X337435000Y-100090000D01*
X341135000Y-100090000D02*
X341135000Y-101990000D01*
X341135000Y-101990000D02*
X337435000Y-101990000D01*
X272669200Y-163199200D02*
X272669200Y-172199200D01*
X269169200Y-163199200D02*
X272669200Y-163199200D01*
X272669200Y-172199200D02*
X269169200Y-172199200D01*
X269169200Y-172199200D02*
X269169200Y-163199200D01*
X351285000Y-122273500D02*
X343835000Y-122273500D01*
X351285000Y-116773500D02*
X351285000Y-122273500D01*
X343835000Y-122273500D02*
X343835000Y-116773500D01*
X343835000Y-116773500D02*
X351285000Y-116773500D01*
D12*
X342084600Y-180651200D02*
X342084600Y-189515800D01*
X342084600Y-189515800D02*
X354581400Y-189515800D01*
X354581400Y-180651200D02*
X342084600Y-180651200D01*
X354581400Y-189515800D02*
X354581400Y-180651200D01*
D10*
X302620000Y-109607500D02*
X302620000Y-113367500D01*
X300660000Y-109607500D02*
X302620000Y-109607500D01*
X302620000Y-113367500D02*
X300660000Y-113367500D01*
X300660000Y-113367500D02*
X300660000Y-109607500D01*
X231090200Y-115762600D02*
X221690200Y-115762600D01*
X231090200Y-111262600D02*
X231090200Y-115762600D01*
X221690200Y-115762600D02*
X221690200Y-111262600D01*
X221690200Y-111262600D02*
X231090200Y-111262600D01*
X331546600Y-167113400D02*
X335306600Y-167113400D01*
X331546600Y-169073400D02*
X331546600Y-167113400D01*
X335306600Y-167113400D02*
X335306600Y-169073400D01*
X335306600Y-169073400D02*
X331546600Y-169073400D01*
X270454500Y-136930050D02*
X275014500Y-136930050D01*
X270454500Y-140090050D02*
X270454500Y-136930050D01*
X275014500Y-136930050D02*
X275014500Y-140090050D01*
X275014500Y-140090050D02*
X270454500Y-140090050D01*
X322740400Y-139117000D02*
X322740400Y-125317000D01*
X334540400Y-139117000D02*
X322740400Y-139117000D01*
X322740400Y-125317000D02*
X334540400Y-125317000D01*
X334540400Y-125317000D02*
X334540400Y-139117000D01*
X272384200Y-144774600D02*
X272384200Y-153774600D01*
X268884200Y-144774600D02*
X272384200Y-144774600D01*
X272384200Y-153774600D02*
X268884200Y-153774600D01*
X268884200Y-153774600D02*
X268884200Y-144774600D01*
X292960400Y-170254800D02*
X292960400Y-173254800D01*
X292960400Y-173254800D02*
X294610400Y-173254800D01*
X294610400Y-168404800D02*
X294610400Y-170254800D01*
X294610400Y-168404800D02*
X295760400Y-167254800D01*
X294610400Y-170254800D02*
X292960400Y-170254800D01*
X294610400Y-173254800D02*
X294610400Y-175104800D01*
X294610400Y-175104800D02*
X295760400Y-176254800D01*
X295760400Y-167254800D02*
X303610400Y-167254800D01*
X295760400Y-176254800D02*
X303610400Y-176254800D01*
X303610400Y-167254800D02*
X303610400Y-170254800D01*
X303610400Y-170254800D02*
X305260400Y-170254800D01*
X303610400Y-173254800D02*
X303610400Y-176254800D01*
X305260400Y-170254800D02*
X305260400Y-173254800D01*
X305260400Y-173254800D02*
X303610400Y-173254800D01*
X368450000Y-100000000D02*
G75*
G03*
X368450000Y-100000000I-3450000J0D01*
G01*
X293970000Y-99160000D02*
X293970000Y-97060000D01*
X293970000Y-97060000D02*
X292820000Y-97060000D01*
X292820000Y-100510000D02*
X292820000Y-99160000D01*
X292820000Y-100510000D02*
X291670000Y-101660000D01*
X292820000Y-99160000D02*
X293970000Y-99160000D01*
X292820000Y-97060000D02*
X292820000Y-95710000D01*
X292820000Y-95710000D02*
X291670000Y-94560000D01*
X291670000Y-101660000D02*
X285720000Y-101660000D01*
X291670000Y-94560000D02*
X285720000Y-94560000D01*
X285720000Y-101660000D02*
X285720000Y-99160000D01*
X285720000Y-99160000D02*
X284570000Y-99160000D01*
X285720000Y-97060000D02*
X285720000Y-94560000D01*
X284570000Y-99160000D02*
X284570000Y-97060000D01*
X284570000Y-97060000D02*
X285720000Y-97060000D01*
X233112400Y-110944400D02*
X219312400Y-110944400D01*
X233112400Y-104244400D02*
X233112400Y-110944400D01*
X219312400Y-110944400D02*
X219312400Y-104244400D01*
X219312400Y-104244400D02*
X233112400Y-104244400D01*
X349630000Y-124730000D02*
X345870000Y-124730000D01*
X349630000Y-122770000D02*
X349630000Y-124730000D01*
X345870000Y-124730000D02*
X345870000Y-122770000D01*
X345870000Y-122770000D02*
X349630000Y-122770000D01*
X356489000Y-162392000D02*
X356489000Y-166092000D01*
X354589000Y-162392000D02*
X356489000Y-162392000D01*
X356489000Y-166092000D02*
X354589000Y-166092000D01*
X354589000Y-166092000D02*
X354589000Y-162392000D01*
X279820000Y-182700000D02*
X283580000Y-182700000D01*
X279820000Y-184660000D02*
X279820000Y-182700000D01*
X283580000Y-182700000D02*
X283580000Y-184660000D01*
X283580000Y-184660000D02*
X279820000Y-184660000D01*
X233324600Y-128016000D02*
G75*
G03*
X233324600Y-128016000I-7250000J0D01*
G01*
X357850000Y-143550000D02*
X359950000Y-143550000D01*
X359950000Y-143550000D02*
X359950000Y-142500000D01*
X357150000Y-142500000D02*
X357850000Y-142500000D01*
X357150000Y-142500000D02*
X356000000Y-141350000D01*
X357850000Y-142500000D02*
X357850000Y-143550000D01*
X359950000Y-142500000D02*
X360650000Y-142500000D01*
X360650000Y-142500000D02*
X361800000Y-141350000D01*
X356000000Y-141350000D02*
X356000000Y-136700000D01*
X361800000Y-141350000D02*
X361800000Y-136700000D01*
X356000000Y-136700000D02*
X357850000Y-136700000D01*
X357850000Y-136700000D02*
X357850000Y-135650000D01*
X359950000Y-136700000D02*
X361800000Y-136700000D01*
X357850000Y-135650000D02*
X359950000Y-135650000D01*
X359950000Y-135650000D02*
X359950000Y-136700000D01*
X332230000Y-115736000D02*
X328530000Y-115736000D01*
X332230000Y-113836000D02*
X332230000Y-115736000D01*
X328530000Y-115736000D02*
X328530000Y-113836000D01*
X328530000Y-113836000D02*
X332230000Y-113836000D01*
X318325000Y-179244000D02*
X314625000Y-179244000D01*
X318325000Y-177344000D02*
X318325000Y-179244000D01*
X314625000Y-179244000D02*
X314625000Y-177344000D01*
X314625000Y-177344000D02*
X318325000Y-177344000D01*
X290688000Y-176558000D02*
X299688000Y-176558000D01*
X290688000Y-180058000D02*
X290688000Y-176558000D01*
X299688000Y-176558000D02*
X299688000Y-180058000D01*
X299688000Y-180058000D02*
X290688000Y-180058000D01*
X293237500Y-117680000D02*
X289477500Y-117680000D01*
X293237500Y-115720000D02*
X293237500Y-117680000D01*
X289477500Y-117680000D02*
X289477500Y-115720000D01*
X289477500Y-115720000D02*
X293237500Y-115720000D01*
X320340000Y-155734600D02*
X313590000Y-155734600D01*
X313590000Y-155734600D02*
X313590000Y-164134600D01*
X320340000Y-164134600D02*
X320340000Y-155734600D01*
X313590000Y-164134600D02*
X320340000Y-164134600D01*
X359625000Y-121800000D02*
X363325000Y-121800000D01*
X359625000Y-123700000D02*
X359625000Y-121800000D01*
X363325000Y-121800000D02*
X363325000Y-123700000D01*
X363325000Y-123700000D02*
X359625000Y-123700000D01*
X342730000Y-120407500D02*
X342730000Y-124167500D01*
X340770000Y-120407500D02*
X342730000Y-120407500D01*
X342730000Y-124167500D02*
X340770000Y-124167500D01*
X340770000Y-124167500D02*
X340770000Y-120407500D01*
X262860000Y-189320000D02*
X262860000Y-187020000D01*
X262860000Y-189320000D02*
X258460000Y-189320000D01*
X258460000Y-189320000D02*
X258460000Y-187020000D01*
X258460000Y-187020000D02*
X262860000Y-187020000D01*
X273489400Y-152743200D02*
X273489400Y-144743200D01*
X277329400Y-152743200D02*
X273489400Y-152743200D01*
X273489400Y-144743200D02*
X277329400Y-144743200D01*
X277329400Y-144743200D02*
X277329400Y-152743200D01*
X270835500Y-118476650D02*
X275395500Y-118476650D01*
X270835500Y-121636650D02*
X270835500Y-118476650D01*
X275395500Y-118476650D02*
X275395500Y-121636650D01*
X275395500Y-121636650D02*
X270835500Y-121636650D01*
X352746600Y-167120000D02*
X356506600Y-167120000D01*
X352746600Y-169080000D02*
X352746600Y-167120000D01*
X356506600Y-167120000D02*
X356506600Y-169080000D01*
X356506600Y-169080000D02*
X352746600Y-169080000D01*
X258370000Y-181375000D02*
X258370000Y-186725000D01*
X258370000Y-186725000D02*
X268470000Y-186725000D01*
X268470000Y-181375000D02*
X258370000Y-181375000D01*
X268470000Y-186725000D02*
X268470000Y-181375000D01*
X338800000Y-120550000D02*
X336700000Y-120550000D01*
X336700000Y-120550000D02*
X336700000Y-121600000D01*
X339500000Y-121600000D02*
X338800000Y-121600000D01*
X339500000Y-121600000D02*
X340650000Y-122750000D01*
X338800000Y-121600000D02*
X338800000Y-120550000D01*
X336700000Y-121600000D02*
X336000000Y-121600000D01*
X336000000Y-121600000D02*
X334850000Y-122750000D01*
X340650000Y-122750000D02*
X340650000Y-127400000D01*
X334850000Y-122750000D02*
X334850000Y-127400000D01*
X340650000Y-127400000D02*
X338800000Y-127400000D01*
X338800000Y-127400000D02*
X338800000Y-128450000D01*
X336700000Y-127400000D02*
X334850000Y-127400000D01*
X338800000Y-128450000D02*
X336700000Y-128450000D01*
X336700000Y-128450000D02*
X336700000Y-127400000D01*
X333110000Y-100090000D02*
X336810000Y-100090000D01*
X333110000Y-101990000D02*
X333110000Y-100090000D01*
X336810000Y-100090000D02*
X336810000Y-101990000D01*
X336810000Y-101990000D02*
X333110000Y-101990000D01*
D11*
X298870000Y-180470000D02*
X322670000Y-180470000D01*
X298870000Y-191670000D02*
X298870000Y-180470000D01*
X322670000Y-180470000D02*
X322670000Y-191670000D01*
X322670000Y-191670000D02*
X298870000Y-191670000D01*
D10*
X359313000Y-157954500D02*
X359313000Y-161714500D01*
X357353000Y-157954500D02*
X359313000Y-157954500D01*
X359313000Y-161714500D02*
X357353000Y-161714500D01*
X357353000Y-161714500D02*
X357353000Y-157954500D01*
X301437500Y-96520000D02*
X297737500Y-96520000D01*
X301437500Y-94620000D02*
X301437500Y-96520000D01*
X297737500Y-96520000D02*
X297737500Y-94620000D01*
X297737500Y-94620000D02*
X301437500Y-94620000D01*
X339850000Y-147500000D02*
X339850000Y-151200000D01*
X337950000Y-147500000D02*
X339850000Y-147500000D01*
X339850000Y-151200000D02*
X337950000Y-151200000D01*
X337950000Y-151200000D02*
X337950000Y-147500000D01*
X350420000Y-153844800D02*
X346720000Y-153844800D01*
X350420000Y-151944800D02*
X350420000Y-153844800D01*
X346720000Y-153844800D02*
X346720000Y-151944800D01*
X346720000Y-151944800D02*
X350420000Y-151944800D01*
X351101000Y-179864000D02*
X356821000Y-179864000D01*
X356821000Y-179864000D02*
X356821000Y-170364000D01*
X351101000Y-170364000D02*
X351101000Y-179864000D01*
X356821000Y-170364000D02*
X351101000Y-170364000D01*
X327300000Y-167143400D02*
X331000000Y-167143400D01*
X327300000Y-169043400D02*
X327300000Y-167143400D01*
X331000000Y-167143400D02*
X331000000Y-169043400D01*
X331000000Y-169043400D02*
X327300000Y-169043400D01*
X273825200Y-171130000D02*
X273825200Y-163130000D01*
X277665200Y-171130000D02*
X273825200Y-171130000D01*
X273825200Y-163130000D02*
X277665200Y-163130000D01*
X277665200Y-163130000D02*
X277665200Y-171130000D01*
X368450000Y-185000000D02*
G75*
G03*
X368450000Y-185000000I-3450000J0D01*
G01*
X341180000Y-146930000D02*
X337420000Y-146930000D01*
X341180000Y-144970000D02*
X341180000Y-146930000D01*
X337420000Y-146930000D02*
X337420000Y-144970000D01*
X337420000Y-144970000D02*
X341180000Y-144970000D01*
X324316000Y-145136000D02*
X324316000Y-148836000D01*
X322416000Y-145136000D02*
X324316000Y-145136000D01*
X324316000Y-148836000D02*
X322416000Y-148836000D01*
X322416000Y-148836000D02*
X322416000Y-145136000D01*
D12*
X285566500Y-182857700D02*
X285566500Y-191722300D01*
X285566500Y-191722300D02*
X298063300Y-191722300D01*
X298063300Y-182857700D02*
X285566500Y-182857700D01*
X298063300Y-191722300D02*
X298063300Y-182857700D01*
D10*
X326804800Y-165436200D02*
X326804800Y-157986200D01*
X332304800Y-165436200D02*
X326804800Y-165436200D01*
X326804800Y-157986200D02*
X332304800Y-157986200D01*
X332304800Y-157986200D02*
X332304800Y-165436200D01*
X333450000Y-116186000D02*
X333450000Y-119886000D01*
X331550000Y-116186000D02*
X333450000Y-116186000D01*
X333450000Y-119886000D02*
X331550000Y-119886000D01*
X331550000Y-119886000D02*
X331550000Y-116186000D01*
X330796400Y-122250000D02*
X323346400Y-122250000D01*
X330796400Y-116750000D02*
X330796400Y-122250000D01*
X323346400Y-122250000D02*
X323346400Y-116750000D01*
X323346400Y-116750000D02*
X330796400Y-116750000D01*
X317300000Y-120550000D02*
X315200000Y-120550000D01*
X315200000Y-120550000D02*
X315200000Y-121600000D01*
X318000000Y-121600000D02*
X317300000Y-121600000D01*
X318000000Y-121600000D02*
X319150000Y-122750000D01*
X317300000Y-121600000D02*
X317300000Y-120550000D01*
X315200000Y-121600000D02*
X314500000Y-121600000D01*
X314500000Y-121600000D02*
X313350000Y-122750000D01*
X319150000Y-122750000D02*
X319150000Y-127400000D01*
X313350000Y-122750000D02*
X313350000Y-127400000D01*
X319150000Y-127400000D02*
X317300000Y-127400000D01*
X317300000Y-127400000D02*
X317300000Y-128450000D01*
X315200000Y-127400000D02*
X313350000Y-127400000D01*
X317300000Y-128450000D02*
X315200000Y-128450000D01*
X315200000Y-128450000D02*
X315200000Y-127400000D01*
D13*
X217500000Y-185000000D02*
X217500000Y-100000000D01*
X308515873Y-169241000D02*
X308515873Y-176126000D01*
X225000000Y-92500000D02*
G75*
G03*
X217500000Y-100000000I0J-7500000D01*
G01*
X308515873Y-125000000D02*
X308515873Y-161050000D01*
X365000000Y-192500000D02*
X225000000Y-192500000D01*
X325907400Y-92500000D02*
X328987600Y-95580200D01*
X356681400Y-133154200D02*
G75*
G03*
X356681400Y-131154000I0J1000100D01*
G01*
X217500000Y-185000000D02*
G75*
G03*
X225000000Y-192500000I7500000J0D01*
G01*
X310516127Y-169241000D02*
X310516127Y-176126000D01*
X320631400Y-133158254D02*
X356681400Y-133158254D01*
X328987600Y-95580200D02*
X341045800Y-95580200D01*
X372500000Y-100000000D02*
G75*
G03*
X365000000Y-92500000I-7500000J0D01*
G01*
X320631400Y-131157946D02*
G75*
G03*
X320631400Y-133158254I0J-1000154D01*
G01*
X308519873Y-161050000D02*
G75*
G03*
X310520127Y-161050000I1000127J0D01*
G01*
X308515873Y-176126000D02*
G75*
G03*
X310516127Y-176126000I1000127J0D01*
G01*
X308515873Y-115208873D02*
G75*
G03*
X310516127Y-115208873I1000127J0D01*
G01*
X225000000Y-92500000D02*
X325907400Y-92500000D01*
X365000000Y-192500000D02*
G75*
G03*
X372500000Y-185000000I0J7500000D01*
G01*
X310516127Y-99500000D02*
G75*
G03*
X309516000Y-98499873I-1000127J0D01*
G01*
X356681400Y-131154000D02*
X320631400Y-131154000D01*
X309516000Y-98499873D02*
G75*
G03*
X308515873Y-99500000I0J-1000127D01*
G01*
X372499673Y-125670327D02*
X367990000Y-130180000D01*
X372500000Y-100000000D02*
X372500000Y-125670000D01*
X372500000Y-185000000D02*
X372500000Y-144900000D01*
X310516127Y-169241000D02*
G75*
G03*
X308515873Y-169241000I-1000127J0D01*
G01*
X367990000Y-130180000D02*
X367990000Y-140390000D01*
X310516127Y-125000000D02*
G75*
G03*
X308515873Y-125000000I-1000127J0D01*
G01*
X367990000Y-140390000D02*
X372500055Y-144900055D01*
X308515873Y-115208873D02*
X308515873Y-99500000D01*
X344126000Y-92500000D02*
X365000000Y-92500000D01*
X310520127Y-161050000D02*
X310520127Y-125000000D01*
X341045800Y-95580200D02*
X344126000Y-92500000D01*
X310516127Y-99500000D02*
X310516127Y-115208873D01*
M02*
