G04 #@! TF.GenerationSoftware,KiCad,Pcbnew,7.0.7+dfsg-1*
G04 #@! TF.CreationDate,2024-12-03T08:15:38+01:00*
G04 #@! TF.ProjectId,evoIII-pulseboard,65766f49-4949-42d7-9075-6c7365626f61,rev?*
G04 #@! TF.SameCoordinates,Original*
G04 #@! TF.FileFunction,Soldermask,Bot*
G04 #@! TF.FilePolarity,Negative*
%FSLAX46Y46*%
G04 Gerber Fmt 4.6, Leading zero omitted, Abs format (unit mm)*
G04 Created by KiCad (PCBNEW 7.0.7+dfsg-1) date 2024-12-03 08:15:38*
%MOMM*%
%LPD*%
G01*
G04 APERTURE LIST*
G04 Aperture macros list*
%AMRoundRect*
0 Rectangle with rounded corners*
0 $1 Rounding radius*
0 $2 $3 $4 $5 $6 $7 $8 $9 X,Y pos of 4 corners*
0 Add a 4 corners polygon primitive as box body*
4,1,4,$2,$3,$4,$5,$6,$7,$8,$9,$2,$3,0*
0 Add four circle primitives for the rounded corners*
1,1,$1+$1,$2,$3*
1,1,$1+$1,$4,$5*
1,1,$1+$1,$6,$7*
1,1,$1+$1,$8,$9*
0 Add four rect primitives between the rounded corners*
20,1,$1+$1,$2,$3,$4,$5,0*
20,1,$1+$1,$4,$5,$6,$7,0*
20,1,$1+$1,$6,$7,$8,$9,0*
20,1,$1+$1,$8,$9,$2,$3,0*%
G04 Aperture macros list end*
%ADD10RoundRect,0.250000X0.600000X0.750000X-0.600000X0.750000X-0.600000X-0.750000X0.600000X-0.750000X0*%
%ADD11O,1.700000X2.000000*%
%ADD12RoundRect,0.250000X-0.600000X-0.750000X0.600000X-0.750000X0.600000X0.750000X-0.600000X0.750000X0*%
%ADD13C,0.800000*%
%ADD14C,6.400000*%
%ADD15R,2.100000X2.100000*%
%ADD16C,2.100000*%
%ADD17RoundRect,0.250000X0.750000X-0.600000X0.750000X0.600000X-0.750000X0.600000X-0.750000X-0.600000X0*%
%ADD18O,2.000000X1.700000*%
%ADD19C,1.200000*%
%ADD20C,2.175000*%
%ADD21RoundRect,0.250000X0.725000X-0.600000X0.725000X0.600000X-0.725000X0.600000X-0.725000X-0.600000X0*%
%ADD22O,1.950000X1.700000*%
%ADD23R,2.600000X2.600000*%
%ADD24O,2.600000X2.600000*%
%ADD25C,1.905000*%
%ADD26R,2.400000X2.400000*%
%ADD27C,2.400000*%
%ADD28RoundRect,0.250000X-0.750000X0.600000X-0.750000X-0.600000X0.750000X-0.600000X0.750000X0.600000X0*%
%ADD29C,1.440000*%
%ADD30R,1.500000X1.500000*%
%ADD31C,1.500000*%
%ADD32O,3.600000X3.600000*%
%ADD33R,4.500000X2.500000*%
%ADD34O,4.500000X2.500000*%
%ADD35RoundRect,0.250000X-0.412500X-1.100000X0.412500X-1.100000X0.412500X1.100000X-0.412500X1.100000X0*%
%ADD36RoundRect,0.250000X0.337500X0.475000X-0.337500X0.475000X-0.337500X-0.475000X0.337500X-0.475000X0*%
%ADD37RoundRect,0.250000X-0.337500X-0.475000X0.337500X-0.475000X0.337500X0.475000X-0.337500X0.475000X0*%
G04 #@! TA.AperFunction,Profile*
%ADD38C,0.100000*%
G04 #@! TD*
G04 APERTURE END LIST*
D10*
X280200000Y-188740000D03*
D11*
X277700000Y-188740000D03*
D12*
X329000000Y-187750000D03*
D11*
X331500000Y-187750000D03*
D13*
X222600000Y-185000000D03*
X223302944Y-183302944D03*
X223302944Y-186697056D03*
X225000000Y-182600000D03*
D14*
X225000000Y-185000000D03*
D13*
X225000000Y-187400000D03*
X226697056Y-183302944D03*
X226697056Y-186697056D03*
X227400000Y-185000000D03*
X222600000Y-100000000D03*
X223302944Y-98302944D03*
X223302944Y-101697056D03*
X225000000Y-97600000D03*
D14*
X225000000Y-100000000D03*
D13*
X225000000Y-102400000D03*
X226697056Y-98302944D03*
X226697056Y-101697056D03*
X227400000Y-100000000D03*
D15*
X230022400Y-146685000D03*
D16*
X230022400Y-154185000D03*
X230022400Y-161685000D03*
X230022400Y-169185000D03*
D17*
X302030000Y-161224600D03*
D18*
X302030000Y-158724600D03*
D19*
X223080000Y-138709400D03*
X228080000Y-138709400D03*
D20*
X287831000Y-138096200D03*
X286131000Y-136396200D03*
X287831000Y-134696200D03*
X286131000Y-132996200D03*
X287831000Y-131296200D03*
D21*
X362150000Y-117100000D03*
D22*
X362150000Y-114600000D03*
X362150000Y-112100000D03*
X362150000Y-109600000D03*
X362150000Y-107100000D03*
D23*
X342277000Y-177004000D03*
D24*
X342277000Y-171924000D03*
D25*
X345833000Y-184766000D03*
X350833000Y-184766000D03*
D13*
X362600000Y-100000000D03*
X363302944Y-98302944D03*
X363302944Y-101697056D03*
X365000000Y-97600000D03*
D14*
X365000000Y-100000000D03*
D13*
X365000000Y-102400000D03*
X366697056Y-98302944D03*
X366697056Y-101697056D03*
X367400000Y-100000000D03*
D26*
X228574600Y-128016000D03*
D27*
X223574600Y-128016000D03*
D28*
X317490000Y-158684600D03*
D18*
X317490000Y-161184600D03*
D29*
X265970000Y-182775000D03*
X263430000Y-185315000D03*
X260890000Y-182775000D03*
D30*
X301880000Y-184670000D03*
D31*
X304420000Y-184670000D03*
X306960000Y-184670000D03*
X312040000Y-184670000D03*
X314580000Y-184670000D03*
X317120000Y-184670000D03*
X319660000Y-184670000D03*
D23*
X353961000Y-177004000D03*
D24*
X353961000Y-171924000D03*
D13*
X362600000Y-185000000D03*
X363302944Y-183302944D03*
X363302944Y-186697056D03*
X365000000Y-182600000D03*
D14*
X365000000Y-185000000D03*
D13*
X365000000Y-187400000D03*
X366697056Y-183302944D03*
X366697056Y-186697056D03*
X367400000Y-185000000D03*
D25*
X289314900Y-186972500D03*
X294314900Y-186972500D03*
D32*
X243010000Y-114550000D03*
D33*
X262870000Y-120000000D03*
D34*
X262870000Y-114550000D03*
X262870000Y-109100000D03*
D35*
X294217500Y-137680000D03*
X297342500Y-137680000D03*
D32*
X243315000Y-169900000D03*
D33*
X263175000Y-175350000D03*
D34*
X263175000Y-169900000D03*
X263175000Y-164450000D03*
D32*
X243030000Y-133000000D03*
D33*
X262890000Y-138450000D03*
D34*
X262890000Y-133000000D03*
X262890000Y-127550000D03*
D36*
X284349100Y-143637000D03*
X282274100Y-143637000D03*
D32*
X243030000Y-151450000D03*
D33*
X262890000Y-156900000D03*
D34*
X262890000Y-151450000D03*
X262890000Y-146000000D03*
D37*
X294593100Y-157048200D03*
X296668100Y-157048200D03*
D38*
X217500000Y-185000000D02*
X217500000Y-100000000D01*
X308515873Y-169241000D02*
X308515873Y-176126000D01*
X225000000Y-92500000D02*
G75*
G03*
X217500000Y-100000000I0J-7500000D01*
G01*
X308515873Y-125000000D02*
X308515873Y-161050000D01*
X365000000Y-192500000D02*
X225000000Y-192500000D01*
X325907400Y-92500000D02*
X328987600Y-95580200D01*
X356681400Y-133154200D02*
G75*
G03*
X356681400Y-131154000I0J1000100D01*
G01*
X217500000Y-185000000D02*
G75*
G03*
X225000000Y-192500000I7500000J0D01*
G01*
X310516127Y-169241000D02*
X310516127Y-176126000D01*
X320631400Y-133158254D02*
X356681400Y-133158254D01*
X328987600Y-95580200D02*
X341045800Y-95580200D01*
X372500000Y-100000000D02*
G75*
G03*
X365000000Y-92500000I-7500000J0D01*
G01*
X320631400Y-131157946D02*
G75*
G03*
X320631400Y-133158254I0J-1000154D01*
G01*
X308519873Y-161050000D02*
G75*
G03*
X310520127Y-161050000I1000127J0D01*
G01*
X308515873Y-176126000D02*
G75*
G03*
X310516127Y-176126000I1000127J0D01*
G01*
X308515873Y-115208873D02*
G75*
G03*
X310516127Y-115208873I1000127J0D01*
G01*
X225000000Y-92500000D02*
X325907400Y-92500000D01*
X365000000Y-192500000D02*
G75*
G03*
X372500000Y-185000000I0J7500000D01*
G01*
X310516127Y-99500000D02*
G75*
G03*
X309516000Y-98499873I-1000127J0D01*
G01*
X356681400Y-131154000D02*
X320631400Y-131154000D01*
X309516000Y-98499873D02*
G75*
G03*
X308515873Y-99500000I0J-1000127D01*
G01*
X372499673Y-125670327D02*
X367990000Y-130180000D01*
X372500000Y-100000000D02*
X372500000Y-125670000D01*
X372500000Y-185000000D02*
X372500000Y-144900000D01*
X310516127Y-169241000D02*
G75*
G03*
X308515873Y-169241000I-1000127J0D01*
G01*
X367990000Y-130180000D02*
X367990000Y-140390000D01*
X310516127Y-125000000D02*
G75*
G03*
X308515873Y-125000000I-1000127J0D01*
G01*
X367990000Y-140390000D02*
X372500055Y-144900055D01*
X308515873Y-115208873D02*
X308515873Y-99500000D01*
X344126000Y-92500000D02*
X365000000Y-92500000D01*
X310520127Y-161050000D02*
X310520127Y-125000000D01*
X341045800Y-95580200D02*
X344126000Y-92500000D01*
X310516127Y-99500000D02*
X310516127Y-115208873D01*
M02*
