G04 #@! TF.GenerationSoftware,KiCad,Pcbnew,7.0.7+dfsg-1*
G04 #@! TF.CreationDate,2024-12-03T08:15:38+01:00*
G04 #@! TF.ProjectId,evoIII-pulseboard,65766f49-4949-42d7-9075-6c7365626f61,rev?*
G04 #@! TF.SameCoordinates,Original*
G04 #@! TF.FileFunction,Legend,Bot*
G04 #@! TF.FilePolarity,Positive*
%FSLAX46Y46*%
G04 Gerber Fmt 4.6, Leading zero omitted, Abs format (unit mm)*
G04 Created by KiCad (PCBNEW 7.0.7+dfsg-1) date 2024-12-03 08:15:38*
%MOMM*%
%LPD*%
G01*
G04 APERTURE LIST*
G04 Aperture macros list*
%AMRoundRect*
0 Rectangle with rounded corners*
0 $1 Rounding radius*
0 $2 $3 $4 $5 $6 $7 $8 $9 X,Y pos of 4 corners*
0 Add a 4 corners polygon primitive as box body*
4,1,4,$2,$3,$4,$5,$6,$7,$8,$9,$2,$3,0*
0 Add four circle primitives for the rounded corners*
1,1,$1+$1,$2,$3*
1,1,$1+$1,$4,$5*
1,1,$1+$1,$6,$7*
1,1,$1+$1,$8,$9*
0 Add four rect primitives between the rounded corners*
20,1,$1+$1,$2,$3,$4,$5,0*
20,1,$1+$1,$4,$5,$6,$7,0*
20,1,$1+$1,$6,$7,$8,$9,0*
20,1,$1+$1,$8,$9,$2,$3,0*%
G04 Aperture macros list end*
%ADD10C,0.150000*%
%ADD11C,0.508000*%
%ADD12C,0.120000*%
%ADD13RoundRect,0.250000X0.600000X0.750000X-0.600000X0.750000X-0.600000X-0.750000X0.600000X-0.750000X0*%
%ADD14O,1.700000X2.000000*%
%ADD15RoundRect,0.250000X-0.600000X-0.750000X0.600000X-0.750000X0.600000X0.750000X-0.600000X0.750000X0*%
%ADD16C,0.800000*%
%ADD17C,6.400000*%
%ADD18R,2.100000X2.100000*%
%ADD19C,2.100000*%
%ADD20RoundRect,0.250000X0.750000X-0.600000X0.750000X0.600000X-0.750000X0.600000X-0.750000X-0.600000X0*%
%ADD21O,2.000000X1.700000*%
%ADD22C,1.200000*%
%ADD23C,2.175000*%
%ADD24RoundRect,0.250000X0.725000X-0.600000X0.725000X0.600000X-0.725000X0.600000X-0.725000X-0.600000X0*%
%ADD25O,1.950000X1.700000*%
%ADD26R,2.600000X2.600000*%
%ADD27O,2.600000X2.600000*%
%ADD28C,1.905000*%
%ADD29R,2.400000X2.400000*%
%ADD30C,2.400000*%
%ADD31RoundRect,0.250000X-0.750000X0.600000X-0.750000X-0.600000X0.750000X-0.600000X0.750000X0.600000X0*%
%ADD32C,1.440000*%
%ADD33R,1.500000X1.500000*%
%ADD34C,1.500000*%
%ADD35O,3.600000X3.600000*%
%ADD36R,4.500000X2.500000*%
%ADD37O,4.500000X2.500000*%
%ADD38RoundRect,0.250000X-0.412500X-1.100000X0.412500X-1.100000X0.412500X1.100000X-0.412500X1.100000X0*%
%ADD39RoundRect,0.250000X0.337500X0.475000X-0.337500X0.475000X-0.337500X-0.475000X0.337500X-0.475000X0*%
%ADD40RoundRect,0.250000X-0.337500X-0.475000X0.337500X-0.475000X0.337500X0.475000X-0.337500X0.475000X0*%
G04 #@! TA.AperFunction,Profile*
%ADD41C,0.100000*%
G04 #@! TD*
G04 APERTURE END LIST*
D10*
X236270057Y-113023811D02*
X236222438Y-112928573D01*
X236222438Y-112928573D02*
X236127200Y-112833335D01*
X236127200Y-112833335D02*
X235984342Y-112690478D01*
X235984342Y-112690478D02*
X235936723Y-112595240D01*
X235936723Y-112595240D02*
X235936723Y-112500002D01*
X236174819Y-112547621D02*
X236127200Y-112452383D01*
X236127200Y-112452383D02*
X236031961Y-112357145D01*
X236031961Y-112357145D02*
X235841485Y-112309526D01*
X235841485Y-112309526D02*
X235508152Y-112309526D01*
X235508152Y-112309526D02*
X235317676Y-112357145D01*
X235317676Y-112357145D02*
X235222438Y-112452383D01*
X235222438Y-112452383D02*
X235174819Y-112547621D01*
X235174819Y-112547621D02*
X235174819Y-112738097D01*
X235174819Y-112738097D02*
X235222438Y-112833335D01*
X235222438Y-112833335D02*
X235317676Y-112928573D01*
X235317676Y-112928573D02*
X235508152Y-112976192D01*
X235508152Y-112976192D02*
X235841485Y-112976192D01*
X235841485Y-112976192D02*
X236031961Y-112928573D01*
X236031961Y-112928573D02*
X236127200Y-112833335D01*
X236127200Y-112833335D02*
X236174819Y-112738097D01*
X236174819Y-112738097D02*
X236174819Y-112547621D01*
X235174819Y-113309526D02*
X235174819Y-113928573D01*
X235174819Y-113928573D02*
X235555771Y-113595240D01*
X235555771Y-113595240D02*
X235555771Y-113738097D01*
X235555771Y-113738097D02*
X235603390Y-113833335D01*
X235603390Y-113833335D02*
X235651009Y-113880954D01*
X235651009Y-113880954D02*
X235746247Y-113928573D01*
X235746247Y-113928573D02*
X235984342Y-113928573D01*
X235984342Y-113928573D02*
X236079580Y-113880954D01*
X236079580Y-113880954D02*
X236127200Y-113833335D01*
X236127200Y-113833335D02*
X236174819Y-113738097D01*
X236174819Y-113738097D02*
X236174819Y-113452383D01*
X236174819Y-113452383D02*
X236127200Y-113357145D01*
X236127200Y-113357145D02*
X236079580Y-113309526D01*
X292865980Y-137050542D02*
X292913600Y-137002923D01*
X292913600Y-137002923D02*
X292961219Y-136860066D01*
X292961219Y-136860066D02*
X292961219Y-136764828D01*
X292961219Y-136764828D02*
X292913600Y-136621971D01*
X292913600Y-136621971D02*
X292818361Y-136526733D01*
X292818361Y-136526733D02*
X292723123Y-136479114D01*
X292723123Y-136479114D02*
X292532647Y-136431495D01*
X292532647Y-136431495D02*
X292389790Y-136431495D01*
X292389790Y-136431495D02*
X292199314Y-136479114D01*
X292199314Y-136479114D02*
X292104076Y-136526733D01*
X292104076Y-136526733D02*
X292008838Y-136621971D01*
X292008838Y-136621971D02*
X291961219Y-136764828D01*
X291961219Y-136764828D02*
X291961219Y-136860066D01*
X291961219Y-136860066D02*
X292008838Y-137002923D01*
X292008838Y-137002923D02*
X292056457Y-137050542D01*
X292056457Y-137431495D02*
X292008838Y-137479114D01*
X292008838Y-137479114D02*
X291961219Y-137574352D01*
X291961219Y-137574352D02*
X291961219Y-137812447D01*
X291961219Y-137812447D02*
X292008838Y-137907685D01*
X292008838Y-137907685D02*
X292056457Y-137955304D01*
X292056457Y-137955304D02*
X292151695Y-138002923D01*
X292151695Y-138002923D02*
X292246933Y-138002923D01*
X292246933Y-138002923D02*
X292389790Y-137955304D01*
X292389790Y-137955304D02*
X292961219Y-137383876D01*
X292961219Y-137383876D02*
X292961219Y-138002923D01*
X292961219Y-138479114D02*
X292961219Y-138669590D01*
X292961219Y-138669590D02*
X292913600Y-138764828D01*
X292913600Y-138764828D02*
X292865980Y-138812447D01*
X292865980Y-138812447D02*
X292723123Y-138907685D01*
X292723123Y-138907685D02*
X292532647Y-138955304D01*
X292532647Y-138955304D02*
X292151695Y-138955304D01*
X292151695Y-138955304D02*
X292056457Y-138907685D01*
X292056457Y-138907685D02*
X292008838Y-138860066D01*
X292008838Y-138860066D02*
X291961219Y-138764828D01*
X291961219Y-138764828D02*
X291961219Y-138574352D01*
X291961219Y-138574352D02*
X292008838Y-138479114D01*
X292008838Y-138479114D02*
X292056457Y-138431495D01*
X292056457Y-138431495D02*
X292151695Y-138383876D01*
X292151695Y-138383876D02*
X292389790Y-138383876D01*
X292389790Y-138383876D02*
X292485028Y-138431495D01*
X292485028Y-138431495D02*
X292532647Y-138479114D01*
X292532647Y-138479114D02*
X292580266Y-138574352D01*
X292580266Y-138574352D02*
X292580266Y-138764828D01*
X292580266Y-138764828D02*
X292532647Y-138860066D01*
X292532647Y-138860066D02*
X292485028Y-138907685D01*
X292485028Y-138907685D02*
X292389790Y-138955304D01*
X236575057Y-169804761D02*
X236527438Y-169709523D01*
X236527438Y-169709523D02*
X236432200Y-169614285D01*
X236432200Y-169614285D02*
X236289342Y-169471428D01*
X236289342Y-169471428D02*
X236241723Y-169376190D01*
X236241723Y-169376190D02*
X236241723Y-169280952D01*
X236479819Y-169328571D02*
X236432200Y-169233333D01*
X236432200Y-169233333D02*
X236336961Y-169138095D01*
X236336961Y-169138095D02*
X236146485Y-169090476D01*
X236146485Y-169090476D02*
X235813152Y-169090476D01*
X235813152Y-169090476D02*
X235622676Y-169138095D01*
X235622676Y-169138095D02*
X235527438Y-169233333D01*
X235527438Y-169233333D02*
X235479819Y-169328571D01*
X235479819Y-169328571D02*
X235479819Y-169519047D01*
X235479819Y-169519047D02*
X235527438Y-169614285D01*
X235527438Y-169614285D02*
X235622676Y-169709523D01*
X235622676Y-169709523D02*
X235813152Y-169757142D01*
X235813152Y-169757142D02*
X236146485Y-169757142D01*
X236146485Y-169757142D02*
X236336961Y-169709523D01*
X236336961Y-169709523D02*
X236432200Y-169614285D01*
X236432200Y-169614285D02*
X236479819Y-169519047D01*
X236479819Y-169519047D02*
X236479819Y-169328571D01*
X235575057Y-170138095D02*
X235527438Y-170185714D01*
X235527438Y-170185714D02*
X235479819Y-170280952D01*
X235479819Y-170280952D02*
X235479819Y-170519047D01*
X235479819Y-170519047D02*
X235527438Y-170614285D01*
X235527438Y-170614285D02*
X235575057Y-170661904D01*
X235575057Y-170661904D02*
X235670295Y-170709523D01*
X235670295Y-170709523D02*
X235765533Y-170709523D01*
X235765533Y-170709523D02*
X235908390Y-170661904D01*
X235908390Y-170661904D02*
X236479819Y-170090476D01*
X236479819Y-170090476D02*
X236479819Y-170709523D01*
X236290057Y-132904761D02*
X236242438Y-132809523D01*
X236242438Y-132809523D02*
X236147200Y-132714285D01*
X236147200Y-132714285D02*
X236004342Y-132571428D01*
X236004342Y-132571428D02*
X235956723Y-132476190D01*
X235956723Y-132476190D02*
X235956723Y-132380952D01*
X236194819Y-132428571D02*
X236147200Y-132333333D01*
X236147200Y-132333333D02*
X236051961Y-132238095D01*
X236051961Y-132238095D02*
X235861485Y-132190476D01*
X235861485Y-132190476D02*
X235528152Y-132190476D01*
X235528152Y-132190476D02*
X235337676Y-132238095D01*
X235337676Y-132238095D02*
X235242438Y-132333333D01*
X235242438Y-132333333D02*
X235194819Y-132428571D01*
X235194819Y-132428571D02*
X235194819Y-132619047D01*
X235194819Y-132619047D02*
X235242438Y-132714285D01*
X235242438Y-132714285D02*
X235337676Y-132809523D01*
X235337676Y-132809523D02*
X235528152Y-132857142D01*
X235528152Y-132857142D02*
X235861485Y-132857142D01*
X235861485Y-132857142D02*
X236051961Y-132809523D01*
X236051961Y-132809523D02*
X236147200Y-132714285D01*
X236147200Y-132714285D02*
X236194819Y-132619047D01*
X236194819Y-132619047D02*
X236194819Y-132428571D01*
X235528152Y-133714285D02*
X236194819Y-133714285D01*
X235147200Y-133476190D02*
X235861485Y-133238095D01*
X235861485Y-133238095D02*
X235861485Y-133857142D01*
X280451766Y-143920380D02*
X280499385Y-143968000D01*
X280499385Y-143968000D02*
X280642242Y-144015619D01*
X280642242Y-144015619D02*
X280737480Y-144015619D01*
X280737480Y-144015619D02*
X280880337Y-143968000D01*
X280880337Y-143968000D02*
X280975575Y-143872761D01*
X280975575Y-143872761D02*
X281023194Y-143777523D01*
X281023194Y-143777523D02*
X281070813Y-143587047D01*
X281070813Y-143587047D02*
X281070813Y-143444190D01*
X281070813Y-143444190D02*
X281023194Y-143253714D01*
X281023194Y-143253714D02*
X280975575Y-143158476D01*
X280975575Y-143158476D02*
X280880337Y-143063238D01*
X280880337Y-143063238D02*
X280737480Y-143015619D01*
X280737480Y-143015619D02*
X280642242Y-143015619D01*
X280642242Y-143015619D02*
X280499385Y-143063238D01*
X280499385Y-143063238D02*
X280451766Y-143110857D01*
X279880337Y-143444190D02*
X279975575Y-143396571D01*
X279975575Y-143396571D02*
X280023194Y-143348952D01*
X280023194Y-143348952D02*
X280070813Y-143253714D01*
X280070813Y-143253714D02*
X280070813Y-143206095D01*
X280070813Y-143206095D02*
X280023194Y-143110857D01*
X280023194Y-143110857D02*
X279975575Y-143063238D01*
X279975575Y-143063238D02*
X279880337Y-143015619D01*
X279880337Y-143015619D02*
X279689861Y-143015619D01*
X279689861Y-143015619D02*
X279594623Y-143063238D01*
X279594623Y-143063238D02*
X279547004Y-143110857D01*
X279547004Y-143110857D02*
X279499385Y-143206095D01*
X279499385Y-143206095D02*
X279499385Y-143253714D01*
X279499385Y-143253714D02*
X279547004Y-143348952D01*
X279547004Y-143348952D02*
X279594623Y-143396571D01*
X279594623Y-143396571D02*
X279689861Y-143444190D01*
X279689861Y-143444190D02*
X279880337Y-143444190D01*
X279880337Y-143444190D02*
X279975575Y-143491809D01*
X279975575Y-143491809D02*
X280023194Y-143539428D01*
X280023194Y-143539428D02*
X280070813Y-143634666D01*
X280070813Y-143634666D02*
X280070813Y-143825142D01*
X280070813Y-143825142D02*
X280023194Y-143920380D01*
X280023194Y-143920380D02*
X279975575Y-143968000D01*
X279975575Y-143968000D02*
X279880337Y-144015619D01*
X279880337Y-144015619D02*
X279689861Y-144015619D01*
X279689861Y-144015619D02*
X279594623Y-143968000D01*
X279594623Y-143968000D02*
X279547004Y-143920380D01*
X279547004Y-143920380D02*
X279499385Y-143825142D01*
X279499385Y-143825142D02*
X279499385Y-143634666D01*
X279499385Y-143634666D02*
X279547004Y-143539428D01*
X279547004Y-143539428D02*
X279594623Y-143491809D01*
X279594623Y-143491809D02*
X279689861Y-143444190D01*
X236290057Y-151354761D02*
X236242438Y-151259523D01*
X236242438Y-151259523D02*
X236147200Y-151164285D01*
X236147200Y-151164285D02*
X236004342Y-151021428D01*
X236004342Y-151021428D02*
X235956723Y-150926190D01*
X235956723Y-150926190D02*
X235956723Y-150830952D01*
X236194819Y-150878571D02*
X236147200Y-150783333D01*
X236147200Y-150783333D02*
X236051961Y-150688095D01*
X236051961Y-150688095D02*
X235861485Y-150640476D01*
X235861485Y-150640476D02*
X235528152Y-150640476D01*
X235528152Y-150640476D02*
X235337676Y-150688095D01*
X235337676Y-150688095D02*
X235242438Y-150783333D01*
X235242438Y-150783333D02*
X235194819Y-150878571D01*
X235194819Y-150878571D02*
X235194819Y-151069047D01*
X235194819Y-151069047D02*
X235242438Y-151164285D01*
X235242438Y-151164285D02*
X235337676Y-151259523D01*
X235337676Y-151259523D02*
X235528152Y-151307142D01*
X235528152Y-151307142D02*
X235861485Y-151307142D01*
X235861485Y-151307142D02*
X236051961Y-151259523D01*
X236051961Y-151259523D02*
X236147200Y-151164285D01*
X236147200Y-151164285D02*
X236194819Y-151069047D01*
X236194819Y-151069047D02*
X236194819Y-150878571D01*
X236194819Y-152259523D02*
X236194819Y-151688095D01*
X236194819Y-151973809D02*
X235194819Y-151973809D01*
X235194819Y-151973809D02*
X235337676Y-151878571D01*
X235337676Y-151878571D02*
X235432914Y-151783333D01*
X235432914Y-151783333D02*
X235480533Y-151688095D01*
X299853457Y-157407780D02*
X299901076Y-157455400D01*
X299901076Y-157455400D02*
X300043933Y-157503019D01*
X300043933Y-157503019D02*
X300139171Y-157503019D01*
X300139171Y-157503019D02*
X300282028Y-157455400D01*
X300282028Y-157455400D02*
X300377266Y-157360161D01*
X300377266Y-157360161D02*
X300424885Y-157264923D01*
X300424885Y-157264923D02*
X300472504Y-157074447D01*
X300472504Y-157074447D02*
X300472504Y-156931590D01*
X300472504Y-156931590D02*
X300424885Y-156741114D01*
X300424885Y-156741114D02*
X300377266Y-156645876D01*
X300377266Y-156645876D02*
X300282028Y-156550638D01*
X300282028Y-156550638D02*
X300139171Y-156503019D01*
X300139171Y-156503019D02*
X300043933Y-156503019D01*
X300043933Y-156503019D02*
X299901076Y-156550638D01*
X299901076Y-156550638D02*
X299853457Y-156598257D01*
X298901076Y-157503019D02*
X299472504Y-157503019D01*
X299186790Y-157503019D02*
X299186790Y-156503019D01*
X299186790Y-156503019D02*
X299282028Y-156645876D01*
X299282028Y-156645876D02*
X299377266Y-156741114D01*
X299377266Y-156741114D02*
X299472504Y-156788733D01*
X298567742Y-156503019D02*
X297948695Y-156503019D01*
X297948695Y-156503019D02*
X298282028Y-156883971D01*
X298282028Y-156883971D02*
X298139171Y-156883971D01*
X298139171Y-156883971D02*
X298043933Y-156931590D01*
X298043933Y-156931590D02*
X297996314Y-156979209D01*
X297996314Y-156979209D02*
X297948695Y-157074447D01*
X297948695Y-157074447D02*
X297948695Y-157312542D01*
X297948695Y-157312542D02*
X297996314Y-157407780D01*
X297996314Y-157407780D02*
X298043933Y-157455400D01*
X298043933Y-157455400D02*
X298139171Y-157503019D01*
X298139171Y-157503019D02*
X298424885Y-157503019D01*
X298424885Y-157503019D02*
X298520123Y-157455400D01*
X298520123Y-157455400D02*
X298567742Y-157407780D01*
D11*
X340814600Y-184766000D02*
G75*
G03*
X340814600Y-184766000I-381000J0D01*
G01*
X284296500Y-186972500D02*
G75*
G03*
X284296500Y-186972500I-381000J0D01*
G01*
D12*
X236720000Y-122620000D02*
X236720000Y-106480000D01*
X257910000Y-122620000D02*
X236720000Y-122620000D01*
X257910000Y-122620000D02*
X257910000Y-106480000D01*
X260470000Y-120000000D02*
X257910000Y-120000000D01*
X260470000Y-114550000D02*
X257910000Y-114550000D01*
X260470000Y-109100000D02*
X257910000Y-109100000D01*
X257910000Y-106480000D02*
X236720000Y-106480000D01*
X295068748Y-136320000D02*
X296491252Y-136320000D01*
X295068748Y-139040000D02*
X296491252Y-139040000D01*
X237025000Y-177970000D02*
X237025000Y-161830000D01*
X258215000Y-177970000D02*
X237025000Y-177970000D01*
X258215000Y-177970000D02*
X258215000Y-161830000D01*
X260775000Y-175350000D02*
X258215000Y-175350000D01*
X260775000Y-169900000D02*
X258215000Y-169900000D01*
X260775000Y-164450000D02*
X258215000Y-164450000D01*
X258215000Y-161830000D02*
X237025000Y-161830000D01*
X236740000Y-141070000D02*
X236740000Y-124930000D01*
X257930000Y-141070000D02*
X236740000Y-141070000D01*
X257930000Y-141070000D02*
X257930000Y-124930000D01*
X260490000Y-138450000D02*
X257930000Y-138450000D01*
X260490000Y-133000000D02*
X257930000Y-133000000D01*
X260490000Y-127550000D02*
X257930000Y-127550000D01*
X257930000Y-124930000D02*
X236740000Y-124930000D01*
X283572852Y-144372000D02*
X283050348Y-144372000D01*
X283572852Y-142902000D02*
X283050348Y-142902000D01*
X236740000Y-159520000D02*
X236740000Y-143380000D01*
X257930000Y-159520000D02*
X236740000Y-159520000D01*
X257930000Y-159520000D02*
X257930000Y-143380000D01*
X260490000Y-156900000D02*
X257930000Y-156900000D01*
X260490000Y-151450000D02*
X257930000Y-151450000D01*
X260490000Y-146000000D02*
X257930000Y-146000000D01*
X257930000Y-143380000D02*
X236740000Y-143380000D01*
X295369348Y-156313200D02*
X295891852Y-156313200D01*
X295369348Y-157783200D02*
X295891852Y-157783200D01*
%LPC*%
D13*
X280200000Y-188740000D03*
D14*
X277700000Y-188740000D03*
D15*
X329000000Y-187750000D03*
D14*
X331500000Y-187750000D03*
D16*
X222600000Y-185000000D03*
X223302944Y-183302944D03*
X223302944Y-186697056D03*
X225000000Y-182600000D03*
D17*
X225000000Y-185000000D03*
D16*
X225000000Y-187400000D03*
X226697056Y-183302944D03*
X226697056Y-186697056D03*
X227400000Y-185000000D03*
X222600000Y-100000000D03*
X223302944Y-98302944D03*
X223302944Y-101697056D03*
X225000000Y-97600000D03*
D17*
X225000000Y-100000000D03*
D16*
X225000000Y-102400000D03*
X226697056Y-98302944D03*
X226697056Y-101697056D03*
X227400000Y-100000000D03*
D18*
X230022400Y-146685000D03*
D19*
X230022400Y-154185000D03*
X230022400Y-161685000D03*
X230022400Y-169185000D03*
D20*
X302030000Y-161224600D03*
D21*
X302030000Y-158724600D03*
D22*
X223080000Y-138709400D03*
X228080000Y-138709400D03*
D23*
X287831000Y-138096200D03*
X286131000Y-136396200D03*
X287831000Y-134696200D03*
X286131000Y-132996200D03*
X287831000Y-131296200D03*
D24*
X362150000Y-117100000D03*
D25*
X362150000Y-114600000D03*
X362150000Y-112100000D03*
X362150000Y-109600000D03*
X362150000Y-107100000D03*
D26*
X342277000Y-177004000D03*
D27*
X342277000Y-171924000D03*
D28*
X345833000Y-184766000D03*
X350833000Y-184766000D03*
D16*
X362600000Y-100000000D03*
X363302944Y-98302944D03*
X363302944Y-101697056D03*
X365000000Y-97600000D03*
D17*
X365000000Y-100000000D03*
D16*
X365000000Y-102400000D03*
X366697056Y-98302944D03*
X366697056Y-101697056D03*
X367400000Y-100000000D03*
D29*
X228574600Y-128016000D03*
D30*
X223574600Y-128016000D03*
D31*
X317490000Y-158684600D03*
D21*
X317490000Y-161184600D03*
D32*
X265970000Y-182775000D03*
X263430000Y-185315000D03*
X260890000Y-182775000D03*
D33*
X301880000Y-184670000D03*
D34*
X304420000Y-184670000D03*
X306960000Y-184670000D03*
X312040000Y-184670000D03*
X314580000Y-184670000D03*
X317120000Y-184670000D03*
X319660000Y-184670000D03*
D26*
X353961000Y-177004000D03*
D27*
X353961000Y-171924000D03*
D16*
X362600000Y-185000000D03*
X363302944Y-183302944D03*
X363302944Y-186697056D03*
X365000000Y-182600000D03*
D17*
X365000000Y-185000000D03*
D16*
X365000000Y-187400000D03*
X366697056Y-183302944D03*
X366697056Y-186697056D03*
X367400000Y-185000000D03*
D28*
X289314900Y-186972500D03*
X294314900Y-186972500D03*
D35*
X243010000Y-114550000D03*
D36*
X262870000Y-120000000D03*
D37*
X262870000Y-114550000D03*
X262870000Y-109100000D03*
D38*
X294217500Y-137680000D03*
X297342500Y-137680000D03*
D35*
X243315000Y-169900000D03*
D36*
X263175000Y-175350000D03*
D37*
X263175000Y-169900000D03*
X263175000Y-164450000D03*
D35*
X243030000Y-133000000D03*
D36*
X262890000Y-138450000D03*
D37*
X262890000Y-133000000D03*
X262890000Y-127550000D03*
D39*
X284349100Y-143637000D03*
X282274100Y-143637000D03*
D35*
X243030000Y-151450000D03*
D36*
X262890000Y-156900000D03*
D37*
X262890000Y-151450000D03*
X262890000Y-146000000D03*
D40*
X294593100Y-157048200D03*
X296668100Y-157048200D03*
%LPD*%
D41*
X217500000Y-185000000D02*
X217500000Y-100000000D01*
X308515873Y-169241000D02*
X308515873Y-176126000D01*
X225000000Y-92500000D02*
G75*
G03*
X217500000Y-100000000I0J-7500000D01*
G01*
X308515873Y-125000000D02*
X308515873Y-161050000D01*
X365000000Y-192500000D02*
X225000000Y-192500000D01*
X325907400Y-92500000D02*
X328987600Y-95580200D01*
X356681400Y-133154200D02*
G75*
G03*
X356681400Y-131154000I0J1000100D01*
G01*
X217500000Y-185000000D02*
G75*
G03*
X225000000Y-192500000I7500000J0D01*
G01*
X310516127Y-169241000D02*
X310516127Y-176126000D01*
X320631400Y-133158254D02*
X356681400Y-133158254D01*
X328987600Y-95580200D02*
X341045800Y-95580200D01*
X372500000Y-100000000D02*
G75*
G03*
X365000000Y-92500000I-7500000J0D01*
G01*
X320631400Y-131157946D02*
G75*
G03*
X320631400Y-133158254I0J-1000154D01*
G01*
X308519873Y-161050000D02*
G75*
G03*
X310520127Y-161050000I1000127J0D01*
G01*
X308515873Y-176126000D02*
G75*
G03*
X310516127Y-176126000I1000127J0D01*
G01*
X308515873Y-115208873D02*
G75*
G03*
X310516127Y-115208873I1000127J0D01*
G01*
X225000000Y-92500000D02*
X325907400Y-92500000D01*
X365000000Y-192500000D02*
G75*
G03*
X372500000Y-185000000I0J7500000D01*
G01*
X310516127Y-99500000D02*
G75*
G03*
X309516000Y-98499873I-1000127J0D01*
G01*
X356681400Y-131154000D02*
X320631400Y-131154000D01*
X309516000Y-98499873D02*
G75*
G03*
X308515873Y-99500000I0J-1000127D01*
G01*
X372499673Y-125670327D02*
X367990000Y-130180000D01*
X372500000Y-100000000D02*
X372500000Y-125670000D01*
X372500000Y-185000000D02*
X372500000Y-144900000D01*
X310516127Y-169241000D02*
G75*
G03*
X308515873Y-169241000I-1000127J0D01*
G01*
X367990000Y-130180000D02*
X367990000Y-140390000D01*
X310516127Y-125000000D02*
G75*
G03*
X308515873Y-125000000I-1000127J0D01*
G01*
X367990000Y-140390000D02*
X372500055Y-144900055D01*
X308515873Y-115208873D02*
X308515873Y-99500000D01*
X344126000Y-92500000D02*
X365000000Y-92500000D01*
X310520127Y-161050000D02*
X310520127Y-125000000D01*
X341045800Y-95580200D02*
X344126000Y-92500000D01*
X310516127Y-99500000D02*
X310516127Y-115208873D01*
M02*
