G04 #@! TF.GenerationSoftware,KiCad,Pcbnew,7.0.7+dfsg-1*
G04 #@! TF.CreationDate,2024-12-02T20:39:15+01:00*
G04 #@! TF.ProjectId,evoIII-pulseboard,65766f49-4949-42d7-9075-6c7365626f61,rev?*
G04 #@! TF.SameCoordinates,Original*
G04 #@! TF.FileFunction,Paste,Bot*
G04 #@! TF.FilePolarity,Positive*
%FSLAX46Y46*%
G04 Gerber Fmt 4.6, Leading zero omitted, Abs format (unit mm)*
G04 Created by KiCad (PCBNEW 7.0.7+dfsg-1) date 2024-12-02 20:39:15*
%MOMM*%
%LPD*%
G01*
G04 APERTURE LIST*
G04 Aperture macros list*
%AMRoundRect*
0 Rectangle with rounded corners*
0 $1 Rounding radius*
0 $2 $3 $4 $5 $6 $7 $8 $9 X,Y pos of 4 corners*
0 Add a 4 corners polygon primitive as box body*
4,1,4,$2,$3,$4,$5,$6,$7,$8,$9,$2,$3,0*
0 Add four circle primitives for the rounded corners*
1,1,$1+$1,$2,$3*
1,1,$1+$1,$4,$5*
1,1,$1+$1,$6,$7*
1,1,$1+$1,$8,$9*
0 Add four rect primitives between the rounded corners*
20,1,$1+$1,$2,$3,$4,$5,0*
20,1,$1+$1,$4,$5,$6,$7,0*
20,1,$1+$1,$6,$7,$8,$9,0*
20,1,$1+$1,$8,$9,$2,$3,0*%
G04 Aperture macros list end*
%ADD10RoundRect,0.250000X-0.412500X-1.100000X0.412500X-1.100000X0.412500X1.100000X-0.412500X1.100000X0*%
%ADD11RoundRect,0.250000X0.337500X0.475000X-0.337500X0.475000X-0.337500X-0.475000X0.337500X-0.475000X0*%
%ADD12RoundRect,0.250000X-0.337500X-0.475000X0.337500X-0.475000X0.337500X0.475000X-0.337500X0.475000X0*%
G04 #@! TA.AperFunction,Profile*
%ADD13C,0.100000*%
G04 #@! TD*
G04 APERTURE END LIST*
D10*
X294217500Y-137680000D03*
X297342500Y-137680000D03*
D11*
X284349100Y-143637000D03*
X282274100Y-143637000D03*
D12*
X294593100Y-157048200D03*
X296668100Y-157048200D03*
D13*
X217500000Y-185000000D02*
X217500000Y-100000000D01*
X308515873Y-169241000D02*
X308515873Y-176126000D01*
X225000000Y-92500000D02*
G75*
G03*
X217500000Y-100000000I0J-7500000D01*
G01*
X308515873Y-125000000D02*
X308515873Y-161050000D01*
X365000000Y-192500000D02*
X225000000Y-192500000D01*
X325907400Y-92500000D02*
X328987600Y-95580200D01*
X356681400Y-133154200D02*
G75*
G03*
X356681400Y-131154000I0J1000100D01*
G01*
X217500000Y-185000000D02*
G75*
G03*
X225000000Y-192500000I7500000J0D01*
G01*
X310516127Y-169241000D02*
X310516127Y-176126000D01*
X320631400Y-133158254D02*
X356681400Y-133158254D01*
X328987600Y-95580200D02*
X341045800Y-95580200D01*
X372500000Y-100000000D02*
G75*
G03*
X365000000Y-92500000I-7500000J0D01*
G01*
X320631400Y-131157946D02*
G75*
G03*
X320631400Y-133158254I0J-1000154D01*
G01*
X308519873Y-161050000D02*
G75*
G03*
X310520127Y-161050000I1000127J0D01*
G01*
X308515873Y-176126000D02*
G75*
G03*
X310516127Y-176126000I1000127J0D01*
G01*
X308515873Y-115208873D02*
G75*
G03*
X310516127Y-115208873I1000127J0D01*
G01*
X225000000Y-92500000D02*
X325907400Y-92500000D01*
X365000000Y-192500000D02*
G75*
G03*
X372500000Y-185000000I0J7500000D01*
G01*
X310516127Y-99500000D02*
G75*
G03*
X309516000Y-98499873I-1000127J0D01*
G01*
X356681400Y-131154000D02*
X320631400Y-131154000D01*
X309516000Y-98499873D02*
G75*
G03*
X308515873Y-99500000I0J-1000127D01*
G01*
X372499673Y-125670327D02*
X367990000Y-130180000D01*
X372500000Y-100000000D02*
X372500000Y-125670000D01*
X372500000Y-185000000D02*
X372500000Y-144900000D01*
X310516127Y-169241000D02*
G75*
G03*
X308515873Y-169241000I-1000127J0D01*
G01*
X367990000Y-130180000D02*
X367990000Y-140390000D01*
X310516127Y-125000000D02*
G75*
G03*
X308515873Y-125000000I-1000127J0D01*
G01*
X367990000Y-140390000D02*
X372500055Y-144900055D01*
X308515873Y-115208873D02*
X308515873Y-99500000D01*
X344126000Y-92500000D02*
X365000000Y-92500000D01*
X310520127Y-161050000D02*
X310520127Y-125000000D01*
X341045800Y-95580200D02*
X344126000Y-92500000D01*
X310516127Y-99500000D02*
X310516127Y-115208873D01*
M02*
