G04 #@! TF.GenerationSoftware,KiCad,Pcbnew,7.0.7+dfsg-1*
G04 #@! TF.CreationDate,2024-09-28T12:15:45+02:00*
G04 #@! TF.ProjectId,motion-board-evoII,6d6f7469-6f6e-42d6-926f-6172642d6576,rev?*
G04 #@! TF.SameCoordinates,Original*
G04 #@! TF.FileFunction,Legend,Bot*
G04 #@! TF.FilePolarity,Positive*
%FSLAX46Y46*%
G04 Gerber Fmt 4.6, Leading zero omitted, Abs format (unit mm)*
G04 Created by KiCad (PCBNEW 7.0.7+dfsg-1) date 2024-09-28 12:15:45*
%MOMM*%
%LPD*%
G01*
G04 APERTURE LIST*
%ADD10C,0.150000*%
%ADD11C,0.254000*%
%ADD12C,0.120000*%
%ADD13C,0.200000*%
G04 APERTURE END LIST*
D10*
X131376657Y-38655419D02*
X131709990Y-38179228D01*
X131948085Y-38655419D02*
X131948085Y-37655419D01*
X131948085Y-37655419D02*
X131567133Y-37655419D01*
X131567133Y-37655419D02*
X131471895Y-37703038D01*
X131471895Y-37703038D02*
X131424276Y-37750657D01*
X131424276Y-37750657D02*
X131376657Y-37845895D01*
X131376657Y-37845895D02*
X131376657Y-37988752D01*
X131376657Y-37988752D02*
X131424276Y-38083990D01*
X131424276Y-38083990D02*
X131471895Y-38131609D01*
X131471895Y-38131609D02*
X131567133Y-38179228D01*
X131567133Y-38179228D02*
X131948085Y-38179228D01*
X130424276Y-38655419D02*
X130995704Y-38655419D01*
X130709990Y-38655419D02*
X130709990Y-37655419D01*
X130709990Y-37655419D02*
X130805228Y-37798276D01*
X130805228Y-37798276D02*
X130900466Y-37893514D01*
X130900466Y-37893514D02*
X130995704Y-37941133D01*
X130090942Y-37655419D02*
X129471895Y-37655419D01*
X129471895Y-37655419D02*
X129805228Y-38036371D01*
X129805228Y-38036371D02*
X129662371Y-38036371D01*
X129662371Y-38036371D02*
X129567133Y-38083990D01*
X129567133Y-38083990D02*
X129519514Y-38131609D01*
X129519514Y-38131609D02*
X129471895Y-38226847D01*
X129471895Y-38226847D02*
X129471895Y-38464942D01*
X129471895Y-38464942D02*
X129519514Y-38560180D01*
X129519514Y-38560180D02*
X129567133Y-38607800D01*
X129567133Y-38607800D02*
X129662371Y-38655419D01*
X129662371Y-38655419D02*
X129948085Y-38655419D01*
X129948085Y-38655419D02*
X130043323Y-38607800D01*
X130043323Y-38607800D02*
X130090942Y-38560180D01*
X56046666Y-58220780D02*
X56094285Y-58268400D01*
X56094285Y-58268400D02*
X56237142Y-58316019D01*
X56237142Y-58316019D02*
X56332380Y-58316019D01*
X56332380Y-58316019D02*
X56475237Y-58268400D01*
X56475237Y-58268400D02*
X56570475Y-58173161D01*
X56570475Y-58173161D02*
X56618094Y-58077923D01*
X56618094Y-58077923D02*
X56665713Y-57887447D01*
X56665713Y-57887447D02*
X56665713Y-57744590D01*
X56665713Y-57744590D02*
X56618094Y-57554114D01*
X56618094Y-57554114D02*
X56570475Y-57458876D01*
X56570475Y-57458876D02*
X56475237Y-57363638D01*
X56475237Y-57363638D02*
X56332380Y-57316019D01*
X56332380Y-57316019D02*
X56237142Y-57316019D01*
X56237142Y-57316019D02*
X56094285Y-57363638D01*
X56094285Y-57363638D02*
X56046666Y-57411257D01*
X55713332Y-57316019D02*
X55094285Y-57316019D01*
X55094285Y-57316019D02*
X55427618Y-57696971D01*
X55427618Y-57696971D02*
X55284761Y-57696971D01*
X55284761Y-57696971D02*
X55189523Y-57744590D01*
X55189523Y-57744590D02*
X55141904Y-57792209D01*
X55141904Y-57792209D02*
X55094285Y-57887447D01*
X55094285Y-57887447D02*
X55094285Y-58125542D01*
X55094285Y-58125542D02*
X55141904Y-58220780D01*
X55141904Y-58220780D02*
X55189523Y-58268400D01*
X55189523Y-58268400D02*
X55284761Y-58316019D01*
X55284761Y-58316019D02*
X55570475Y-58316019D01*
X55570475Y-58316019D02*
X55665713Y-58268400D01*
X55665713Y-58268400D02*
X55713332Y-58220780D01*
D11*
X135330518Y-50413637D02*
X134060518Y-50413637D01*
X135209565Y-51744114D02*
X135270042Y-51683638D01*
X135270042Y-51683638D02*
X135330518Y-51502209D01*
X135330518Y-51502209D02*
X135330518Y-51381257D01*
X135330518Y-51381257D02*
X135270042Y-51199828D01*
X135270042Y-51199828D02*
X135149089Y-51078876D01*
X135149089Y-51078876D02*
X135028137Y-51018399D01*
X135028137Y-51018399D02*
X134786232Y-50957923D01*
X134786232Y-50957923D02*
X134604803Y-50957923D01*
X134604803Y-50957923D02*
X134362899Y-51018399D01*
X134362899Y-51018399D02*
X134241946Y-51078876D01*
X134241946Y-51078876D02*
X134120994Y-51199828D01*
X134120994Y-51199828D02*
X134060518Y-51381257D01*
X134060518Y-51381257D02*
X134060518Y-51502209D01*
X134060518Y-51502209D02*
X134120994Y-51683638D01*
X134120994Y-51683638D02*
X134181470Y-51744114D01*
X134060518Y-52167447D02*
X134060518Y-52953638D01*
X134060518Y-52953638D02*
X134544327Y-52530304D01*
X134544327Y-52530304D02*
X134544327Y-52711733D01*
X134544327Y-52711733D02*
X134604803Y-52832685D01*
X134604803Y-52832685D02*
X134665280Y-52893161D01*
X134665280Y-52893161D02*
X134786232Y-52953638D01*
X134786232Y-52953638D02*
X135088613Y-52953638D01*
X135088613Y-52953638D02*
X135209565Y-52893161D01*
X135209565Y-52893161D02*
X135270042Y-52832685D01*
X135270042Y-52832685D02*
X135330518Y-52711733D01*
X135330518Y-52711733D02*
X135330518Y-52348876D01*
X135330518Y-52348876D02*
X135270042Y-52227923D01*
X135270042Y-52227923D02*
X135209565Y-52167447D01*
D10*
X120280757Y-59621380D02*
X120328376Y-59669000D01*
X120328376Y-59669000D02*
X120471233Y-59716619D01*
X120471233Y-59716619D02*
X120566471Y-59716619D01*
X120566471Y-59716619D02*
X120709328Y-59669000D01*
X120709328Y-59669000D02*
X120804566Y-59573761D01*
X120804566Y-59573761D02*
X120852185Y-59478523D01*
X120852185Y-59478523D02*
X120899804Y-59288047D01*
X120899804Y-59288047D02*
X120899804Y-59145190D01*
X120899804Y-59145190D02*
X120852185Y-58954714D01*
X120852185Y-58954714D02*
X120804566Y-58859476D01*
X120804566Y-58859476D02*
X120709328Y-58764238D01*
X120709328Y-58764238D02*
X120566471Y-58716619D01*
X120566471Y-58716619D02*
X120471233Y-58716619D01*
X120471233Y-58716619D02*
X120328376Y-58764238D01*
X120328376Y-58764238D02*
X120280757Y-58811857D01*
X119328376Y-59716619D02*
X119899804Y-59716619D01*
X119614090Y-59716619D02*
X119614090Y-58716619D01*
X119614090Y-58716619D02*
X119709328Y-58859476D01*
X119709328Y-58859476D02*
X119804566Y-58954714D01*
X119804566Y-58954714D02*
X119899804Y-59002333D01*
X118852185Y-59716619D02*
X118661709Y-59716619D01*
X118661709Y-59716619D02*
X118566471Y-59669000D01*
X118566471Y-59669000D02*
X118518852Y-59621380D01*
X118518852Y-59621380D02*
X118423614Y-59478523D01*
X118423614Y-59478523D02*
X118375995Y-59288047D01*
X118375995Y-59288047D02*
X118375995Y-58907095D01*
X118375995Y-58907095D02*
X118423614Y-58811857D01*
X118423614Y-58811857D02*
X118471233Y-58764238D01*
X118471233Y-58764238D02*
X118566471Y-58716619D01*
X118566471Y-58716619D02*
X118756947Y-58716619D01*
X118756947Y-58716619D02*
X118852185Y-58764238D01*
X118852185Y-58764238D02*
X118899804Y-58811857D01*
X118899804Y-58811857D02*
X118947423Y-58907095D01*
X118947423Y-58907095D02*
X118947423Y-59145190D01*
X118947423Y-59145190D02*
X118899804Y-59240428D01*
X118899804Y-59240428D02*
X118852185Y-59288047D01*
X118852185Y-59288047D02*
X118756947Y-59335666D01*
X118756947Y-59335666D02*
X118566471Y-59335666D01*
X118566471Y-59335666D02*
X118471233Y-59288047D01*
X118471233Y-59288047D02*
X118423614Y-59240428D01*
X118423614Y-59240428D02*
X118375995Y-59145190D01*
X126988866Y-44319619D02*
X127322199Y-43843428D01*
X127560294Y-44319619D02*
X127560294Y-43319619D01*
X127560294Y-43319619D02*
X127179342Y-43319619D01*
X127179342Y-43319619D02*
X127084104Y-43367238D01*
X127084104Y-43367238D02*
X127036485Y-43414857D01*
X127036485Y-43414857D02*
X126988866Y-43510095D01*
X126988866Y-43510095D02*
X126988866Y-43652952D01*
X126988866Y-43652952D02*
X127036485Y-43748190D01*
X127036485Y-43748190D02*
X127084104Y-43795809D01*
X127084104Y-43795809D02*
X127179342Y-43843428D01*
X127179342Y-43843428D02*
X127560294Y-43843428D01*
X126512675Y-44319619D02*
X126322199Y-44319619D01*
X126322199Y-44319619D02*
X126226961Y-44272000D01*
X126226961Y-44272000D02*
X126179342Y-44224380D01*
X126179342Y-44224380D02*
X126084104Y-44081523D01*
X126084104Y-44081523D02*
X126036485Y-43891047D01*
X126036485Y-43891047D02*
X126036485Y-43510095D01*
X126036485Y-43510095D02*
X126084104Y-43414857D01*
X126084104Y-43414857D02*
X126131723Y-43367238D01*
X126131723Y-43367238D02*
X126226961Y-43319619D01*
X126226961Y-43319619D02*
X126417437Y-43319619D01*
X126417437Y-43319619D02*
X126512675Y-43367238D01*
X126512675Y-43367238D02*
X126560294Y-43414857D01*
X126560294Y-43414857D02*
X126607913Y-43510095D01*
X126607913Y-43510095D02*
X126607913Y-43748190D01*
X126607913Y-43748190D02*
X126560294Y-43843428D01*
X126560294Y-43843428D02*
X126512675Y-43891047D01*
X126512675Y-43891047D02*
X126417437Y-43938666D01*
X126417437Y-43938666D02*
X126226961Y-43938666D01*
X126226961Y-43938666D02*
X126131723Y-43891047D01*
X126131723Y-43891047D02*
X126084104Y-43843428D01*
X126084104Y-43843428D02*
X126036485Y-43748190D01*
X157308866Y-46181180D02*
X157356485Y-46228800D01*
X157356485Y-46228800D02*
X157499342Y-46276419D01*
X157499342Y-46276419D02*
X157594580Y-46276419D01*
X157594580Y-46276419D02*
X157737437Y-46228800D01*
X157737437Y-46228800D02*
X157832675Y-46133561D01*
X157832675Y-46133561D02*
X157880294Y-46038323D01*
X157880294Y-46038323D02*
X157927913Y-45847847D01*
X157927913Y-45847847D02*
X157927913Y-45704990D01*
X157927913Y-45704990D02*
X157880294Y-45514514D01*
X157880294Y-45514514D02*
X157832675Y-45419276D01*
X157832675Y-45419276D02*
X157737437Y-45324038D01*
X157737437Y-45324038D02*
X157594580Y-45276419D01*
X157594580Y-45276419D02*
X157499342Y-45276419D01*
X157499342Y-45276419D02*
X157356485Y-45324038D01*
X157356485Y-45324038D02*
X157308866Y-45371657D01*
X156356485Y-46276419D02*
X156927913Y-46276419D01*
X156642199Y-46276419D02*
X156642199Y-45276419D01*
X156642199Y-45276419D02*
X156737437Y-45419276D01*
X156737437Y-45419276D02*
X156832675Y-45514514D01*
X156832675Y-45514514D02*
X156927913Y-45562133D01*
X67883066Y-74698780D02*
X67930685Y-74746400D01*
X67930685Y-74746400D02*
X68073542Y-74794019D01*
X68073542Y-74794019D02*
X68168780Y-74794019D01*
X68168780Y-74794019D02*
X68311637Y-74746400D01*
X68311637Y-74746400D02*
X68406875Y-74651161D01*
X68406875Y-74651161D02*
X68454494Y-74555923D01*
X68454494Y-74555923D02*
X68502113Y-74365447D01*
X68502113Y-74365447D02*
X68502113Y-74222590D01*
X68502113Y-74222590D02*
X68454494Y-74032114D01*
X68454494Y-74032114D02*
X68406875Y-73936876D01*
X68406875Y-73936876D02*
X68311637Y-73841638D01*
X68311637Y-73841638D02*
X68168780Y-73794019D01*
X68168780Y-73794019D02*
X68073542Y-73794019D01*
X68073542Y-73794019D02*
X67930685Y-73841638D01*
X67930685Y-73841638D02*
X67883066Y-73889257D01*
X67025923Y-74127352D02*
X67025923Y-74794019D01*
X67264018Y-73746400D02*
X67502113Y-74460685D01*
X67502113Y-74460685D02*
X66883066Y-74460685D01*
X92394066Y-74698780D02*
X92441685Y-74746400D01*
X92441685Y-74746400D02*
X92584542Y-74794019D01*
X92584542Y-74794019D02*
X92679780Y-74794019D01*
X92679780Y-74794019D02*
X92822637Y-74746400D01*
X92822637Y-74746400D02*
X92917875Y-74651161D01*
X92917875Y-74651161D02*
X92965494Y-74555923D01*
X92965494Y-74555923D02*
X93013113Y-74365447D01*
X93013113Y-74365447D02*
X93013113Y-74222590D01*
X93013113Y-74222590D02*
X92965494Y-74032114D01*
X92965494Y-74032114D02*
X92917875Y-73936876D01*
X92917875Y-73936876D02*
X92822637Y-73841638D01*
X92822637Y-73841638D02*
X92679780Y-73794019D01*
X92679780Y-73794019D02*
X92584542Y-73794019D01*
X92584542Y-73794019D02*
X92441685Y-73841638D01*
X92441685Y-73841638D02*
X92394066Y-73889257D01*
X91917875Y-74794019D02*
X91727399Y-74794019D01*
X91727399Y-74794019D02*
X91632161Y-74746400D01*
X91632161Y-74746400D02*
X91584542Y-74698780D01*
X91584542Y-74698780D02*
X91489304Y-74555923D01*
X91489304Y-74555923D02*
X91441685Y-74365447D01*
X91441685Y-74365447D02*
X91441685Y-73984495D01*
X91441685Y-73984495D02*
X91489304Y-73889257D01*
X91489304Y-73889257D02*
X91536923Y-73841638D01*
X91536923Y-73841638D02*
X91632161Y-73794019D01*
X91632161Y-73794019D02*
X91822637Y-73794019D01*
X91822637Y-73794019D02*
X91917875Y-73841638D01*
X91917875Y-73841638D02*
X91965494Y-73889257D01*
X91965494Y-73889257D02*
X92013113Y-73984495D01*
X92013113Y-73984495D02*
X92013113Y-74222590D01*
X92013113Y-74222590D02*
X91965494Y-74317828D01*
X91965494Y-74317828D02*
X91917875Y-74365447D01*
X91917875Y-74365447D02*
X91822637Y-74413066D01*
X91822637Y-74413066D02*
X91632161Y-74413066D01*
X91632161Y-74413066D02*
X91536923Y-74365447D01*
X91536923Y-74365447D02*
X91489304Y-74317828D01*
X91489304Y-74317828D02*
X91441685Y-74222590D01*
X56046666Y-61211619D02*
X56379999Y-60735428D01*
X56618094Y-61211619D02*
X56618094Y-60211619D01*
X56618094Y-60211619D02*
X56237142Y-60211619D01*
X56237142Y-60211619D02*
X56141904Y-60259238D01*
X56141904Y-60259238D02*
X56094285Y-60306857D01*
X56094285Y-60306857D02*
X56046666Y-60402095D01*
X56046666Y-60402095D02*
X56046666Y-60544952D01*
X56046666Y-60544952D02*
X56094285Y-60640190D01*
X56094285Y-60640190D02*
X56141904Y-60687809D01*
X56141904Y-60687809D02*
X56237142Y-60735428D01*
X56237142Y-60735428D02*
X56618094Y-60735428D01*
X55189523Y-60544952D02*
X55189523Y-61211619D01*
X55427618Y-60164000D02*
X55665713Y-60878285D01*
X55665713Y-60878285D02*
X55046666Y-60878285D01*
X125626857Y-62430819D02*
X125960190Y-61954628D01*
X126198285Y-62430819D02*
X126198285Y-61430819D01*
X126198285Y-61430819D02*
X125817333Y-61430819D01*
X125817333Y-61430819D02*
X125722095Y-61478438D01*
X125722095Y-61478438D02*
X125674476Y-61526057D01*
X125674476Y-61526057D02*
X125626857Y-61621295D01*
X125626857Y-61621295D02*
X125626857Y-61764152D01*
X125626857Y-61764152D02*
X125674476Y-61859390D01*
X125674476Y-61859390D02*
X125722095Y-61907009D01*
X125722095Y-61907009D02*
X125817333Y-61954628D01*
X125817333Y-61954628D02*
X126198285Y-61954628D01*
X124674476Y-62430819D02*
X125245904Y-62430819D01*
X124960190Y-62430819D02*
X124960190Y-61430819D01*
X124960190Y-61430819D02*
X125055428Y-61573676D01*
X125055428Y-61573676D02*
X125150666Y-61668914D01*
X125150666Y-61668914D02*
X125245904Y-61716533D01*
X123817333Y-61764152D02*
X123817333Y-62430819D01*
X124055428Y-61383200D02*
X124293523Y-62097485D01*
X124293523Y-62097485D02*
X123674476Y-62097485D01*
X128846057Y-58011219D02*
X129179390Y-57535028D01*
X129417485Y-58011219D02*
X129417485Y-57011219D01*
X129417485Y-57011219D02*
X129036533Y-57011219D01*
X129036533Y-57011219D02*
X128941295Y-57058838D01*
X128941295Y-57058838D02*
X128893676Y-57106457D01*
X128893676Y-57106457D02*
X128846057Y-57201695D01*
X128846057Y-57201695D02*
X128846057Y-57344552D01*
X128846057Y-57344552D02*
X128893676Y-57439790D01*
X128893676Y-57439790D02*
X128941295Y-57487409D01*
X128941295Y-57487409D02*
X129036533Y-57535028D01*
X129036533Y-57535028D02*
X129417485Y-57535028D01*
X127893676Y-58011219D02*
X128465104Y-58011219D01*
X128179390Y-58011219D02*
X128179390Y-57011219D01*
X128179390Y-57011219D02*
X128274628Y-57154076D01*
X128274628Y-57154076D02*
X128369866Y-57249314D01*
X128369866Y-57249314D02*
X128465104Y-57296933D01*
X127274628Y-57011219D02*
X127179390Y-57011219D01*
X127179390Y-57011219D02*
X127084152Y-57058838D01*
X127084152Y-57058838D02*
X127036533Y-57106457D01*
X127036533Y-57106457D02*
X126988914Y-57201695D01*
X126988914Y-57201695D02*
X126941295Y-57392171D01*
X126941295Y-57392171D02*
X126941295Y-57630266D01*
X126941295Y-57630266D02*
X126988914Y-57820742D01*
X126988914Y-57820742D02*
X127036533Y-57915980D01*
X127036533Y-57915980D02*
X127084152Y-57963600D01*
X127084152Y-57963600D02*
X127179390Y-58011219D01*
X127179390Y-58011219D02*
X127274628Y-58011219D01*
X127274628Y-58011219D02*
X127369866Y-57963600D01*
X127369866Y-57963600D02*
X127417485Y-57915980D01*
X127417485Y-57915980D02*
X127465104Y-57820742D01*
X127465104Y-57820742D02*
X127512723Y-57630266D01*
X127512723Y-57630266D02*
X127512723Y-57392171D01*
X127512723Y-57392171D02*
X127465104Y-57201695D01*
X127465104Y-57201695D02*
X127417485Y-57106457D01*
X127417485Y-57106457D02*
X127369866Y-57058838D01*
X127369866Y-57058838D02*
X127274628Y-57011219D01*
X62599866Y-58525580D02*
X62647485Y-58573200D01*
X62647485Y-58573200D02*
X62790342Y-58620819D01*
X62790342Y-58620819D02*
X62885580Y-58620819D01*
X62885580Y-58620819D02*
X63028437Y-58573200D01*
X63028437Y-58573200D02*
X63123675Y-58477961D01*
X63123675Y-58477961D02*
X63171294Y-58382723D01*
X63171294Y-58382723D02*
X63218913Y-58192247D01*
X63218913Y-58192247D02*
X63218913Y-58049390D01*
X63218913Y-58049390D02*
X63171294Y-57858914D01*
X63171294Y-57858914D02*
X63123675Y-57763676D01*
X63123675Y-57763676D02*
X63028437Y-57668438D01*
X63028437Y-57668438D02*
X62885580Y-57620819D01*
X62885580Y-57620819D02*
X62790342Y-57620819D01*
X62790342Y-57620819D02*
X62647485Y-57668438D01*
X62647485Y-57668438D02*
X62599866Y-57716057D01*
X62218913Y-57716057D02*
X62171294Y-57668438D01*
X62171294Y-57668438D02*
X62076056Y-57620819D01*
X62076056Y-57620819D02*
X61837961Y-57620819D01*
X61837961Y-57620819D02*
X61742723Y-57668438D01*
X61742723Y-57668438D02*
X61695104Y-57716057D01*
X61695104Y-57716057D02*
X61647485Y-57811295D01*
X61647485Y-57811295D02*
X61647485Y-57906533D01*
X61647485Y-57906533D02*
X61695104Y-58049390D01*
X61695104Y-58049390D02*
X62266532Y-58620819D01*
X62266532Y-58620819D02*
X61647485Y-58620819D01*
X50343180Y-82021042D02*
X50390800Y-81973423D01*
X50390800Y-81973423D02*
X50438419Y-81830566D01*
X50438419Y-81830566D02*
X50438419Y-81735328D01*
X50438419Y-81735328D02*
X50390800Y-81592471D01*
X50390800Y-81592471D02*
X50295561Y-81497233D01*
X50295561Y-81497233D02*
X50200323Y-81449614D01*
X50200323Y-81449614D02*
X50009847Y-81401995D01*
X50009847Y-81401995D02*
X49866990Y-81401995D01*
X49866990Y-81401995D02*
X49676514Y-81449614D01*
X49676514Y-81449614D02*
X49581276Y-81497233D01*
X49581276Y-81497233D02*
X49486038Y-81592471D01*
X49486038Y-81592471D02*
X49438419Y-81735328D01*
X49438419Y-81735328D02*
X49438419Y-81830566D01*
X49438419Y-81830566D02*
X49486038Y-81973423D01*
X49486038Y-81973423D02*
X49533657Y-82021042D01*
X50438419Y-82973423D02*
X50438419Y-82401995D01*
X50438419Y-82687709D02*
X49438419Y-82687709D01*
X49438419Y-82687709D02*
X49581276Y-82592471D01*
X49581276Y-82592471D02*
X49676514Y-82497233D01*
X49676514Y-82497233D02*
X49724133Y-82401995D01*
X49438419Y-83306757D02*
X49438419Y-83973423D01*
X49438419Y-83973423D02*
X50438419Y-83544852D01*
D11*
X133294362Y-45887918D02*
X133294362Y-44617918D01*
X131963885Y-45766965D02*
X132024361Y-45827442D01*
X132024361Y-45827442D02*
X132205790Y-45887918D01*
X132205790Y-45887918D02*
X132326742Y-45887918D01*
X132326742Y-45887918D02*
X132508171Y-45827442D01*
X132508171Y-45827442D02*
X132629123Y-45706489D01*
X132629123Y-45706489D02*
X132689600Y-45585537D01*
X132689600Y-45585537D02*
X132750076Y-45343632D01*
X132750076Y-45343632D02*
X132750076Y-45162203D01*
X132750076Y-45162203D02*
X132689600Y-44920299D01*
X132689600Y-44920299D02*
X132629123Y-44799346D01*
X132629123Y-44799346D02*
X132508171Y-44678394D01*
X132508171Y-44678394D02*
X132326742Y-44617918D01*
X132326742Y-44617918D02*
X132205790Y-44617918D01*
X132205790Y-44617918D02*
X132024361Y-44678394D01*
X132024361Y-44678394D02*
X131963885Y-44738870D01*
X130875314Y-45041251D02*
X130875314Y-45887918D01*
X131177695Y-44557442D02*
X131480076Y-45464584D01*
X131480076Y-45464584D02*
X130693885Y-45464584D01*
D10*
X126905980Y-81348342D02*
X126953600Y-81300723D01*
X126953600Y-81300723D02*
X127001219Y-81157866D01*
X127001219Y-81157866D02*
X127001219Y-81062628D01*
X127001219Y-81062628D02*
X126953600Y-80919771D01*
X126953600Y-80919771D02*
X126858361Y-80824533D01*
X126858361Y-80824533D02*
X126763123Y-80776914D01*
X126763123Y-80776914D02*
X126572647Y-80729295D01*
X126572647Y-80729295D02*
X126429790Y-80729295D01*
X126429790Y-80729295D02*
X126239314Y-80776914D01*
X126239314Y-80776914D02*
X126144076Y-80824533D01*
X126144076Y-80824533D02*
X126048838Y-80919771D01*
X126048838Y-80919771D02*
X126001219Y-81062628D01*
X126001219Y-81062628D02*
X126001219Y-81157866D01*
X126001219Y-81157866D02*
X126048838Y-81300723D01*
X126048838Y-81300723D02*
X126096457Y-81348342D01*
X127001219Y-82300723D02*
X127001219Y-81729295D01*
X127001219Y-82015009D02*
X126001219Y-82015009D01*
X126001219Y-82015009D02*
X126144076Y-81919771D01*
X126144076Y-81919771D02*
X126239314Y-81824533D01*
X126239314Y-81824533D02*
X126286933Y-81729295D01*
X126001219Y-82634057D02*
X126001219Y-83253104D01*
X126001219Y-83253104D02*
X126382171Y-82919771D01*
X126382171Y-82919771D02*
X126382171Y-83062628D01*
X126382171Y-83062628D02*
X126429790Y-83157866D01*
X126429790Y-83157866D02*
X126477409Y-83205485D01*
X126477409Y-83205485D02*
X126572647Y-83253104D01*
X126572647Y-83253104D02*
X126810742Y-83253104D01*
X126810742Y-83253104D02*
X126905980Y-83205485D01*
X126905980Y-83205485D02*
X126953600Y-83157866D01*
X126953600Y-83157866D02*
X127001219Y-83062628D01*
X127001219Y-83062628D02*
X127001219Y-82776914D01*
X127001219Y-82776914D02*
X126953600Y-82681676D01*
X126953600Y-82681676D02*
X126905980Y-82634057D01*
X102140980Y-80861842D02*
X102188600Y-80814223D01*
X102188600Y-80814223D02*
X102236219Y-80671366D01*
X102236219Y-80671366D02*
X102236219Y-80576128D01*
X102236219Y-80576128D02*
X102188600Y-80433271D01*
X102188600Y-80433271D02*
X102093361Y-80338033D01*
X102093361Y-80338033D02*
X101998123Y-80290414D01*
X101998123Y-80290414D02*
X101807647Y-80242795D01*
X101807647Y-80242795D02*
X101664790Y-80242795D01*
X101664790Y-80242795D02*
X101474314Y-80290414D01*
X101474314Y-80290414D02*
X101379076Y-80338033D01*
X101379076Y-80338033D02*
X101283838Y-80433271D01*
X101283838Y-80433271D02*
X101236219Y-80576128D01*
X101236219Y-80576128D02*
X101236219Y-80671366D01*
X101236219Y-80671366D02*
X101283838Y-80814223D01*
X101283838Y-80814223D02*
X101331457Y-80861842D01*
X102236219Y-81814223D02*
X102236219Y-81242795D01*
X102236219Y-81528509D02*
X101236219Y-81528509D01*
X101236219Y-81528509D02*
X101379076Y-81433271D01*
X101379076Y-81433271D02*
X101474314Y-81338033D01*
X101474314Y-81338033D02*
X101521933Y-81242795D01*
X101331457Y-82195176D02*
X101283838Y-82242795D01*
X101283838Y-82242795D02*
X101236219Y-82338033D01*
X101236219Y-82338033D02*
X101236219Y-82576128D01*
X101236219Y-82576128D02*
X101283838Y-82671366D01*
X101283838Y-82671366D02*
X101331457Y-82718985D01*
X101331457Y-82718985D02*
X101426695Y-82766604D01*
X101426695Y-82766604D02*
X101521933Y-82766604D01*
X101521933Y-82766604D02*
X101664790Y-82718985D01*
X101664790Y-82718985D02*
X102236219Y-82147557D01*
X102236219Y-82147557D02*
X102236219Y-82766604D01*
X133804819Y-38009533D02*
X133328628Y-37676200D01*
X133804819Y-37438105D02*
X132804819Y-37438105D01*
X132804819Y-37438105D02*
X132804819Y-37819057D01*
X132804819Y-37819057D02*
X132852438Y-37914295D01*
X132852438Y-37914295D02*
X132900057Y-37961914D01*
X132900057Y-37961914D02*
X132995295Y-38009533D01*
X132995295Y-38009533D02*
X133138152Y-38009533D01*
X133138152Y-38009533D02*
X133233390Y-37961914D01*
X133233390Y-37961914D02*
X133281009Y-37914295D01*
X133281009Y-37914295D02*
X133328628Y-37819057D01*
X133328628Y-37819057D02*
X133328628Y-37438105D01*
X132804819Y-38342867D02*
X132804819Y-39009533D01*
X132804819Y-39009533D02*
X133804819Y-38580962D01*
X74850419Y-60352133D02*
X74374228Y-60018800D01*
X74850419Y-59780705D02*
X73850419Y-59780705D01*
X73850419Y-59780705D02*
X73850419Y-60161657D01*
X73850419Y-60161657D02*
X73898038Y-60256895D01*
X73898038Y-60256895D02*
X73945657Y-60304514D01*
X73945657Y-60304514D02*
X74040895Y-60352133D01*
X74040895Y-60352133D02*
X74183752Y-60352133D01*
X74183752Y-60352133D02*
X74278990Y-60304514D01*
X74278990Y-60304514D02*
X74326609Y-60256895D01*
X74326609Y-60256895D02*
X74374228Y-60161657D01*
X74374228Y-60161657D02*
X74374228Y-59780705D01*
X73850419Y-61209276D02*
X73850419Y-61018800D01*
X73850419Y-61018800D02*
X73898038Y-60923562D01*
X73898038Y-60923562D02*
X73945657Y-60875943D01*
X73945657Y-60875943D02*
X74088514Y-60780705D01*
X74088514Y-60780705D02*
X74278990Y-60733086D01*
X74278990Y-60733086D02*
X74659942Y-60733086D01*
X74659942Y-60733086D02*
X74755180Y-60780705D01*
X74755180Y-60780705D02*
X74802800Y-60828324D01*
X74802800Y-60828324D02*
X74850419Y-60923562D01*
X74850419Y-60923562D02*
X74850419Y-61114038D01*
X74850419Y-61114038D02*
X74802800Y-61209276D01*
X74802800Y-61209276D02*
X74755180Y-61256895D01*
X74755180Y-61256895D02*
X74659942Y-61304514D01*
X74659942Y-61304514D02*
X74421847Y-61304514D01*
X74421847Y-61304514D02*
X74326609Y-61256895D01*
X74326609Y-61256895D02*
X74278990Y-61209276D01*
X74278990Y-61209276D02*
X74231371Y-61114038D01*
X74231371Y-61114038D02*
X74231371Y-60923562D01*
X74231371Y-60923562D02*
X74278990Y-60828324D01*
X74278990Y-60828324D02*
X74326609Y-60780705D01*
X74326609Y-60780705D02*
X74421847Y-60733086D01*
X149609980Y-60520342D02*
X149657600Y-60472723D01*
X149657600Y-60472723D02*
X149705219Y-60329866D01*
X149705219Y-60329866D02*
X149705219Y-60234628D01*
X149705219Y-60234628D02*
X149657600Y-60091771D01*
X149657600Y-60091771D02*
X149562361Y-59996533D01*
X149562361Y-59996533D02*
X149467123Y-59948914D01*
X149467123Y-59948914D02*
X149276647Y-59901295D01*
X149276647Y-59901295D02*
X149133790Y-59901295D01*
X149133790Y-59901295D02*
X148943314Y-59948914D01*
X148943314Y-59948914D02*
X148848076Y-59996533D01*
X148848076Y-59996533D02*
X148752838Y-60091771D01*
X148752838Y-60091771D02*
X148705219Y-60234628D01*
X148705219Y-60234628D02*
X148705219Y-60329866D01*
X148705219Y-60329866D02*
X148752838Y-60472723D01*
X148752838Y-60472723D02*
X148800457Y-60520342D01*
X149705219Y-61472723D02*
X149705219Y-60901295D01*
X149705219Y-61187009D02*
X148705219Y-61187009D01*
X148705219Y-61187009D02*
X148848076Y-61091771D01*
X148848076Y-61091771D02*
X148943314Y-60996533D01*
X148943314Y-60996533D02*
X148990933Y-60901295D01*
X149038552Y-62329866D02*
X149705219Y-62329866D01*
X148657600Y-62091771D02*
X149371885Y-61853676D01*
X149371885Y-61853676D02*
X149371885Y-62472723D01*
X138291866Y-54657419D02*
X138625199Y-54181228D01*
X138863294Y-54657419D02*
X138863294Y-53657419D01*
X138863294Y-53657419D02*
X138482342Y-53657419D01*
X138482342Y-53657419D02*
X138387104Y-53705038D01*
X138387104Y-53705038D02*
X138339485Y-53752657D01*
X138339485Y-53752657D02*
X138291866Y-53847895D01*
X138291866Y-53847895D02*
X138291866Y-53990752D01*
X138291866Y-53990752D02*
X138339485Y-54085990D01*
X138339485Y-54085990D02*
X138387104Y-54133609D01*
X138387104Y-54133609D02*
X138482342Y-54181228D01*
X138482342Y-54181228D02*
X138863294Y-54181228D01*
X137720437Y-54085990D02*
X137815675Y-54038371D01*
X137815675Y-54038371D02*
X137863294Y-53990752D01*
X137863294Y-53990752D02*
X137910913Y-53895514D01*
X137910913Y-53895514D02*
X137910913Y-53847895D01*
X137910913Y-53847895D02*
X137863294Y-53752657D01*
X137863294Y-53752657D02*
X137815675Y-53705038D01*
X137815675Y-53705038D02*
X137720437Y-53657419D01*
X137720437Y-53657419D02*
X137529961Y-53657419D01*
X137529961Y-53657419D02*
X137434723Y-53705038D01*
X137434723Y-53705038D02*
X137387104Y-53752657D01*
X137387104Y-53752657D02*
X137339485Y-53847895D01*
X137339485Y-53847895D02*
X137339485Y-53895514D01*
X137339485Y-53895514D02*
X137387104Y-53990752D01*
X137387104Y-53990752D02*
X137434723Y-54038371D01*
X137434723Y-54038371D02*
X137529961Y-54085990D01*
X137529961Y-54085990D02*
X137720437Y-54085990D01*
X137720437Y-54085990D02*
X137815675Y-54133609D01*
X137815675Y-54133609D02*
X137863294Y-54181228D01*
X137863294Y-54181228D02*
X137910913Y-54276466D01*
X137910913Y-54276466D02*
X137910913Y-54466942D01*
X137910913Y-54466942D02*
X137863294Y-54562180D01*
X137863294Y-54562180D02*
X137815675Y-54609800D01*
X137815675Y-54609800D02*
X137720437Y-54657419D01*
X137720437Y-54657419D02*
X137529961Y-54657419D01*
X137529961Y-54657419D02*
X137434723Y-54609800D01*
X137434723Y-54609800D02*
X137387104Y-54562180D01*
X137387104Y-54562180D02*
X137339485Y-54466942D01*
X137339485Y-54466942D02*
X137339485Y-54276466D01*
X137339485Y-54276466D02*
X137387104Y-54181228D01*
X137387104Y-54181228D02*
X137434723Y-54133609D01*
X137434723Y-54133609D02*
X137529961Y-54085990D01*
X68425219Y-60031333D02*
X67949028Y-59698000D01*
X68425219Y-59459905D02*
X67425219Y-59459905D01*
X67425219Y-59459905D02*
X67425219Y-59840857D01*
X67425219Y-59840857D02*
X67472838Y-59936095D01*
X67472838Y-59936095D02*
X67520457Y-59983714D01*
X67520457Y-59983714D02*
X67615695Y-60031333D01*
X67615695Y-60031333D02*
X67758552Y-60031333D01*
X67758552Y-60031333D02*
X67853790Y-59983714D01*
X67853790Y-59983714D02*
X67901409Y-59936095D01*
X67901409Y-59936095D02*
X67949028Y-59840857D01*
X67949028Y-59840857D02*
X67949028Y-59459905D01*
X68425219Y-60983714D02*
X68425219Y-60412286D01*
X68425219Y-60698000D02*
X67425219Y-60698000D01*
X67425219Y-60698000D02*
X67568076Y-60602762D01*
X67568076Y-60602762D02*
X67663314Y-60507524D01*
X67663314Y-60507524D02*
X67710933Y-60412286D01*
X65511466Y-62837219D02*
X65844799Y-62361028D01*
X66082894Y-62837219D02*
X66082894Y-61837219D01*
X66082894Y-61837219D02*
X65701942Y-61837219D01*
X65701942Y-61837219D02*
X65606704Y-61884838D01*
X65606704Y-61884838D02*
X65559085Y-61932457D01*
X65559085Y-61932457D02*
X65511466Y-62027695D01*
X65511466Y-62027695D02*
X65511466Y-62170552D01*
X65511466Y-62170552D02*
X65559085Y-62265790D01*
X65559085Y-62265790D02*
X65606704Y-62313409D01*
X65606704Y-62313409D02*
X65701942Y-62361028D01*
X65701942Y-62361028D02*
X66082894Y-62361028D01*
X65130513Y-61932457D02*
X65082894Y-61884838D01*
X65082894Y-61884838D02*
X64987656Y-61837219D01*
X64987656Y-61837219D02*
X64749561Y-61837219D01*
X64749561Y-61837219D02*
X64654323Y-61884838D01*
X64654323Y-61884838D02*
X64606704Y-61932457D01*
X64606704Y-61932457D02*
X64559085Y-62027695D01*
X64559085Y-62027695D02*
X64559085Y-62122933D01*
X64559085Y-62122933D02*
X64606704Y-62265790D01*
X64606704Y-62265790D02*
X65178132Y-62837219D01*
X65178132Y-62837219D02*
X64559085Y-62837219D01*
D11*
X142247862Y-45252918D02*
X142247862Y-43982918D01*
X140917385Y-45131965D02*
X140977861Y-45192442D01*
X140977861Y-45192442D02*
X141159290Y-45252918D01*
X141159290Y-45252918D02*
X141280242Y-45252918D01*
X141280242Y-45252918D02*
X141461671Y-45192442D01*
X141461671Y-45192442D02*
X141582623Y-45071489D01*
X141582623Y-45071489D02*
X141643100Y-44950537D01*
X141643100Y-44950537D02*
X141703576Y-44708632D01*
X141703576Y-44708632D02*
X141703576Y-44527203D01*
X141703576Y-44527203D02*
X141643100Y-44285299D01*
X141643100Y-44285299D02*
X141582623Y-44164346D01*
X141582623Y-44164346D02*
X141461671Y-44043394D01*
X141461671Y-44043394D02*
X141280242Y-43982918D01*
X141280242Y-43982918D02*
X141159290Y-43982918D01*
X141159290Y-43982918D02*
X140977861Y-44043394D01*
X140977861Y-44043394D02*
X140917385Y-44103870D01*
X139707861Y-45252918D02*
X140433576Y-45252918D01*
X140070719Y-45252918D02*
X140070719Y-43982918D01*
X140070719Y-43982918D02*
X140191671Y-44164346D01*
X140191671Y-44164346D02*
X140312623Y-44285299D01*
X140312623Y-44285299D02*
X140433576Y-44345775D01*
D10*
X73382566Y-28607980D02*
X73430185Y-28655600D01*
X73430185Y-28655600D02*
X73573042Y-28703219D01*
X73573042Y-28703219D02*
X73668280Y-28703219D01*
X73668280Y-28703219D02*
X73811137Y-28655600D01*
X73811137Y-28655600D02*
X73906375Y-28560361D01*
X73906375Y-28560361D02*
X73953994Y-28465123D01*
X73953994Y-28465123D02*
X74001613Y-28274647D01*
X74001613Y-28274647D02*
X74001613Y-28131790D01*
X74001613Y-28131790D02*
X73953994Y-27941314D01*
X73953994Y-27941314D02*
X73906375Y-27846076D01*
X73906375Y-27846076D02*
X73811137Y-27750838D01*
X73811137Y-27750838D02*
X73668280Y-27703219D01*
X73668280Y-27703219D02*
X73573042Y-27703219D01*
X73573042Y-27703219D02*
X73430185Y-27750838D01*
X73430185Y-27750838D02*
X73382566Y-27798457D01*
X73049232Y-27703219D02*
X72382566Y-27703219D01*
X72382566Y-27703219D02*
X72811137Y-28703219D01*
X77604580Y-81141242D02*
X77652200Y-81093623D01*
X77652200Y-81093623D02*
X77699819Y-80950766D01*
X77699819Y-80950766D02*
X77699819Y-80855528D01*
X77699819Y-80855528D02*
X77652200Y-80712671D01*
X77652200Y-80712671D02*
X77556961Y-80617433D01*
X77556961Y-80617433D02*
X77461723Y-80569814D01*
X77461723Y-80569814D02*
X77271247Y-80522195D01*
X77271247Y-80522195D02*
X77128390Y-80522195D01*
X77128390Y-80522195D02*
X76937914Y-80569814D01*
X76937914Y-80569814D02*
X76842676Y-80617433D01*
X76842676Y-80617433D02*
X76747438Y-80712671D01*
X76747438Y-80712671D02*
X76699819Y-80855528D01*
X76699819Y-80855528D02*
X76699819Y-80950766D01*
X76699819Y-80950766D02*
X76747438Y-81093623D01*
X76747438Y-81093623D02*
X76795057Y-81141242D01*
X77699819Y-82093623D02*
X77699819Y-81522195D01*
X77699819Y-81807909D02*
X76699819Y-81807909D01*
X76699819Y-81807909D02*
X76842676Y-81712671D01*
X76842676Y-81712671D02*
X76937914Y-81617433D01*
X76937914Y-81617433D02*
X76985533Y-81522195D01*
X77699819Y-83046004D02*
X77699819Y-82474576D01*
X77699819Y-82760290D02*
X76699819Y-82760290D01*
X76699819Y-82760290D02*
X76842676Y-82665052D01*
X76842676Y-82665052D02*
X76937914Y-82569814D01*
X76937914Y-82569814D02*
X76985533Y-82474576D01*
X112131057Y-75492780D02*
X112178676Y-75540400D01*
X112178676Y-75540400D02*
X112321533Y-75588019D01*
X112321533Y-75588019D02*
X112416771Y-75588019D01*
X112416771Y-75588019D02*
X112559628Y-75540400D01*
X112559628Y-75540400D02*
X112654866Y-75445161D01*
X112654866Y-75445161D02*
X112702485Y-75349923D01*
X112702485Y-75349923D02*
X112750104Y-75159447D01*
X112750104Y-75159447D02*
X112750104Y-75016590D01*
X112750104Y-75016590D02*
X112702485Y-74826114D01*
X112702485Y-74826114D02*
X112654866Y-74730876D01*
X112654866Y-74730876D02*
X112559628Y-74635638D01*
X112559628Y-74635638D02*
X112416771Y-74588019D01*
X112416771Y-74588019D02*
X112321533Y-74588019D01*
X112321533Y-74588019D02*
X112178676Y-74635638D01*
X112178676Y-74635638D02*
X112131057Y-74683257D01*
X111178676Y-75588019D02*
X111750104Y-75588019D01*
X111464390Y-75588019D02*
X111464390Y-74588019D01*
X111464390Y-74588019D02*
X111559628Y-74730876D01*
X111559628Y-74730876D02*
X111654866Y-74826114D01*
X111654866Y-74826114D02*
X111750104Y-74873733D01*
X110559628Y-74588019D02*
X110464390Y-74588019D01*
X110464390Y-74588019D02*
X110369152Y-74635638D01*
X110369152Y-74635638D02*
X110321533Y-74683257D01*
X110321533Y-74683257D02*
X110273914Y-74778495D01*
X110273914Y-74778495D02*
X110226295Y-74968971D01*
X110226295Y-74968971D02*
X110226295Y-75207066D01*
X110226295Y-75207066D02*
X110273914Y-75397542D01*
X110273914Y-75397542D02*
X110321533Y-75492780D01*
X110321533Y-75492780D02*
X110369152Y-75540400D01*
X110369152Y-75540400D02*
X110464390Y-75588019D01*
X110464390Y-75588019D02*
X110559628Y-75588019D01*
X110559628Y-75588019D02*
X110654866Y-75540400D01*
X110654866Y-75540400D02*
X110702485Y-75492780D01*
X110702485Y-75492780D02*
X110750104Y-75397542D01*
X110750104Y-75397542D02*
X110797723Y-75207066D01*
X110797723Y-75207066D02*
X110797723Y-74968971D01*
X110797723Y-74968971D02*
X110750104Y-74778495D01*
X110750104Y-74778495D02*
X110702485Y-74683257D01*
X110702485Y-74683257D02*
X110654866Y-74635638D01*
X110654866Y-74635638D02*
X110559628Y-74588019D01*
D11*
X123815718Y-48569637D02*
X122545718Y-48569637D01*
X123694765Y-49900114D02*
X123755242Y-49839638D01*
X123755242Y-49839638D02*
X123815718Y-49658209D01*
X123815718Y-49658209D02*
X123815718Y-49537257D01*
X123815718Y-49537257D02*
X123755242Y-49355828D01*
X123755242Y-49355828D02*
X123634289Y-49234876D01*
X123634289Y-49234876D02*
X123513337Y-49174399D01*
X123513337Y-49174399D02*
X123271432Y-49113923D01*
X123271432Y-49113923D02*
X123090003Y-49113923D01*
X123090003Y-49113923D02*
X122848099Y-49174399D01*
X122848099Y-49174399D02*
X122727146Y-49234876D01*
X122727146Y-49234876D02*
X122606194Y-49355828D01*
X122606194Y-49355828D02*
X122545718Y-49537257D01*
X122545718Y-49537257D02*
X122545718Y-49658209D01*
X122545718Y-49658209D02*
X122606194Y-49839638D01*
X122606194Y-49839638D02*
X122666670Y-49900114D01*
X122666670Y-50383923D02*
X122606194Y-50444399D01*
X122606194Y-50444399D02*
X122545718Y-50565352D01*
X122545718Y-50565352D02*
X122545718Y-50867733D01*
X122545718Y-50867733D02*
X122606194Y-50988685D01*
X122606194Y-50988685D02*
X122666670Y-51049161D01*
X122666670Y-51049161D02*
X122787622Y-51109638D01*
X122787622Y-51109638D02*
X122908575Y-51109638D01*
X122908575Y-51109638D02*
X123090003Y-51049161D01*
X123090003Y-51049161D02*
X123815718Y-50323447D01*
X123815718Y-50323447D02*
X123815718Y-51109638D01*
D10*
X144757166Y-35941380D02*
X144804785Y-35989000D01*
X144804785Y-35989000D02*
X144947642Y-36036619D01*
X144947642Y-36036619D02*
X145042880Y-36036619D01*
X145042880Y-36036619D02*
X145185737Y-35989000D01*
X145185737Y-35989000D02*
X145280975Y-35893761D01*
X145280975Y-35893761D02*
X145328594Y-35798523D01*
X145328594Y-35798523D02*
X145376213Y-35608047D01*
X145376213Y-35608047D02*
X145376213Y-35465190D01*
X145376213Y-35465190D02*
X145328594Y-35274714D01*
X145328594Y-35274714D02*
X145280975Y-35179476D01*
X145280975Y-35179476D02*
X145185737Y-35084238D01*
X145185737Y-35084238D02*
X145042880Y-35036619D01*
X145042880Y-35036619D02*
X144947642Y-35036619D01*
X144947642Y-35036619D02*
X144804785Y-35084238D01*
X144804785Y-35084238D02*
X144757166Y-35131857D01*
X144185737Y-35465190D02*
X144280975Y-35417571D01*
X144280975Y-35417571D02*
X144328594Y-35369952D01*
X144328594Y-35369952D02*
X144376213Y-35274714D01*
X144376213Y-35274714D02*
X144376213Y-35227095D01*
X144376213Y-35227095D02*
X144328594Y-35131857D01*
X144328594Y-35131857D02*
X144280975Y-35084238D01*
X144280975Y-35084238D02*
X144185737Y-35036619D01*
X144185737Y-35036619D02*
X143995261Y-35036619D01*
X143995261Y-35036619D02*
X143900023Y-35084238D01*
X143900023Y-35084238D02*
X143852404Y-35131857D01*
X143852404Y-35131857D02*
X143804785Y-35227095D01*
X143804785Y-35227095D02*
X143804785Y-35274714D01*
X143804785Y-35274714D02*
X143852404Y-35369952D01*
X143852404Y-35369952D02*
X143900023Y-35417571D01*
X143900023Y-35417571D02*
X143995261Y-35465190D01*
X143995261Y-35465190D02*
X144185737Y-35465190D01*
X144185737Y-35465190D02*
X144280975Y-35512809D01*
X144280975Y-35512809D02*
X144328594Y-35560428D01*
X144328594Y-35560428D02*
X144376213Y-35655666D01*
X144376213Y-35655666D02*
X144376213Y-35846142D01*
X144376213Y-35846142D02*
X144328594Y-35941380D01*
X144328594Y-35941380D02*
X144280975Y-35989000D01*
X144280975Y-35989000D02*
X144185737Y-36036619D01*
X144185737Y-36036619D02*
X143995261Y-36036619D01*
X143995261Y-36036619D02*
X143900023Y-35989000D01*
X143900023Y-35989000D02*
X143852404Y-35941380D01*
X143852404Y-35941380D02*
X143804785Y-35846142D01*
X143804785Y-35846142D02*
X143804785Y-35655666D01*
X143804785Y-35655666D02*
X143852404Y-35560428D01*
X143852404Y-35560428D02*
X143900023Y-35512809D01*
X143900023Y-35512809D02*
X143995261Y-35465190D01*
D12*
X130506736Y-35815600D02*
X130960864Y-35815600D01*
X130506736Y-37285600D02*
X130960864Y-37285600D01*
X59040752Y-58951800D02*
X58518248Y-58951800D01*
X59040752Y-57481800D02*
X58518248Y-57481800D01*
D13*
X130142800Y-53366800D02*
X131242800Y-53366800D01*
X131592800Y-50416800D02*
X131592800Y-53316800D01*
X131592800Y-53316800D02*
X131992800Y-53316800D01*
X131992800Y-50416800D02*
X131592800Y-50416800D01*
X131992800Y-53316800D02*
X131992800Y-50416800D01*
D12*
X119376648Y-56846800D02*
X119899152Y-56846800D01*
X119376648Y-58316800D02*
X119899152Y-58316800D01*
X126595136Y-41479800D02*
X127049264Y-41479800D01*
X126595136Y-42949800D02*
X127049264Y-42949800D01*
X155643700Y-43872500D02*
X154856200Y-43872500D01*
X155249950Y-43478750D02*
X155249950Y-44266250D01*
X154616200Y-48065563D02*
X154616200Y-46780000D01*
X154616200Y-48065563D02*
X153551763Y-49130000D01*
X154616200Y-43374437D02*
X154616200Y-44660000D01*
X154616200Y-43374437D02*
X153551763Y-42310000D01*
X153551763Y-49130000D02*
X147796200Y-49130000D01*
X153551763Y-42310000D02*
X147796200Y-42310000D01*
X147796200Y-49130000D02*
X147796200Y-46780000D01*
X147796200Y-42310000D02*
X147796200Y-44660000D01*
X72153900Y-76841700D02*
X71366400Y-76841700D01*
X71760150Y-76447950D02*
X71760150Y-77235450D01*
X71126400Y-81034763D02*
X71126400Y-79749200D01*
X71126400Y-81034763D02*
X70061963Y-82099200D01*
X71126400Y-76343637D02*
X71126400Y-77629200D01*
X71126400Y-76343637D02*
X70061963Y-75279200D01*
X70061963Y-82099200D02*
X64306400Y-82099200D01*
X70061963Y-75279200D02*
X64306400Y-75279200D01*
X64306400Y-82099200D02*
X64306400Y-79749200D01*
X64306400Y-75279200D02*
X64306400Y-77629200D01*
X96664900Y-76841700D02*
X95877400Y-76841700D01*
X96271150Y-76447950D02*
X96271150Y-77235450D01*
X95637400Y-81034763D02*
X95637400Y-79749200D01*
X95637400Y-81034763D02*
X94572963Y-82099200D01*
X95637400Y-76343637D02*
X95637400Y-77629200D01*
X95637400Y-76343637D02*
X94572963Y-75279200D01*
X94572963Y-82099200D02*
X88817400Y-82099200D01*
X94572963Y-75279200D02*
X88817400Y-75279200D01*
X88817400Y-82099200D02*
X88817400Y-79749200D01*
X88817400Y-75279200D02*
X88817400Y-77629200D01*
X59044064Y-61491800D02*
X58589936Y-61491800D01*
X59044064Y-60021800D02*
X58589936Y-60021800D01*
X125093464Y-60983800D02*
X124639336Y-60983800D01*
X125093464Y-59513800D02*
X124639336Y-59513800D01*
X124613936Y-56796000D02*
X125068064Y-56796000D01*
X124613936Y-58266000D02*
X125068064Y-58266000D01*
X65593952Y-59002600D02*
X65071448Y-59002600D01*
X65593952Y-57532600D02*
X65071448Y-57532600D01*
X52398600Y-82402648D02*
X52398600Y-82925152D01*
X50928600Y-82402648D02*
X50928600Y-82925152D01*
D13*
X134593600Y-41121200D02*
X133493600Y-41121200D01*
X133143600Y-44071200D02*
X133143600Y-41171200D01*
X133143600Y-41171200D02*
X132743600Y-41171200D01*
X132743600Y-44071200D02*
X133143600Y-44071200D01*
X132743600Y-41171200D02*
X132743600Y-44071200D01*
D12*
X124131400Y-82252452D02*
X124131400Y-81729948D01*
X125601400Y-82252452D02*
X125601400Y-81729948D01*
X99391800Y-82273952D02*
X99391800Y-81751448D01*
X100861800Y-82273952D02*
X100861800Y-81751448D01*
X135735000Y-37949136D02*
X135735000Y-38403264D01*
X134265000Y-37949136D02*
X134265000Y-38403264D01*
X72010600Y-60745864D02*
X72010600Y-60291736D01*
X73480600Y-60745864D02*
X73480600Y-60291736D01*
X152068200Y-60851148D02*
X152068200Y-61373652D01*
X150598200Y-60851148D02*
X150598200Y-61373652D01*
X137898136Y-51817600D02*
X138352264Y-51817600D01*
X137898136Y-53287600D02*
X138352264Y-53287600D01*
X68861000Y-60720464D02*
X68861000Y-60266336D01*
X70331000Y-60720464D02*
X70331000Y-60266336D01*
X65571864Y-61415600D02*
X65117736Y-61415600D01*
X65571864Y-59945600D02*
X65117736Y-59945600D01*
D13*
X144223100Y-50003600D02*
X144223100Y-48153600D01*
X136753100Y-47803600D02*
X145263100Y-47803600D01*
X145263100Y-47803600D02*
X145263100Y-41553600D01*
X136753100Y-41553600D02*
X136753100Y-47803600D01*
X145263100Y-41553600D02*
X136753100Y-41553600D01*
D12*
X72954648Y-25833400D02*
X73477152Y-25833400D01*
X72954648Y-27303400D02*
X73477152Y-27303400D01*
X74855400Y-82273952D02*
X74855400Y-81751448D01*
X76325400Y-82273952D02*
X76325400Y-81751448D01*
X121125100Y-76841700D02*
X120337600Y-76841700D01*
X120731350Y-76447950D02*
X120731350Y-77235450D01*
X120097600Y-81034763D02*
X120097600Y-79749200D01*
X120097600Y-81034763D02*
X119033163Y-82099200D01*
X120097600Y-76343637D02*
X120097600Y-77629200D01*
X120097600Y-76343637D02*
X119033163Y-75279200D01*
X119033163Y-82099200D02*
X113277600Y-82099200D01*
X119033163Y-75279200D02*
X113277600Y-75279200D01*
X113277600Y-82099200D02*
X113277600Y-79749200D01*
X113277600Y-75279200D02*
X113277600Y-77629200D01*
D13*
X120026400Y-44484400D02*
X120026400Y-46334400D01*
X127496400Y-46684400D02*
X118986400Y-46684400D01*
X118986400Y-46684400D02*
X118986400Y-52934400D01*
X127496400Y-52934400D02*
X127496400Y-46684400D01*
X118986400Y-52934400D02*
X127496400Y-52934400D01*
D12*
X144851752Y-37996800D02*
X144329248Y-37996800D01*
X144851752Y-36526800D02*
X144329248Y-36526800D01*
M02*
