G04 #@! TF.GenerationSoftware,KiCad,Pcbnew,7.0.7+dfsg-1*
G04 #@! TF.CreationDate,2024-09-28T12:15:45+02:00*
G04 #@! TF.ProjectId,motion-board-evoII,6d6f7469-6f6e-42d6-926f-6172642d6576,rev?*
G04 #@! TF.SameCoordinates,Original*
G04 #@! TF.FileFunction,Soldermask,Top*
G04 #@! TF.FilePolarity,Negative*
%FSLAX46Y46*%
G04 Gerber Fmt 4.6, Leading zero omitted, Abs format (unit mm)*
G04 Created by KiCad (PCBNEW 7.0.7+dfsg-1) date 2024-09-28 12:15:45*
%MOMM*%
%LPD*%
G01*
G04 APERTURE LIST*
G04 Aperture macros list*
%AMRoundRect*
0 Rectangle with rounded corners*
0 $1 Rounding radius*
0 $2 $3 $4 $5 $6 $7 $8 $9 X,Y pos of 4 corners*
0 Add a 4 corners polygon primitive as box body*
4,1,4,$2,$3,$4,$5,$6,$7,$8,$9,$2,$3,0*
0 Add four circle primitives for the rounded corners*
1,1,$1+$1,$2,$3*
1,1,$1+$1,$4,$5*
1,1,$1+$1,$6,$7*
1,1,$1+$1,$8,$9*
0 Add four rect primitives between the rounded corners*
20,1,$1+$1,$2,$3,$4,$5,0*
20,1,$1+$1,$4,$5,$6,$7,0*
20,1,$1+$1,$6,$7,$8,$9,0*
20,1,$1+$1,$8,$9,$2,$3,0*%
G04 Aperture macros list end*
%ADD10RoundRect,0.250000X-0.337500X-0.475000X0.337500X-0.475000X0.337500X0.475000X-0.337500X0.475000X0*%
%ADD11R,1.700000X1.700000*%
%ADD12O,1.700000X1.700000*%
%ADD13R,1.508000X1.508000*%
%ADD14C,1.508000*%
%ADD15C,0.800000*%
%ADD16C,6.400000*%
%ADD17RoundRect,0.250000X0.550000X-1.500000X0.550000X1.500000X-0.550000X1.500000X-0.550000X-1.500000X0*%
%ADD18RoundRect,0.250000X0.350000X0.450000X-0.350000X0.450000X-0.350000X-0.450000X0.350000X-0.450000X0*%
%ADD19RoundRect,0.250000X-0.750000X0.600000X-0.750000X-0.600000X0.750000X-0.600000X0.750000X0.600000X0*%
%ADD20O,2.000000X1.700000*%
%ADD21RoundRect,0.250000X1.500000X0.550000X-1.500000X0.550000X-1.500000X-0.550000X1.500000X-0.550000X0*%
%ADD22RoundRect,0.250000X-0.350000X-0.450000X0.350000X-0.450000X0.350000X0.450000X-0.350000X0.450000X0*%
%ADD23RoundRect,0.250000X-0.412500X-1.100000X0.412500X-1.100000X0.412500X1.100000X-0.412500X1.100000X0*%
%ADD24RoundRect,0.250000X0.475000X-0.337500X0.475000X0.337500X-0.475000X0.337500X-0.475000X-0.337500X0*%
%ADD25R,2.600000X2.600000*%
%ADD26C,2.600000*%
%ADD27RoundRect,0.250000X-0.450000X0.325000X-0.450000X-0.325000X0.450000X-0.325000X0.450000X0.325000X0*%
%ADD28RoundRect,0.250000X-0.600000X-0.725000X0.600000X-0.725000X0.600000X0.725000X-0.600000X0.725000X0*%
%ADD29O,1.700000X1.950000*%
%ADD30RoundRect,0.250000X-1.500000X-0.650000X1.500000X-0.650000X1.500000X0.650000X-1.500000X0.650000X0*%
%ADD31RoundRect,0.250000X-0.725000X0.600000X-0.725000X-0.600000X0.725000X-0.600000X0.725000X0.600000X0*%
%ADD32O,1.950000X1.700000*%
%ADD33RoundRect,0.250000X1.500000X0.650000X-1.500000X0.650000X-1.500000X-0.650000X1.500000X-0.650000X0*%
%ADD34R,1.800000X1.800000*%
%ADD35C,1.800000*%
%ADD36R,1.850000X1.900000*%
%ADD37R,0.600000X1.250000*%
%ADD38RoundRect,0.250000X-0.475000X0.337500X-0.475000X-0.337500X0.475000X-0.337500X0.475000X0.337500X0*%
%ADD39RoundRect,0.250000X0.600000X0.750000X-0.600000X0.750000X-0.600000X-0.750000X0.600000X-0.750000X0*%
%ADD40O,1.700000X2.000000*%
G04 APERTURE END LIST*
D10*
X144305200Y-43510200D03*
X146380200Y-43510200D03*
D11*
X105791000Y-42570400D03*
D12*
X105791000Y-40030400D03*
X103251000Y-42570400D03*
X103251000Y-40030400D03*
X100711000Y-42570400D03*
X100711000Y-40030400D03*
X98171000Y-42570400D03*
X98171000Y-40030400D03*
X95631000Y-42570400D03*
X95631000Y-40030400D03*
X93091000Y-42570400D03*
X93091000Y-40030400D03*
X90551000Y-42570400D03*
X90551000Y-40030400D03*
X88011000Y-42570400D03*
X88011000Y-40030400D03*
X85471000Y-42570400D03*
X85471000Y-40030400D03*
X82931000Y-42570400D03*
X82931000Y-40030400D03*
X80391000Y-42570400D03*
X80391000Y-40030400D03*
X77851000Y-42570400D03*
X77851000Y-40030400D03*
X75311000Y-42570400D03*
X75311000Y-40030400D03*
X72771000Y-42570400D03*
X72771000Y-40030400D03*
X70231000Y-42570400D03*
X70231000Y-40030400D03*
X67691000Y-42570400D03*
X67691000Y-40030400D03*
X65151000Y-42570400D03*
X65151000Y-40030400D03*
X62611000Y-42570400D03*
X62611000Y-40030400D03*
X60071000Y-42570400D03*
X60071000Y-40030400D03*
D13*
X154225400Y-77354400D03*
D14*
X154225400Y-74814400D03*
X154225400Y-72274400D03*
X154225400Y-69734400D03*
X154225400Y-67194400D03*
X154225400Y-64654400D03*
X154225400Y-62114400D03*
X154225400Y-59574400D03*
X141525400Y-77354400D03*
X141525400Y-74814400D03*
X141525400Y-72274400D03*
X141525400Y-69734400D03*
X141525400Y-67194400D03*
X141525400Y-64654400D03*
X141525400Y-62114400D03*
X141525400Y-59574400D03*
D15*
X47718000Y-93298000D03*
X48420944Y-91600944D03*
X48420944Y-94995056D03*
X50118000Y-90898000D03*
D16*
X50118000Y-93298000D03*
D15*
X50118000Y-95698000D03*
X51815056Y-91600944D03*
X51815056Y-94995056D03*
X52518000Y-93298000D03*
D17*
X60299600Y-34196000D03*
X60299600Y-28796000D03*
D10*
X161674900Y-36169600D03*
X163749900Y-36169600D03*
D18*
X124469400Y-94157800D03*
X122469400Y-94157800D03*
D19*
X164236400Y-52197000D03*
D20*
X164236400Y-54697000D03*
D21*
X128531600Y-64058800D03*
X123131600Y-64058800D03*
D22*
X154346400Y-29133800D03*
X156346400Y-29133800D03*
D19*
X48514000Y-65938400D03*
D20*
X48514000Y-68438400D03*
D23*
X143229800Y-47574200D03*
X146354800Y-47574200D03*
D15*
X134713000Y-93298000D03*
X135415944Y-91600944D03*
X135415944Y-94995056D03*
X137113000Y-90898000D03*
D16*
X137113000Y-93298000D03*
D15*
X137113000Y-95698000D03*
X138810056Y-91600944D03*
X138810056Y-94995056D03*
X139513000Y-93298000D03*
D24*
X75590400Y-80060800D03*
X75590400Y-77985800D03*
D25*
X80598000Y-93726000D03*
D26*
X85598000Y-93726000D03*
X90598000Y-93726000D03*
X95598000Y-93726000D03*
D13*
X79177000Y-85030000D03*
D14*
X81717000Y-85030000D03*
X84257000Y-85030000D03*
X86797000Y-85030000D03*
X89337000Y-85030000D03*
X91877000Y-85030000D03*
X94417000Y-85030000D03*
X96957000Y-85030000D03*
X79177000Y-72330000D03*
X81717000Y-72330000D03*
X84257000Y-72330000D03*
X86797000Y-72330000D03*
X89337000Y-72330000D03*
X91877000Y-72330000D03*
X94417000Y-72330000D03*
X96957000Y-72330000D03*
D27*
X122478800Y-89484200D03*
X122478800Y-91534200D03*
D24*
X100076000Y-80056900D03*
X100076000Y-77981900D03*
D28*
X108500000Y-31130000D03*
D29*
X111000000Y-31130000D03*
X113500000Y-31130000D03*
X116000000Y-31130000D03*
D30*
X156808800Y-95046800D03*
X161808800Y-95046800D03*
D19*
X48514000Y-48869600D03*
D20*
X48514000Y-51369600D03*
D11*
X132588000Y-66294000D03*
D12*
X135128000Y-66294000D03*
D31*
X48514000Y-37846000D03*
D32*
X48514000Y-40346000D03*
X48514000Y-42846000D03*
D33*
X151989307Y-95031780D03*
X146989307Y-95031780D03*
D11*
X60071000Y-65430400D03*
D12*
X62611000Y-65430400D03*
X65151000Y-65430400D03*
X67691000Y-65430400D03*
X70231000Y-65430400D03*
X72771000Y-65430400D03*
X75311000Y-65430400D03*
X77851000Y-65430400D03*
X80391000Y-65430400D03*
X82931000Y-65430400D03*
X85471000Y-65430400D03*
X88011000Y-65430400D03*
X90551000Y-65430400D03*
X93091000Y-65430400D03*
X95631000Y-65430400D03*
X98171000Y-65430400D03*
X100711000Y-65430400D03*
X103251000Y-65430400D03*
X105791000Y-65430400D03*
D34*
X155143200Y-88844000D03*
D35*
X160143200Y-88844000D03*
X155143200Y-85344000D03*
X160143200Y-85344000D03*
D25*
X59027000Y-93726000D03*
D26*
X64027000Y-93726000D03*
X69027000Y-93726000D03*
X74027000Y-93726000D03*
D36*
X155244800Y-43764200D03*
X155244800Y-48124200D03*
D11*
X108229400Y-79832200D03*
D12*
X108229400Y-77292200D03*
D13*
X103632000Y-85030000D03*
D14*
X106172000Y-85030000D03*
X108712000Y-85030000D03*
X111252000Y-85030000D03*
X113792000Y-85030000D03*
X116332000Y-85030000D03*
X118872000Y-85030000D03*
X121412000Y-85030000D03*
X103632000Y-72330000D03*
X106172000Y-72330000D03*
X108712000Y-72330000D03*
X111252000Y-72330000D03*
X113792000Y-72330000D03*
X116332000Y-72330000D03*
X118872000Y-72330000D03*
X121412000Y-72330000D03*
D11*
X132588000Y-70078600D03*
D12*
X135128000Y-70078600D03*
D28*
X122224800Y-31140400D03*
D29*
X124724800Y-31140400D03*
X127224800Y-31140400D03*
X129724800Y-31140400D03*
D11*
X104419400Y-79832200D03*
D12*
X104419400Y-77292200D03*
D37*
X154377800Y-39308200D03*
X155327800Y-39308200D03*
X156277800Y-39308200D03*
X156277800Y-36808200D03*
X155327800Y-36808200D03*
X154377800Y-36808200D03*
D24*
X124409200Y-80031500D03*
X124409200Y-77956500D03*
D11*
X117348000Y-40182800D03*
D12*
X119888000Y-40182800D03*
D15*
X134840000Y-31068000D03*
X135542944Y-29370944D03*
X135542944Y-32765056D03*
X137240000Y-28668000D03*
D16*
X137240000Y-31068000D03*
D15*
X137240000Y-33468000D03*
X138937056Y-29370944D03*
X138937056Y-32765056D03*
X139640000Y-31068000D03*
X47718000Y-31068000D03*
X48420944Y-29370944D03*
X48420944Y-32765056D03*
X50118000Y-28668000D03*
D16*
X50118000Y-31068000D03*
D15*
X50118000Y-33468000D03*
X51815056Y-29370944D03*
X51815056Y-32765056D03*
X52518000Y-31068000D03*
D11*
X55438200Y-79761000D03*
D12*
X55438200Y-77221000D03*
D22*
X59163200Y-59867800D03*
X61163200Y-59867800D03*
D23*
X160705000Y-32054800D03*
X163830000Y-32054800D03*
D28*
X72325000Y-31138000D03*
D29*
X74825000Y-31138000D03*
X77325000Y-31138000D03*
X79825000Y-31138000D03*
X82325000Y-31138000D03*
X84825000Y-31138000D03*
X87325000Y-31138000D03*
X89825000Y-31138000D03*
X92325000Y-31138000D03*
X94825000Y-31138000D03*
X97325000Y-31138000D03*
X99825000Y-31138000D03*
X102325000Y-31138000D03*
D10*
X152103000Y-80213200D03*
X154178000Y-80213200D03*
D19*
X48514000Y-57378600D03*
D20*
X48514000Y-59878600D03*
D38*
X150418800Y-35784100D03*
X150418800Y-37859100D03*
D39*
X146710400Y-90144600D03*
D40*
X144210400Y-90144600D03*
D13*
X54610000Y-85030000D03*
D14*
X57150000Y-85030000D03*
X59690000Y-85030000D03*
X62230000Y-85030000D03*
X64770000Y-85030000D03*
X67310000Y-85030000D03*
X69850000Y-85030000D03*
X72390000Y-85030000D03*
X54610000Y-72330000D03*
X57150000Y-72330000D03*
X59690000Y-72330000D03*
X62230000Y-72330000D03*
X64770000Y-72330000D03*
X67310000Y-72330000D03*
X69850000Y-72330000D03*
X72390000Y-72330000D03*
D22*
X58817000Y-56108600D03*
X60817000Y-56108600D03*
D11*
X83743800Y-79811800D03*
D12*
X83743800Y-77271800D03*
D25*
X102108000Y-93726000D03*
D26*
X107108000Y-93726000D03*
X112108000Y-93726000D03*
X117108000Y-93726000D03*
D11*
X59258200Y-79761000D03*
D12*
X59258200Y-77221000D03*
D25*
X162080600Y-75971400D03*
D26*
X162080600Y-70971400D03*
X162080600Y-65971400D03*
X162080600Y-60971400D03*
D11*
X79933800Y-79806800D03*
D12*
X79933800Y-77266800D03*
D18*
X156422600Y-32105600D03*
X154422600Y-32105600D03*
M02*
