M48
METRIC,TZ
T1C0.300
T2C0.400
T3C0.500
T4C0.950
T5C1.000
T6C1.200
T7C1.300
T8C3.200
%
G90
G05
T1
X49835Y-62027
X51638Y-49886
X52070Y-45060
X57429Y-50038
X57658Y-47193
X61163Y-50063
X61189Y-47269
X63906Y-51257
X65964Y-53315
X66040Y-48463
X68402Y-55728
X68936Y-51359
X71095Y-48641
X72238Y-54661
X73965Y-51613
X75311Y-37033
X76225Y-47625
X76378Y-58674
X77267Y-54915
X78588Y-27838
X79807Y-46431
X81331Y-56871
X81483Y-60046
X81585Y-53543
X81737Y-34239
X86157Y-27838
X86208Y-53543
X86233Y-60173
X86309Y-56769
X86335Y-34265
X90830Y-60096
X90932Y-53594
X91364Y-34265
X91770Y-56845
X95453Y-60096
X95555Y-53594
X95987Y-27661
X96545Y-56896
X100940Y-60096
X101041Y-53594
X101041Y-56896
X105969Y-56845
X106121Y-60096
X106223Y-53594
X108204Y-41072
X110312Y-60452
X111049Y-56845
X111303Y-53594
X111760Y-47320
X112700Y-37338
X116027Y-56845
X116281Y-53594
X143078Y-54254
X146202Y-51943
X148209Y-35331
X148234Y-37059
X148234Y-38964
X148285Y-40640
X148488Y-32512
X148488Y-33934
X148539Y-31191
X148590Y-55118
X149504Y-41834
X150089Y-43637
X150368Y-31039
X150368Y-32817
X151130Y-52070
X151714Y-33401
X151917Y-31039
X152400Y-55118
X152756Y-32207
X152781Y-38058
X152857Y-39370
X153035Y-34290
X154940Y-52070
X155328Y-35052
X156210Y-55118
X158394Y-33528
X158394Y-35814
X158394Y-37338
X158496Y-30988
X158750Y-52070
X159918Y-36220
X160020Y-55118
X160858Y-42570
X160858Y-46126
X160985Y-48793
X163347Y-44272
X163347Y-47650
T2
X56134Y-29413
X57023Y-34874
X58014Y-28753
X58776Y-33172
X62281Y-28651
X62306Y-33172
X64897Y-27330
X68834Y-23673
X75717Y-73558
X76251Y-23470
X83058Y-23470
X89764Y-23470
X96571Y-23470
X100254Y-73482
X103657Y-23825
X106782Y-23851
X112319Y-23876
X113030Y-61265
X115468Y-61265
X115468Y-63754
X118110Y-61265
X118110Y-63754
X118110Y-66294
X125451Y-74041
X128245Y-39294
X128575Y-76733
X129718Y-79273
X130378Y-55270
X132156Y-58395
X132639Y-55270
X132842Y-77114
X134087Y-45898
X134442Y-58369
X135026Y-49047
X135280Y-77114
X137922Y-77114
X138506Y-45923
X139090Y-56642
X141021Y-45923
X142900Y-34569
X143002Y-32283
X143104Y-29820
X145847Y-23724
X148285Y-26213
X150343Y-23698
X150419Y-39481
X151689Y-26213
X153746Y-23698
X155245Y-41513
X155600Y-26010
X157150Y-23698
X158826Y-26010
X158877Y-28499
X159766Y-40488
X160122Y-24130
X161696Y-26111
X162712Y-40488
X162865Y-24384
X163830Y-29616
X165354Y-38354
X165608Y-36068
X165659Y-28143
X165659Y-33020
X166116Y-41148
X166141Y-30531
T3
X47718Y-31068
X47718Y-93298
X48421Y-29371
X48421Y-32765
X48421Y-91601
X48421Y-94995
X50118Y-28668
X50118Y-33468
X50118Y-90898
X50118Y-95698
X51815Y-29371
X51815Y-32765
X51815Y-91601
X51815Y-94995
X52518Y-31068
X52518Y-93298
X134713Y-93298
X134840Y-31068
X135416Y-91601
X135416Y-94995
X135543Y-29371
X135543Y-32765
X137113Y-90898
X137113Y-95698
X137240Y-28668
X137240Y-33468
X138810Y-91601
X138810Y-94995
X138937Y-29371
X138937Y-32765
X139513Y-93298
X139640Y-31068
T4
X48514Y-37846
X48514Y-40346
X48514Y-42846
X72325Y-31138
X74825Y-31138
X77325Y-31138
X79825Y-31138
X82325Y-31138
X84825Y-31138
X87325Y-31138
X89825Y-31138
X92325Y-31138
X94825Y-31138
X97325Y-31138
X99825Y-31138
X102325Y-31138
X108500Y-31130
X111000Y-31130
X113500Y-31130
X116000Y-31130
X122225Y-31140
X124725Y-31140
X127225Y-31140
X129725Y-31140
T5
X48514Y-48870
X48514Y-51370
X48514Y-57379
X48514Y-59879
X48514Y-65938
X48514Y-68438
X54610Y-72330
X54610Y-85030
X55438Y-77221
X55438Y-79761
X57150Y-72330
X57150Y-85030
X59258Y-77221
X59258Y-79761
X59690Y-72330
X59690Y-85030
X60071Y-40030
X60071Y-42570
X60071Y-65430
X62230Y-72330
X62230Y-85030
X62611Y-40030
X62611Y-42570
X62611Y-65430
X64770Y-72330
X64770Y-85030
X65151Y-40030
X65151Y-42570
X65151Y-65430
X67310Y-72330
X67310Y-85030
X67691Y-40030
X67691Y-42570
X67691Y-65430
X69850Y-72330
X69850Y-85030
X70231Y-40030
X70231Y-42570
X70231Y-65430
X72390Y-72330
X72390Y-85030
X72771Y-40030
X72771Y-42570
X72771Y-65430
X75311Y-40030
X75311Y-42570
X75311Y-65430
X77851Y-40030
X77851Y-42570
X77851Y-65430
X79177Y-72330
X79177Y-85030
X79934Y-77267
X79934Y-79807
X80391Y-40030
X80391Y-42570
X80391Y-65430
X81717Y-72330
X81717Y-85030
X82931Y-40030
X82931Y-42570
X82931Y-65430
X83744Y-77272
X83744Y-79812
X84257Y-72330
X84257Y-85030
X85471Y-40030
X85471Y-42570
X85471Y-65430
X86797Y-72330
X86797Y-85030
X88011Y-40030
X88011Y-42570
X88011Y-65430
X89337Y-72330
X89337Y-85030
X90551Y-40030
X90551Y-42570
X90551Y-65430
X91877Y-72330
X91877Y-85030
X93091Y-40030
X93091Y-42570
X93091Y-65430
X94417Y-72330
X94417Y-85030
X95631Y-40030
X95631Y-42570
X95631Y-65430
X96957Y-72330
X96957Y-85030
X98171Y-40030
X98171Y-42570
X98171Y-65430
X100711Y-40030
X100711Y-42570
X100711Y-65430
X103251Y-40030
X103251Y-42570
X103251Y-65430
X103632Y-72330
X103632Y-85030
X104419Y-77292
X104419Y-79832
X105791Y-40030
X105791Y-42570
X105791Y-65430
X106172Y-72330
X106172Y-85030
X108229Y-77292
X108229Y-79832
X108712Y-72330
X108712Y-85030
X111252Y-72330
X111252Y-85030
X113792Y-72330
X113792Y-85030
X116332Y-72330
X116332Y-85030
X117348Y-40183
X118872Y-72330
X118872Y-85030
X119888Y-40183
X121412Y-72330
X121412Y-85030
X132588Y-66294
X132588Y-70079
X135128Y-66294
X135128Y-70079
X141525Y-59574
X141525Y-62114
X141525Y-64654
X141525Y-67194
X141525Y-69734
X141525Y-72274
X141525Y-74814
X141525Y-77354
X144210Y-90145
X146710Y-90145
X154225Y-59574
X154225Y-62114
X154225Y-64654
X154225Y-67194
X154225Y-69734
X154225Y-72274
X154225Y-74814
X154225Y-77354
X164236Y-52197
X164236Y-54697
T6
X155143Y-85344
X155143Y-88844
X160143Y-85344
X160143Y-88844
T7
X59027Y-93726
X64027Y-93726
X69027Y-93726
X74027Y-93726
X80598Y-93726
X85598Y-93726
X90598Y-93726
X95598Y-93726
X102108Y-93726
X107108Y-93726
X112108Y-93726
X117108Y-93726
X162081Y-60971
X162081Y-65971
X162081Y-70971
X162081Y-75971
T8
X50118Y-31068
X50118Y-93298
X137113Y-93298
X137240Y-31068
T0
M30
