G04 #@! TF.GenerationSoftware,KiCad,Pcbnew,7.0.7+dfsg-1*
G04 #@! TF.CreationDate,2024-09-28T12:15:45+02:00*
G04 #@! TF.ProjectId,motion-board-evoII,6d6f7469-6f6e-42d6-926f-6172642d6576,rev?*
G04 #@! TF.SameCoordinates,Original*
G04 #@! TF.FileFunction,Other,User*
%FSLAX46Y46*%
G04 Gerber Fmt 4.6, Leading zero omitted, Abs format (unit mm)*
G04 Created by KiCad (PCBNEW 7.0.7+dfsg-1) date 2024-09-28 12:15:45*
%MOMM*%
%LPD*%
G01*
G04 APERTURE LIST*
%ADD10C,0.050000*%
%ADD11C,0.100000*%
%ADD12C,0.127000*%
G04 APERTURE END LIST*
D10*
X143462700Y-42530200D02*
X147222700Y-42530200D01*
X143462700Y-44490200D02*
X143462700Y-42530200D01*
X147222700Y-42530200D02*
X147222700Y-44490200D01*
X147222700Y-44490200D02*
X143462700Y-44490200D01*
X107591000Y-38230400D02*
X107591000Y-44330400D01*
X58291000Y-38230400D02*
X107591000Y-38230400D01*
X107591000Y-44330400D02*
X58291000Y-44330400D01*
X58291000Y-44330400D02*
X58291000Y-38230400D01*
X155745400Y-78874400D02*
X140005400Y-78874400D01*
X155745400Y-58054400D02*
X155745400Y-78874400D01*
X140005400Y-78874400D02*
X140005400Y-58054400D01*
X140005400Y-58054400D02*
X155745400Y-58054400D01*
X53568000Y-93298000D02*
G75*
G03*
X53568000Y-93298000I-3450000J0D01*
G01*
X59249600Y-36196000D02*
X61349600Y-36196000D01*
X61349600Y-36196000D02*
X61349600Y-35046000D01*
X57899600Y-35046000D02*
X59249600Y-35046000D01*
X57899600Y-35046000D02*
X56749600Y-33896000D01*
X59249600Y-35046000D02*
X59249600Y-36196000D01*
X61349600Y-35046000D02*
X62699600Y-35046000D01*
X62699600Y-35046000D02*
X63849600Y-33896000D01*
X56749600Y-33896000D02*
X56749600Y-27946000D01*
X63849600Y-33896000D02*
X63849600Y-27946000D01*
X56749600Y-27946000D02*
X59249600Y-27946000D01*
X59249600Y-27946000D02*
X59249600Y-26796000D01*
X61349600Y-27946000D02*
X63849600Y-27946000D01*
X59249600Y-26796000D02*
X61349600Y-26796000D01*
X61349600Y-26796000D02*
X61349600Y-27946000D01*
X160832400Y-35189600D02*
X164592400Y-35189600D01*
X160832400Y-37149600D02*
X160832400Y-35189600D01*
X164592400Y-35189600D02*
X164592400Y-37149600D01*
X164592400Y-37149600D02*
X160832400Y-37149600D01*
X125319400Y-95107800D02*
X121619400Y-95107800D01*
X125319400Y-93207800D02*
X125319400Y-95107800D01*
X121619400Y-95107800D02*
X121619400Y-93207800D01*
X121619400Y-93207800D02*
X125319400Y-93207800D01*
X167086400Y-49247000D02*
X160336400Y-49247000D01*
X160336400Y-49247000D02*
X160336400Y-57647000D01*
X167086400Y-57647000D02*
X167086400Y-49247000D01*
X160336400Y-57647000D02*
X167086400Y-57647000D01*
X130531600Y-65108800D02*
X130531600Y-63008800D01*
X130531600Y-63008800D02*
X129381600Y-63008800D01*
X129381600Y-66458800D02*
X129381600Y-65108800D01*
X129381600Y-66458800D02*
X128231600Y-67608800D01*
X129381600Y-65108800D02*
X130531600Y-65108800D01*
X129381600Y-63008800D02*
X129381600Y-61658800D01*
X129381600Y-61658800D02*
X128231600Y-60508800D01*
X128231600Y-67608800D02*
X122281600Y-67608800D01*
X128231600Y-60508800D02*
X122281600Y-60508800D01*
X122281600Y-67608800D02*
X122281600Y-65108800D01*
X122281600Y-65108800D02*
X121131600Y-65108800D01*
X122281600Y-63008800D02*
X122281600Y-60508800D01*
X121131600Y-65108800D02*
X121131600Y-63008800D01*
X121131600Y-63008800D02*
X122281600Y-63008800D01*
X153496400Y-28183800D02*
X157196400Y-28183800D01*
X153496400Y-30083800D02*
X153496400Y-28183800D01*
X157196400Y-28183800D02*
X157196400Y-30083800D01*
X157196400Y-30083800D02*
X153496400Y-30083800D01*
X51364000Y-62988400D02*
X44614000Y-62988400D01*
X44614000Y-62988400D02*
X44614000Y-71388400D01*
X51364000Y-71388400D02*
X51364000Y-62988400D01*
X44614000Y-71388400D02*
X51364000Y-71388400D01*
X142312300Y-45974200D02*
X147272300Y-45974200D01*
X142312300Y-49174200D02*
X142312300Y-45974200D01*
X147272300Y-45974200D02*
X147272300Y-49174200D01*
X147272300Y-49174200D02*
X142312300Y-49174200D01*
X140563000Y-93298000D02*
G75*
G03*
X140563000Y-93298000I-3450000J0D01*
G01*
X74610400Y-80903300D02*
X74610400Y-77143300D01*
X76570400Y-80903300D02*
X74610400Y-80903300D01*
X74610400Y-77143300D02*
X76570400Y-77143300D01*
X76570400Y-77143300D02*
X76570400Y-80903300D01*
X77598000Y-88016000D02*
X77598000Y-98826000D01*
X77598000Y-98826000D02*
X98598000Y-98826000D01*
X98598000Y-88016000D02*
X77598000Y-88016000D01*
X98598000Y-98826000D02*
X98598000Y-88016000D01*
X77657000Y-86550000D02*
X77657000Y-70810000D01*
X98477000Y-86550000D02*
X77657000Y-86550000D01*
X77657000Y-70810000D02*
X98477000Y-70810000D01*
X98477000Y-70810000D02*
X98477000Y-86550000D01*
X123428800Y-88659200D02*
X123428800Y-92359200D01*
X121528800Y-88659200D02*
X123428800Y-88659200D01*
X123428800Y-92359200D02*
X121528800Y-92359200D01*
X121528800Y-92359200D02*
X121528800Y-88659200D01*
X99096000Y-80899400D02*
X99096000Y-77139400D01*
X101056000Y-80899400D02*
X99096000Y-80899400D01*
X99096000Y-77139400D02*
X101056000Y-77139400D01*
X101056000Y-77139400D02*
X101056000Y-80899400D01*
X105550000Y-28280000D02*
X105550000Y-35030000D01*
X105550000Y-35030000D02*
X118950000Y-35030000D01*
X118950000Y-28280000D02*
X105550000Y-28280000D01*
X118950000Y-35030000D02*
X118950000Y-28280000D01*
X154808800Y-93296800D02*
X163808800Y-93296800D01*
X154808800Y-96796800D02*
X154808800Y-93296800D01*
X163808800Y-93296800D02*
X163808800Y-96796800D01*
X163808800Y-96796800D02*
X154808800Y-96796800D01*
X51364000Y-45919600D02*
X44614000Y-45919600D01*
X44614000Y-45919600D02*
X44614000Y-54319600D01*
X51364000Y-54319600D02*
X51364000Y-45919600D01*
X44614000Y-54319600D02*
X51364000Y-54319600D01*
X130788000Y-68094000D02*
X136938000Y-68094000D01*
X136938000Y-68094000D02*
X136938000Y-64494000D01*
X130788000Y-64494000D02*
X130788000Y-68094000D01*
X136938000Y-64494000D02*
X130788000Y-64494000D01*
X51364000Y-34896000D02*
X44614000Y-34896000D01*
X44614000Y-34896000D02*
X44614000Y-45796000D01*
X51364000Y-45796000D02*
X51364000Y-34896000D01*
X44614000Y-45796000D02*
X51364000Y-45796000D01*
X153989307Y-96781780D02*
X144989307Y-96781780D01*
X153989307Y-93281780D02*
X153989307Y-96781780D01*
X144989307Y-96781780D02*
X144989307Y-93281780D01*
X144989307Y-93281780D02*
X153989307Y-93281780D01*
X58271000Y-67230400D02*
X58271000Y-63680400D01*
X107571000Y-67230400D02*
X58271000Y-67230400D01*
X58271000Y-63680400D02*
X107571000Y-63680400D01*
X107571000Y-63680400D02*
X107571000Y-67230400D01*
D11*
X149993200Y-93034000D02*
X149993200Y-81794000D01*
X168568200Y-93034000D02*
X149993200Y-93034000D01*
X149993200Y-81794000D02*
X168568200Y-81794000D01*
X168568200Y-81794000D02*
X168568200Y-93034000D01*
D10*
X56027000Y-88016000D02*
X56027000Y-98826000D01*
X56027000Y-98826000D02*
X77027000Y-98826000D01*
X77027000Y-88016000D02*
X56027000Y-88016000D01*
X77027000Y-98826000D02*
X77027000Y-88016000D01*
D12*
X159244800Y-42444200D02*
X151244800Y-42444200D01*
X151244800Y-42444200D02*
X151244800Y-49444200D01*
X159244800Y-49444200D02*
X159244800Y-42444200D01*
X151244800Y-49444200D02*
X159244800Y-49444200D01*
D10*
X110029400Y-81632200D02*
X110029400Y-75482200D01*
X110029400Y-75482200D02*
X106429400Y-75482200D01*
X106429400Y-81632200D02*
X110029400Y-81632200D01*
X106429400Y-75482200D02*
X106429400Y-81632200D01*
X102112000Y-86550000D02*
X102112000Y-70810000D01*
X122932000Y-86550000D02*
X102112000Y-86550000D01*
X102112000Y-70810000D02*
X122932000Y-70810000D01*
X122932000Y-70810000D02*
X122932000Y-86550000D01*
X130788000Y-71878600D02*
X136938000Y-71878600D01*
X136938000Y-71878600D02*
X136938000Y-68278600D01*
X130788000Y-68278600D02*
X130788000Y-71878600D01*
X136938000Y-68278600D02*
X130788000Y-68278600D01*
X119274800Y-28290400D02*
X119274800Y-35040400D01*
X119274800Y-35040400D02*
X132674800Y-35040400D01*
X132674800Y-28290400D02*
X119274800Y-28290400D01*
X132674800Y-35040400D02*
X132674800Y-28290400D01*
X106219400Y-81632200D02*
X106219400Y-75482200D01*
X106219400Y-75482200D02*
X102619400Y-75482200D01*
X102619400Y-81632200D02*
X106219400Y-81632200D01*
X102619400Y-75482200D02*
X102619400Y-81632200D01*
X153552800Y-40183200D02*
X153552800Y-35933200D01*
X157102800Y-40183200D02*
X153552800Y-40183200D01*
X153552800Y-35933200D02*
X157102800Y-35933200D01*
X157102800Y-35933200D02*
X157102800Y-40183200D01*
X123429200Y-80874000D02*
X123429200Y-77114000D01*
X125389200Y-80874000D02*
X123429200Y-80874000D01*
X123429200Y-77114000D02*
X125389200Y-77114000D01*
X125389200Y-77114000D02*
X125389200Y-80874000D01*
X115548000Y-41982800D02*
X121698000Y-41982800D01*
X121698000Y-41982800D02*
X121698000Y-38382800D01*
X115548000Y-38382800D02*
X115548000Y-41982800D01*
X121698000Y-38382800D02*
X115548000Y-38382800D01*
X140690000Y-31068000D02*
G75*
G03*
X140690000Y-31068000I-3450000J0D01*
G01*
X53568000Y-31068000D02*
G75*
G03*
X53568000Y-31068000I-3450000J0D01*
G01*
X57238200Y-81561000D02*
X57238200Y-75411000D01*
X57238200Y-75411000D02*
X53638200Y-75411000D01*
X53638200Y-81561000D02*
X57238200Y-81561000D01*
X53638200Y-75411000D02*
X53638200Y-81561000D01*
X58313200Y-58917800D02*
X62013200Y-58917800D01*
X58313200Y-60817800D02*
X58313200Y-58917800D01*
X62013200Y-58917800D02*
X62013200Y-60817800D01*
X62013200Y-60817800D02*
X58313200Y-60817800D01*
X159787500Y-30454800D02*
X164747500Y-30454800D01*
X159787500Y-33654800D02*
X159787500Y-30454800D01*
X164747500Y-30454800D02*
X164747500Y-33654800D01*
X164747500Y-33654800D02*
X159787500Y-33654800D01*
X69375000Y-28288000D02*
X69375000Y-35038000D01*
X69375000Y-35038000D02*
X105275000Y-35038000D01*
X105275000Y-28288000D02*
X69375000Y-28288000D01*
X105275000Y-35038000D02*
X105275000Y-28288000D01*
X151260500Y-79233200D02*
X155020500Y-79233200D01*
X151260500Y-81193200D02*
X151260500Y-79233200D01*
X155020500Y-79233200D02*
X155020500Y-81193200D01*
X155020500Y-81193200D02*
X151260500Y-81193200D01*
X51364000Y-54428600D02*
X44614000Y-54428600D01*
X44614000Y-54428600D02*
X44614000Y-62828600D01*
X51364000Y-62828600D02*
X51364000Y-54428600D01*
X44614000Y-62828600D02*
X51364000Y-62828600D01*
X151398800Y-34941600D02*
X151398800Y-38701600D01*
X149438800Y-34941600D02*
X151398800Y-34941600D01*
X151398800Y-38701600D02*
X149438800Y-38701600D01*
X149438800Y-38701600D02*
X149438800Y-34941600D01*
X149660400Y-92994600D02*
X149660400Y-86244600D01*
X149660400Y-86244600D02*
X141260400Y-86244600D01*
X141260400Y-92994600D02*
X149660400Y-92994600D01*
X141260400Y-86244600D02*
X141260400Y-92994600D01*
X53090000Y-86550000D02*
X53090000Y-70810000D01*
X73910000Y-86550000D02*
X53090000Y-86550000D01*
X53090000Y-70810000D02*
X73910000Y-70810000D01*
X73910000Y-70810000D02*
X73910000Y-86550000D01*
X57967000Y-55158600D02*
X61667000Y-55158600D01*
X57967000Y-57058600D02*
X57967000Y-55158600D01*
X61667000Y-55158600D02*
X61667000Y-57058600D01*
X61667000Y-57058600D02*
X57967000Y-57058600D01*
X85543800Y-81611800D02*
X85543800Y-75461800D01*
X85543800Y-75461800D02*
X81943800Y-75461800D01*
X81943800Y-81611800D02*
X85543800Y-81611800D01*
X81943800Y-75461800D02*
X81943800Y-81611800D01*
X99108000Y-88016000D02*
X99108000Y-98826000D01*
X99108000Y-98826000D02*
X120108000Y-98826000D01*
X120108000Y-88016000D02*
X99108000Y-88016000D01*
X120108000Y-98826000D02*
X120108000Y-88016000D01*
X61058200Y-81561000D02*
X61058200Y-75411000D01*
X61058200Y-75411000D02*
X57458200Y-75411000D01*
X57458200Y-81561000D02*
X61058200Y-81561000D01*
X57458200Y-75411000D02*
X57458200Y-81561000D01*
X156370600Y-78971400D02*
X167180600Y-78971400D01*
X167180600Y-78971400D02*
X167180600Y-57971400D01*
X156370600Y-57971400D02*
X156370600Y-78971400D01*
X167180600Y-57971400D02*
X156370600Y-57971400D01*
X81733800Y-81606800D02*
X81733800Y-75456800D01*
X81733800Y-75456800D02*
X78133800Y-75456800D01*
X78133800Y-81606800D02*
X81733800Y-81606800D01*
X78133800Y-75456800D02*
X78133800Y-81606800D01*
X157272600Y-33055600D02*
X153572600Y-33055600D01*
X157272600Y-31155600D02*
X157272600Y-33055600D01*
X153572600Y-33055600D02*
X153572600Y-31155600D01*
X153572600Y-31155600D02*
X157272600Y-31155600D01*
M02*
