G04 #@! TF.GenerationSoftware,KiCad,Pcbnew,7.0.7+dfsg-1*
G04 #@! TF.CreationDate,2024-09-28T12:23:03+02:00*
G04 #@! TF.ProjectId,evo-cube-pulseboard,65766f2d-6375-4626-952d-70756c736562,rev?*
G04 #@! TF.SameCoordinates,Original*
G04 #@! TF.FileFunction,Paste,Top*
G04 #@! TF.FilePolarity,Positive*
%FSLAX46Y46*%
G04 Gerber Fmt 4.6, Leading zero omitted, Abs format (unit mm)*
G04 Created by KiCad (PCBNEW 7.0.7+dfsg-1) date 2024-09-28 12:23:03*
%MOMM*%
%LPD*%
G01*
G04 APERTURE LIST*
G04 Aperture macros list*
%AMRoundRect*
0 Rectangle with rounded corners*
0 $1 Rounding radius*
0 $2 $3 $4 $5 $6 $7 $8 $9 X,Y pos of 4 corners*
0 Add a 4 corners polygon primitive as box body*
4,1,4,$2,$3,$4,$5,$6,$7,$8,$9,$2,$3,0*
0 Add four circle primitives for the rounded corners*
1,1,$1+$1,$2,$3*
1,1,$1+$1,$4,$5*
1,1,$1+$1,$6,$7*
1,1,$1+$1,$8,$9*
0 Add four rect primitives between the rounded corners*
20,1,$1+$1,$2,$3,$4,$5,0*
20,1,$1+$1,$4,$5,$6,$7,0*
20,1,$1+$1,$6,$7,$8,$9,0*
20,1,$1+$1,$8,$9,$2,$3,0*%
G04 Aperture macros list end*
%ADD10RoundRect,0.249999X0.450001X1.425001X-0.450001X1.425001X-0.450001X-1.425001X0.450001X-1.425001X0*%
%ADD11R,2.100000X1.450000*%
%ADD12RoundRect,0.250000X1.075000X-0.312500X1.075000X0.312500X-1.075000X0.312500X-1.075000X-0.312500X0*%
%ADD13RoundRect,0.250000X0.400000X1.450000X-0.400000X1.450000X-0.400000X-1.450000X0.400000X-1.450000X0*%
%ADD14RoundRect,0.250000X0.450000X-0.350000X0.450000X0.350000X-0.450000X0.350000X-0.450000X-0.350000X0*%
%ADD15RoundRect,0.250000X0.350000X0.450000X-0.350000X0.450000X-0.350000X-0.450000X0.350000X-0.450000X0*%
%ADD16RoundRect,0.250000X-1.500000X-0.650000X1.500000X-0.650000X1.500000X0.650000X-1.500000X0.650000X0*%
%ADD17RoundRect,0.250000X0.337500X0.475000X-0.337500X0.475000X-0.337500X-0.475000X0.337500X-0.475000X0*%
%ADD18RoundRect,0.250000X-0.350000X-0.450000X0.350000X-0.450000X0.350000X0.450000X-0.350000X0.450000X0*%
%ADD19RoundRect,0.250000X0.325000X0.450000X-0.325000X0.450000X-0.325000X-0.450000X0.325000X-0.450000X0*%
G04 #@! TA.AperFunction,Profile*
%ADD20C,0.100000*%
G04 #@! TD*
G04 APERTURE END LIST*
D10*
X63427550Y-59953000D03*
X57327550Y-59953000D03*
D11*
X101578000Y-36017200D03*
X101578000Y-33477200D03*
X101578000Y-30937200D03*
X101578000Y-28397200D03*
X92478000Y-28397200D03*
X92478000Y-30937200D03*
X92478000Y-33477200D03*
X92478000Y-36017200D03*
D12*
X108559600Y-64403700D03*
X108559600Y-61478700D03*
D13*
X52252800Y-100050600D03*
X47802800Y-100050600D03*
D10*
X43644350Y-59315200D03*
X37544350Y-59315200D03*
D14*
X88874600Y-32911800D03*
X88874600Y-30911800D03*
D15*
X110829600Y-46405800D03*
X108829600Y-46405800D03*
D16*
X38487950Y-64065000D03*
X43487950Y-64065000D03*
X58459750Y-64626600D03*
X63459750Y-64626600D03*
D12*
X88947400Y-64389000D03*
X88947400Y-61464000D03*
D16*
X98341150Y-64626600D03*
X103341150Y-64626600D03*
D17*
X88870700Y-35991800D03*
X86795700Y-35991800D03*
D12*
X68289600Y-64414400D03*
X68289600Y-61489400D03*
D16*
X78779750Y-64575800D03*
X83779750Y-64575800D03*
D10*
X83798350Y-59800600D03*
X77698350Y-59800600D03*
D12*
X48742600Y-63842100D03*
X48742600Y-60917100D03*
D18*
X105054400Y-30937200D03*
X107054400Y-30937200D03*
D19*
X115477400Y-46405800D03*
X113427400Y-46405800D03*
D10*
X103461350Y-59800600D03*
X97361350Y-59800600D03*
D20*
X121600000Y-67056000D02*
X121600000Y-117000000D01*
X22600000Y-117000000D02*
X22600000Y-32000000D01*
X29600000Y-25000000D02*
G75*
G03*
X22600000Y-32000000I0J-7000000D01*
G01*
X114600000Y-124000000D02*
G75*
G03*
X121600000Y-117000000I0J7000000D01*
G01*
X29600000Y-25000000D02*
X114600000Y-25000000D01*
X121600000Y-32000000D02*
X121600000Y-67056000D01*
X121600000Y-32000000D02*
G75*
G03*
X114600000Y-25000000I-7000000J0D01*
G01*
X22600000Y-117000000D02*
G75*
G03*
X29600000Y-124000000I7000000J0D01*
G01*
X114600000Y-124000000D02*
X29600000Y-124000000D01*
M02*
