G04 #@! TF.GenerationSoftware,KiCad,Pcbnew,7.0.7+dfsg-1*
G04 #@! TF.CreationDate,2024-09-28T12:23:03+02:00*
G04 #@! TF.ProjectId,evo-cube-pulseboard,65766f2d-6375-4626-952d-70756c736562,rev?*
G04 #@! TF.SameCoordinates,Original*
G04 #@! TF.FileFunction,Soldermask,Bot*
G04 #@! TF.FilePolarity,Negative*
%FSLAX46Y46*%
G04 Gerber Fmt 4.6, Leading zero omitted, Abs format (unit mm)*
G04 Created by KiCad (PCBNEW 7.0.7+dfsg-1) date 2024-09-28 12:23:03*
%MOMM*%
%LPD*%
G01*
G04 APERTURE LIST*
G04 Aperture macros list*
%AMRoundRect*
0 Rectangle with rounded corners*
0 $1 Rounding radius*
0 $2 $3 $4 $5 $6 $7 $8 $9 X,Y pos of 4 corners*
0 Add a 4 corners polygon primitive as box body*
4,1,4,$2,$3,$4,$5,$6,$7,$8,$9,$2,$3,0*
0 Add four circle primitives for the rounded corners*
1,1,$1+$1,$2,$3*
1,1,$1+$1,$4,$5*
1,1,$1+$1,$6,$7*
1,1,$1+$1,$8,$9*
0 Add four rect primitives between the rounded corners*
20,1,$1+$1,$2,$3,$4,$5,0*
20,1,$1+$1,$4,$5,$6,$7,0*
20,1,$1+$1,$6,$7,$8,$9,0*
20,1,$1+$1,$8,$9,$2,$3,0*%
G04 Aperture macros list end*
%ADD10C,1.600000*%
%ADD11RoundRect,0.250000X0.600000X0.750000X-0.600000X0.750000X-0.600000X-0.750000X0.600000X-0.750000X0*%
%ADD12O,1.700000X2.000000*%
%ADD13C,0.800000*%
%ADD14C,6.400000*%
%ADD15C,1.905000*%
%ADD16C,2.400000*%
%ADD17O,2.400000X2.400000*%
%ADD18R,3.300000X3.300000*%
%ADD19C,3.300000*%
%ADD20R,1.600000X1.600000*%
%ADD21R,2.000000X2.000000*%
%ADD22C,2.000000*%
%ADD23R,2.600000X2.600000*%
%ADD24O,2.600000X2.600000*%
%ADD25R,1.980000X1.980000*%
%ADD26C,1.980000*%
%ADD27RoundRect,0.250000X-0.750000X0.600000X-0.750000X-0.600000X0.750000X-0.600000X0.750000X0.600000X0*%
%ADD28O,2.000000X1.700000*%
%ADD29RoundRect,0.250000X0.750000X-0.600000X0.750000X0.600000X-0.750000X0.600000X-0.750000X-0.600000X0*%
%ADD30R,2.400000X2.400000*%
%ADD31R,4.500000X2.500000*%
%ADD32O,4.500000X2.500000*%
%ADD33R,1.217000X1.217000*%
%ADD34C,1.217000*%
%ADD35RoundRect,0.250000X1.400000X2.000000X-1.400000X2.000000X-1.400000X-2.000000X1.400000X-2.000000X0*%
%ADD36RoundRect,0.250000X0.337500X0.475000X-0.337500X0.475000X-0.337500X-0.475000X0.337500X-0.475000X0*%
%ADD37O,3.600000X3.600000*%
%ADD38R,2.500000X4.500000*%
%ADD39O,2.500000X4.500000*%
%ADD40RoundRect,0.250000X-0.412500X-1.100000X0.412500X-1.100000X0.412500X1.100000X-0.412500X1.100000X0*%
%ADD41RoundRect,0.250000X-0.650000X0.412500X-0.650000X-0.412500X0.650000X-0.412500X0.650000X0.412500X0*%
%ADD42RoundRect,0.250000X-0.650000X1.500000X-0.650000X-1.500000X0.650000X-1.500000X0.650000X1.500000X0*%
%ADD43RoundRect,0.250000X1.500000X0.650000X-1.500000X0.650000X-1.500000X-0.650000X1.500000X-0.650000X0*%
%ADD44RoundRect,0.250000X-0.337500X-0.475000X0.337500X-0.475000X0.337500X0.475000X-0.337500X0.475000X0*%
G04 #@! TA.AperFunction,Profile*
%ADD45C,0.100000*%
G04 #@! TD*
G04 APERTURE END LIST*
D10*
X91236800Y-115381400D03*
X91236800Y-120381400D03*
D11*
X40132000Y-35814000D03*
D12*
X37632000Y-35814000D03*
D13*
X27200000Y-117000000D03*
X27902944Y-115302944D03*
X27902944Y-118697056D03*
X29600000Y-114600000D03*
D14*
X29600000Y-117000000D03*
D13*
X29600000Y-119400000D03*
X31297056Y-115302944D03*
X31297056Y-118697056D03*
X32000000Y-117000000D03*
X27200000Y-32000000D03*
X27902944Y-30302944D03*
X27902944Y-33697056D03*
X29600000Y-29600000D03*
D14*
X29600000Y-32000000D03*
D13*
X29600000Y-34400000D03*
X31297056Y-30302944D03*
X31297056Y-33697056D03*
X32000000Y-32000000D03*
D15*
X29464000Y-47498000D03*
X29464000Y-52498000D03*
D16*
X63754000Y-32308800D03*
D17*
X58674000Y-32308800D03*
D18*
X73279000Y-115547766D03*
D19*
X73279000Y-105387766D03*
X83439000Y-115547766D03*
X83439000Y-105387766D03*
D20*
X38912800Y-43738800D03*
D10*
X38912800Y-47238800D03*
D21*
X81768077Y-43637200D03*
D22*
X76768077Y-43637200D03*
D10*
X30882600Y-95478600D03*
X25882600Y-95478600D03*
D23*
X101803200Y-114808000D03*
D24*
X101803200Y-119888000D03*
D23*
X31140400Y-99974400D03*
D24*
X26060400Y-99974400D03*
D25*
X89916000Y-44704000D03*
D26*
X92466000Y-44704000D03*
X95016000Y-44704000D03*
D18*
X49913288Y-115483766D03*
D19*
X49913288Y-105323766D03*
X60073288Y-115483766D03*
X60073288Y-105323766D03*
D27*
X33274000Y-105918000D03*
D28*
X33274000Y-108418000D03*
D16*
X50114200Y-44643800D03*
D17*
X45034200Y-44643800D03*
D11*
X49002000Y-35814000D03*
D12*
X46502000Y-35814000D03*
D23*
X95732600Y-114808000D03*
D24*
X95732600Y-119888000D03*
D29*
X110850000Y-42144000D03*
D28*
X110850000Y-39644000D03*
D13*
X112200000Y-32000000D03*
X112902944Y-30302944D03*
X112902944Y-33697056D03*
X114600000Y-29600000D03*
D14*
X114600000Y-32000000D03*
D13*
X114600000Y-34400000D03*
X116297056Y-30302944D03*
X116297056Y-33697056D03*
X117000000Y-32000000D03*
D20*
X104267000Y-49530000D03*
D10*
X104267000Y-52030000D03*
D30*
X111341872Y-105029000D03*
D16*
X116341872Y-105029000D03*
D31*
X70104000Y-39188800D03*
D32*
X70104000Y-44638800D03*
X70104000Y-50088800D03*
D31*
X56134000Y-39188800D03*
D32*
X56134000Y-44638800D03*
X56134000Y-50088800D03*
D10*
X30897200Y-92303600D03*
X25897200Y-92303600D03*
D33*
X41198800Y-104622600D03*
D34*
X38658800Y-112242600D03*
X41198800Y-117322600D03*
D13*
X112200000Y-117000000D03*
X112902944Y-115302944D03*
X112902944Y-118697056D03*
X114600000Y-114600000D03*
D14*
X114600000Y-117000000D03*
D13*
X114600000Y-119400000D03*
X116297056Y-115302944D03*
X116297056Y-118697056D03*
X117000000Y-117000000D03*
D23*
X107823000Y-114808000D03*
D24*
X107823000Y-119888000D03*
D29*
X110850000Y-53020600D03*
D28*
X110850000Y-50520600D03*
D35*
X66878200Y-110540800D03*
X66878200Y-119340800D03*
D36*
X95885000Y-47744000D03*
X93810000Y-47744000D03*
D37*
X43235950Y-92129200D03*
D38*
X48685950Y-72269200D03*
D39*
X43235950Y-72269200D03*
X37785950Y-72269200D03*
D40*
X61290200Y-44653200D03*
X64415200Y-44653200D03*
D41*
X37363400Y-116027200D03*
X37363400Y-119152200D03*
D42*
X34594800Y-44424600D03*
X34594800Y-49424600D03*
D38*
X80588200Y-31782200D03*
D39*
X75138200Y-31782200D03*
X69688200Y-31782200D03*
D37*
X103041950Y-92230800D03*
D38*
X108491950Y-72370800D03*
D39*
X103041950Y-72370800D03*
X97591950Y-72370800D03*
D37*
X62779550Y-92230800D03*
D38*
X68229550Y-72370800D03*
D39*
X62779550Y-72370800D03*
X57329550Y-72370800D03*
D36*
X40055800Y-32613600D03*
X37980800Y-32613600D03*
D43*
X34554800Y-39395400D03*
X29554800Y-39395400D03*
D44*
X46714500Y-32562800D03*
X48789500Y-32562800D03*
D36*
X89327900Y-47744000D03*
X87252900Y-47744000D03*
D37*
X83455150Y-92180000D03*
D38*
X88905150Y-72320000D03*
D39*
X83455150Y-72320000D03*
X78005150Y-72320000D03*
D45*
X121600000Y-67056000D02*
X121600000Y-117000000D01*
X22600000Y-117000000D02*
X22600000Y-32000000D01*
X29600000Y-25000000D02*
G75*
G03*
X22600000Y-32000000I0J-7000000D01*
G01*
X114600000Y-124000000D02*
G75*
G03*
X121600000Y-117000000I0J7000000D01*
G01*
X29600000Y-25000000D02*
X114600000Y-25000000D01*
X121600000Y-32000000D02*
X121600000Y-67056000D01*
X121600000Y-32000000D02*
G75*
G03*
X114600000Y-25000000I-7000000J0D01*
G01*
X22600000Y-117000000D02*
G75*
G03*
X29600000Y-124000000I7000000J0D01*
G01*
X114600000Y-124000000D02*
X29600000Y-124000000D01*
M02*
