G04 #@! TF.GenerationSoftware,KiCad,Pcbnew,7.0.7+dfsg-1*
G04 #@! TF.CreationDate,2024-09-28T12:23:02+02:00*
G04 #@! TF.ProjectId,evo-cube-pulseboard,65766f2d-6375-4626-952d-70756c736562,rev?*
G04 #@! TF.SameCoordinates,Original*
G04 #@! TF.FileFunction,Copper,L2,Inr*
G04 #@! TF.FilePolarity,Positive*
%FSLAX46Y46*%
G04 Gerber Fmt 4.6, Leading zero omitted, Abs format (unit mm)*
G04 Created by KiCad (PCBNEW 7.0.7+dfsg-1) date 2024-09-28 12:23:02*
%MOMM*%
%LPD*%
G01*
G04 APERTURE LIST*
G04 Aperture macros list*
%AMRoundRect*
0 Rectangle with rounded corners*
0 $1 Rounding radius*
0 $2 $3 $4 $5 $6 $7 $8 $9 X,Y pos of 4 corners*
0 Add a 4 corners polygon primitive as box body*
4,1,4,$2,$3,$4,$5,$6,$7,$8,$9,$2,$3,0*
0 Add four circle primitives for the rounded corners*
1,1,$1+$1,$2,$3*
1,1,$1+$1,$4,$5*
1,1,$1+$1,$6,$7*
1,1,$1+$1,$8,$9*
0 Add four rect primitives between the rounded corners*
20,1,$1+$1,$2,$3,$4,$5,0*
20,1,$1+$1,$4,$5,$6,$7,0*
20,1,$1+$1,$6,$7,$8,$9,0*
20,1,$1+$1,$8,$9,$2,$3,0*%
G04 Aperture macros list end*
G04 #@! TA.AperFunction,ComponentPad*
%ADD10C,1.600000*%
G04 #@! TD*
G04 #@! TA.AperFunction,ComponentPad*
%ADD11RoundRect,0.250000X0.600000X0.750000X-0.600000X0.750000X-0.600000X-0.750000X0.600000X-0.750000X0*%
G04 #@! TD*
G04 #@! TA.AperFunction,ComponentPad*
%ADD12O,1.700000X2.000000*%
G04 #@! TD*
G04 #@! TA.AperFunction,ComponentPad*
%ADD13C,0.800000*%
G04 #@! TD*
G04 #@! TA.AperFunction,ComponentPad*
%ADD14C,6.400000*%
G04 #@! TD*
G04 #@! TA.AperFunction,ComponentPad*
%ADD15C,1.905000*%
G04 #@! TD*
G04 #@! TA.AperFunction,ComponentPad*
%ADD16C,2.400000*%
G04 #@! TD*
G04 #@! TA.AperFunction,ComponentPad*
%ADD17O,2.400000X2.400000*%
G04 #@! TD*
G04 #@! TA.AperFunction,ComponentPad*
%ADD18R,3.300000X3.300000*%
G04 #@! TD*
G04 #@! TA.AperFunction,ComponentPad*
%ADD19C,3.300000*%
G04 #@! TD*
G04 #@! TA.AperFunction,ComponentPad*
%ADD20R,1.600000X1.600000*%
G04 #@! TD*
G04 #@! TA.AperFunction,ComponentPad*
%ADD21R,2.000000X2.000000*%
G04 #@! TD*
G04 #@! TA.AperFunction,ComponentPad*
%ADD22C,2.000000*%
G04 #@! TD*
G04 #@! TA.AperFunction,ComponentPad*
%ADD23R,2.600000X2.600000*%
G04 #@! TD*
G04 #@! TA.AperFunction,ComponentPad*
%ADD24O,2.600000X2.600000*%
G04 #@! TD*
G04 #@! TA.AperFunction,ComponentPad*
%ADD25R,1.980000X1.980000*%
G04 #@! TD*
G04 #@! TA.AperFunction,ComponentPad*
%ADD26C,1.980000*%
G04 #@! TD*
G04 #@! TA.AperFunction,ComponentPad*
%ADD27RoundRect,0.250000X-0.750000X0.600000X-0.750000X-0.600000X0.750000X-0.600000X0.750000X0.600000X0*%
G04 #@! TD*
G04 #@! TA.AperFunction,ComponentPad*
%ADD28O,2.000000X1.700000*%
G04 #@! TD*
G04 #@! TA.AperFunction,ComponentPad*
%ADD29RoundRect,0.250000X0.750000X-0.600000X0.750000X0.600000X-0.750000X0.600000X-0.750000X-0.600000X0*%
G04 #@! TD*
G04 #@! TA.AperFunction,ComponentPad*
%ADD30R,2.400000X2.400000*%
G04 #@! TD*
G04 #@! TA.AperFunction,ComponentPad*
%ADD31R,4.500000X2.500000*%
G04 #@! TD*
G04 #@! TA.AperFunction,ComponentPad*
%ADD32O,4.500000X2.500000*%
G04 #@! TD*
G04 #@! TA.AperFunction,ComponentPad*
%ADD33R,1.217000X1.217000*%
G04 #@! TD*
G04 #@! TA.AperFunction,ComponentPad*
%ADD34C,1.217000*%
G04 #@! TD*
G04 #@! TA.AperFunction,ComponentPad*
%ADD35R,2.500000X4.500000*%
G04 #@! TD*
G04 #@! TA.AperFunction,ComponentPad*
%ADD36O,2.500000X4.500000*%
G04 #@! TD*
G04 #@! TA.AperFunction,ViaPad*
%ADD37C,0.800000*%
G04 #@! TD*
G04 #@! TA.AperFunction,Profile*
%ADD38C,0.100000*%
G04 #@! TD*
G04 APERTURE END LIST*
D10*
X91236800Y-115381400D03*
X91236800Y-120381400D03*
D11*
X40132000Y-35814000D03*
D12*
X37632000Y-35814000D03*
D13*
X27200000Y-117000000D03*
X27902944Y-115302944D03*
X27902944Y-118697056D03*
X29600000Y-114600000D03*
D14*
X29600000Y-117000000D03*
D13*
X29600000Y-119400000D03*
X31297056Y-115302944D03*
X31297056Y-118697056D03*
X32000000Y-117000000D03*
X27200000Y-32000000D03*
X27902944Y-30302944D03*
X27902944Y-33697056D03*
X29600000Y-29600000D03*
D14*
X29600000Y-32000000D03*
D13*
X29600000Y-34400000D03*
X31297056Y-30302944D03*
X31297056Y-33697056D03*
X32000000Y-32000000D03*
D15*
X29464000Y-47498000D03*
X29464000Y-52498000D03*
D16*
X63754000Y-32308800D03*
D17*
X58674000Y-32308800D03*
D18*
X73279000Y-115547766D03*
D19*
X73279000Y-105387766D03*
X83439000Y-115547766D03*
X83439000Y-105387766D03*
D20*
X38912800Y-43738800D03*
D10*
X38912800Y-47238800D03*
D21*
X81768077Y-43637200D03*
D22*
X76768077Y-43637200D03*
D10*
X30882600Y-95478600D03*
X25882600Y-95478600D03*
D23*
X101803200Y-114808000D03*
D24*
X101803200Y-119888000D03*
D23*
X31140400Y-99974400D03*
D24*
X26060400Y-99974400D03*
D25*
X89916000Y-44704000D03*
D26*
X92466000Y-44704000D03*
X95016000Y-44704000D03*
D18*
X49913288Y-115483766D03*
D19*
X49913288Y-105323766D03*
X60073288Y-115483766D03*
X60073288Y-105323766D03*
D27*
X33274000Y-105918000D03*
D28*
X33274000Y-108418000D03*
D16*
X50114200Y-44643800D03*
D17*
X45034200Y-44643800D03*
D11*
X49002000Y-35814000D03*
D12*
X46502000Y-35814000D03*
D23*
X95732600Y-114808000D03*
D24*
X95732600Y-119888000D03*
D29*
X110850000Y-42144000D03*
D28*
X110850000Y-39644000D03*
D13*
X112200000Y-32000000D03*
X112902944Y-30302944D03*
X112902944Y-33697056D03*
X114600000Y-29600000D03*
D14*
X114600000Y-32000000D03*
D13*
X114600000Y-34400000D03*
X116297056Y-30302944D03*
X116297056Y-33697056D03*
X117000000Y-32000000D03*
D20*
X104267000Y-49530000D03*
D10*
X104267000Y-52030000D03*
D30*
X111341872Y-105029000D03*
D16*
X116341872Y-105029000D03*
D31*
X70104000Y-39188800D03*
D32*
X70104000Y-44638800D03*
X70104000Y-50088800D03*
D31*
X56134000Y-39188800D03*
D32*
X56134000Y-44638800D03*
X56134000Y-50088800D03*
D10*
X30897200Y-92303600D03*
X25897200Y-92303600D03*
D33*
X41198800Y-104622600D03*
D34*
X38658800Y-112242600D03*
X41198800Y-117322600D03*
D13*
X112200000Y-117000000D03*
X112902944Y-115302944D03*
X112902944Y-118697056D03*
X114600000Y-114600000D03*
D14*
X114600000Y-117000000D03*
D13*
X114600000Y-119400000D03*
X116297056Y-115302944D03*
X116297056Y-118697056D03*
X117000000Y-117000000D03*
D23*
X107823000Y-114808000D03*
D24*
X107823000Y-119888000D03*
D29*
X110850000Y-53020600D03*
D28*
X110850000Y-50520600D03*
D35*
X48685950Y-72269200D03*
D36*
X43235950Y-72269200D03*
X37785950Y-72269200D03*
D35*
X80588200Y-31782200D03*
D36*
X75138200Y-31782200D03*
X69688200Y-31782200D03*
D35*
X108491950Y-72370800D03*
D36*
X103041950Y-72370800D03*
X97591950Y-72370800D03*
D35*
X68229550Y-72370800D03*
D36*
X62779550Y-72370800D03*
X57329550Y-72370800D03*
D35*
X88905150Y-72320000D03*
D36*
X83455150Y-72320000D03*
X78005150Y-72320000D03*
D37*
X48790000Y-59436000D03*
X109490150Y-94996000D03*
X50088800Y-121259600D03*
X108708600Y-59486800D03*
X100431600Y-52476400D03*
X112445800Y-60807600D03*
X29210000Y-60375800D03*
X103013150Y-80676600D03*
X119024400Y-80772000D03*
X119049800Y-96139000D03*
X119024400Y-76657200D03*
X26009600Y-80010000D03*
X89830550Y-89916000D03*
X58166000Y-28752800D03*
X119024400Y-88392000D03*
X119024400Y-83312000D03*
X106070400Y-27863800D03*
X26136600Y-107162600D03*
X26136600Y-109702600D03*
X63220600Y-28778200D03*
X32308800Y-60375800D03*
X25222200Y-42189400D03*
X26136600Y-104622600D03*
X49469950Y-94996000D03*
X36347400Y-28752800D03*
X118999000Y-61290200D03*
X71958200Y-121310400D03*
X26136600Y-102336600D03*
X25908000Y-62788800D03*
X26009600Y-87630000D03*
X84658200Y-121310400D03*
X62887000Y-85090000D03*
X105384600Y-43230800D03*
X88950800Y-59486800D03*
X45389800Y-28752800D03*
X52628800Y-121259600D03*
X62788800Y-121259600D03*
X77038200Y-121310400D03*
X60706000Y-28752800D03*
X72009000Y-60807600D03*
X118999000Y-66370200D03*
X117881400Y-49580800D03*
X119049800Y-99466400D03*
X38887400Y-28752800D03*
X89830550Y-94996000D03*
X47929800Y-28752800D03*
X119024400Y-74117200D03*
X119024400Y-90932000D03*
X25958800Y-77368400D03*
X25958800Y-72288400D03*
X83556750Y-84359600D03*
X74498200Y-121310400D03*
X26009600Y-82550000D03*
X55626000Y-28752800D03*
X104343200Y-54914800D03*
X117881400Y-54660800D03*
X68926350Y-89941400D03*
X25958800Y-69748400D03*
X119049800Y-112090200D03*
X118999000Y-63830200D03*
X92837000Y-60782200D03*
X82118200Y-121310400D03*
X41427400Y-28752800D03*
X108610400Y-27863800D03*
X25222200Y-39649400D03*
X117856000Y-46964600D03*
X119024400Y-85852000D03*
X49469950Y-89916000D03*
X35382200Y-119811800D03*
X117856000Y-38328600D03*
X79578200Y-121310400D03*
X25222200Y-37109400D03*
X117881400Y-52120800D03*
X25908000Y-57708800D03*
X97078800Y-34594800D03*
X118999000Y-68910200D03*
X26009600Y-90297000D03*
X25908000Y-60248800D03*
X43119950Y-80651200D03*
X55168800Y-121259600D03*
X25958800Y-67208400D03*
X52527200Y-60756800D03*
X118999000Y-71450200D03*
X68926350Y-94862800D03*
X60248800Y-121259600D03*
X115697000Y-60807600D03*
X103013150Y-84486600D03*
X25958800Y-74828400D03*
X43119950Y-84461200D03*
X62728750Y-80702000D03*
X119049800Y-93599000D03*
X97078800Y-31877000D03*
X83556750Y-80549600D03*
X50469800Y-28752800D03*
X68271800Y-59486800D03*
X26009600Y-85090000D03*
X57708800Y-121259600D03*
X97078800Y-29337000D03*
X117856000Y-40868600D03*
X117856000Y-43408600D03*
X47117000Y-121259600D03*
X109490150Y-89916000D03*
X103733600Y-40894000D03*
G04 #@! TA.AperFunction,Conductor*
G36*
X115068253Y-26018897D02*
G01*
X115073171Y-26019285D01*
X115240712Y-26039114D01*
X115536088Y-26074075D01*
X115540934Y-26074842D01*
X115998132Y-26165785D01*
X116002925Y-26166935D01*
X116451586Y-26293470D01*
X116456246Y-26294984D01*
X116893607Y-26456336D01*
X116898140Y-26458213D01*
X117321482Y-26653376D01*
X117325871Y-26655613D01*
X117732571Y-26883375D01*
X117736769Y-26885947D01*
X117928877Y-27014310D01*
X118124356Y-27144926D01*
X118128360Y-27147834D01*
X118494424Y-27436415D01*
X118498184Y-27439626D01*
X118840488Y-27756050D01*
X118843949Y-27759511D01*
X119137051Y-28076586D01*
X119160370Y-28101812D01*
X119163584Y-28105575D01*
X119452165Y-28471639D01*
X119455073Y-28475643D01*
X119623657Y-28727945D01*
X119690042Y-28827297D01*
X119714043Y-28863216D01*
X119716628Y-28867436D01*
X119884844Y-29167808D01*
X119944381Y-29274118D01*
X119946628Y-29278527D01*
X120084834Y-29578321D01*
X120141778Y-29701841D01*
X120143668Y-29706404D01*
X120305009Y-30143735D01*
X120306534Y-30148428D01*
X120433059Y-30597055D01*
X120434214Y-30601867D01*
X120496485Y-30914921D01*
X120512492Y-30995394D01*
X120525152Y-31059036D01*
X120525926Y-31063924D01*
X120580714Y-31526828D01*
X120581103Y-31531762D01*
X120599500Y-32000000D01*
X120599500Y-117000000D01*
X120581103Y-117468237D01*
X120580714Y-117473171D01*
X120525926Y-117936075D01*
X120525152Y-117940959D01*
X120519776Y-117967991D01*
X120434214Y-118398132D01*
X120433059Y-118402944D01*
X120396445Y-118532769D01*
X120334298Y-118753129D01*
X120306538Y-118851558D01*
X120305009Y-118856264D01*
X120143672Y-119293586D01*
X120141778Y-119298158D01*
X119946628Y-119721472D01*
X119944381Y-119725881D01*
X119716628Y-120132563D01*
X119714043Y-120136783D01*
X119455073Y-120524356D01*
X119452165Y-120528360D01*
X119163584Y-120894424D01*
X119160370Y-120898187D01*
X118843968Y-121240469D01*
X118840469Y-121243968D01*
X118498187Y-121560370D01*
X118494424Y-121563584D01*
X118128360Y-121852165D01*
X118124356Y-121855073D01*
X117736783Y-122114043D01*
X117732563Y-122116628D01*
X117325881Y-122344381D01*
X117321472Y-122346628D01*
X116898158Y-122541778D01*
X116893586Y-122543672D01*
X116456264Y-122705009D01*
X116451563Y-122706536D01*
X116227250Y-122769798D01*
X116002944Y-122833059D01*
X115998132Y-122834214D01*
X115603932Y-122912626D01*
X115540959Y-122925152D01*
X115536075Y-122925926D01*
X115073171Y-122980714D01*
X115068237Y-122981103D01*
X114600000Y-122999500D01*
X29600000Y-122999500D01*
X29131762Y-122981103D01*
X29126828Y-122980714D01*
X28663924Y-122925926D01*
X28659044Y-122925153D01*
X28514921Y-122896485D01*
X28201867Y-122834214D01*
X28197055Y-122833059D01*
X27748428Y-122706534D01*
X27743735Y-122705009D01*
X27306404Y-122543668D01*
X27301846Y-122541780D01*
X26878527Y-122346628D01*
X26874118Y-122344381D01*
X26467436Y-122116628D01*
X26463223Y-122114047D01*
X26353571Y-122040780D01*
X26075643Y-121855073D01*
X26071639Y-121852165D01*
X25705575Y-121563584D01*
X25701812Y-121560370D01*
X25575859Y-121443940D01*
X25359511Y-121243949D01*
X25356050Y-121240488D01*
X25039626Y-120898184D01*
X25036415Y-120894424D01*
X24747834Y-120528360D01*
X24744926Y-120524356D01*
X24604598Y-120314342D01*
X24485947Y-120136769D01*
X24483371Y-120132563D01*
X24255613Y-119725871D01*
X24253376Y-119721482D01*
X24058213Y-119298140D01*
X24056336Y-119293607D01*
X23894984Y-118856246D01*
X23893470Y-118851586D01*
X23766935Y-118402925D01*
X23765785Y-118398132D01*
X23754403Y-118340911D01*
X23674842Y-117940934D01*
X23674075Y-117936088D01*
X23635080Y-117606620D01*
X23619285Y-117473171D01*
X23618897Y-117468253D01*
X23600500Y-117000000D01*
X25594675Y-117000000D01*
X25610523Y-117322599D01*
X25613962Y-117392587D01*
X25613963Y-117392601D01*
X25658695Y-117694160D01*
X25671636Y-117781400D01*
X25743174Y-118066995D01*
X25767144Y-118162689D01*
X25849138Y-118391846D01*
X25899562Y-118532772D01*
X26067619Y-118888097D01*
X26067621Y-118888100D01*
X26269696Y-119225243D01*
X26503834Y-119540942D01*
X26503841Y-119540950D01*
X26503842Y-119540951D01*
X26767808Y-119832192D01*
X27052756Y-120090454D01*
X27059057Y-120096165D01*
X27374756Y-120330303D01*
X27374760Y-120330305D01*
X27374761Y-120330306D01*
X27711903Y-120532381D01*
X28067228Y-120700438D01*
X28345716Y-120800082D01*
X28433154Y-120831368D01*
X28437316Y-120832857D01*
X28818600Y-120928364D01*
X29207409Y-120986038D01*
X29542590Y-121002504D01*
X29599996Y-121005325D01*
X29600000Y-121005325D01*
X29600004Y-121005325D01*
X29655384Y-121002604D01*
X29992591Y-120986038D01*
X30381400Y-120928364D01*
X30762684Y-120832857D01*
X31132772Y-120700438D01*
X31488097Y-120532381D01*
X31739987Y-120381404D01*
X90132087Y-120381404D01*
X90150896Y-120584388D01*
X90206683Y-120780460D01*
X90206687Y-120780472D01*
X90228412Y-120824100D01*
X90228413Y-120824100D01*
X90634980Y-120417533D01*
X90697293Y-120383508D01*
X90768108Y-120388572D01*
X90824944Y-120431119D01*
X90848524Y-120486915D01*
X90851633Y-120506544D01*
X90851634Y-120506547D01*
X90851635Y-120506548D01*
X90907724Y-120616629D01*
X90909160Y-120619446D01*
X90909161Y-120619448D01*
X90998751Y-120709038D01*
X90998753Y-120709039D01*
X90998755Y-120709041D01*
X91111652Y-120766565D01*
X91131276Y-120769673D01*
X91195430Y-120800082D01*
X91232959Y-120860349D01*
X91231948Y-120931338D01*
X91200666Y-120983217D01*
X90794262Y-121389620D01*
X90934479Y-121443940D01*
X91134872Y-121481400D01*
X91338728Y-121481400D01*
X91539120Y-121443940D01*
X91679336Y-121389620D01*
X91272934Y-120983218D01*
X91238908Y-120920906D01*
X91243973Y-120850091D01*
X91286520Y-120793255D01*
X91342320Y-120769674D01*
X91352075Y-120768128D01*
X91361948Y-120766565D01*
X91474845Y-120709041D01*
X91564441Y-120619445D01*
X91621965Y-120506548D01*
X91625073Y-120486920D01*
X91655486Y-120422766D01*
X91715753Y-120385239D01*
X91786743Y-120386252D01*
X91838618Y-120417534D01*
X92245185Y-120824101D01*
X92266913Y-120780470D01*
X92266916Y-120780461D01*
X92322703Y-120584388D01*
X92340901Y-120388000D01*
X94207879Y-120388000D01*
X94302580Y-120616629D01*
X94434171Y-120831366D01*
X94434172Y-120831368D01*
X94597729Y-121022870D01*
X94789231Y-121186427D01*
X94789233Y-121186428D01*
X95003968Y-121318017D01*
X95003967Y-121318017D01*
X95232600Y-121412719D01*
X95232600Y-120567926D01*
X95252602Y-120499805D01*
X95306258Y-120453312D01*
X95376532Y-120443208D01*
X95419301Y-120457512D01*
X95446979Y-120472728D01*
X95491417Y-120497158D01*
X95650486Y-120538000D01*
X95650489Y-120538000D01*
X95773490Y-120538000D01*
X95773494Y-120538000D01*
X95841286Y-120529436D01*
X95895528Y-120522584D01*
X95895528Y-120522583D01*
X95895533Y-120522583D01*
X96048229Y-120462126D01*
X96048229Y-120462125D01*
X96055599Y-120459208D01*
X96056349Y-120461104D01*
X96115213Y-120448116D01*
X96181807Y-120472728D01*
X96224524Y-120529436D01*
X96232600Y-120573821D01*
X96232600Y-121412719D01*
X96461231Y-121318017D01*
X96675966Y-121186428D01*
X96675968Y-121186427D01*
X96867470Y-121022870D01*
X97031027Y-120831368D01*
X97031028Y-120831366D01*
X97162619Y-120616629D01*
X97257321Y-120388000D01*
X100278479Y-120388000D01*
X100373180Y-120616629D01*
X100504771Y-120831366D01*
X100504772Y-120831368D01*
X100668329Y-121022870D01*
X100859831Y-121186427D01*
X100859833Y-121186428D01*
X101074568Y-121318017D01*
X101074567Y-121318017D01*
X101303200Y-121412719D01*
X101303200Y-120567926D01*
X101323202Y-120499805D01*
X101376858Y-120453312D01*
X101447132Y-120443208D01*
X101489901Y-120457512D01*
X101517579Y-120472728D01*
X101562017Y-120497158D01*
X101721086Y-120538000D01*
X101721089Y-120538000D01*
X101844090Y-120538000D01*
X101844094Y-120538000D01*
X101911886Y-120529436D01*
X101966128Y-120522584D01*
X101966128Y-120522583D01*
X101966133Y-120522583D01*
X102118829Y-120462126D01*
X102118829Y-120462125D01*
X102126199Y-120459208D01*
X102126949Y-120461104D01*
X102185813Y-120448116D01*
X102252407Y-120472728D01*
X102295124Y-120529436D01*
X102303200Y-120573821D01*
X102303200Y-121412719D01*
X102531831Y-121318017D01*
X102746566Y-121186428D01*
X102746568Y-121186427D01*
X102938070Y-121022870D01*
X103101627Y-120831368D01*
X103101628Y-120831366D01*
X103233219Y-120616629D01*
X103327921Y-120388000D01*
X106298279Y-120388000D01*
X106392980Y-120616629D01*
X106524571Y-120831366D01*
X106524572Y-120831368D01*
X106688129Y-121022870D01*
X106879631Y-121186427D01*
X106879633Y-121186428D01*
X107094368Y-121318017D01*
X107094367Y-121318017D01*
X107322999Y-121412719D01*
X107322999Y-120567926D01*
X107343001Y-120499805D01*
X107396657Y-120453312D01*
X107466931Y-120443208D01*
X107509699Y-120457510D01*
X107581817Y-120497158D01*
X107581819Y-120497158D01*
X107581820Y-120497159D01*
X107719001Y-120532381D01*
X107740886Y-120538000D01*
X107740889Y-120538000D01*
X107863890Y-120538000D01*
X107863894Y-120538000D01*
X107931686Y-120529436D01*
X107985928Y-120522584D01*
X107985928Y-120522583D01*
X107985933Y-120522583D01*
X108138629Y-120462126D01*
X108138629Y-120462125D01*
X108145999Y-120459208D01*
X108146749Y-120461104D01*
X108205613Y-120448116D01*
X108272207Y-120472728D01*
X108314924Y-120529436D01*
X108323000Y-120573821D01*
X108323000Y-121412719D01*
X108551631Y-121318017D01*
X108766366Y-121186428D01*
X108766368Y-121186427D01*
X108957870Y-121022870D01*
X109121427Y-120831368D01*
X109121428Y-120831366D01*
X109253019Y-120616629D01*
X109347721Y-120388000D01*
X108504631Y-120388000D01*
X108436510Y-120367998D01*
X108390017Y-120314342D01*
X108379913Y-120244068D01*
X108390623Y-120208352D01*
X108410102Y-120166956D01*
X108446100Y-120090457D01*
X108453101Y-120053760D01*
X108476872Y-119929144D01*
X108476873Y-119929133D01*
X108470428Y-119826697D01*
X108466561Y-119765234D01*
X108466561Y-119765232D01*
X108415813Y-119609046D01*
X108415812Y-119609044D01*
X108398340Y-119581513D01*
X108378728Y-119513281D01*
X108399118Y-119445276D01*
X108453038Y-119399090D01*
X108504726Y-119388000D01*
X109347720Y-119388000D01*
X109253019Y-119159370D01*
X109121428Y-118944633D01*
X109121427Y-118944631D01*
X108957870Y-118753129D01*
X108766368Y-118589572D01*
X108766366Y-118589571D01*
X108551629Y-118457980D01*
X108323000Y-118363279D01*
X108323000Y-119208073D01*
X108302998Y-119276194D01*
X108249342Y-119322687D01*
X108179068Y-119332791D01*
X108136300Y-119318488D01*
X108064181Y-119278841D01*
X107905121Y-119238001D01*
X107905115Y-119238000D01*
X107905114Y-119238000D01*
X107782106Y-119238000D01*
X107782103Y-119238000D01*
X107782091Y-119238001D01*
X107660071Y-119253415D01*
X107660069Y-119253416D01*
X107500001Y-119316792D01*
X107499251Y-119314898D01*
X107440366Y-119327882D01*
X107373776Y-119303259D01*
X107331069Y-119246543D01*
X107323000Y-119202178D01*
X107323000Y-118363279D01*
X107094370Y-118457980D01*
X106879633Y-118589571D01*
X106879631Y-118589572D01*
X106688129Y-118753129D01*
X106524572Y-118944631D01*
X106524571Y-118944633D01*
X106392980Y-119159370D01*
X106298279Y-119388000D01*
X107141369Y-119388000D01*
X107209490Y-119408002D01*
X107255983Y-119461658D01*
X107266087Y-119531932D01*
X107255377Y-119567648D01*
X107199899Y-119685545D01*
X107199898Y-119685545D01*
X107169127Y-119846855D01*
X107169127Y-119846862D01*
X107179438Y-120010762D01*
X107179438Y-120010767D01*
X107230186Y-120166953D01*
X107230188Y-120166956D01*
X107247659Y-120194486D01*
X107267272Y-120262719D01*
X107246882Y-120330724D01*
X107192962Y-120376910D01*
X107141274Y-120388000D01*
X106298279Y-120388000D01*
X103327921Y-120388000D01*
X102484831Y-120388000D01*
X102416710Y-120367998D01*
X102370217Y-120314342D01*
X102360113Y-120244068D01*
X102370823Y-120208352D01*
X102390302Y-120166956D01*
X102426300Y-120090457D01*
X102433301Y-120053760D01*
X102457072Y-119929144D01*
X102457073Y-119929133D01*
X102450628Y-119826697D01*
X102446761Y-119765234D01*
X102446761Y-119765232D01*
X102396013Y-119609046D01*
X102396012Y-119609044D01*
X102378540Y-119581513D01*
X102358928Y-119513281D01*
X102379318Y-119445276D01*
X102433238Y-119399090D01*
X102484926Y-119388000D01*
X103327920Y-119388000D01*
X103233219Y-119159370D01*
X103101628Y-118944633D01*
X103101627Y-118944631D01*
X102938070Y-118753129D01*
X102746568Y-118589572D01*
X102746566Y-118589571D01*
X102531829Y-118457980D01*
X102303200Y-118363279D01*
X102303200Y-119208073D01*
X102283198Y-119276194D01*
X102229542Y-119322687D01*
X102159268Y-119332791D01*
X102116500Y-119318488D01*
X102044381Y-119278841D01*
X101885321Y-119238001D01*
X101885315Y-119238000D01*
X101885314Y-119238000D01*
X101762306Y-119238000D01*
X101762303Y-119238000D01*
X101762291Y-119238001D01*
X101640271Y-119253415D01*
X101640269Y-119253416D01*
X101480201Y-119316792D01*
X101479451Y-119314898D01*
X101420566Y-119327882D01*
X101353976Y-119303259D01*
X101311269Y-119246543D01*
X101303200Y-119202178D01*
X101303200Y-118363279D01*
X101074570Y-118457980D01*
X100859833Y-118589571D01*
X100859831Y-118589572D01*
X100668329Y-118753129D01*
X100504772Y-118944631D01*
X100504771Y-118944633D01*
X100373180Y-119159370D01*
X100278479Y-119388000D01*
X101121569Y-119388000D01*
X101189690Y-119408002D01*
X101236183Y-119461658D01*
X101246287Y-119531932D01*
X101235577Y-119567648D01*
X101180099Y-119685545D01*
X101180098Y-119685545D01*
X101149327Y-119846855D01*
X101149327Y-119846862D01*
X101159638Y-120010762D01*
X101159638Y-120010767D01*
X101210386Y-120166953D01*
X101210388Y-120166956D01*
X101227859Y-120194486D01*
X101247472Y-120262719D01*
X101227082Y-120330724D01*
X101173162Y-120376910D01*
X101121474Y-120388000D01*
X100278479Y-120388000D01*
X97257321Y-120388000D01*
X96414231Y-120388000D01*
X96346110Y-120367998D01*
X96299617Y-120314342D01*
X96289513Y-120244068D01*
X96300223Y-120208352D01*
X96319702Y-120166956D01*
X96355700Y-120090457D01*
X96362701Y-120053760D01*
X96386472Y-119929144D01*
X96386473Y-119929133D01*
X96380028Y-119826697D01*
X96376161Y-119765234D01*
X96376161Y-119765232D01*
X96325413Y-119609046D01*
X96325412Y-119609044D01*
X96307940Y-119581513D01*
X96288328Y-119513281D01*
X96308718Y-119445276D01*
X96362638Y-119399090D01*
X96414326Y-119388000D01*
X97257320Y-119388000D01*
X97162619Y-119159370D01*
X97031028Y-118944633D01*
X97031027Y-118944631D01*
X96867470Y-118753129D01*
X96675968Y-118589572D01*
X96675966Y-118589571D01*
X96461229Y-118457980D01*
X96232600Y-118363279D01*
X96232600Y-119208073D01*
X96212598Y-119276194D01*
X96158942Y-119322687D01*
X96088668Y-119332791D01*
X96045900Y-119318488D01*
X95973781Y-119278841D01*
X95814721Y-119238001D01*
X95814715Y-119238000D01*
X95814714Y-119238000D01*
X95691706Y-119238000D01*
X95691703Y-119238000D01*
X95691691Y-119238001D01*
X95569671Y-119253415D01*
X95569669Y-119253416D01*
X95409601Y-119316792D01*
X95408851Y-119314898D01*
X95349966Y-119327882D01*
X95283376Y-119303259D01*
X95240669Y-119246543D01*
X95232600Y-119202178D01*
X95232600Y-118363279D01*
X95003970Y-118457980D01*
X94789233Y-118589571D01*
X94789231Y-118589572D01*
X94597729Y-118753129D01*
X94434172Y-118944631D01*
X94434171Y-118944633D01*
X94302580Y-119159370D01*
X94207879Y-119388000D01*
X95050969Y-119388000D01*
X95119090Y-119408002D01*
X95165583Y-119461658D01*
X95175687Y-119531932D01*
X95164977Y-119567648D01*
X95109499Y-119685545D01*
X95109498Y-119685545D01*
X95078727Y-119846855D01*
X95078727Y-119846862D01*
X95089038Y-120010762D01*
X95089038Y-120010767D01*
X95139786Y-120166953D01*
X95139788Y-120166956D01*
X95157259Y-120194486D01*
X95176872Y-120262719D01*
X95156482Y-120330724D01*
X95102562Y-120376910D01*
X95050874Y-120388000D01*
X94207879Y-120388000D01*
X92340901Y-120388000D01*
X92341512Y-120381404D01*
X92341512Y-120381395D01*
X92322703Y-120178411D01*
X92266914Y-119982331D01*
X92266912Y-119982326D01*
X92245186Y-119938697D01*
X92245185Y-119938697D01*
X91838618Y-120345265D01*
X91776306Y-120379291D01*
X91705491Y-120374226D01*
X91648655Y-120331679D01*
X91625074Y-120275880D01*
X91621965Y-120256253D01*
X91621965Y-120256252D01*
X91564441Y-120143355D01*
X91564439Y-120143353D01*
X91564438Y-120143351D01*
X91474848Y-120053761D01*
X91474846Y-120053760D01*
X91474845Y-120053759D01*
X91361948Y-119996235D01*
X91361947Y-119996234D01*
X91361944Y-119996233D01*
X91342315Y-119993124D01*
X91278163Y-119962711D01*
X91240637Y-119902442D01*
X91241652Y-119831453D01*
X91272933Y-119779580D01*
X91679335Y-119373178D01*
X91539120Y-119318859D01*
X91338728Y-119281400D01*
X91134872Y-119281400D01*
X90934479Y-119318859D01*
X90794263Y-119373178D01*
X90794263Y-119373179D01*
X91200665Y-119779581D01*
X91234691Y-119841893D01*
X91229626Y-119912708D01*
X91187079Y-119969544D01*
X91131284Y-119993124D01*
X91111655Y-119996233D01*
X90998753Y-120053760D01*
X90998751Y-120053761D01*
X90909161Y-120143351D01*
X90909160Y-120143353D01*
X90851633Y-120256255D01*
X90848524Y-120275885D01*
X90818111Y-120340037D01*
X90757842Y-120377562D01*
X90686852Y-120376547D01*
X90634981Y-120345266D01*
X90228413Y-119938698D01*
X90206688Y-119982327D01*
X90206683Y-119982340D01*
X90150896Y-120178411D01*
X90132087Y-120381395D01*
X90132087Y-120381404D01*
X31739987Y-120381404D01*
X31825239Y-120330306D01*
X31925089Y-120256252D01*
X32140942Y-120096165D01*
X32140943Y-120096163D01*
X32140951Y-120096158D01*
X32432192Y-119832192D01*
X32696158Y-119540951D01*
X32716680Y-119513281D01*
X32930303Y-119225243D01*
X32930302Y-119225243D01*
X32930306Y-119225239D01*
X33132381Y-118888097D01*
X33300438Y-118532772D01*
X33432857Y-118162684D01*
X33528364Y-117781400D01*
X33586038Y-117392591D01*
X33589476Y-117322600D01*
X40285296Y-117322600D01*
X40305257Y-117512528D01*
X40364270Y-117694150D01*
X40364272Y-117694155D01*
X40404322Y-117763523D01*
X40692891Y-117474953D01*
X40755203Y-117440928D01*
X40826019Y-117445992D01*
X40882855Y-117488539D01*
X40887470Y-117495132D01*
X40930281Y-117560659D01*
X40934006Y-117566360D01*
X41027502Y-117639131D01*
X41032049Y-117642670D01*
X41073520Y-117700296D01*
X41077253Y-117771194D01*
X41043754Y-117831197D01*
X40755324Y-118119627D01*
X40916514Y-118191394D01*
X41103313Y-118231100D01*
X41294287Y-118231100D01*
X41481085Y-118191394D01*
X41642274Y-118119627D01*
X41350791Y-117828145D01*
X41316766Y-117765832D01*
X41321830Y-117695017D01*
X41364377Y-117638181D01*
X41379918Y-117628235D01*
X41419859Y-117606620D01*
X41419858Y-117606620D01*
X41419861Y-117606619D01*
X41500104Y-117519452D01*
X41501972Y-117515192D01*
X41547649Y-117460843D01*
X41615460Y-117439814D01*
X41683875Y-117458786D01*
X41706457Y-117476705D01*
X41993276Y-117763524D01*
X41993277Y-117763524D01*
X42033325Y-117694160D01*
X42092342Y-117512527D01*
X42112303Y-117322599D01*
X42092342Y-117132671D01*
X42033329Y-116951049D01*
X42033325Y-116951041D01*
X41993276Y-116881674D01*
X41704706Y-117170245D01*
X41642394Y-117204271D01*
X41571579Y-117199206D01*
X41514743Y-117156659D01*
X41510128Y-117150065D01*
X41463596Y-117078842D01*
X41463592Y-117078837D01*
X41365549Y-117002527D01*
X41324078Y-116944902D01*
X41320345Y-116874004D01*
X41353845Y-116814000D01*
X41642274Y-116525571D01*
X41481087Y-116453806D01*
X41294287Y-116414100D01*
X41103313Y-116414100D01*
X40916511Y-116453806D01*
X40755324Y-116525571D01*
X41046808Y-116817054D01*
X41080833Y-116879367D01*
X41075769Y-116950182D01*
X41033222Y-117007018D01*
X41017684Y-117016963D01*
X40977739Y-117038580D01*
X40897495Y-117125747D01*
X40897492Y-117125752D01*
X40895623Y-117130015D01*
X40849941Y-117184363D01*
X40782128Y-117205385D01*
X40713715Y-117186407D01*
X40691142Y-117168494D01*
X40404322Y-116881674D01*
X40364272Y-116951044D01*
X40364270Y-116951049D01*
X40305257Y-117132671D01*
X40285296Y-117322600D01*
X33589476Y-117322600D01*
X33605325Y-117000000D01*
X33586038Y-116607409D01*
X33528364Y-116218600D01*
X33432857Y-115837316D01*
X33306355Y-115483765D01*
X57217957Y-115483765D01*
X57237263Y-115815239D01*
X57237263Y-115815245D01*
X57237264Y-115815250D01*
X57294923Y-116142251D01*
X57390155Y-116460347D01*
X57390157Y-116460353D01*
X57390158Y-116460354D01*
X57521669Y-116765233D01*
X57521672Y-116765238D01*
X57597824Y-116897137D01*
X57687694Y-117052796D01*
X57687703Y-117052808D01*
X57687705Y-117052811D01*
X57885978Y-117319138D01*
X58068431Y-117512527D01*
X58113841Y-117560659D01*
X58364748Y-117771194D01*
X58368207Y-117774096D01*
X58645614Y-117956550D01*
X58645622Y-117956555D01*
X58942349Y-118105577D01*
X58996549Y-118125304D01*
X59254361Y-118219140D01*
X59254362Y-118219140D01*
X59254370Y-118219143D01*
X59577465Y-118295718D01*
X59765922Y-118317745D01*
X59907262Y-118334266D01*
X59907265Y-118334266D01*
X60239314Y-118334266D01*
X60362985Y-118319810D01*
X60569111Y-118295718D01*
X60892206Y-118219143D01*
X61204227Y-118105577D01*
X61500954Y-117956555D01*
X61778373Y-117774093D01*
X62032735Y-117560659D01*
X62260598Y-117319137D01*
X62295793Y-117271862D01*
X70428500Y-117271862D01*
X70434919Y-117364332D01*
X70434920Y-117364339D01*
X70485854Y-117580900D01*
X70485857Y-117580909D01*
X70575722Y-117784436D01*
X70701458Y-117967987D01*
X70701461Y-117967991D01*
X70858774Y-118125304D01*
X70858778Y-118125307D01*
X70858779Y-118125308D01*
X71042329Y-118251043D01*
X71245857Y-118340909D01*
X71245863Y-118340910D01*
X71245865Y-118340911D01*
X71300194Y-118353689D01*
X71462433Y-118391847D01*
X71534808Y-118396870D01*
X71554904Y-118398266D01*
X71554908Y-118398266D01*
X75003096Y-118398266D01*
X75022155Y-118396942D01*
X75095567Y-118391847D01*
X75312143Y-118340909D01*
X75515671Y-118251043D01*
X75699221Y-118125308D01*
X75856542Y-117967987D01*
X75982277Y-117784437D01*
X76072143Y-117580909D01*
X76123081Y-117364333D01*
X76129500Y-117271858D01*
X76129500Y-115547766D01*
X80583669Y-115547766D01*
X80602975Y-115879239D01*
X80602975Y-115879245D01*
X80602976Y-115879250D01*
X80660635Y-116206251D01*
X80755867Y-116524347D01*
X80755869Y-116524353D01*
X80755870Y-116524354D01*
X80887381Y-116829233D01*
X80887384Y-116829238D01*
X81016464Y-117052811D01*
X81053406Y-117116796D01*
X81053415Y-117116808D01*
X81053417Y-117116811D01*
X81251690Y-117383138D01*
X81438277Y-117580909D01*
X81479553Y-117624659D01*
X81722059Y-117828145D01*
X81733919Y-117838096D01*
X82011326Y-118020550D01*
X82011334Y-118020555D01*
X82308061Y-118169577D01*
X82368003Y-118191394D01*
X82620073Y-118283140D01*
X82620074Y-118283140D01*
X82620082Y-118283143D01*
X82943177Y-118359718D01*
X83131634Y-118381745D01*
X83272974Y-118398266D01*
X83272977Y-118398266D01*
X83605026Y-118398266D01*
X83728697Y-118383810D01*
X83934823Y-118359718D01*
X84257918Y-118283143D01*
X84569939Y-118169577D01*
X84866666Y-118020555D01*
X85144085Y-117838093D01*
X85398447Y-117624659D01*
X85626310Y-117383137D01*
X85824594Y-117116796D01*
X85990617Y-116829236D01*
X86122133Y-116524347D01*
X86217365Y-116206251D01*
X86275024Y-115879250D01*
X86294331Y-115547766D01*
X86284641Y-115381400D01*
X89231190Y-115381400D01*
X89251603Y-115666824D01*
X89312431Y-115946446D01*
X89412432Y-116214560D01*
X89412437Y-116214570D01*
X89549568Y-116465707D01*
X89549572Y-116465712D01*
X89549574Y-116465715D01*
X89720967Y-116694670D01*
X89721062Y-116694796D01*
X89721070Y-116694805D01*
X89923394Y-116897129D01*
X89923403Y-116897137D01*
X89923405Y-116897139D01*
X90152485Y-117068626D01*
X90152487Y-117068627D01*
X90152492Y-117068631D01*
X90403629Y-117205762D01*
X90403639Y-117205767D01*
X90671754Y-117305769D01*
X90951372Y-117366596D01*
X91236800Y-117387010D01*
X91522228Y-117366596D01*
X91801846Y-117305769D01*
X92069961Y-117205767D01*
X92120765Y-117178026D01*
X92321107Y-117068631D01*
X92321109Y-117068629D01*
X92321115Y-117068626D01*
X92550195Y-116897139D01*
X92752539Y-116694795D01*
X92924026Y-116465715D01*
X93017425Y-116294667D01*
X93067625Y-116244468D01*
X93136999Y-116229376D01*
X93203520Y-116254187D01*
X93246067Y-116311022D01*
X93250664Y-116326207D01*
X93289455Y-116491137D01*
X93289457Y-116491143D01*
X93379322Y-116694670D01*
X93505058Y-116878221D01*
X93505061Y-116878225D01*
X93662374Y-117035538D01*
X93662378Y-117035541D01*
X93662379Y-117035542D01*
X93845929Y-117161277D01*
X94049457Y-117251143D01*
X94049463Y-117251144D01*
X94049465Y-117251145D01*
X94103794Y-117263923D01*
X94266033Y-117302081D01*
X94338408Y-117307104D01*
X94358504Y-117308500D01*
X94358508Y-117308500D01*
X97106696Y-117308500D01*
X97125755Y-117307176D01*
X97199167Y-117302081D01*
X97415743Y-117251143D01*
X97619271Y-117161277D01*
X97802821Y-117035542D01*
X97960142Y-116878221D01*
X98085877Y-116694671D01*
X98175743Y-116491143D01*
X98226681Y-116274567D01*
X98233100Y-116182096D01*
X99302700Y-116182096D01*
X99309119Y-116274566D01*
X99309120Y-116274573D01*
X99360054Y-116491134D01*
X99360057Y-116491143D01*
X99449922Y-116694670D01*
X99575658Y-116878221D01*
X99575661Y-116878225D01*
X99732974Y-117035538D01*
X99732978Y-117035541D01*
X99732979Y-117035542D01*
X99916529Y-117161277D01*
X100120057Y-117251143D01*
X100120063Y-117251144D01*
X100120065Y-117251145D01*
X100174394Y-117263923D01*
X100336633Y-117302081D01*
X100409008Y-117307104D01*
X100429104Y-117308500D01*
X100429108Y-117308500D01*
X103177296Y-117308500D01*
X103196355Y-117307176D01*
X103269767Y-117302081D01*
X103486343Y-117251143D01*
X103689871Y-117161277D01*
X103873421Y-117035542D01*
X104030742Y-116878221D01*
X104156477Y-116694671D01*
X104246343Y-116491143D01*
X104297281Y-116274567D01*
X104303700Y-116182096D01*
X105322500Y-116182096D01*
X105328919Y-116274566D01*
X105328920Y-116274573D01*
X105379854Y-116491134D01*
X105379857Y-116491143D01*
X105469722Y-116694670D01*
X105595458Y-116878221D01*
X105595461Y-116878225D01*
X105752774Y-117035538D01*
X105752778Y-117035541D01*
X105752779Y-117035542D01*
X105936329Y-117161277D01*
X106139857Y-117251143D01*
X106139863Y-117251144D01*
X106139865Y-117251145D01*
X106194194Y-117263923D01*
X106356433Y-117302081D01*
X106428808Y-117307104D01*
X106448904Y-117308500D01*
X106448908Y-117308500D01*
X109197096Y-117308500D01*
X109216155Y-117307176D01*
X109289567Y-117302081D01*
X109506143Y-117251143D01*
X109709671Y-117161277D01*
X109893221Y-117035542D01*
X109928763Y-117000000D01*
X110594675Y-117000000D01*
X110610523Y-117322599D01*
X110613962Y-117392587D01*
X110613963Y-117392601D01*
X110658695Y-117694160D01*
X110671636Y-117781400D01*
X110743174Y-118066995D01*
X110767144Y-118162689D01*
X110849138Y-118391846D01*
X110899562Y-118532772D01*
X111067619Y-118888097D01*
X111067621Y-118888100D01*
X111269696Y-119225243D01*
X111503834Y-119540942D01*
X111503841Y-119540950D01*
X111503842Y-119540951D01*
X111767808Y-119832192D01*
X112052756Y-120090454D01*
X112059057Y-120096165D01*
X112374756Y-120330303D01*
X112374760Y-120330305D01*
X112374761Y-120330306D01*
X112711903Y-120532381D01*
X113067228Y-120700438D01*
X113345716Y-120800082D01*
X113433154Y-120831368D01*
X113437316Y-120832857D01*
X113818600Y-120928364D01*
X114207409Y-120986038D01*
X114542590Y-121002504D01*
X114599996Y-121005325D01*
X114600000Y-121005325D01*
X114600004Y-121005325D01*
X114655384Y-121002604D01*
X114992591Y-120986038D01*
X115381400Y-120928364D01*
X115762684Y-120832857D01*
X116132772Y-120700438D01*
X116488097Y-120532381D01*
X116825239Y-120330306D01*
X116925089Y-120256252D01*
X117140942Y-120096165D01*
X117140943Y-120096163D01*
X117140951Y-120096158D01*
X117432192Y-119832192D01*
X117696158Y-119540951D01*
X117716680Y-119513281D01*
X117930303Y-119225243D01*
X117930302Y-119225243D01*
X117930306Y-119225239D01*
X118132381Y-118888097D01*
X118300438Y-118532772D01*
X118432857Y-118162684D01*
X118528364Y-117781400D01*
X118586038Y-117392591D01*
X118605325Y-117000000D01*
X118586038Y-116607409D01*
X118528364Y-116218600D01*
X118432857Y-115837316D01*
X118300438Y-115467228D01*
X118132381Y-115111903D01*
X117930306Y-114774761D01*
X117930305Y-114774760D01*
X117930303Y-114774756D01*
X117696165Y-114459057D01*
X117675029Y-114435737D01*
X117432192Y-114167808D01*
X117140951Y-113903842D01*
X117140950Y-113903841D01*
X117140942Y-113903834D01*
X116825243Y-113669696D01*
X116493526Y-113470873D01*
X116488097Y-113467619D01*
X116132772Y-113299562D01*
X116015046Y-113257439D01*
X115762689Y-113167144D01*
X115604596Y-113127544D01*
X115381400Y-113071636D01*
X115352816Y-113067396D01*
X114992601Y-113013963D01*
X114992594Y-113013962D01*
X114992591Y-113013962D01*
X114796295Y-113004318D01*
X114600004Y-112994675D01*
X114599996Y-112994675D01*
X114375662Y-113005696D01*
X114207409Y-113013962D01*
X114207406Y-113013962D01*
X114207398Y-113013963D01*
X113818606Y-113071635D01*
X113818604Y-113071635D01*
X113818600Y-113071636D01*
X113661499Y-113110988D01*
X113437310Y-113167144D01*
X113067230Y-113299561D01*
X113067227Y-113299562D01*
X113067228Y-113299562D01*
X112734290Y-113457031D01*
X112711899Y-113467621D01*
X112374756Y-113669696D01*
X112059057Y-113903834D01*
X111767808Y-114167808D01*
X111503834Y-114459057D01*
X111269696Y-114774756D01*
X111067621Y-115111899D01*
X111067619Y-115111903D01*
X111008336Y-115237245D01*
X110899561Y-115467230D01*
X110767144Y-115837310D01*
X110756640Y-115879245D01*
X110671636Y-116218600D01*
X110671635Y-116218604D01*
X110671635Y-116218606D01*
X110613963Y-116607398D01*
X110613962Y-116607406D01*
X110613962Y-116607409D01*
X110606209Y-116765233D01*
X110599230Y-116907290D01*
X110594675Y-117000000D01*
X109928763Y-117000000D01*
X110050542Y-116878221D01*
X110176277Y-116694671D01*
X110266143Y-116491143D01*
X110317081Y-116274567D01*
X110323500Y-116182092D01*
X110323500Y-113433908D01*
X110317081Y-113341433D01*
X110266143Y-113124857D01*
X110176277Y-112921329D01*
X110050542Y-112737779D01*
X110050541Y-112737778D01*
X110050538Y-112737774D01*
X109893225Y-112580461D01*
X109893221Y-112580458D01*
X109709670Y-112454722D01*
X109506143Y-112364857D01*
X109506134Y-112364854D01*
X109289573Y-112313920D01*
X109289568Y-112313919D01*
X109289567Y-112313919D01*
X109271072Y-112312635D01*
X109197096Y-112307500D01*
X109197092Y-112307500D01*
X106448908Y-112307500D01*
X106448904Y-112307500D01*
X106356433Y-112313919D01*
X106356426Y-112313920D01*
X106139865Y-112364854D01*
X106139856Y-112364857D01*
X105936329Y-112454722D01*
X105752778Y-112580458D01*
X105752774Y-112580461D01*
X105595461Y-112737774D01*
X105595458Y-112737778D01*
X105469722Y-112921329D01*
X105379857Y-113124856D01*
X105379854Y-113124865D01*
X105328920Y-113341426D01*
X105328919Y-113341433D01*
X105322500Y-113433904D01*
X105322500Y-116182096D01*
X104303700Y-116182096D01*
X104303700Y-116182092D01*
X104303700Y-113433908D01*
X104297281Y-113341433D01*
X104246343Y-113124857D01*
X104156477Y-112921329D01*
X104030742Y-112737779D01*
X104030741Y-112737778D01*
X104030738Y-112737774D01*
X103873425Y-112580461D01*
X103873421Y-112580458D01*
X103689870Y-112454722D01*
X103486343Y-112364857D01*
X103486334Y-112364854D01*
X103269773Y-112313920D01*
X103269768Y-112313919D01*
X103269767Y-112313919D01*
X103251271Y-112312635D01*
X103177296Y-112307500D01*
X103177292Y-112307500D01*
X100429108Y-112307500D01*
X100429104Y-112307500D01*
X100336633Y-112313919D01*
X100336626Y-112313920D01*
X100120065Y-112364854D01*
X100120056Y-112364857D01*
X99916529Y-112454722D01*
X99732978Y-112580458D01*
X99732974Y-112580461D01*
X99575661Y-112737774D01*
X99575658Y-112737778D01*
X99449922Y-112921329D01*
X99360057Y-113124856D01*
X99360054Y-113124865D01*
X99309120Y-113341426D01*
X99309119Y-113341433D01*
X99302700Y-113433904D01*
X99302700Y-116182096D01*
X98233100Y-116182096D01*
X98233100Y-116182092D01*
X98233100Y-113433908D01*
X98226681Y-113341433D01*
X98175743Y-113124857D01*
X98085877Y-112921329D01*
X97960142Y-112737779D01*
X97960141Y-112737778D01*
X97960138Y-112737774D01*
X97802825Y-112580461D01*
X97802821Y-112580458D01*
X97619270Y-112454722D01*
X97415743Y-112364857D01*
X97415734Y-112364854D01*
X97199173Y-112313920D01*
X97199168Y-112313919D01*
X97199167Y-112313919D01*
X97180672Y-112312635D01*
X97106696Y-112307500D01*
X97106692Y-112307500D01*
X94358508Y-112307500D01*
X94358504Y-112307500D01*
X94266033Y-112313919D01*
X94266026Y-112313920D01*
X94049465Y-112364854D01*
X94049456Y-112364857D01*
X93845929Y-112454722D01*
X93662378Y-112580458D01*
X93662374Y-112580461D01*
X93505061Y-112737774D01*
X93505058Y-112737778D01*
X93379322Y-112921329D01*
X93289457Y-113124856D01*
X93289454Y-113124865D01*
X93238520Y-113341426D01*
X93238519Y-113341433D01*
X93232100Y-113433904D01*
X93232100Y-114367616D01*
X93212098Y-114435737D01*
X93158442Y-114482230D01*
X93088168Y-114492334D01*
X93023588Y-114462840D01*
X92995513Y-114428002D01*
X92924027Y-114297087D01*
X92900979Y-114266298D01*
X92752539Y-114068005D01*
X92752537Y-114068003D01*
X92752529Y-114067994D01*
X92550205Y-113865670D01*
X92550196Y-113865662D01*
X92494101Y-113823670D01*
X92321115Y-113694174D01*
X92321113Y-113694173D01*
X92321112Y-113694172D01*
X92321107Y-113694168D01*
X92069970Y-113557037D01*
X92069960Y-113557032D01*
X91801846Y-113457031D01*
X91522224Y-113396203D01*
X91236800Y-113375790D01*
X90951375Y-113396203D01*
X90671753Y-113457031D01*
X90403639Y-113557032D01*
X90403629Y-113557037D01*
X90152492Y-113694168D01*
X90152487Y-113694172D01*
X89923403Y-113865662D01*
X89923394Y-113865670D01*
X89721070Y-114067994D01*
X89721062Y-114068003D01*
X89549572Y-114297087D01*
X89549568Y-114297092D01*
X89412437Y-114548229D01*
X89412432Y-114548239D01*
X89312431Y-114816353D01*
X89251603Y-115095975D01*
X89231190Y-115381400D01*
X86284641Y-115381400D01*
X86275024Y-115216282D01*
X86217365Y-114889281D01*
X86122133Y-114571185D01*
X85990617Y-114266296D01*
X85824594Y-113978736D01*
X85740413Y-113865661D01*
X85626309Y-113712393D01*
X85398450Y-113470876D01*
X85398445Y-113470871D01*
X85144080Y-113257435D01*
X84866673Y-113074981D01*
X84866669Y-113074979D01*
X84866666Y-113074977D01*
X84569939Y-112925955D01*
X84569934Y-112925953D01*
X84569929Y-112925951D01*
X84257926Y-112812391D01*
X84257921Y-112812390D01*
X84257920Y-112812389D01*
X84257918Y-112812389D01*
X84080407Y-112770318D01*
X83934824Y-112735814D01*
X83934818Y-112735813D01*
X83605026Y-112697266D01*
X83605023Y-112697266D01*
X83272977Y-112697266D01*
X83272974Y-112697266D01*
X82943181Y-112735813D01*
X82943175Y-112735814D01*
X82620078Y-112812390D01*
X82620073Y-112812391D01*
X82308070Y-112925951D01*
X82308065Y-112925953D01*
X82011326Y-113074981D01*
X81733919Y-113257435D01*
X81479554Y-113470871D01*
X81479549Y-113470876D01*
X81251690Y-113712393D01*
X81053417Y-113978720D01*
X81053399Y-113978747D01*
X80887384Y-114266293D01*
X80887381Y-114266298D01*
X80755870Y-114571177D01*
X80755868Y-114571183D01*
X80660635Y-114889280D01*
X80602975Y-115216286D01*
X80602975Y-115216292D01*
X80583669Y-115547766D01*
X76129500Y-115547766D01*
X76129500Y-113823674D01*
X76123081Y-113731199D01*
X76072143Y-113514623D01*
X75982277Y-113311095D01*
X75856542Y-113127545D01*
X75856541Y-113127544D01*
X75856538Y-113127540D01*
X75699225Y-112970227D01*
X75699221Y-112970224D01*
X75515670Y-112844488D01*
X75312143Y-112754623D01*
X75312134Y-112754620D01*
X75095573Y-112703686D01*
X75095568Y-112703685D01*
X75095567Y-112703685D01*
X75077071Y-112702401D01*
X75003096Y-112697266D01*
X75003092Y-112697266D01*
X71554908Y-112697266D01*
X71554904Y-112697266D01*
X71462433Y-112703685D01*
X71462426Y-112703686D01*
X71245865Y-112754620D01*
X71245856Y-112754623D01*
X71042329Y-112844488D01*
X70858778Y-112970224D01*
X70858774Y-112970227D01*
X70701461Y-113127540D01*
X70701458Y-113127544D01*
X70575722Y-113311095D01*
X70485857Y-113514622D01*
X70485854Y-113514631D01*
X70434920Y-113731192D01*
X70434919Y-113731199D01*
X70428500Y-113823670D01*
X70428500Y-117271862D01*
X62295793Y-117271862D01*
X62458882Y-117052796D01*
X62624905Y-116765236D01*
X62756421Y-116460347D01*
X62851653Y-116142251D01*
X62909312Y-115815250D01*
X62928619Y-115483766D01*
X62909312Y-115152282D01*
X62851653Y-114825281D01*
X62756421Y-114507185D01*
X62624905Y-114202296D01*
X62458882Y-113914736D01*
X62391086Y-113823670D01*
X62260597Y-113648393D01*
X62032738Y-113406876D01*
X62032733Y-113406871D01*
X61778368Y-113193435D01*
X61500961Y-113010981D01*
X61500957Y-113010979D01*
X61500954Y-113010977D01*
X61204227Y-112861955D01*
X61204222Y-112861953D01*
X61204217Y-112861951D01*
X60892214Y-112748391D01*
X60892209Y-112748390D01*
X60892208Y-112748389D01*
X60892206Y-112748389D01*
X60695066Y-112701666D01*
X60569112Y-112671814D01*
X60569106Y-112671813D01*
X60239314Y-112633266D01*
X60239311Y-112633266D01*
X59907265Y-112633266D01*
X59907262Y-112633266D01*
X59577469Y-112671813D01*
X59577463Y-112671814D01*
X59254366Y-112748390D01*
X59254361Y-112748391D01*
X58942358Y-112861951D01*
X58942353Y-112861953D01*
X58645614Y-113010981D01*
X58368207Y-113193435D01*
X58113842Y-113406871D01*
X58113837Y-113406876D01*
X57885978Y-113648393D01*
X57687705Y-113914720D01*
X57687687Y-113914747D01*
X57521672Y-114202293D01*
X57521669Y-114202298D01*
X57396561Y-114492334D01*
X57390155Y-114507185D01*
X57370997Y-114571177D01*
X57294923Y-114825280D01*
X57237263Y-115152286D01*
X57237263Y-115152292D01*
X57217957Y-115483765D01*
X33306355Y-115483765D01*
X33300438Y-115467228D01*
X33132381Y-115111903D01*
X32930306Y-114774761D01*
X32930305Y-114774760D01*
X32930303Y-114774756D01*
X32696165Y-114459057D01*
X32675029Y-114435737D01*
X32432192Y-114167808D01*
X32140951Y-113903842D01*
X32140950Y-113903841D01*
X32140942Y-113903834D01*
X31825243Y-113669696D01*
X31493526Y-113470873D01*
X31488097Y-113467619D01*
X31132772Y-113299562D01*
X31015046Y-113257439D01*
X30762689Y-113167144D01*
X30604596Y-113127544D01*
X30381400Y-113071636D01*
X30352816Y-113067396D01*
X29992601Y-113013963D01*
X29992594Y-113013962D01*
X29992591Y-113013962D01*
X29796295Y-113004318D01*
X29600004Y-112994675D01*
X29599996Y-112994675D01*
X29375662Y-113005696D01*
X29207409Y-113013962D01*
X29207406Y-113013962D01*
X29207398Y-113013963D01*
X28818606Y-113071635D01*
X28818604Y-113071635D01*
X28818600Y-113071636D01*
X28661499Y-113110988D01*
X28437310Y-113167144D01*
X28067230Y-113299561D01*
X28067227Y-113299562D01*
X28067228Y-113299562D01*
X27734290Y-113457031D01*
X27711899Y-113467621D01*
X27374756Y-113669696D01*
X27059057Y-113903834D01*
X26767808Y-114167808D01*
X26503834Y-114459057D01*
X26269696Y-114774756D01*
X26067621Y-115111899D01*
X26067619Y-115111903D01*
X26008336Y-115237245D01*
X25899561Y-115467230D01*
X25767144Y-115837310D01*
X25756640Y-115879245D01*
X25671636Y-116218600D01*
X25671635Y-116218604D01*
X25671635Y-116218606D01*
X25613963Y-116607398D01*
X25613962Y-116607406D01*
X25613962Y-116607409D01*
X25606209Y-116765233D01*
X25599230Y-116907290D01*
X25594675Y-117000000D01*
X23600500Y-117000000D01*
X23600500Y-116907290D01*
X23600500Y-112242600D01*
X37244971Y-112242600D01*
X37262548Y-112454723D01*
X37264255Y-112475316D01*
X37321574Y-112701666D01*
X37321577Y-112701673D01*
X37415370Y-112915498D01*
X37415372Y-112915502D01*
X37415375Y-112915508D01*
X37477750Y-113010981D01*
X37517377Y-113071636D01*
X37543090Y-113110992D01*
X37701240Y-113282788D01*
X37820729Y-113375790D01*
X37860668Y-113406876D01*
X37885509Y-113426210D01*
X38090871Y-113537347D01*
X38311725Y-113613166D01*
X38542047Y-113651600D01*
X38542051Y-113651600D01*
X38775549Y-113651600D01*
X38775553Y-113651600D01*
X39005875Y-113613166D01*
X39226729Y-113537347D01*
X39432091Y-113426210D01*
X39616360Y-113282788D01*
X39774510Y-113110992D01*
X39902225Y-112915508D01*
X39996024Y-112701670D01*
X40053346Y-112475309D01*
X40072629Y-112242600D01*
X40053346Y-112009891D01*
X39996024Y-111783530D01*
X39902225Y-111569692D01*
X39774510Y-111374208D01*
X39616360Y-111202412D01*
X39508927Y-111118794D01*
X39432093Y-111058991D01*
X39410636Y-111047379D01*
X39226729Y-110947853D01*
X39226725Y-110947851D01*
X39226724Y-110947851D01*
X39005879Y-110872035D01*
X39005872Y-110872033D01*
X38907300Y-110855584D01*
X38775553Y-110833600D01*
X38542047Y-110833600D01*
X38426783Y-110852834D01*
X38311727Y-110872033D01*
X38311720Y-110872035D01*
X38090875Y-110947851D01*
X37885506Y-111058991D01*
X37701240Y-111202412D01*
X37543087Y-111374211D01*
X37415377Y-111569689D01*
X37415370Y-111569701D01*
X37321577Y-111783526D01*
X37321574Y-111783533D01*
X37264255Y-112009883D01*
X37264254Y-112009889D01*
X37264254Y-112009891D01*
X37244971Y-112242600D01*
X23600500Y-112242600D01*
X23600500Y-108418000D01*
X31468396Y-108418000D01*
X31488779Y-108676994D01*
X31549427Y-108929610D01*
X31648846Y-109169628D01*
X31648847Y-109169629D01*
X31784585Y-109391136D01*
X31784590Y-109391143D01*
X31953310Y-109588689D01*
X32150856Y-109757409D01*
X32150860Y-109757412D01*
X32372372Y-109893154D01*
X32612390Y-109992573D01*
X32865006Y-110053221D01*
X33022062Y-110065581D01*
X33059144Y-110068500D01*
X33059147Y-110068500D01*
X33488856Y-110068500D01*
X33523717Y-110065756D01*
X33682994Y-110053221D01*
X33935610Y-109992573D01*
X34175628Y-109893154D01*
X34397140Y-109757412D01*
X34594689Y-109588689D01*
X34763412Y-109391140D01*
X34899154Y-109169628D01*
X34998573Y-108929610D01*
X35059221Y-108676994D01*
X35079604Y-108418000D01*
X35059221Y-108159006D01*
X34998573Y-107906390D01*
X34899154Y-107666372D01*
X34763412Y-107444860D01*
X34763409Y-107444856D01*
X34594689Y-107247310D01*
X34420641Y-107098660D01*
X34381831Y-107039210D01*
X34381324Y-106968215D01*
X34413380Y-106913749D01*
X34416568Y-106910560D01*
X34507919Y-106790097D01*
X34563385Y-106649447D01*
X34563386Y-106649441D01*
X34573999Y-106561062D01*
X34574000Y-106561056D01*
X34574000Y-106168000D01*
X33890018Y-106168000D01*
X33821897Y-106147998D01*
X33775404Y-106094342D01*
X33765300Y-106024068D01*
X33769122Y-106006502D01*
X33774000Y-105989889D01*
X33774000Y-105846110D01*
X33769122Y-105829498D01*
X33769122Y-105758502D01*
X33807506Y-105698776D01*
X33872086Y-105669282D01*
X33890018Y-105668000D01*
X34574000Y-105668000D01*
X34574000Y-105305196D01*
X39389800Y-105305196D01*
X39396219Y-105397666D01*
X39396220Y-105397673D01*
X39447154Y-105614234D01*
X39447157Y-105614243D01*
X39537022Y-105817770D01*
X39662758Y-106001321D01*
X39662761Y-106001325D01*
X39820074Y-106158638D01*
X39820078Y-106158641D01*
X39820079Y-106158642D01*
X40003629Y-106284377D01*
X40207157Y-106374243D01*
X40207163Y-106374244D01*
X40207165Y-106374245D01*
X40261494Y-106387023D01*
X40423733Y-106425181D01*
X40496108Y-106430204D01*
X40516204Y-106431600D01*
X40516208Y-106431600D01*
X41881396Y-106431600D01*
X41900455Y-106430276D01*
X41973867Y-106425181D01*
X42190443Y-106374243D01*
X42393971Y-106284377D01*
X42577521Y-106158642D01*
X42734842Y-106001321D01*
X42860577Y-105817771D01*
X42950443Y-105614243D01*
X43001381Y-105397667D01*
X43006511Y-105323766D01*
X57217957Y-105323766D01*
X57237263Y-105655239D01*
X57237263Y-105655245D01*
X57237264Y-105655250D01*
X57294923Y-105982251D01*
X57390155Y-106300347D01*
X57390157Y-106300353D01*
X57390158Y-106300354D01*
X57521669Y-106605233D01*
X57521672Y-106605238D01*
X57628401Y-106790097D01*
X57687694Y-106892796D01*
X57687703Y-106892808D01*
X57687705Y-106892811D01*
X57885978Y-107159138D01*
X58113837Y-107400655D01*
X58113842Y-107400660D01*
X58368207Y-107614096D01*
X58465514Y-107678096D01*
X58645622Y-107796555D01*
X58942349Y-107945577D01*
X59098359Y-108002359D01*
X59254361Y-108059140D01*
X59254362Y-108059140D01*
X59254370Y-108059143D01*
X59577465Y-108135718D01*
X59765922Y-108157745D01*
X59907262Y-108174266D01*
X59907265Y-108174266D01*
X60239314Y-108174266D01*
X60369869Y-108159006D01*
X60569111Y-108135718D01*
X60892206Y-108059143D01*
X61204227Y-107945577D01*
X61500954Y-107796555D01*
X61778373Y-107614093D01*
X62032735Y-107400659D01*
X62260598Y-107159137D01*
X62458882Y-106892796D01*
X62624905Y-106605236D01*
X62756421Y-106300347D01*
X62851653Y-105982251D01*
X62909312Y-105655250D01*
X62924891Y-105387765D01*
X70423669Y-105387765D01*
X70442975Y-105719239D01*
X70442975Y-105719245D01*
X70442976Y-105719250D01*
X70500635Y-106046251D01*
X70595867Y-106364347D01*
X70595869Y-106364353D01*
X70595870Y-106364354D01*
X70727381Y-106669233D01*
X70727384Y-106669238D01*
X70856464Y-106892811D01*
X70893406Y-106956796D01*
X70893415Y-106956808D01*
X70893417Y-106956811D01*
X71091690Y-107223138D01*
X71319549Y-107464655D01*
X71319553Y-107464659D01*
X71559946Y-107666372D01*
X71573919Y-107678096D01*
X71754019Y-107796550D01*
X71851334Y-107860555D01*
X72148061Y-108009577D01*
X72284235Y-108059140D01*
X72460073Y-108123140D01*
X72460074Y-108123140D01*
X72460082Y-108123143D01*
X72783177Y-108199718D01*
X72971634Y-108221745D01*
X73112974Y-108238266D01*
X73112977Y-108238266D01*
X73445026Y-108238266D01*
X73568697Y-108223810D01*
X73774823Y-108199718D01*
X74097918Y-108123143D01*
X74409939Y-108009577D01*
X74706666Y-107860555D01*
X74984085Y-107678093D01*
X75238447Y-107464659D01*
X75466310Y-107223137D01*
X75664594Y-106956796D01*
X75830617Y-106669236D01*
X75962133Y-106364347D01*
X76057365Y-106046251D01*
X76115024Y-105719250D01*
X76134331Y-105387766D01*
X76134331Y-105387765D01*
X80583669Y-105387765D01*
X80602975Y-105719239D01*
X80602975Y-105719245D01*
X80602976Y-105719250D01*
X80660635Y-106046251D01*
X80755867Y-106364347D01*
X80755869Y-106364353D01*
X80755870Y-106364354D01*
X80887381Y-106669233D01*
X80887384Y-106669238D01*
X81016464Y-106892811D01*
X81053406Y-106956796D01*
X81053415Y-106956808D01*
X81053417Y-106956811D01*
X81251690Y-107223138D01*
X81479549Y-107464655D01*
X81479553Y-107464659D01*
X81719946Y-107666372D01*
X81733919Y-107678096D01*
X81914019Y-107796550D01*
X82011334Y-107860555D01*
X82308061Y-108009577D01*
X82444235Y-108059140D01*
X82620073Y-108123140D01*
X82620074Y-108123140D01*
X82620082Y-108123143D01*
X82943177Y-108199718D01*
X83131634Y-108221745D01*
X83272974Y-108238266D01*
X83272977Y-108238266D01*
X83605026Y-108238266D01*
X83728697Y-108223810D01*
X83934823Y-108199718D01*
X84257918Y-108123143D01*
X84569939Y-108009577D01*
X84866666Y-107860555D01*
X85144085Y-107678093D01*
X85398447Y-107464659D01*
X85626310Y-107223137D01*
X85824594Y-106956796D01*
X85990617Y-106669236D01*
X86122133Y-106364347D01*
X86140470Y-106303096D01*
X108941372Y-106303096D01*
X108947791Y-106395566D01*
X108947792Y-106395573D01*
X108998726Y-106612134D01*
X108998729Y-106612143D01*
X109088594Y-106815670D01*
X109214330Y-106999221D01*
X109214333Y-106999225D01*
X109371646Y-107156538D01*
X109371650Y-107156541D01*
X109371651Y-107156542D01*
X109555201Y-107282277D01*
X109758729Y-107372143D01*
X109758735Y-107372144D01*
X109758737Y-107372145D01*
X109813066Y-107384923D01*
X109975305Y-107423081D01*
X110047680Y-107428104D01*
X110067776Y-107429500D01*
X110067780Y-107429500D01*
X112615968Y-107429500D01*
X112635027Y-107428176D01*
X112708439Y-107423081D01*
X112925015Y-107372143D01*
X113128543Y-107282277D01*
X113312093Y-107156542D01*
X113469414Y-106999221D01*
X113595149Y-106815671D01*
X113685015Y-106612143D01*
X113735953Y-106395567D01*
X113742372Y-106303092D01*
X113742372Y-103754908D01*
X113735953Y-103662433D01*
X113685015Y-103445857D01*
X113595149Y-103242329D01*
X113469414Y-103058779D01*
X113469413Y-103058778D01*
X113469410Y-103058774D01*
X113312097Y-102901461D01*
X113312093Y-102901458D01*
X113128542Y-102775722D01*
X112925015Y-102685857D01*
X112925006Y-102685854D01*
X112708445Y-102634920D01*
X112708440Y-102634919D01*
X112708439Y-102634919D01*
X112689943Y-102633635D01*
X112615968Y-102628500D01*
X112615964Y-102628500D01*
X110067780Y-102628500D01*
X110067776Y-102628500D01*
X109975305Y-102634919D01*
X109975298Y-102634920D01*
X109758737Y-102685854D01*
X109758728Y-102685857D01*
X109555201Y-102775722D01*
X109371650Y-102901458D01*
X109371646Y-102901461D01*
X109214333Y-103058774D01*
X109214330Y-103058778D01*
X109088594Y-103242329D01*
X108998729Y-103445856D01*
X108998726Y-103445865D01*
X108947792Y-103662426D01*
X108947791Y-103662433D01*
X108941372Y-103754904D01*
X108941372Y-106303096D01*
X86140470Y-106303096D01*
X86217365Y-106046251D01*
X86275024Y-105719250D01*
X86294331Y-105387766D01*
X86275024Y-105056282D01*
X86217365Y-104729281D01*
X86122133Y-104411185D01*
X85990617Y-104106296D01*
X85824594Y-103818736D01*
X85776936Y-103754720D01*
X85626309Y-103552393D01*
X85398450Y-103310876D01*
X85398445Y-103310871D01*
X85144080Y-103097435D01*
X84866673Y-102914981D01*
X84866669Y-102914979D01*
X84866666Y-102914977D01*
X84569939Y-102765955D01*
X84569934Y-102765953D01*
X84569929Y-102765951D01*
X84257926Y-102652391D01*
X84257921Y-102652390D01*
X84257920Y-102652389D01*
X84257918Y-102652389D01*
X84080407Y-102610318D01*
X83934824Y-102575814D01*
X83934818Y-102575813D01*
X83605026Y-102537266D01*
X83605023Y-102537266D01*
X83272977Y-102537266D01*
X83272974Y-102537266D01*
X82943181Y-102575813D01*
X82943175Y-102575814D01*
X82620078Y-102652390D01*
X82620073Y-102652391D01*
X82308070Y-102765951D01*
X82308065Y-102765953D01*
X82011326Y-102914981D01*
X81733919Y-103097435D01*
X81479554Y-103310871D01*
X81479549Y-103310876D01*
X81251690Y-103552393D01*
X81053417Y-103818720D01*
X81053399Y-103818747D01*
X80887384Y-104106293D01*
X80887381Y-104106298D01*
X80755870Y-104411177D01*
X80755868Y-104411183D01*
X80660635Y-104729280D01*
X80602975Y-105056286D01*
X80602975Y-105056292D01*
X80583669Y-105387765D01*
X76134331Y-105387765D01*
X76115024Y-105056282D01*
X76057365Y-104729281D01*
X75962133Y-104411185D01*
X75830617Y-104106296D01*
X75664594Y-103818736D01*
X75616936Y-103754720D01*
X75466309Y-103552393D01*
X75238450Y-103310876D01*
X75238445Y-103310871D01*
X74984080Y-103097435D01*
X74706673Y-102914981D01*
X74706669Y-102914979D01*
X74706666Y-102914977D01*
X74409939Y-102765955D01*
X74409934Y-102765953D01*
X74409929Y-102765951D01*
X74097926Y-102652391D01*
X74097921Y-102652390D01*
X74097920Y-102652389D01*
X74097918Y-102652389D01*
X73920407Y-102610318D01*
X73774824Y-102575814D01*
X73774818Y-102575813D01*
X73445026Y-102537266D01*
X73445023Y-102537266D01*
X73112977Y-102537266D01*
X73112974Y-102537266D01*
X72783181Y-102575813D01*
X72783175Y-102575814D01*
X72460078Y-102652390D01*
X72460073Y-102652391D01*
X72148070Y-102765951D01*
X72148065Y-102765953D01*
X71851326Y-102914981D01*
X71573919Y-103097435D01*
X71319554Y-103310871D01*
X71319549Y-103310876D01*
X71091690Y-103552393D01*
X70893417Y-103818720D01*
X70893399Y-103818747D01*
X70727384Y-104106293D01*
X70727381Y-104106298D01*
X70595870Y-104411177D01*
X70595868Y-104411183D01*
X70500635Y-104729280D01*
X70442975Y-105056286D01*
X70442975Y-105056292D01*
X70423669Y-105387765D01*
X62924891Y-105387765D01*
X62928619Y-105323766D01*
X62909312Y-104992282D01*
X62851653Y-104665281D01*
X62756421Y-104347185D01*
X62624905Y-104042296D01*
X62458882Y-103754736D01*
X62366731Y-103630956D01*
X62260597Y-103488393D01*
X62032738Y-103246876D01*
X62032733Y-103246871D01*
X61778368Y-103033435D01*
X61500961Y-102850981D01*
X61500957Y-102850979D01*
X61500954Y-102850977D01*
X61204227Y-102701955D01*
X61204222Y-102701953D01*
X61204217Y-102701951D01*
X60892214Y-102588391D01*
X60892209Y-102588390D01*
X60892208Y-102588389D01*
X60892206Y-102588389D01*
X60714695Y-102546318D01*
X60569112Y-102511814D01*
X60569106Y-102511813D01*
X60239314Y-102473266D01*
X60239311Y-102473266D01*
X59907265Y-102473266D01*
X59907262Y-102473266D01*
X59577469Y-102511813D01*
X59577463Y-102511814D01*
X59254366Y-102588390D01*
X59254361Y-102588391D01*
X58942358Y-102701951D01*
X58942353Y-102701953D01*
X58645614Y-102850981D01*
X58368207Y-103033435D01*
X58113842Y-103246871D01*
X58113837Y-103246876D01*
X57885978Y-103488393D01*
X57687705Y-103754720D01*
X57687687Y-103754747D01*
X57521672Y-104042293D01*
X57521669Y-104042298D01*
X57390158Y-104347177D01*
X57390156Y-104347183D01*
X57294923Y-104665280D01*
X57237263Y-104992286D01*
X57237263Y-104992292D01*
X57217957Y-105323766D01*
X43006511Y-105323766D01*
X43007800Y-105305192D01*
X43007800Y-103940008D01*
X43001381Y-103847533D01*
X42950443Y-103630957D01*
X42860577Y-103427429D01*
X42734842Y-103243879D01*
X42734841Y-103243878D01*
X42734838Y-103243874D01*
X42577525Y-103086561D01*
X42577521Y-103086558D01*
X42393970Y-102960822D01*
X42190443Y-102870957D01*
X42190434Y-102870954D01*
X41973873Y-102820020D01*
X41973868Y-102820019D01*
X41973867Y-102820019D01*
X41955372Y-102818735D01*
X41881396Y-102813600D01*
X41881392Y-102813600D01*
X40516208Y-102813600D01*
X40516204Y-102813600D01*
X40423733Y-102820019D01*
X40423726Y-102820020D01*
X40207165Y-102870954D01*
X40207156Y-102870957D01*
X40003629Y-102960822D01*
X39820078Y-103086558D01*
X39820074Y-103086561D01*
X39662761Y-103243874D01*
X39662758Y-103243878D01*
X39537022Y-103427429D01*
X39447157Y-103630956D01*
X39447154Y-103630965D01*
X39396220Y-103847526D01*
X39396219Y-103847533D01*
X39389800Y-103940004D01*
X39389800Y-105305196D01*
X34574000Y-105305196D01*
X34574000Y-105274943D01*
X34573999Y-105274937D01*
X34563386Y-105186558D01*
X34563385Y-105186552D01*
X34507919Y-105045902D01*
X34416565Y-104925434D01*
X34296097Y-104834080D01*
X34155447Y-104778614D01*
X34155441Y-104778613D01*
X34067062Y-104768000D01*
X33524000Y-104768000D01*
X33524000Y-105303390D01*
X33503998Y-105371511D01*
X33450342Y-105418004D01*
X33380070Y-105428108D01*
X33321605Y-105419702D01*
X33309763Y-105418000D01*
X33238237Y-105418000D01*
X33226394Y-105419702D01*
X33167930Y-105428108D01*
X33097656Y-105418003D01*
X33044001Y-105371510D01*
X33024000Y-105303390D01*
X33024000Y-104768000D01*
X32480937Y-104768000D01*
X32392558Y-104778613D01*
X32392552Y-104778614D01*
X32251902Y-104834080D01*
X32131434Y-104925434D01*
X32040080Y-105045902D01*
X31984614Y-105186552D01*
X31984613Y-105186558D01*
X31974000Y-105274937D01*
X31974000Y-105668000D01*
X32657982Y-105668000D01*
X32726103Y-105688002D01*
X32772596Y-105741658D01*
X32782700Y-105811932D01*
X32778878Y-105829498D01*
X32774000Y-105846110D01*
X32774000Y-105989889D01*
X32778878Y-106006502D01*
X32778878Y-106077498D01*
X32740494Y-106137224D01*
X32675914Y-106166718D01*
X32657982Y-106168000D01*
X31974000Y-106168000D01*
X31974000Y-106561062D01*
X31984613Y-106649441D01*
X31984614Y-106649447D01*
X32040080Y-106790097D01*
X32131436Y-106910567D01*
X32134623Y-106913754D01*
X32136604Y-106917382D01*
X32136642Y-106917432D01*
X32136634Y-106917437D01*
X32168649Y-106976066D01*
X32163584Y-107046881D01*
X32127359Y-107098660D01*
X31953307Y-107247313D01*
X31784590Y-107444856D01*
X31784585Y-107444863D01*
X31648847Y-107666370D01*
X31549427Y-107906389D01*
X31512754Y-108059143D01*
X31488779Y-108159006D01*
X31468396Y-108418000D01*
X23600500Y-108418000D01*
X23600500Y-100474400D01*
X24535679Y-100474400D01*
X24630380Y-100703029D01*
X24761971Y-100917766D01*
X24761972Y-100917768D01*
X24925529Y-101109270D01*
X25117031Y-101272827D01*
X25117033Y-101272828D01*
X25331768Y-101404417D01*
X25331767Y-101404417D01*
X25560400Y-101499119D01*
X25560400Y-100654326D01*
X25580402Y-100586205D01*
X25634058Y-100539712D01*
X25704332Y-100529608D01*
X25747101Y-100543912D01*
X25774779Y-100559128D01*
X25819217Y-100583558D01*
X25978286Y-100624400D01*
X25978289Y-100624400D01*
X26101290Y-100624400D01*
X26101294Y-100624400D01*
X26169086Y-100615836D01*
X26223328Y-100608984D01*
X26223328Y-100608983D01*
X26223333Y-100608983D01*
X26376029Y-100548526D01*
X26376029Y-100548525D01*
X26383399Y-100545608D01*
X26384149Y-100547504D01*
X26443013Y-100534516D01*
X26509607Y-100559128D01*
X26552324Y-100615836D01*
X26560400Y-100660221D01*
X26560400Y-101499119D01*
X26789031Y-101404417D01*
X26880286Y-101348496D01*
X28639900Y-101348496D01*
X28646319Y-101440966D01*
X28646320Y-101440973D01*
X28697254Y-101657534D01*
X28697257Y-101657543D01*
X28787122Y-101861070D01*
X28912858Y-102044621D01*
X28912861Y-102044625D01*
X29070174Y-102201938D01*
X29070178Y-102201941D01*
X29070179Y-102201942D01*
X29253729Y-102327677D01*
X29457257Y-102417543D01*
X29457263Y-102417544D01*
X29457265Y-102417545D01*
X29511594Y-102430323D01*
X29673833Y-102468481D01*
X29746208Y-102473504D01*
X29766304Y-102474900D01*
X29766308Y-102474900D01*
X32514496Y-102474900D01*
X32533555Y-102473576D01*
X32606967Y-102468481D01*
X32823543Y-102417543D01*
X33027071Y-102327677D01*
X33210621Y-102201942D01*
X33367942Y-102044621D01*
X33493677Y-101861071D01*
X33583543Y-101657543D01*
X33634481Y-101440967D01*
X33640900Y-101348492D01*
X33640900Y-98600308D01*
X33634481Y-98507833D01*
X33583543Y-98291257D01*
X33493677Y-98087729D01*
X33367942Y-97904179D01*
X33367941Y-97904178D01*
X33367938Y-97904174D01*
X33210625Y-97746861D01*
X33210621Y-97746858D01*
X33027070Y-97621122D01*
X32823543Y-97531257D01*
X32823534Y-97531254D01*
X32606973Y-97480320D01*
X32606968Y-97480319D01*
X32606967Y-97480319D01*
X32588471Y-97479035D01*
X32514496Y-97473900D01*
X32514492Y-97473900D01*
X31896383Y-97473900D01*
X31828262Y-97453898D01*
X31781769Y-97400242D01*
X31771665Y-97329968D01*
X31801159Y-97265388D01*
X31835996Y-97237313D01*
X31966915Y-97165826D01*
X32195995Y-96994339D01*
X32398339Y-96791995D01*
X32569826Y-96562915D01*
X32569829Y-96562909D01*
X32569831Y-96562907D01*
X32706962Y-96311770D01*
X32706967Y-96311761D01*
X32806969Y-96043646D01*
X32867796Y-95764028D01*
X32888210Y-95478600D01*
X32867796Y-95193172D01*
X32806969Y-94913554D01*
X32706967Y-94645439D01*
X32706962Y-94645429D01*
X32569831Y-94394292D01*
X32569827Y-94394287D01*
X32569826Y-94394285D01*
X32398339Y-94165205D01*
X32220627Y-93987493D01*
X32186604Y-93925184D01*
X32191668Y-93854368D01*
X32220627Y-93809306D01*
X32412939Y-93616995D01*
X32584426Y-93387915D01*
X32584429Y-93387909D01*
X32584431Y-93387907D01*
X32721562Y-93136770D01*
X32721567Y-93136761D01*
X32821569Y-92868646D01*
X32882396Y-92589028D01*
X32902810Y-92303600D01*
X32890337Y-92129205D01*
X40630697Y-92129205D01*
X40632854Y-92164873D01*
X40632939Y-92170616D01*
X40631743Y-92209434D01*
X40631743Y-92209436D01*
X40642706Y-92327736D01*
X40649691Y-92443227D01*
X40649694Y-92443245D01*
X40656703Y-92481491D01*
X40657466Y-92487034D01*
X40661341Y-92528851D01*
X40686101Y-92641909D01*
X40706398Y-92752667D01*
X40706401Y-92752677D01*
X40718912Y-92792829D01*
X40720306Y-92798093D01*
X40729970Y-92842218D01*
X40750224Y-92899693D01*
X40767409Y-92948461D01*
X40781947Y-92995113D01*
X40799996Y-93053035D01*
X40818555Y-93094272D01*
X40820521Y-93099183D01*
X40836584Y-93144764D01*
X40885423Y-93242847D01*
X40898263Y-93271375D01*
X40929107Y-93339910D01*
X40929111Y-93339917D01*
X40954144Y-93381328D01*
X40956618Y-93385825D01*
X40979571Y-93431921D01*
X40979572Y-93431923D01*
X41038397Y-93520699D01*
X41091867Y-93609150D01*
X41123652Y-93649720D01*
X41126577Y-93653776D01*
X41156758Y-93699326D01*
X41156760Y-93699328D01*
X41224048Y-93777867D01*
X41285887Y-93856799D01*
X41285890Y-93856802D01*
X41324569Y-93895481D01*
X41327853Y-93899028D01*
X41365470Y-93942935D01*
X41365472Y-93942937D01*
X41438552Y-94009559D01*
X41440636Y-94011548D01*
X41483728Y-94054640D01*
X41508349Y-94079261D01*
X41508353Y-94079265D01*
X41553896Y-94114945D01*
X41557475Y-94117971D01*
X41602536Y-94159049D01*
X41674302Y-94209851D01*
X41680650Y-94214344D01*
X41683100Y-94216169D01*
X41755998Y-94273281D01*
X41808221Y-94304850D01*
X41812022Y-94307341D01*
X41864350Y-94344383D01*
X41864355Y-94344386D01*
X41864362Y-94344391D01*
X41921139Y-94374880D01*
X41945901Y-94388177D01*
X41948671Y-94389756D01*
X42025229Y-94436037D01*
X42083746Y-94462373D01*
X42087687Y-94464315D01*
X42146979Y-94496154D01*
X42230358Y-94528454D01*
X42233431Y-94529740D01*
X42312115Y-94565154D01*
X42376404Y-94585187D01*
X42380406Y-94586584D01*
X42446103Y-94612035D01*
X42446107Y-94612036D01*
X42446113Y-94612038D01*
X42529734Y-94633069D01*
X42533110Y-94634019D01*
X42569727Y-94645429D01*
X42612472Y-94658749D01*
X42612479Y-94658750D01*
X42612486Y-94658752D01*
X42638844Y-94663582D01*
X42681817Y-94671457D01*
X42685819Y-94672326D01*
X42757201Y-94690279D01*
X42807886Y-94696554D01*
X42839634Y-94700486D01*
X42843239Y-94701038D01*
X42921921Y-94715458D01*
X42995484Y-94719907D01*
X42999355Y-94720264D01*
X43075557Y-94729700D01*
X43155469Y-94729700D01*
X43159272Y-94729814D01*
X43193018Y-94731856D01*
X43235949Y-94734453D01*
X43235950Y-94734453D01*
X43312952Y-94729795D01*
X43316054Y-94729700D01*
X43316076Y-94729700D01*
X43394768Y-94724846D01*
X43394768Y-94724845D01*
X43549969Y-94715459D01*
X43549975Y-94715458D01*
X43549979Y-94715458D01*
X43549982Y-94715457D01*
X43551196Y-94715310D01*
X43554926Y-94714967D01*
X43556128Y-94714894D01*
X43709370Y-94686248D01*
X43859428Y-94658749D01*
X43860305Y-94658475D01*
X43867485Y-94656691D01*
X43871453Y-94655950D01*
X44017037Y-94609635D01*
X44159785Y-94565154D01*
X44163538Y-94563464D01*
X44170275Y-94560886D01*
X44177144Y-94558702D01*
X44313099Y-94496152D01*
X44446671Y-94436037D01*
X44452899Y-94432271D01*
X44459157Y-94428955D01*
X44468568Y-94424626D01*
X44593213Y-94347448D01*
X44715902Y-94273281D01*
X44724118Y-94266843D01*
X44729794Y-94262881D01*
X44741306Y-94255754D01*
X44853113Y-94165782D01*
X44963552Y-94079260D01*
X44973177Y-94069633D01*
X44978204Y-94065121D01*
X44991225Y-94054645D01*
X45050285Y-93993737D01*
X45088962Y-93953850D01*
X45137483Y-93905327D01*
X45186010Y-93856802D01*
X45196350Y-93843602D01*
X45200708Y-93838606D01*
X45214535Y-93824348D01*
X45297289Y-93714763D01*
X45380031Y-93609152D01*
X45390341Y-93592094D01*
X45393959Y-93586750D01*
X45407853Y-93568355D01*
X45435367Y-93520699D01*
X45474977Y-93452092D01*
X45512079Y-93390717D01*
X45542787Y-93339921D01*
X45552261Y-93318866D01*
X45555144Y-93313236D01*
X45568246Y-93290545D01*
X45619363Y-93169775D01*
X45671904Y-93053035D01*
X45679715Y-93027963D01*
X45681844Y-93022157D01*
X45682427Y-93020777D01*
X45693284Y-92995131D01*
X45693286Y-92995121D01*
X45693290Y-92995113D01*
X45728330Y-92871954D01*
X45733838Y-92854278D01*
X45765499Y-92752678D01*
X45770801Y-92723744D01*
X45772176Y-92717852D01*
X45772859Y-92715455D01*
X45781072Y-92686590D01*
X45790223Y-92627633D01*
X45800245Y-92563081D01*
X45822207Y-92443235D01*
X45822207Y-92443234D01*
X45822208Y-92443229D01*
X45824174Y-92410702D01*
X45824800Y-92404880D01*
X45830278Y-92369600D01*
X45834031Y-92247757D01*
X45835056Y-92230805D01*
X60174297Y-92230805D01*
X60176454Y-92266473D01*
X60176539Y-92272216D01*
X60175343Y-92311034D01*
X60175343Y-92311036D01*
X60186306Y-92429336D01*
X60193291Y-92544827D01*
X60193294Y-92544845D01*
X60200303Y-92583091D01*
X60201066Y-92588634D01*
X60204941Y-92630451D01*
X60229701Y-92743509D01*
X60249998Y-92854267D01*
X60250001Y-92854277D01*
X60262512Y-92894429D01*
X60263906Y-92899693D01*
X60273570Y-92943818D01*
X60293108Y-92999261D01*
X60311009Y-93050061D01*
X60340519Y-93144762D01*
X60343596Y-93154635D01*
X60362155Y-93195872D01*
X60364124Y-93200790D01*
X60378944Y-93242847D01*
X60380184Y-93246364D01*
X60429023Y-93344447D01*
X60449851Y-93390724D01*
X60472707Y-93441510D01*
X60472711Y-93441517D01*
X60472713Y-93441521D01*
X60487925Y-93466685D01*
X60497744Y-93482928D01*
X60500218Y-93487425D01*
X60523171Y-93533521D01*
X60523172Y-93533523D01*
X60581997Y-93622299D01*
X60635467Y-93710750D01*
X60667252Y-93751320D01*
X60670177Y-93755376D01*
X60700358Y-93800926D01*
X60700360Y-93800928D01*
X60767648Y-93879467D01*
X60829487Y-93958399D01*
X60829490Y-93958402D01*
X60868169Y-93997081D01*
X60871453Y-94000628D01*
X60909070Y-94044535D01*
X60909072Y-94044537D01*
X60982152Y-94111159D01*
X60984236Y-94113148D01*
X61027328Y-94156240D01*
X61051949Y-94180861D01*
X61051953Y-94180865D01*
X61097496Y-94216545D01*
X61101075Y-94219571D01*
X61146136Y-94260649D01*
X61212096Y-94307341D01*
X61224250Y-94315944D01*
X61226700Y-94317769D01*
X61299598Y-94374881D01*
X61351821Y-94406450D01*
X61355622Y-94408941D01*
X61407950Y-94445983D01*
X61407955Y-94445986D01*
X61407962Y-94445991D01*
X61453376Y-94470378D01*
X61489501Y-94489777D01*
X61492271Y-94491356D01*
X61568829Y-94537637D01*
X61627346Y-94563973D01*
X61631287Y-94565915D01*
X61690579Y-94597754D01*
X61773958Y-94630054D01*
X61777031Y-94631340D01*
X61855715Y-94666754D01*
X61918274Y-94686248D01*
X61920004Y-94686787D01*
X61924006Y-94688184D01*
X61989703Y-94713635D01*
X61989707Y-94713636D01*
X61989713Y-94713638D01*
X62073334Y-94734669D01*
X62076710Y-94735619D01*
X62118589Y-94748668D01*
X62156072Y-94760349D01*
X62156079Y-94760350D01*
X62156086Y-94760352D01*
X62188321Y-94766259D01*
X62225417Y-94773057D01*
X62229419Y-94773926D01*
X62300801Y-94791879D01*
X62351486Y-94798154D01*
X62383234Y-94802086D01*
X62386839Y-94802638D01*
X62465521Y-94817058D01*
X62539084Y-94821507D01*
X62542955Y-94821864D01*
X62619157Y-94831300D01*
X62699069Y-94831300D01*
X62702872Y-94831414D01*
X62736618Y-94833456D01*
X62779549Y-94836053D01*
X62779550Y-94836053D01*
X62856552Y-94831395D01*
X62859654Y-94831300D01*
X62859676Y-94831300D01*
X62938368Y-94826446D01*
X62938368Y-94826445D01*
X63093569Y-94817059D01*
X63093575Y-94817058D01*
X63093579Y-94817058D01*
X63093582Y-94817057D01*
X63094796Y-94816910D01*
X63098526Y-94816567D01*
X63099728Y-94816494D01*
X63252970Y-94787848D01*
X63403028Y-94760349D01*
X63403905Y-94760075D01*
X63411085Y-94758291D01*
X63415053Y-94757550D01*
X63560637Y-94711235D01*
X63703385Y-94666754D01*
X63707138Y-94665064D01*
X63713875Y-94662486D01*
X63720744Y-94660302D01*
X63856699Y-94597752D01*
X63990271Y-94537637D01*
X63996499Y-94533871D01*
X64002757Y-94530555D01*
X64012168Y-94526226D01*
X64136813Y-94449048D01*
X64259502Y-94374881D01*
X64267718Y-94368443D01*
X64273394Y-94364481D01*
X64284906Y-94357354D01*
X64396713Y-94267382D01*
X64507152Y-94180860D01*
X64516777Y-94171233D01*
X64521804Y-94166721D01*
X64534825Y-94156245D01*
X64609474Y-94079260D01*
X64632562Y-94055450D01*
X64681083Y-94006927D01*
X64729610Y-93958402D01*
X64739950Y-93945202D01*
X64744308Y-93940206D01*
X64758135Y-93925948D01*
X64840889Y-93816363D01*
X64923631Y-93710752D01*
X64933941Y-93693694D01*
X64937559Y-93688350D01*
X64951453Y-93669955D01*
X64951456Y-93669950D01*
X65018577Y-93553692D01*
X65049287Y-93502891D01*
X65086387Y-93441521D01*
X65095861Y-93420466D01*
X65098744Y-93414836D01*
X65111846Y-93392145D01*
X65162963Y-93271375D01*
X65215504Y-93154635D01*
X65223315Y-93129563D01*
X65225444Y-93123757D01*
X65226027Y-93122377D01*
X65236884Y-93096731D01*
X65236886Y-93096721D01*
X65236890Y-93096713D01*
X65271930Y-92973554D01*
X65271929Y-92973554D01*
X65309099Y-92854278D01*
X65314401Y-92825344D01*
X65315776Y-92819452D01*
X65324670Y-92788197D01*
X65324669Y-92788197D01*
X65324672Y-92788190D01*
X65335137Y-92720774D01*
X65343845Y-92664681D01*
X65365807Y-92544835D01*
X65365807Y-92544834D01*
X65365808Y-92544829D01*
X65367774Y-92512302D01*
X65368400Y-92506480D01*
X65373878Y-92471200D01*
X65377631Y-92349357D01*
X65384803Y-92230800D01*
X65382643Y-92195111D01*
X65382559Y-92189393D01*
X65382848Y-92180005D01*
X80849897Y-92180005D01*
X80852054Y-92215673D01*
X80852139Y-92221416D01*
X80850943Y-92260234D01*
X80850943Y-92260236D01*
X80861906Y-92378536D01*
X80868891Y-92494027D01*
X80868894Y-92494045D01*
X80875903Y-92532291D01*
X80876666Y-92537834D01*
X80880541Y-92579651D01*
X80905301Y-92692709D01*
X80925598Y-92803467D01*
X80925601Y-92803477D01*
X80938112Y-92843629D01*
X80939506Y-92848893D01*
X80949170Y-92893018D01*
X80968708Y-92948461D01*
X80986609Y-92999261D01*
X81019196Y-93103835D01*
X81034018Y-93136770D01*
X81037755Y-93145072D01*
X81039721Y-93149983D01*
X81055784Y-93195564D01*
X81104623Y-93293647D01*
X81125451Y-93339924D01*
X81148307Y-93390710D01*
X81148311Y-93390717D01*
X81173344Y-93432128D01*
X81175818Y-93436625D01*
X81198771Y-93482721D01*
X81198772Y-93482723D01*
X81257597Y-93571499D01*
X81311067Y-93659950D01*
X81342852Y-93700520D01*
X81345777Y-93704576D01*
X81375958Y-93750126D01*
X81375960Y-93750128D01*
X81443248Y-93828667D01*
X81505087Y-93907599D01*
X81505090Y-93907602D01*
X81543769Y-93946281D01*
X81547053Y-93949828D01*
X81584670Y-93993735D01*
X81584672Y-93993737D01*
X81657752Y-94060359D01*
X81659836Y-94062348D01*
X81702928Y-94105440D01*
X81727549Y-94130061D01*
X81727553Y-94130065D01*
X81773096Y-94165745D01*
X81776675Y-94168771D01*
X81821736Y-94209849D01*
X81893502Y-94260651D01*
X81899850Y-94265144D01*
X81902300Y-94266969D01*
X81975198Y-94324081D01*
X82027421Y-94355650D01*
X82031222Y-94358141D01*
X82083550Y-94395183D01*
X82083555Y-94395186D01*
X82083562Y-94395191D01*
X82106721Y-94407627D01*
X82165101Y-94438977D01*
X82167871Y-94440556D01*
X82244429Y-94486837D01*
X82302946Y-94513173D01*
X82306887Y-94515115D01*
X82366179Y-94546954D01*
X82449558Y-94579254D01*
X82452631Y-94580540D01*
X82531315Y-94615954D01*
X82595604Y-94635987D01*
X82599606Y-94637384D01*
X82665303Y-94662835D01*
X82665307Y-94662836D01*
X82665313Y-94662838D01*
X82748934Y-94683869D01*
X82752310Y-94684819D01*
X82794189Y-94697868D01*
X82831672Y-94709549D01*
X82831679Y-94709550D01*
X82831686Y-94709552D01*
X82863921Y-94715459D01*
X82901017Y-94722257D01*
X82905019Y-94723126D01*
X82976401Y-94741079D01*
X83027086Y-94747354D01*
X83058834Y-94751286D01*
X83062439Y-94751838D01*
X83141121Y-94766258D01*
X83214684Y-94770707D01*
X83218555Y-94771064D01*
X83294757Y-94780500D01*
X83374669Y-94780500D01*
X83378472Y-94780614D01*
X83412218Y-94782656D01*
X83455149Y-94785253D01*
X83455150Y-94785253D01*
X83532152Y-94780595D01*
X83535254Y-94780500D01*
X83535276Y-94780500D01*
X83613968Y-94775646D01*
X83613967Y-94775646D01*
X83769169Y-94766259D01*
X83769175Y-94766258D01*
X83769179Y-94766258D01*
X83769182Y-94766257D01*
X83770396Y-94766110D01*
X83774126Y-94765767D01*
X83775328Y-94765694D01*
X83928570Y-94737048D01*
X84078628Y-94709549D01*
X84079505Y-94709275D01*
X84086685Y-94707491D01*
X84090653Y-94706750D01*
X84236237Y-94660435D01*
X84378985Y-94615954D01*
X84382738Y-94614264D01*
X84389475Y-94611686D01*
X84396344Y-94609502D01*
X84532299Y-94546952D01*
X84665871Y-94486837D01*
X84672099Y-94483071D01*
X84678357Y-94479755D01*
X84687768Y-94475426D01*
X84812413Y-94398248D01*
X84935102Y-94324081D01*
X84943318Y-94317643D01*
X84948994Y-94313681D01*
X84960506Y-94306554D01*
X85072313Y-94216582D01*
X85182752Y-94130060D01*
X85192377Y-94120433D01*
X85197404Y-94115921D01*
X85210425Y-94105445D01*
X85269485Y-94044537D01*
X85308162Y-94004650D01*
X85356683Y-93956127D01*
X85405210Y-93907602D01*
X85415550Y-93894402D01*
X85419908Y-93889406D01*
X85433735Y-93875148D01*
X85516489Y-93765563D01*
X85599231Y-93659952D01*
X85609541Y-93642894D01*
X85613159Y-93637550D01*
X85627053Y-93619155D01*
X85628294Y-93617005D01*
X85694177Y-93502892D01*
X85731279Y-93441517D01*
X85761987Y-93390721D01*
X85771461Y-93369666D01*
X85774344Y-93364036D01*
X85787446Y-93341345D01*
X85838563Y-93220575D01*
X85891104Y-93103835D01*
X85898915Y-93078763D01*
X85901044Y-93072957D01*
X85901627Y-93071577D01*
X85912484Y-93045931D01*
X85912486Y-93045921D01*
X85912490Y-93045913D01*
X85947530Y-92922754D01*
X85952932Y-92905418D01*
X85984699Y-92803478D01*
X85990001Y-92774544D01*
X85991376Y-92768652D01*
X86000270Y-92737397D01*
X86000269Y-92737397D01*
X86000272Y-92737390D01*
X86009423Y-92678433D01*
X86019445Y-92613881D01*
X86041407Y-92494035D01*
X86041407Y-92494034D01*
X86041408Y-92494029D01*
X86043374Y-92461502D01*
X86044000Y-92455680D01*
X86049478Y-92420400D01*
X86053231Y-92298557D01*
X86057330Y-92230805D01*
X100436697Y-92230805D01*
X100438854Y-92266473D01*
X100438939Y-92272216D01*
X100437743Y-92311034D01*
X100437743Y-92311036D01*
X100448706Y-92429336D01*
X100455691Y-92544827D01*
X100455694Y-92544845D01*
X100462703Y-92583091D01*
X100463466Y-92588634D01*
X100467341Y-92630451D01*
X100492101Y-92743509D01*
X100512398Y-92854267D01*
X100512401Y-92854277D01*
X100524912Y-92894429D01*
X100526306Y-92899693D01*
X100535970Y-92943818D01*
X100555508Y-92999261D01*
X100573409Y-93050061D01*
X100602919Y-93144762D01*
X100605996Y-93154635D01*
X100624555Y-93195872D01*
X100626524Y-93200790D01*
X100641344Y-93242847D01*
X100642584Y-93246364D01*
X100691423Y-93344447D01*
X100712251Y-93390724D01*
X100735107Y-93441510D01*
X100735111Y-93441517D01*
X100735113Y-93441521D01*
X100750325Y-93466685D01*
X100760144Y-93482928D01*
X100762618Y-93487425D01*
X100785571Y-93533521D01*
X100785572Y-93533523D01*
X100844397Y-93622299D01*
X100897867Y-93710750D01*
X100929652Y-93751320D01*
X100932577Y-93755376D01*
X100962758Y-93800926D01*
X100962760Y-93800928D01*
X101030048Y-93879467D01*
X101091887Y-93958399D01*
X101091890Y-93958402D01*
X101130569Y-93997081D01*
X101133853Y-94000628D01*
X101171470Y-94044535D01*
X101171472Y-94044537D01*
X101244552Y-94111159D01*
X101246636Y-94113148D01*
X101289728Y-94156240D01*
X101314349Y-94180861D01*
X101314353Y-94180865D01*
X101359896Y-94216545D01*
X101363475Y-94219571D01*
X101408536Y-94260649D01*
X101474496Y-94307341D01*
X101486650Y-94315944D01*
X101489100Y-94317769D01*
X101561998Y-94374881D01*
X101614221Y-94406450D01*
X101618022Y-94408941D01*
X101670350Y-94445983D01*
X101670355Y-94445986D01*
X101670362Y-94445991D01*
X101715776Y-94470378D01*
X101751901Y-94489777D01*
X101754671Y-94491356D01*
X101831229Y-94537637D01*
X101889746Y-94563973D01*
X101893687Y-94565915D01*
X101952979Y-94597754D01*
X102036358Y-94630054D01*
X102039431Y-94631340D01*
X102118115Y-94666754D01*
X102180674Y-94686248D01*
X102182404Y-94686787D01*
X102186406Y-94688184D01*
X102252103Y-94713635D01*
X102252107Y-94713636D01*
X102252113Y-94713638D01*
X102335734Y-94734669D01*
X102339110Y-94735619D01*
X102380989Y-94748668D01*
X102418472Y-94760349D01*
X102418479Y-94760350D01*
X102418486Y-94760352D01*
X102450721Y-94766259D01*
X102487817Y-94773057D01*
X102491819Y-94773926D01*
X102563201Y-94791879D01*
X102613886Y-94798154D01*
X102645634Y-94802086D01*
X102649239Y-94802638D01*
X102727921Y-94817058D01*
X102801484Y-94821507D01*
X102805355Y-94821864D01*
X102881557Y-94831300D01*
X102961469Y-94831300D01*
X102965272Y-94831414D01*
X102999018Y-94833456D01*
X103041949Y-94836053D01*
X103041950Y-94836053D01*
X103118952Y-94831395D01*
X103122054Y-94831300D01*
X103122076Y-94831300D01*
X103200768Y-94826446D01*
X103200768Y-94826445D01*
X103355969Y-94817059D01*
X103355975Y-94817058D01*
X103355979Y-94817058D01*
X103355982Y-94817057D01*
X103357196Y-94816910D01*
X103360926Y-94816567D01*
X103362128Y-94816494D01*
X103515370Y-94787848D01*
X103665428Y-94760349D01*
X103666305Y-94760075D01*
X103673485Y-94758291D01*
X103677453Y-94757550D01*
X103823037Y-94711235D01*
X103965785Y-94666754D01*
X103969538Y-94665064D01*
X103976275Y-94662486D01*
X103983144Y-94660302D01*
X104119099Y-94597752D01*
X104252671Y-94537637D01*
X104258899Y-94533871D01*
X104265157Y-94530555D01*
X104274568Y-94526226D01*
X104399213Y-94449048D01*
X104521902Y-94374881D01*
X104530118Y-94368443D01*
X104535794Y-94364481D01*
X104547306Y-94357354D01*
X104659113Y-94267382D01*
X104769552Y-94180860D01*
X104779177Y-94171233D01*
X104784204Y-94166721D01*
X104797225Y-94156245D01*
X104871874Y-94079260D01*
X104894962Y-94055450D01*
X104943483Y-94006927D01*
X104992010Y-93958402D01*
X105002350Y-93945202D01*
X105006708Y-93940206D01*
X105020535Y-93925948D01*
X105103289Y-93816363D01*
X105186031Y-93710752D01*
X105196341Y-93693694D01*
X105199959Y-93688350D01*
X105213853Y-93669955D01*
X105213856Y-93669950D01*
X105280977Y-93553692D01*
X105311687Y-93502891D01*
X105348787Y-93441521D01*
X105358261Y-93420466D01*
X105361144Y-93414836D01*
X105374246Y-93392145D01*
X105425363Y-93271375D01*
X105477904Y-93154635D01*
X105485715Y-93129563D01*
X105487844Y-93123757D01*
X105488427Y-93122377D01*
X105499284Y-93096731D01*
X105499286Y-93096721D01*
X105499290Y-93096713D01*
X105534330Y-92973554D01*
X105534329Y-92973554D01*
X105571499Y-92854278D01*
X105576801Y-92825344D01*
X105578176Y-92819452D01*
X105587070Y-92788197D01*
X105587069Y-92788197D01*
X105587072Y-92788190D01*
X105597537Y-92720774D01*
X105606245Y-92664681D01*
X105628207Y-92544835D01*
X105628207Y-92544834D01*
X105628208Y-92544829D01*
X105630174Y-92512302D01*
X105630800Y-92506480D01*
X105636278Y-92471200D01*
X105640031Y-92349357D01*
X105647203Y-92230800D01*
X105645043Y-92195111D01*
X105644959Y-92189393D01*
X105646156Y-92150565D01*
X105644176Y-92129201D01*
X105635193Y-92032263D01*
X105632661Y-91990400D01*
X105628208Y-91916771D01*
X105621193Y-91878496D01*
X105620433Y-91872967D01*
X105619785Y-91865972D01*
X105616558Y-91831147D01*
X105591798Y-91718090D01*
X105577880Y-91642141D01*
X105571501Y-91607332D01*
X105571500Y-91607329D01*
X105571499Y-91607322D01*
X105558979Y-91567148D01*
X105557596Y-91561925D01*
X105547931Y-91517787D01*
X105510490Y-91411538D01*
X105477904Y-91306965D01*
X105459342Y-91265723D01*
X105457375Y-91260809D01*
X105455740Y-91256168D01*
X105441316Y-91215236D01*
X105441163Y-91214929D01*
X105425080Y-91182630D01*
X105392476Y-91117152D01*
X105348787Y-91020079D01*
X105323758Y-90978676D01*
X105321277Y-90974166D01*
X105318845Y-90969282D01*
X105298329Y-90928079D01*
X105239502Y-90839300D01*
X105186031Y-90750848D01*
X105154253Y-90710287D01*
X105151326Y-90706230D01*
X105121138Y-90660670D01*
X105082674Y-90615774D01*
X105053851Y-90582131D01*
X104992010Y-90503198D01*
X104973663Y-90484851D01*
X104953328Y-90464516D01*
X104950045Y-90460969D01*
X104912429Y-90417064D01*
X104912428Y-90417063D01*
X104839345Y-90350439D01*
X104837262Y-90348450D01*
X104769552Y-90280740D01*
X104769551Y-90280739D01*
X104769550Y-90280738D01*
X104724008Y-90245058D01*
X104720419Y-90242023D01*
X104675369Y-90200955D01*
X104675360Y-90200947D01*
X104597238Y-90145647D01*
X104594803Y-90143833D01*
X104521902Y-90086719D01*
X104521899Y-90086717D01*
X104521897Y-90086715D01*
X104469681Y-90055150D01*
X104465873Y-90052655D01*
X104413549Y-90015616D01*
X104413542Y-90015612D01*
X104413538Y-90015609D01*
X104376123Y-89995517D01*
X104332003Y-89971824D01*
X104329217Y-89970235D01*
X104252676Y-89923966D01*
X104252675Y-89923965D01*
X104252671Y-89923963D01*
X104210844Y-89905138D01*
X104194148Y-89897623D01*
X104190200Y-89895677D01*
X104130918Y-89863844D01*
X104047558Y-89831551D01*
X104044472Y-89830260D01*
X103965785Y-89794846D01*
X103965780Y-89794844D01*
X103965777Y-89794843D01*
X103901497Y-89774812D01*
X103897482Y-89773410D01*
X103831807Y-89747968D01*
X103831800Y-89747966D01*
X103831798Y-89747965D01*
X103831797Y-89747965D01*
X103812758Y-89743176D01*
X103748171Y-89726931D01*
X103744796Y-89725982D01*
X103665437Y-89701253D01*
X103665425Y-89701250D01*
X103596084Y-89688542D01*
X103592074Y-89687671D01*
X103520700Y-89669721D01*
X103438258Y-89659512D01*
X103434651Y-89658959D01*
X103379018Y-89648764D01*
X103355985Y-89644543D01*
X103355973Y-89644541D01*
X103282447Y-89640093D01*
X103278510Y-89639730D01*
X103202349Y-89630300D01*
X103202343Y-89630300D01*
X103122431Y-89630300D01*
X103118627Y-89630185D01*
X103084881Y-89628143D01*
X103041951Y-89625547D01*
X103041946Y-89625547D01*
X102964991Y-89630201D01*
X102961831Y-89630299D01*
X102883131Y-89635153D01*
X102727911Y-89644542D01*
X102726659Y-89644694D01*
X102722977Y-89645031D01*
X102721779Y-89645105D01*
X102721774Y-89645105D01*
X102721772Y-89645106D01*
X102568529Y-89673751D01*
X102418478Y-89701250D01*
X102418456Y-89701254D01*
X102418432Y-89701260D01*
X102417522Y-89701543D01*
X102410409Y-89703308D01*
X102406452Y-89704048D01*
X102406450Y-89704049D01*
X102260862Y-89750364D01*
X102118119Y-89794844D01*
X102118090Y-89794855D01*
X102114354Y-89796536D01*
X102107622Y-89799112D01*
X102100767Y-89801293D01*
X102100756Y-89801298D01*
X101964803Y-89863846D01*
X101831236Y-89923958D01*
X101831226Y-89923964D01*
X101825008Y-89927723D01*
X101818753Y-89931039D01*
X101809336Y-89935371D01*
X101684686Y-90012551D01*
X101562000Y-90086716D01*
X101561998Y-90086718D01*
X101553786Y-90093151D01*
X101548105Y-90097117D01*
X101536597Y-90104243D01*
X101424786Y-90194217D01*
X101314353Y-90280735D01*
X101314346Y-90280741D01*
X101304732Y-90290353D01*
X101299691Y-90294878D01*
X101286683Y-90305348D01*
X101286664Y-90305364D01*
X101188937Y-90406149D01*
X101091891Y-90503196D01*
X101091887Y-90503201D01*
X101081553Y-90516390D01*
X101077192Y-90521390D01*
X101063365Y-90535651D01*
X101021987Y-90590444D01*
X100980610Y-90645236D01*
X100961935Y-90669073D01*
X100897869Y-90750846D01*
X100897864Y-90750855D01*
X100887563Y-90767894D01*
X100883924Y-90773268D01*
X100870053Y-90791636D01*
X100870046Y-90791646D01*
X100802922Y-90907908D01*
X100735111Y-91020081D01*
X100735111Y-91020082D01*
X100725638Y-91041129D01*
X100722748Y-91046773D01*
X100709657Y-91069448D01*
X100709651Y-91069460D01*
X100658536Y-91190224D01*
X100605994Y-91306968D01*
X100598188Y-91332019D01*
X100596058Y-91337832D01*
X100584616Y-91364865D01*
X100549569Y-91488045D01*
X100512403Y-91607316D01*
X100512400Y-91607327D01*
X100507097Y-91636257D01*
X100505724Y-91642141D01*
X100496830Y-91673398D01*
X100496828Y-91673408D01*
X100496828Y-91673410D01*
X100486715Y-91738553D01*
X100477655Y-91796918D01*
X100457936Y-91904527D01*
X100455692Y-91916771D01*
X100455591Y-91918435D01*
X100453725Y-91949282D01*
X100453094Y-91955142D01*
X100447623Y-91990390D01*
X100447620Y-91990416D01*
X100443868Y-92112242D01*
X100436697Y-92230797D01*
X100436697Y-92230805D01*
X86057330Y-92230805D01*
X86060403Y-92180000D01*
X86058243Y-92144311D01*
X86058159Y-92138593D01*
X86059356Y-92099765D01*
X86056185Y-92065551D01*
X86048393Y-91981463D01*
X86045861Y-91939600D01*
X86041408Y-91865971D01*
X86034393Y-91827696D01*
X86033633Y-91822167D01*
X86032985Y-91815172D01*
X86029758Y-91780347D01*
X86004998Y-91667290D01*
X85994009Y-91607327D01*
X85984701Y-91556532D01*
X85984700Y-91556529D01*
X85984699Y-91556522D01*
X85972179Y-91516348D01*
X85970796Y-91511125D01*
X85961131Y-91466987D01*
X85923690Y-91360738D01*
X85891104Y-91256165D01*
X85872542Y-91214923D01*
X85870575Y-91210009D01*
X85868940Y-91205368D01*
X85854516Y-91164436D01*
X85854363Y-91164129D01*
X85830971Y-91117152D01*
X85805676Y-91066352D01*
X85761987Y-90969279D01*
X85736958Y-90927876D01*
X85734477Y-90923366D01*
X85732045Y-90918482D01*
X85711529Y-90877279D01*
X85652702Y-90788500D01*
X85629945Y-90750855D01*
X85599233Y-90700051D01*
X85567453Y-90659487D01*
X85564526Y-90655430D01*
X85534338Y-90609870D01*
X85495874Y-90564974D01*
X85467051Y-90531331D01*
X85405210Y-90452398D01*
X85386863Y-90434051D01*
X85366528Y-90413716D01*
X85363245Y-90410169D01*
X85325629Y-90366264D01*
X85325628Y-90366263D01*
X85252545Y-90299639D01*
X85250462Y-90297650D01*
X85182752Y-90229940D01*
X85182751Y-90229939D01*
X85182750Y-90229938D01*
X85137208Y-90194258D01*
X85133619Y-90191223D01*
X85088569Y-90150155D01*
X85088560Y-90150147D01*
X85010438Y-90094847D01*
X85008003Y-90093033D01*
X84935102Y-90035919D01*
X84935099Y-90035917D01*
X84935097Y-90035915D01*
X84882881Y-90004350D01*
X84879073Y-90001855D01*
X84826749Y-89964816D01*
X84826742Y-89964812D01*
X84826738Y-89964809D01*
X84801125Y-89951055D01*
X84745203Y-89921024D01*
X84742417Y-89919435D01*
X84665876Y-89873166D01*
X84665875Y-89873165D01*
X84665871Y-89873163D01*
X84624044Y-89854338D01*
X84607348Y-89846823D01*
X84603400Y-89844877D01*
X84544118Y-89813044D01*
X84460758Y-89780751D01*
X84457672Y-89779460D01*
X84378985Y-89744046D01*
X84378980Y-89744044D01*
X84378977Y-89744043D01*
X84314697Y-89724012D01*
X84310682Y-89722610D01*
X84245007Y-89697168D01*
X84245000Y-89697166D01*
X84244998Y-89697165D01*
X84244997Y-89697165D01*
X84225958Y-89692376D01*
X84161371Y-89676131D01*
X84157996Y-89675182D01*
X84078637Y-89650453D01*
X84078625Y-89650450D01*
X84009284Y-89637742D01*
X84005274Y-89636871D01*
X83933900Y-89618921D01*
X83851458Y-89608712D01*
X83847851Y-89608159D01*
X83772257Y-89594306D01*
X83769185Y-89593743D01*
X83769173Y-89593741D01*
X83695647Y-89589293D01*
X83691710Y-89588930D01*
X83615549Y-89579500D01*
X83615543Y-89579500D01*
X83535631Y-89579500D01*
X83531827Y-89579385D01*
X83498081Y-89577343D01*
X83455151Y-89574747D01*
X83455146Y-89574747D01*
X83378191Y-89579401D01*
X83375031Y-89579499D01*
X83296331Y-89584353D01*
X83141111Y-89593742D01*
X83139859Y-89593894D01*
X83136177Y-89594231D01*
X83134979Y-89594305D01*
X83134974Y-89594305D01*
X83134972Y-89594306D01*
X82981729Y-89622951D01*
X82831678Y-89650450D01*
X82831656Y-89650454D01*
X82831632Y-89650460D01*
X82830722Y-89650743D01*
X82823609Y-89652508D01*
X82819652Y-89653248D01*
X82819650Y-89653249D01*
X82674062Y-89699564D01*
X82531319Y-89744044D01*
X82531290Y-89744055D01*
X82527554Y-89745736D01*
X82520822Y-89748312D01*
X82513967Y-89750493D01*
X82513956Y-89750498D01*
X82378003Y-89813046D01*
X82244436Y-89873158D01*
X82244426Y-89873164D01*
X82238208Y-89876923D01*
X82231953Y-89880239D01*
X82222536Y-89884571D01*
X82097886Y-89961751D01*
X81975200Y-90035916D01*
X81975198Y-90035918D01*
X81966986Y-90042351D01*
X81961305Y-90046317D01*
X81949797Y-90053443D01*
X81837986Y-90143417D01*
X81727553Y-90229935D01*
X81727546Y-90229941D01*
X81717932Y-90239553D01*
X81712891Y-90244078D01*
X81699883Y-90254548D01*
X81699864Y-90254564D01*
X81602137Y-90355349D01*
X81505091Y-90452396D01*
X81505087Y-90452401D01*
X81494753Y-90465590D01*
X81490392Y-90470590D01*
X81476565Y-90484851D01*
X81438203Y-90535651D01*
X81393810Y-90594436D01*
X81376623Y-90616374D01*
X81311069Y-90700046D01*
X81311064Y-90700055D01*
X81300763Y-90717094D01*
X81297124Y-90722468D01*
X81283253Y-90740836D01*
X81283246Y-90740846D01*
X81216122Y-90857108D01*
X81148311Y-90969281D01*
X81148311Y-90969282D01*
X81138838Y-90990329D01*
X81135948Y-90995973D01*
X81122857Y-91018648D01*
X81122851Y-91018660D01*
X81071736Y-91139424D01*
X81019194Y-91256168D01*
X81011388Y-91281219D01*
X81009258Y-91287032D01*
X80997816Y-91314065D01*
X80962769Y-91437245D01*
X80925603Y-91556516D01*
X80925600Y-91556527D01*
X80920297Y-91585457D01*
X80918924Y-91591341D01*
X80910030Y-91622598D01*
X80910028Y-91622608D01*
X80910028Y-91622610D01*
X80907449Y-91639225D01*
X80890855Y-91746118D01*
X80868893Y-91865964D01*
X80868892Y-91865972D01*
X80866925Y-91898482D01*
X80866294Y-91904342D01*
X80860823Y-91939590D01*
X80860820Y-91939616D01*
X80857068Y-92061442D01*
X80849897Y-92179997D01*
X80849897Y-92180005D01*
X65382848Y-92180005D01*
X65383756Y-92150565D01*
X65381776Y-92129201D01*
X65372793Y-92032263D01*
X65370261Y-91990400D01*
X65365808Y-91916771D01*
X65358793Y-91878496D01*
X65358033Y-91872967D01*
X65357385Y-91865972D01*
X65354158Y-91831147D01*
X65329398Y-91718090D01*
X65315480Y-91642141D01*
X65309101Y-91607332D01*
X65309100Y-91607329D01*
X65309099Y-91607322D01*
X65296579Y-91567148D01*
X65295196Y-91561925D01*
X65285531Y-91517787D01*
X65248090Y-91411538D01*
X65215504Y-91306965D01*
X65196942Y-91265723D01*
X65194975Y-91260809D01*
X65193340Y-91256168D01*
X65178916Y-91215236D01*
X65178763Y-91214929D01*
X65162680Y-91182630D01*
X65130076Y-91117152D01*
X65086387Y-91020079D01*
X65061358Y-90978676D01*
X65058877Y-90974166D01*
X65056445Y-90969282D01*
X65035929Y-90928079D01*
X64977102Y-90839300D01*
X64923631Y-90750848D01*
X64891853Y-90710287D01*
X64888926Y-90706230D01*
X64858738Y-90660670D01*
X64820274Y-90615774D01*
X64791451Y-90582131D01*
X64729610Y-90503198D01*
X64711263Y-90484851D01*
X64690928Y-90464516D01*
X64687645Y-90460969D01*
X64650029Y-90417064D01*
X64650028Y-90417063D01*
X64576945Y-90350439D01*
X64574862Y-90348450D01*
X64507152Y-90280740D01*
X64507151Y-90280739D01*
X64507150Y-90280738D01*
X64461608Y-90245058D01*
X64458019Y-90242023D01*
X64412969Y-90200955D01*
X64412960Y-90200947D01*
X64334838Y-90145647D01*
X64332403Y-90143833D01*
X64259502Y-90086719D01*
X64259499Y-90086717D01*
X64259497Y-90086715D01*
X64207281Y-90055150D01*
X64203473Y-90052655D01*
X64151149Y-90015616D01*
X64151142Y-90015612D01*
X64151138Y-90015609D01*
X64113723Y-89995517D01*
X64069603Y-89971824D01*
X64066817Y-89970235D01*
X63990276Y-89923966D01*
X63990275Y-89923965D01*
X63990271Y-89923963D01*
X63948444Y-89905138D01*
X63931748Y-89897623D01*
X63927800Y-89895677D01*
X63868518Y-89863844D01*
X63785158Y-89831551D01*
X63782072Y-89830260D01*
X63703385Y-89794846D01*
X63703380Y-89794844D01*
X63703377Y-89794843D01*
X63639097Y-89774812D01*
X63635082Y-89773410D01*
X63569407Y-89747968D01*
X63569400Y-89747966D01*
X63569398Y-89747965D01*
X63569397Y-89747965D01*
X63550358Y-89743176D01*
X63485771Y-89726931D01*
X63482396Y-89725982D01*
X63403037Y-89701253D01*
X63403025Y-89701250D01*
X63333684Y-89688542D01*
X63329674Y-89687671D01*
X63258300Y-89669721D01*
X63175858Y-89659512D01*
X63172251Y-89658959D01*
X63116618Y-89648764D01*
X63093585Y-89644543D01*
X63093573Y-89644541D01*
X63020047Y-89640093D01*
X63016110Y-89639730D01*
X62939949Y-89630300D01*
X62939943Y-89630300D01*
X62860031Y-89630300D01*
X62856227Y-89630185D01*
X62822481Y-89628143D01*
X62779551Y-89625547D01*
X62779546Y-89625547D01*
X62702591Y-89630201D01*
X62699431Y-89630299D01*
X62620731Y-89635153D01*
X62465511Y-89644542D01*
X62464259Y-89644694D01*
X62460577Y-89645031D01*
X62459379Y-89645105D01*
X62459374Y-89645105D01*
X62459372Y-89645106D01*
X62306129Y-89673751D01*
X62156078Y-89701250D01*
X62156056Y-89701254D01*
X62156032Y-89701260D01*
X62155122Y-89701543D01*
X62148009Y-89703308D01*
X62144052Y-89704048D01*
X62144050Y-89704049D01*
X61998462Y-89750364D01*
X61855719Y-89794844D01*
X61855690Y-89794855D01*
X61851954Y-89796536D01*
X61845222Y-89799112D01*
X61838367Y-89801293D01*
X61838356Y-89801298D01*
X61702403Y-89863846D01*
X61568836Y-89923958D01*
X61568826Y-89923964D01*
X61562608Y-89927723D01*
X61556353Y-89931039D01*
X61546936Y-89935371D01*
X61422286Y-90012551D01*
X61299600Y-90086716D01*
X61299598Y-90086718D01*
X61291386Y-90093151D01*
X61285705Y-90097117D01*
X61274197Y-90104243D01*
X61162386Y-90194217D01*
X61051953Y-90280735D01*
X61051946Y-90280741D01*
X61042332Y-90290353D01*
X61037291Y-90294878D01*
X61024283Y-90305348D01*
X61024264Y-90305364D01*
X60926537Y-90406149D01*
X60829491Y-90503196D01*
X60829487Y-90503201D01*
X60819153Y-90516390D01*
X60814792Y-90521390D01*
X60800965Y-90535651D01*
X60759587Y-90590444D01*
X60718210Y-90645236D01*
X60699535Y-90669073D01*
X60635469Y-90750846D01*
X60635464Y-90750855D01*
X60625163Y-90767894D01*
X60621524Y-90773268D01*
X60607653Y-90791636D01*
X60607646Y-90791646D01*
X60540522Y-90907908D01*
X60472711Y-91020081D01*
X60472711Y-91020082D01*
X60463238Y-91041129D01*
X60460348Y-91046773D01*
X60447257Y-91069448D01*
X60447251Y-91069460D01*
X60396136Y-91190224D01*
X60343594Y-91306968D01*
X60335788Y-91332019D01*
X60333658Y-91337832D01*
X60322216Y-91364865D01*
X60287169Y-91488045D01*
X60250003Y-91607316D01*
X60250000Y-91607327D01*
X60244697Y-91636257D01*
X60243324Y-91642141D01*
X60234430Y-91673398D01*
X60234428Y-91673408D01*
X60234428Y-91673410D01*
X60224315Y-91738553D01*
X60215255Y-91796918D01*
X60195536Y-91904527D01*
X60193292Y-91916771D01*
X60193191Y-91918435D01*
X60191325Y-91949282D01*
X60190694Y-91955142D01*
X60185223Y-91990390D01*
X60185220Y-91990416D01*
X60181468Y-92112242D01*
X60174297Y-92230797D01*
X60174297Y-92230805D01*
X45835056Y-92230805D01*
X45841203Y-92129200D01*
X45839043Y-92093511D01*
X45838959Y-92087793D01*
X45840156Y-92048965D01*
X45838608Y-92032263D01*
X45829193Y-91930663D01*
X45827613Y-91904540D01*
X45822208Y-91815171D01*
X45815193Y-91776896D01*
X45814433Y-91771367D01*
X45813759Y-91764093D01*
X45810558Y-91729547D01*
X45785798Y-91616490D01*
X45774809Y-91556527D01*
X45765501Y-91505732D01*
X45765500Y-91505729D01*
X45765499Y-91505722D01*
X45752979Y-91465548D01*
X45751596Y-91460325D01*
X45741931Y-91416187D01*
X45704490Y-91309938D01*
X45671904Y-91205365D01*
X45653342Y-91164123D01*
X45651375Y-91159209D01*
X45644403Y-91139424D01*
X45635316Y-91113636D01*
X45586476Y-91015552D01*
X45542787Y-90918479D01*
X45517758Y-90877076D01*
X45515277Y-90872566D01*
X45507580Y-90857108D01*
X45492329Y-90826479D01*
X45433502Y-90737700D01*
X45410745Y-90700055D01*
X45380033Y-90649251D01*
X45376888Y-90645237D01*
X45348253Y-90608687D01*
X45345326Y-90604630D01*
X45338572Y-90594437D01*
X45315138Y-90559070D01*
X45267270Y-90503198D01*
X45247851Y-90480531D01*
X45186010Y-90401598D01*
X45186008Y-90401596D01*
X45147328Y-90362916D01*
X45144045Y-90359369D01*
X45106429Y-90315464D01*
X45106428Y-90315463D01*
X45033345Y-90248839D01*
X45031262Y-90246850D01*
X44963552Y-90179140D01*
X44963551Y-90179139D01*
X44963550Y-90179138D01*
X44918008Y-90143458D01*
X44914419Y-90140423D01*
X44869369Y-90099355D01*
X44869360Y-90099347D01*
X44791238Y-90044047D01*
X44788803Y-90042233D01*
X44715902Y-89985119D01*
X44715899Y-89985117D01*
X44715897Y-89985115D01*
X44663681Y-89953550D01*
X44659873Y-89951055D01*
X44607549Y-89914016D01*
X44607542Y-89914012D01*
X44607538Y-89914009D01*
X44577024Y-89897623D01*
X44526003Y-89870224D01*
X44523217Y-89868635D01*
X44446676Y-89822366D01*
X44446675Y-89822365D01*
X44446671Y-89822363D01*
X44392578Y-89798017D01*
X44388148Y-89796023D01*
X44384200Y-89794077D01*
X44324918Y-89762244D01*
X44241558Y-89729951D01*
X44238472Y-89728660D01*
X44159785Y-89693246D01*
X44159780Y-89693244D01*
X44159777Y-89693243D01*
X44095497Y-89673212D01*
X44091482Y-89671810D01*
X44025807Y-89646368D01*
X44025800Y-89646366D01*
X44025798Y-89646365D01*
X44025797Y-89646365D01*
X43999417Y-89639730D01*
X43942171Y-89625331D01*
X43938796Y-89624382D01*
X43859437Y-89599653D01*
X43859425Y-89599650D01*
X43790084Y-89586942D01*
X43786074Y-89586071D01*
X43714700Y-89568121D01*
X43632258Y-89557912D01*
X43628651Y-89557359D01*
X43553057Y-89543506D01*
X43549985Y-89542943D01*
X43549973Y-89542941D01*
X43476447Y-89538493D01*
X43472510Y-89538130D01*
X43396349Y-89528700D01*
X43396343Y-89528700D01*
X43316431Y-89528700D01*
X43312627Y-89528585D01*
X43278881Y-89526543D01*
X43235951Y-89523947D01*
X43235946Y-89523947D01*
X43158991Y-89528601D01*
X43155831Y-89528699D01*
X43077131Y-89533553D01*
X42921911Y-89542942D01*
X42920659Y-89543094D01*
X42916977Y-89543431D01*
X42915779Y-89543505D01*
X42915774Y-89543505D01*
X42915772Y-89543506D01*
X42762529Y-89572151D01*
X42612478Y-89599650D01*
X42612456Y-89599654D01*
X42612432Y-89599660D01*
X42611522Y-89599943D01*
X42604409Y-89601708D01*
X42600452Y-89602448D01*
X42600450Y-89602449D01*
X42454862Y-89648764D01*
X42312119Y-89693244D01*
X42312090Y-89693255D01*
X42308354Y-89694936D01*
X42301622Y-89697512D01*
X42294767Y-89699693D01*
X42294756Y-89699698D01*
X42158803Y-89762246D01*
X42025236Y-89822358D01*
X42025226Y-89822364D01*
X42019008Y-89826123D01*
X42012753Y-89829439D01*
X42003336Y-89833771D01*
X41878686Y-89910951D01*
X41756000Y-89985116D01*
X41755998Y-89985118D01*
X41747786Y-89991551D01*
X41742105Y-89995517D01*
X41730597Y-90002643D01*
X41618786Y-90092617D01*
X41508353Y-90179135D01*
X41508346Y-90179141D01*
X41498732Y-90188753D01*
X41493691Y-90193278D01*
X41480683Y-90203748D01*
X41480664Y-90203764D01*
X41382937Y-90304549D01*
X41285891Y-90401596D01*
X41285887Y-90401601D01*
X41275553Y-90414790D01*
X41271192Y-90419790D01*
X41257365Y-90434051D01*
X41219003Y-90484851D01*
X41174610Y-90543636D01*
X41147029Y-90578839D01*
X41091869Y-90649246D01*
X41091864Y-90649255D01*
X41081563Y-90666294D01*
X41077924Y-90671668D01*
X41064053Y-90690036D01*
X41064046Y-90690046D01*
X40996922Y-90806308D01*
X40929111Y-90918481D01*
X40929111Y-90918482D01*
X40919638Y-90939529D01*
X40916748Y-90945173D01*
X40903657Y-90967848D01*
X40903651Y-90967860D01*
X40852536Y-91088624D01*
X40799994Y-91205368D01*
X40792188Y-91230419D01*
X40790058Y-91236232D01*
X40778616Y-91263265D01*
X40743569Y-91386445D01*
X40706403Y-91505716D01*
X40706400Y-91505727D01*
X40701097Y-91534657D01*
X40699724Y-91540541D01*
X40690830Y-91571798D01*
X40690828Y-91571808D01*
X40690828Y-91571810D01*
X40680363Y-91639225D01*
X40671655Y-91695318D01*
X40649693Y-91815164D01*
X40649692Y-91815172D01*
X40647725Y-91847682D01*
X40647094Y-91853542D01*
X40641623Y-91888790D01*
X40641620Y-91888816D01*
X40637868Y-92010642D01*
X40630697Y-92129197D01*
X40630697Y-92129205D01*
X32890337Y-92129205D01*
X32882396Y-92018172D01*
X32821569Y-91738554D01*
X32721567Y-91470439D01*
X32721562Y-91470429D01*
X32584431Y-91219292D01*
X32584427Y-91219287D01*
X32584426Y-91219285D01*
X32412939Y-90990205D01*
X32412937Y-90990203D01*
X32412929Y-90990194D01*
X32210605Y-90787870D01*
X32210596Y-90787862D01*
X32187634Y-90770673D01*
X31981515Y-90616374D01*
X31981513Y-90616373D01*
X31981512Y-90616372D01*
X31981507Y-90616368D01*
X31730370Y-90479237D01*
X31730360Y-90479232D01*
X31462246Y-90379231D01*
X31182624Y-90318403D01*
X30897200Y-90297990D01*
X30611775Y-90318403D01*
X30332153Y-90379231D01*
X30064039Y-90479232D01*
X30064029Y-90479237D01*
X29812892Y-90616368D01*
X29812887Y-90616372D01*
X29583803Y-90787862D01*
X29583794Y-90787870D01*
X29381470Y-90990194D01*
X29381462Y-90990203D01*
X29209972Y-91219287D01*
X29209968Y-91219292D01*
X29072837Y-91470429D01*
X29072832Y-91470439D01*
X28972831Y-91738553D01*
X28912003Y-92018175D01*
X28891590Y-92303600D01*
X28912003Y-92589024D01*
X28972831Y-92868646D01*
X29072832Y-93136760D01*
X29072837Y-93136770D01*
X29209968Y-93387907D01*
X29209972Y-93387912D01*
X29209974Y-93387915D01*
X29375588Y-93609150D01*
X29381462Y-93616996D01*
X29381470Y-93617005D01*
X29559170Y-93794705D01*
X29593196Y-93857017D01*
X29588131Y-93927832D01*
X29559170Y-93972895D01*
X29366870Y-94165194D01*
X29366862Y-94165203D01*
X29195372Y-94394287D01*
X29195368Y-94394292D01*
X29058237Y-94645429D01*
X29058232Y-94645439D01*
X28958231Y-94913553D01*
X28897403Y-95193175D01*
X28876990Y-95478600D01*
X28897403Y-95764024D01*
X28958231Y-96043646D01*
X29058232Y-96311760D01*
X29058237Y-96311770D01*
X29195368Y-96562907D01*
X29195372Y-96562912D01*
X29366862Y-96791996D01*
X29366870Y-96792005D01*
X29569194Y-96994329D01*
X29569203Y-96994337D01*
X29569205Y-96994339D01*
X29798285Y-97165826D01*
X29929202Y-97237312D01*
X29979405Y-97287515D01*
X29994496Y-97356889D01*
X29969685Y-97423409D01*
X29912849Y-97465956D01*
X29868817Y-97473900D01*
X29766304Y-97473900D01*
X29673833Y-97480319D01*
X29673826Y-97480320D01*
X29457265Y-97531254D01*
X29457256Y-97531257D01*
X29253729Y-97621122D01*
X29070178Y-97746858D01*
X29070174Y-97746861D01*
X28912861Y-97904174D01*
X28912858Y-97904178D01*
X28787122Y-98087729D01*
X28697257Y-98291256D01*
X28697254Y-98291265D01*
X28646320Y-98507826D01*
X28646319Y-98507833D01*
X28639900Y-98600304D01*
X28639900Y-101348496D01*
X26880286Y-101348496D01*
X27003766Y-101272828D01*
X27003768Y-101272827D01*
X27195270Y-101109270D01*
X27358827Y-100917768D01*
X27358828Y-100917766D01*
X27490419Y-100703029D01*
X27585121Y-100474400D01*
X26742031Y-100474400D01*
X26673910Y-100454398D01*
X26627417Y-100400742D01*
X26617313Y-100330468D01*
X26628023Y-100294752D01*
X26647502Y-100253356D01*
X26683500Y-100176857D01*
X26714273Y-100015538D01*
X26703961Y-99851634D01*
X26703961Y-99851632D01*
X26653213Y-99695446D01*
X26653212Y-99695444D01*
X26635740Y-99667913D01*
X26616128Y-99599681D01*
X26636518Y-99531676D01*
X26690438Y-99485490D01*
X26742126Y-99474400D01*
X27585120Y-99474400D01*
X27490419Y-99245770D01*
X27358828Y-99031033D01*
X27358827Y-99031031D01*
X27195270Y-98839529D01*
X27003768Y-98675972D01*
X27003766Y-98675971D01*
X26789029Y-98544380D01*
X26560399Y-98449679D01*
X26560400Y-99294473D01*
X26540398Y-99362594D01*
X26486742Y-99409087D01*
X26416468Y-99419191D01*
X26373700Y-99404888D01*
X26301581Y-99365241D01*
X26142521Y-99324401D01*
X26142515Y-99324400D01*
X26142514Y-99324400D01*
X26019506Y-99324400D01*
X26019503Y-99324400D01*
X26019491Y-99324401D01*
X25897471Y-99339815D01*
X25897469Y-99339816D01*
X25737401Y-99403192D01*
X25736651Y-99401298D01*
X25677766Y-99414282D01*
X25611176Y-99389659D01*
X25568469Y-99332943D01*
X25560400Y-99288578D01*
X25560400Y-98449679D01*
X25331770Y-98544380D01*
X25117033Y-98675971D01*
X25117031Y-98675972D01*
X24925529Y-98839529D01*
X24761972Y-99031031D01*
X24761971Y-99031033D01*
X24630380Y-99245770D01*
X24535679Y-99474400D01*
X25378769Y-99474400D01*
X25446890Y-99494402D01*
X25493383Y-99548058D01*
X25503487Y-99618332D01*
X25492777Y-99654048D01*
X25437299Y-99771945D01*
X25437298Y-99771945D01*
X25406527Y-99933255D01*
X25406527Y-99933262D01*
X25416838Y-100097162D01*
X25416838Y-100097167D01*
X25467586Y-100253353D01*
X25467588Y-100253356D01*
X25485059Y-100280886D01*
X25504672Y-100349119D01*
X25484282Y-100417124D01*
X25430362Y-100463310D01*
X25378674Y-100474400D01*
X24535679Y-100474400D01*
X23600500Y-100474400D01*
X23600500Y-95478604D01*
X24777887Y-95478604D01*
X24796696Y-95681588D01*
X24852483Y-95877660D01*
X24852487Y-95877672D01*
X24874212Y-95921300D01*
X24874213Y-95921300D01*
X25280780Y-95514733D01*
X25343093Y-95480708D01*
X25413908Y-95485772D01*
X25470744Y-95528319D01*
X25494324Y-95584115D01*
X25497433Y-95603744D01*
X25554960Y-95716646D01*
X25554961Y-95716648D01*
X25644551Y-95806238D01*
X25644553Y-95806239D01*
X25644555Y-95806241D01*
X25757452Y-95863765D01*
X25777076Y-95866873D01*
X25841230Y-95897282D01*
X25878759Y-95957549D01*
X25877748Y-96028538D01*
X25846466Y-96080417D01*
X25440062Y-96486820D01*
X25580279Y-96541140D01*
X25780672Y-96578600D01*
X25984528Y-96578600D01*
X26184920Y-96541140D01*
X26325136Y-96486820D01*
X25918734Y-96080418D01*
X25884708Y-96018106D01*
X25889773Y-95947291D01*
X25932320Y-95890455D01*
X25988120Y-95866874D01*
X25997875Y-95865328D01*
X26007748Y-95863765D01*
X26120645Y-95806241D01*
X26210241Y-95716645D01*
X26267765Y-95603748D01*
X26270873Y-95584120D01*
X26301282Y-95519969D01*
X26361548Y-95482440D01*
X26432538Y-95483451D01*
X26484417Y-95514733D01*
X26890985Y-95921300D01*
X26912713Y-95877670D01*
X26912716Y-95877661D01*
X26968503Y-95681588D01*
X26987313Y-95478604D01*
X26987313Y-95478595D01*
X26968503Y-95275611D01*
X26912714Y-95079531D01*
X26912712Y-95079526D01*
X26890986Y-95035897D01*
X26484417Y-95442466D01*
X26422105Y-95476491D01*
X26351289Y-95471426D01*
X26294454Y-95428879D01*
X26270873Y-95373076D01*
X26267765Y-95353454D01*
X26267765Y-95353452D01*
X26210241Y-95240555D01*
X26210239Y-95240553D01*
X26210238Y-95240551D01*
X26120648Y-95150961D01*
X26120646Y-95150960D01*
X26120645Y-95150959D01*
X26007748Y-95093435D01*
X26007747Y-95093434D01*
X26007744Y-95093433D01*
X25988115Y-95090324D01*
X25923963Y-95059911D01*
X25886437Y-94999642D01*
X25887452Y-94928653D01*
X25918733Y-94876780D01*
X26325135Y-94470378D01*
X26184920Y-94416059D01*
X25984528Y-94378600D01*
X25780672Y-94378600D01*
X25580279Y-94416059D01*
X25440063Y-94470378D01*
X25440063Y-94470379D01*
X25846465Y-94876781D01*
X25880491Y-94939093D01*
X25875426Y-95009908D01*
X25832879Y-95066744D01*
X25777084Y-95090324D01*
X25757455Y-95093433D01*
X25644553Y-95150960D01*
X25644551Y-95150961D01*
X25554961Y-95240551D01*
X25554960Y-95240553D01*
X25497433Y-95353455D01*
X25494324Y-95373085D01*
X25463911Y-95437237D01*
X25403642Y-95474762D01*
X25332652Y-95473747D01*
X25280781Y-95442466D01*
X24874213Y-95035898D01*
X24852488Y-95079527D01*
X24852483Y-95079540D01*
X24796696Y-95275611D01*
X24777887Y-95478595D01*
X24777887Y-95478604D01*
X23600500Y-95478604D01*
X23600500Y-92303604D01*
X24792487Y-92303604D01*
X24811296Y-92506588D01*
X24867083Y-92702660D01*
X24867087Y-92702672D01*
X24888812Y-92746300D01*
X24888813Y-92746300D01*
X25295380Y-92339733D01*
X25357693Y-92305708D01*
X25428508Y-92310772D01*
X25485344Y-92353319D01*
X25508924Y-92409115D01*
X25512033Y-92428744D01*
X25512034Y-92428747D01*
X25512035Y-92428748D01*
X25567617Y-92537834D01*
X25569560Y-92541646D01*
X25569561Y-92541648D01*
X25659151Y-92631238D01*
X25659153Y-92631239D01*
X25659155Y-92631241D01*
X25772052Y-92688765D01*
X25791676Y-92691873D01*
X25855830Y-92722282D01*
X25893359Y-92782549D01*
X25892348Y-92853538D01*
X25861066Y-92905417D01*
X25454662Y-93311820D01*
X25594879Y-93366140D01*
X25795272Y-93403600D01*
X25999128Y-93403600D01*
X26199520Y-93366140D01*
X26339736Y-93311820D01*
X25933334Y-92905418D01*
X25899308Y-92843106D01*
X25904373Y-92772291D01*
X25946920Y-92715455D01*
X26002720Y-92691874D01*
X26012475Y-92690328D01*
X26022348Y-92688765D01*
X26135245Y-92631241D01*
X26224841Y-92541645D01*
X26282365Y-92428748D01*
X26285473Y-92409120D01*
X26315886Y-92344966D01*
X26376153Y-92307439D01*
X26447143Y-92308452D01*
X26499018Y-92339734D01*
X26905585Y-92746301D01*
X26927313Y-92702670D01*
X26927316Y-92702661D01*
X26983103Y-92506588D01*
X27001913Y-92303604D01*
X27001913Y-92303595D01*
X26983103Y-92100611D01*
X26927314Y-91904531D01*
X26927312Y-91904526D01*
X26905586Y-91860897D01*
X26905585Y-91860897D01*
X26499018Y-92267465D01*
X26436706Y-92301491D01*
X26365891Y-92296426D01*
X26309055Y-92253879D01*
X26285474Y-92198080D01*
X26282365Y-92178453D01*
X26282365Y-92178452D01*
X26224841Y-92065555D01*
X26224839Y-92065553D01*
X26224838Y-92065551D01*
X26135248Y-91975961D01*
X26135246Y-91975960D01*
X26135245Y-91975959D01*
X26022348Y-91918435D01*
X26022347Y-91918434D01*
X26022344Y-91918433D01*
X26002715Y-91915324D01*
X25938563Y-91884911D01*
X25901037Y-91824642D01*
X25902052Y-91753653D01*
X25933333Y-91701780D01*
X26339735Y-91295378D01*
X26199520Y-91241059D01*
X25999128Y-91203600D01*
X25795272Y-91203600D01*
X25594879Y-91241059D01*
X25454663Y-91295378D01*
X25454663Y-91295379D01*
X25861065Y-91701781D01*
X25895091Y-91764093D01*
X25890026Y-91834908D01*
X25847479Y-91891744D01*
X25791684Y-91915324D01*
X25772055Y-91918433D01*
X25659153Y-91975960D01*
X25659151Y-91975961D01*
X25569561Y-92065551D01*
X25569560Y-92065553D01*
X25512033Y-92178455D01*
X25508924Y-92198085D01*
X25478511Y-92262237D01*
X25418242Y-92299762D01*
X25347252Y-92298747D01*
X25295381Y-92267466D01*
X24888813Y-91860898D01*
X24867088Y-91904527D01*
X24867083Y-91904540D01*
X24811296Y-92100611D01*
X24792487Y-92303595D01*
X24792487Y-92303604D01*
X23600500Y-92303604D01*
X23600500Y-73347787D01*
X40785450Y-73347787D01*
X40800565Y-73583213D01*
X40860710Y-73892044D01*
X40860717Y-73892069D01*
X40959862Y-74190682D01*
X40959863Y-74190684D01*
X41096386Y-74474176D01*
X41268037Y-74737880D01*
X41268039Y-74737882D01*
X41268042Y-74737885D01*
X41268043Y-74737887D01*
X41311290Y-74788687D01*
X41472012Y-74977481D01*
X41472015Y-74977484D01*
X41704938Y-75189018D01*
X41704940Y-75189019D01*
X41704943Y-75189022D01*
X41963014Y-75369042D01*
X41963016Y-75369043D01*
X41963019Y-75369045D01*
X42034174Y-75406166D01*
X42241986Y-75514581D01*
X42537280Y-75623252D01*
X42844045Y-75693269D01*
X43157246Y-75723483D01*
X43471739Y-75713398D01*
X43782360Y-75663179D01*
X44084009Y-75573651D01*
X44371734Y-75446284D01*
X44640808Y-75283170D01*
X44886815Y-75086986D01*
X45105715Y-74860954D01*
X45293913Y-74608785D01*
X45319049Y-74564154D01*
X46635450Y-74564154D01*
X46650582Y-74698455D01*
X46699931Y-74839487D01*
X46710161Y-74868722D01*
X46710162Y-74868725D01*
X46806132Y-75021460D01*
X46806133Y-75021462D01*
X46933687Y-75149016D01*
X46933689Y-75149017D01*
X47086424Y-75244987D01*
X47086425Y-75244987D01*
X47086428Y-75244989D01*
X47256695Y-75304568D01*
X47390996Y-75319700D01*
X49980904Y-75319700D01*
X50115205Y-75304568D01*
X50285472Y-75244989D01*
X50438212Y-75149016D01*
X50565766Y-75021462D01*
X50661739Y-74868722D01*
X50721318Y-74698455D01*
X50736450Y-74564154D01*
X50736450Y-71213476D01*
X60329049Y-71213476D01*
X60329050Y-71213477D01*
X60329050Y-73449387D01*
X60344165Y-73684813D01*
X60404310Y-73993644D01*
X60404317Y-73993669D01*
X60503462Y-74292282D01*
X60503463Y-74292284D01*
X60639986Y-74575776D01*
X60811637Y-74839480D01*
X60811639Y-74839482D01*
X60811642Y-74839485D01*
X60811643Y-74839487D01*
X60972365Y-75028281D01*
X61015612Y-75079081D01*
X61015615Y-75079084D01*
X61248538Y-75290618D01*
X61248540Y-75290619D01*
X61248543Y-75290622D01*
X61506614Y-75470642D01*
X61506616Y-75470643D01*
X61506619Y-75470645D01*
X61590837Y-75514581D01*
X61785586Y-75616181D01*
X62080880Y-75724852D01*
X62387645Y-75794869D01*
X62700846Y-75825083D01*
X63015339Y-75814998D01*
X63325960Y-75764779D01*
X63627609Y-75675251D01*
X63915334Y-75547884D01*
X64184408Y-75384770D01*
X64430415Y-75188586D01*
X64649315Y-74962554D01*
X64837513Y-74710385D01*
X64862649Y-74665754D01*
X66179050Y-74665754D01*
X66194182Y-74800055D01*
X66233267Y-74911754D01*
X66253761Y-74970322D01*
X66253762Y-74970325D01*
X66349732Y-75123060D01*
X66349733Y-75123062D01*
X66477287Y-75250616D01*
X66477289Y-75250617D01*
X66630024Y-75346587D01*
X66630025Y-75346587D01*
X66630028Y-75346589D01*
X66800295Y-75406168D01*
X66934596Y-75421300D01*
X69524504Y-75421300D01*
X69658805Y-75406168D01*
X69829072Y-75346589D01*
X69981812Y-75250616D01*
X70109366Y-75123062D01*
X70205339Y-74970322D01*
X70264918Y-74800055D01*
X70280050Y-74665754D01*
X70280050Y-73398587D01*
X81004650Y-73398587D01*
X81019765Y-73634013D01*
X81079910Y-73942844D01*
X81079917Y-73942869D01*
X81179062Y-74241482D01*
X81179063Y-74241484D01*
X81315586Y-74524976D01*
X81487237Y-74788680D01*
X81487239Y-74788682D01*
X81487242Y-74788685D01*
X81487243Y-74788687D01*
X81647965Y-74977481D01*
X81691212Y-75028281D01*
X81691215Y-75028284D01*
X81924138Y-75239818D01*
X81924140Y-75239819D01*
X81924143Y-75239822D01*
X82182214Y-75419842D01*
X82182216Y-75419843D01*
X82182219Y-75419845D01*
X82279588Y-75470642D01*
X82461186Y-75565381D01*
X82756480Y-75674052D01*
X83063245Y-75744069D01*
X83376446Y-75774283D01*
X83690939Y-75764198D01*
X84001560Y-75713979D01*
X84303209Y-75624451D01*
X84590934Y-75497084D01*
X84860008Y-75333970D01*
X85106015Y-75137786D01*
X85324915Y-74911754D01*
X85513113Y-74659585D01*
X85538249Y-74614954D01*
X86854650Y-74614954D01*
X86869782Y-74749255D01*
X86908867Y-74860954D01*
X86929361Y-74919522D01*
X86929362Y-74919525D01*
X87025332Y-75072260D01*
X87025333Y-75072262D01*
X87152887Y-75199816D01*
X87152889Y-75199817D01*
X87305624Y-75295787D01*
X87305625Y-75295787D01*
X87305628Y-75295789D01*
X87475895Y-75355368D01*
X87610196Y-75370500D01*
X90200104Y-75370500D01*
X90334405Y-75355368D01*
X90504672Y-75295789D01*
X90657412Y-75199816D01*
X90784966Y-75072262D01*
X90880939Y-74919522D01*
X90940518Y-74749255D01*
X90955650Y-74614954D01*
X90955650Y-73449387D01*
X100591450Y-73449387D01*
X100606565Y-73684813D01*
X100666710Y-73993644D01*
X100666717Y-73993669D01*
X100765862Y-74292282D01*
X100765863Y-74292284D01*
X100902386Y-74575776D01*
X101074037Y-74839480D01*
X101074039Y-74839482D01*
X101074042Y-74839485D01*
X101074043Y-74839487D01*
X101234765Y-75028281D01*
X101278012Y-75079081D01*
X101278015Y-75079084D01*
X101510938Y-75290618D01*
X101510940Y-75290619D01*
X101510943Y-75290622D01*
X101769014Y-75470642D01*
X101769016Y-75470643D01*
X101769019Y-75470645D01*
X101853237Y-75514581D01*
X102047986Y-75616181D01*
X102343280Y-75724852D01*
X102650045Y-75794869D01*
X102963246Y-75825083D01*
X103277739Y-75814998D01*
X103588360Y-75764779D01*
X103890009Y-75675251D01*
X104177734Y-75547884D01*
X104446808Y-75384770D01*
X104692815Y-75188586D01*
X104911715Y-74962554D01*
X105099913Y-74710385D01*
X105125049Y-74665754D01*
X106441450Y-74665754D01*
X106456582Y-74800055D01*
X106495667Y-74911754D01*
X106516161Y-74970322D01*
X106516162Y-74970325D01*
X106612132Y-75123060D01*
X106612133Y-75123062D01*
X106739687Y-75250616D01*
X106739689Y-75250617D01*
X106892424Y-75346587D01*
X106892425Y-75346587D01*
X106892428Y-75346589D01*
X107062695Y-75406168D01*
X107196996Y-75421300D01*
X109786904Y-75421300D01*
X109921205Y-75406168D01*
X110091472Y-75346589D01*
X110244212Y-75250616D01*
X110371766Y-75123062D01*
X110467739Y-74970322D01*
X110527318Y-74800055D01*
X110542450Y-74665754D01*
X110542450Y-70075846D01*
X110527318Y-69941545D01*
X110467739Y-69771278D01*
X110467737Y-69771275D01*
X110467737Y-69771274D01*
X110371767Y-69618539D01*
X110371766Y-69618537D01*
X110244212Y-69490983D01*
X110244210Y-69490982D01*
X110091475Y-69395012D01*
X110091472Y-69395011D01*
X110075385Y-69389382D01*
X109921205Y-69335432D01*
X109786904Y-69320300D01*
X107196996Y-69320300D01*
X107062695Y-69335432D01*
X107062692Y-69335432D01*
X107062692Y-69335433D01*
X106892427Y-69395011D01*
X106892424Y-69395012D01*
X106739689Y-69490982D01*
X106739687Y-69490983D01*
X106612133Y-69618537D01*
X106612132Y-69618539D01*
X106516162Y-69771274D01*
X106516161Y-69771277D01*
X106488154Y-69851317D01*
X106456582Y-69941545D01*
X106441450Y-70075846D01*
X106441450Y-74665754D01*
X105125049Y-74665754D01*
X105254320Y-74436221D01*
X105372399Y-74144562D01*
X105452213Y-73840199D01*
X105492450Y-73528127D01*
X105492450Y-71292220D01*
X105477335Y-71056792D01*
X105457548Y-70955192D01*
X105417189Y-70747955D01*
X105417188Y-70747954D01*
X105417186Y-70747940D01*
X105318036Y-70449315D01*
X105181512Y-70165821D01*
X105115378Y-70064221D01*
X105009862Y-69902119D01*
X105009860Y-69902117D01*
X105000176Y-69890742D01*
X104805889Y-69662520D01*
X104805887Y-69662518D01*
X104805884Y-69662515D01*
X104572961Y-69450981D01*
X104557481Y-69440183D01*
X104314886Y-69270958D01*
X104314884Y-69270957D01*
X104314880Y-69270954D01*
X104035910Y-69125417D01*
X104035901Y-69125414D01*
X103759834Y-69023819D01*
X103740620Y-69016748D01*
X103740618Y-69016747D01*
X103740614Y-69016746D01*
X103433854Y-68946730D01*
X103120647Y-68916516D01*
X102806169Y-68926601D01*
X102806159Y-68926602D01*
X102495536Y-68976821D01*
X102193886Y-69066350D01*
X102193883Y-69066351D01*
X101961200Y-69169354D01*
X101906166Y-69193716D01*
X101906164Y-69193716D01*
X101906162Y-69193718D01*
X101906160Y-69193719D01*
X101637090Y-69356831D01*
X101391088Y-69553010D01*
X101391079Y-69553018D01*
X101172186Y-69779044D01*
X101172184Y-69779047D01*
X100983990Y-70031209D01*
X100829582Y-70305373D01*
X100711500Y-70597040D01*
X100631687Y-70901397D01*
X100631687Y-70901401D01*
X100591450Y-71213473D01*
X100591450Y-71213477D01*
X100591450Y-73449387D01*
X90955650Y-73449387D01*
X90955650Y-70025046D01*
X90940518Y-69890745D01*
X90880939Y-69720478D01*
X90880937Y-69720475D01*
X90880937Y-69720474D01*
X90784967Y-69567739D01*
X90784966Y-69567737D01*
X90657412Y-69440183D01*
X90657410Y-69440182D01*
X90504675Y-69344212D01*
X90504672Y-69344211D01*
X90436338Y-69320300D01*
X90334405Y-69284632D01*
X90200104Y-69269500D01*
X87610196Y-69269500D01*
X87475895Y-69284632D01*
X87475892Y-69284632D01*
X87475892Y-69284633D01*
X87305627Y-69344211D01*
X87305624Y-69344212D01*
X87152889Y-69440182D01*
X87152887Y-69440183D01*
X87025333Y-69567737D01*
X87025332Y-69567739D01*
X86929362Y-69720474D01*
X86929361Y-69720477D01*
X86901354Y-69800517D01*
X86869782Y-69890745D01*
X86854650Y-70025046D01*
X86854650Y-74614954D01*
X85538249Y-74614954D01*
X85667520Y-74385421D01*
X85785599Y-74093762D01*
X85865413Y-73789399D01*
X85905650Y-73477327D01*
X85905650Y-71241420D01*
X85890535Y-71005992D01*
X85850378Y-70799797D01*
X85830389Y-70697155D01*
X85830388Y-70697154D01*
X85830386Y-70697140D01*
X85763417Y-70495438D01*
X85731237Y-70398517D01*
X85731236Y-70398515D01*
X85594713Y-70115023D01*
X85423062Y-69851319D01*
X85423060Y-69851317D01*
X85413376Y-69839942D01*
X85219089Y-69611720D01*
X85219087Y-69611718D01*
X85219084Y-69611715D01*
X84986161Y-69400181D01*
X84978749Y-69395011D01*
X84728086Y-69220158D01*
X84728084Y-69220157D01*
X84728080Y-69220154D01*
X84449110Y-69074617D01*
X84449101Y-69074614D01*
X84183365Y-68976821D01*
X84153820Y-68965948D01*
X84153818Y-68965947D01*
X84153814Y-68965946D01*
X83847054Y-68895930D01*
X83533847Y-68865716D01*
X83219369Y-68875801D01*
X83219359Y-68875802D01*
X82908736Y-68926021D01*
X82607086Y-69015550D01*
X82607083Y-69015551D01*
X82358903Y-69125414D01*
X82319366Y-69142916D01*
X82319364Y-69142916D01*
X82319362Y-69142918D01*
X82319360Y-69142919D01*
X82050290Y-69306031D01*
X81804288Y-69502210D01*
X81804279Y-69502218D01*
X81585386Y-69728244D01*
X81585384Y-69728247D01*
X81397190Y-69980409D01*
X81242782Y-70254573D01*
X81124700Y-70546240D01*
X81044887Y-70850597D01*
X81044887Y-70850601D01*
X81004650Y-71162673D01*
X81004650Y-71162677D01*
X81004650Y-73398587D01*
X70280050Y-73398587D01*
X70280050Y-70075846D01*
X70264918Y-69941545D01*
X70205339Y-69771278D01*
X70205337Y-69771275D01*
X70205337Y-69771274D01*
X70109367Y-69618539D01*
X70109366Y-69618537D01*
X69981812Y-69490983D01*
X69981810Y-69490982D01*
X69829075Y-69395012D01*
X69829072Y-69395011D01*
X69812985Y-69389382D01*
X69658805Y-69335432D01*
X69524504Y-69320300D01*
X66934596Y-69320300D01*
X66800295Y-69335432D01*
X66800292Y-69335432D01*
X66800292Y-69335433D01*
X66630027Y-69395011D01*
X66630024Y-69395012D01*
X66477289Y-69490982D01*
X66477287Y-69490983D01*
X66349733Y-69618537D01*
X66349732Y-69618539D01*
X66253762Y-69771274D01*
X66253761Y-69771277D01*
X66225754Y-69851317D01*
X66194182Y-69941545D01*
X66179050Y-70075846D01*
X66179050Y-74665754D01*
X64862649Y-74665754D01*
X64991920Y-74436221D01*
X65109999Y-74144562D01*
X65189813Y-73840199D01*
X65230050Y-73528127D01*
X65230050Y-71292220D01*
X65214935Y-71056792D01*
X65195148Y-70955192D01*
X65154789Y-70747955D01*
X65154788Y-70747954D01*
X65154786Y-70747940D01*
X65055636Y-70449315D01*
X64919112Y-70165821D01*
X64852978Y-70064221D01*
X64747462Y-69902119D01*
X64747460Y-69902117D01*
X64737776Y-69890742D01*
X64543489Y-69662520D01*
X64543487Y-69662518D01*
X64543484Y-69662515D01*
X64310561Y-69450981D01*
X64295081Y-69440183D01*
X64052486Y-69270958D01*
X64052484Y-69270957D01*
X64052480Y-69270954D01*
X63773510Y-69125417D01*
X63773501Y-69125414D01*
X63497434Y-69023819D01*
X63478220Y-69016748D01*
X63478218Y-69016747D01*
X63478214Y-69016746D01*
X63171454Y-68946730D01*
X62858247Y-68916516D01*
X62543769Y-68926601D01*
X62543759Y-68926602D01*
X62233136Y-68976821D01*
X61931486Y-69066350D01*
X61931483Y-69066351D01*
X61698800Y-69169354D01*
X61643766Y-69193716D01*
X61643764Y-69193716D01*
X61643762Y-69193718D01*
X61643760Y-69193719D01*
X61374690Y-69356831D01*
X61128688Y-69553010D01*
X61128679Y-69553018D01*
X60909786Y-69779044D01*
X60909784Y-69779047D01*
X60721590Y-70031209D01*
X60567182Y-70305373D01*
X60449100Y-70597040D01*
X60369287Y-70901397D01*
X60369287Y-70901401D01*
X60329050Y-71213473D01*
X60329049Y-71213476D01*
X50736450Y-71213476D01*
X50736450Y-69974246D01*
X50721318Y-69839945D01*
X50661739Y-69669678D01*
X50661737Y-69669675D01*
X50661737Y-69669674D01*
X50565767Y-69516939D01*
X50565766Y-69516937D01*
X50438212Y-69389383D01*
X50438210Y-69389382D01*
X50285475Y-69293412D01*
X50285472Y-69293411D01*
X50221305Y-69270958D01*
X50115205Y-69233832D01*
X49980904Y-69218700D01*
X47390996Y-69218700D01*
X47256695Y-69233832D01*
X47256692Y-69233832D01*
X47256692Y-69233833D01*
X47086427Y-69293411D01*
X47086424Y-69293412D01*
X46933689Y-69389382D01*
X46933687Y-69389383D01*
X46806133Y-69516937D01*
X46806132Y-69516939D01*
X46710162Y-69669674D01*
X46710161Y-69669677D01*
X46671892Y-69779044D01*
X46650582Y-69839945D01*
X46635450Y-69974246D01*
X46635450Y-74564154D01*
X45319049Y-74564154D01*
X45448320Y-74334621D01*
X45566399Y-74042962D01*
X45646213Y-73738599D01*
X45686450Y-73426527D01*
X45686450Y-71190620D01*
X45671335Y-70955192D01*
X45660858Y-70901397D01*
X45611189Y-70646355D01*
X45611188Y-70646354D01*
X45611186Y-70646340D01*
X45544829Y-70446483D01*
X45512037Y-70347717D01*
X45512036Y-70347715D01*
X45375513Y-70064223D01*
X45354023Y-70031209D01*
X45320960Y-69980415D01*
X45203862Y-69800519D01*
X45203860Y-69800517D01*
X45185582Y-69779047D01*
X44999889Y-69560920D01*
X44999887Y-69560918D01*
X44999884Y-69560915D01*
X44766961Y-69349381D01*
X44759549Y-69344211D01*
X44508886Y-69169358D01*
X44508884Y-69169357D01*
X44508880Y-69169354D01*
X44229910Y-69023817D01*
X44229901Y-69023814D01*
X43964165Y-68926021D01*
X43934620Y-68915148D01*
X43934618Y-68915147D01*
X43934614Y-68915146D01*
X43627854Y-68845130D01*
X43314647Y-68814916D01*
X43000169Y-68825001D01*
X43000159Y-68825002D01*
X42689536Y-68875221D01*
X42387886Y-68964750D01*
X42387883Y-68964751D01*
X42139703Y-69074614D01*
X42100166Y-69092116D01*
X42100164Y-69092116D01*
X42100162Y-69092118D01*
X42100160Y-69092119D01*
X41831090Y-69255231D01*
X41585088Y-69451410D01*
X41585079Y-69451418D01*
X41366186Y-69677444D01*
X41366184Y-69677447D01*
X41177990Y-69929609D01*
X41023582Y-70203773D01*
X40905500Y-70495440D01*
X40825687Y-70799797D01*
X40825687Y-70799801D01*
X40785450Y-71111873D01*
X40785450Y-71111877D01*
X40785450Y-73347787D01*
X23600500Y-73347787D01*
X23600500Y-50017064D01*
X53079745Y-50017064D01*
X53089752Y-50303653D01*
X53139550Y-50586073D01*
X53228168Y-50858809D01*
X53292090Y-50989867D01*
X53353879Y-51116553D01*
X53514238Y-51354296D01*
X53639790Y-51493736D01*
X53706129Y-51567412D01*
X53925788Y-51751728D01*
X53925796Y-51751734D01*
X53925803Y-51751740D01*
X54168998Y-51903705D01*
X54430975Y-52020345D01*
X54706636Y-52099389D01*
X54990615Y-52139300D01*
X54990617Y-52139300D01*
X57205597Y-52139300D01*
X57205604Y-52139300D01*
X57420071Y-52124303D01*
X57700575Y-52064680D01*
X57970050Y-51966599D01*
X58223253Y-51831969D01*
X58455254Y-51663410D01*
X58661539Y-51464203D01*
X58838093Y-51238225D01*
X58981477Y-50989875D01*
X59088903Y-50723987D01*
X59139613Y-50520600D01*
X59158278Y-50445741D01*
X59158278Y-50445738D01*
X59158279Y-50445735D01*
X59188255Y-50160536D01*
X59183245Y-50017064D01*
X67049745Y-50017064D01*
X67059752Y-50303653D01*
X67109550Y-50586073D01*
X67198168Y-50858809D01*
X67262090Y-50989867D01*
X67323879Y-51116553D01*
X67484238Y-51354296D01*
X67609790Y-51493736D01*
X67676129Y-51567412D01*
X67895788Y-51751728D01*
X67895796Y-51751734D01*
X67895803Y-51751740D01*
X68138998Y-51903705D01*
X68400975Y-52020345D01*
X68676636Y-52099389D01*
X68960615Y-52139300D01*
X68960617Y-52139300D01*
X71175597Y-52139300D01*
X71175604Y-52139300D01*
X71390071Y-52124303D01*
X71670575Y-52064680D01*
X71940050Y-51966599D01*
X72193253Y-51831969D01*
X72425254Y-51663410D01*
X72631539Y-51464203D01*
X72808093Y-51238225D01*
X72951477Y-50989875D01*
X73058903Y-50723987D01*
X73109613Y-50520600D01*
X73128278Y-50445741D01*
X73128278Y-50445738D01*
X73128279Y-50445735D01*
X73135718Y-50374954D01*
X102666500Y-50374954D01*
X102681632Y-50509255D01*
X102708512Y-50586073D01*
X102741211Y-50679522D01*
X102741212Y-50679525D01*
X102837182Y-50832260D01*
X102837183Y-50832262D01*
X102964737Y-50959816D01*
X102964739Y-50959817D01*
X103117474Y-51055787D01*
X103117475Y-51055787D01*
X103117478Y-51055789D01*
X103287745Y-51115368D01*
X103336775Y-51120892D01*
X103402225Y-51148394D01*
X103442418Y-51206918D01*
X103444591Y-51277881D01*
X103423216Y-51322030D01*
X103327754Y-51448442D01*
X103236886Y-51630932D01*
X103236883Y-51630940D01*
X103208698Y-51729999D01*
X103208699Y-51730000D01*
X103765313Y-51730000D01*
X103833434Y-51750002D01*
X103879927Y-51803658D01*
X103890031Y-51873932D01*
X103883376Y-51894928D01*
X103884898Y-51895423D01*
X103881835Y-51904848D01*
X103862014Y-52029999D01*
X103881835Y-52155151D01*
X103884898Y-52164577D01*
X103881150Y-52165794D01*
X103890682Y-52216599D01*
X103863968Y-52282378D01*
X103805933Y-52323273D01*
X103765313Y-52330000D01*
X103208699Y-52330000D01*
X103236883Y-52429059D01*
X103236886Y-52429067D01*
X103327755Y-52611558D01*
X103450605Y-52774239D01*
X103601260Y-52911579D01*
X103774581Y-53018895D01*
X103774585Y-53018897D01*
X103964685Y-53092541D01*
X103966999Y-53092974D01*
X103967000Y-53092973D01*
X103967000Y-52531686D01*
X103987002Y-52463565D01*
X104040658Y-52417072D01*
X104110932Y-52406968D01*
X104131923Y-52413640D01*
X104132423Y-52412102D01*
X104141849Y-52415165D01*
X104212102Y-52426291D01*
X104235519Y-52430000D01*
X104235520Y-52430000D01*
X104298480Y-52430000D01*
X104298481Y-52430000D01*
X104329703Y-52425054D01*
X104392150Y-52415165D01*
X104401577Y-52412102D01*
X104402802Y-52415873D01*
X104453393Y-52406297D01*
X104519216Y-52432902D01*
X104560206Y-52490871D01*
X104567000Y-52531686D01*
X104567000Y-53092974D01*
X104569314Y-53092541D01*
X104759414Y-53018897D01*
X104759418Y-53018895D01*
X104932739Y-52911579D01*
X105083394Y-52774239D01*
X105206244Y-52611558D01*
X105297113Y-52429067D01*
X105297116Y-52429059D01*
X105325301Y-52330000D01*
X104768687Y-52330000D01*
X104700566Y-52309998D01*
X104654073Y-52256342D01*
X104643969Y-52186068D01*
X104650623Y-52165071D01*
X104649102Y-52164577D01*
X104652164Y-52155151D01*
X104652164Y-52155149D01*
X104652165Y-52155148D01*
X104671986Y-52030000D01*
X104652165Y-51904852D01*
X104652164Y-51904850D01*
X104652164Y-51904848D01*
X104649102Y-51895423D01*
X104652849Y-51894205D01*
X104643318Y-51843401D01*
X104670032Y-51777622D01*
X104728067Y-51736727D01*
X104768687Y-51730000D01*
X105325301Y-51730000D01*
X105325301Y-51729999D01*
X105297116Y-51630940D01*
X105297113Y-51630932D01*
X105206244Y-51448442D01*
X105110784Y-51322031D01*
X105085694Y-51255615D01*
X105100494Y-51186178D01*
X105150485Y-51135766D01*
X105197221Y-51120892D01*
X105246255Y-51115368D01*
X105416522Y-51055789D01*
X105569262Y-50959816D01*
X105696816Y-50832262D01*
X105792789Y-50679522D01*
X105848398Y-50520600D01*
X109044396Y-50520600D01*
X109064779Y-50779594D01*
X109125427Y-51032210D01*
X109224846Y-51272228D01*
X109255365Y-51322030D01*
X109360585Y-51493736D01*
X109360590Y-51493743D01*
X109529310Y-51691289D01*
X109600090Y-51751740D01*
X109703356Y-51839938D01*
X109703358Y-51839939D01*
X109742167Y-51899389D01*
X109742675Y-51970384D01*
X109710628Y-52024841D01*
X109707435Y-52028034D01*
X109616080Y-52148502D01*
X109560614Y-52289152D01*
X109560613Y-52289158D01*
X109550000Y-52377537D01*
X109550000Y-52770600D01*
X110233982Y-52770600D01*
X110302103Y-52790602D01*
X110348596Y-52844258D01*
X110358700Y-52914532D01*
X110354878Y-52932098D01*
X110350000Y-52948710D01*
X110350000Y-53092489D01*
X110354878Y-53109102D01*
X110354878Y-53180098D01*
X110316494Y-53239824D01*
X110251914Y-53269318D01*
X110233982Y-53270600D01*
X109550000Y-53270600D01*
X109550000Y-53663662D01*
X109560613Y-53752041D01*
X109560614Y-53752047D01*
X109616080Y-53892697D01*
X109707434Y-54013165D01*
X109827902Y-54104519D01*
X109968552Y-54159985D01*
X109968558Y-54159986D01*
X110056937Y-54170599D01*
X110056943Y-54170600D01*
X110600000Y-54170600D01*
X110600000Y-53635209D01*
X110620002Y-53567088D01*
X110673658Y-53520595D01*
X110743929Y-53510491D01*
X110743932Y-53510491D01*
X110743932Y-53510492D01*
X110796976Y-53518118D01*
X110814237Y-53520600D01*
X110885763Y-53520600D01*
X110913866Y-53516559D01*
X110956068Y-53510492D01*
X111026342Y-53520595D01*
X111079998Y-53567088D01*
X111100000Y-53635209D01*
X111100000Y-54170600D01*
X111643057Y-54170600D01*
X111643062Y-54170599D01*
X111731441Y-54159986D01*
X111731447Y-54159985D01*
X111872097Y-54104519D01*
X111992565Y-54013165D01*
X112083919Y-53892697D01*
X112139385Y-53752047D01*
X112139386Y-53752041D01*
X112149999Y-53663662D01*
X112150000Y-53663657D01*
X112150000Y-53270600D01*
X111466018Y-53270600D01*
X111397897Y-53250598D01*
X111351404Y-53196942D01*
X111341300Y-53126668D01*
X111345122Y-53109102D01*
X111350000Y-53092489D01*
X111350000Y-52948710D01*
X111345122Y-52932098D01*
X111345122Y-52861102D01*
X111383506Y-52801376D01*
X111448086Y-52771882D01*
X111466018Y-52770600D01*
X112150000Y-52770600D01*
X112150000Y-52377542D01*
X112149999Y-52377537D01*
X112139386Y-52289158D01*
X112139385Y-52289152D01*
X112083919Y-52148502D01*
X111992563Y-52028032D01*
X111989376Y-52024845D01*
X111987394Y-52021215D01*
X111987358Y-52021168D01*
X111987365Y-52021162D01*
X111955350Y-51962533D01*
X111960415Y-51891718D01*
X111996637Y-51839943D01*
X112170689Y-51691289D01*
X112339412Y-51493740D01*
X112475154Y-51272228D01*
X112574573Y-51032210D01*
X112635221Y-50779594D01*
X112655604Y-50520600D01*
X112635221Y-50261606D01*
X112574573Y-50008990D01*
X112475154Y-49768972D01*
X112339412Y-49547460D01*
X112339409Y-49547456D01*
X112170689Y-49349910D01*
X111973143Y-49181190D01*
X111973136Y-49181185D01*
X111843260Y-49101598D01*
X111751628Y-49045446D01*
X111511610Y-48946027D01*
X111258994Y-48885379D01*
X111210458Y-48881559D01*
X111064856Y-48870100D01*
X111064853Y-48870100D01*
X110635147Y-48870100D01*
X110635144Y-48870100D01*
X110441006Y-48885379D01*
X110188389Y-48946027D01*
X110018669Y-49016327D01*
X110008846Y-49020397D01*
X109948370Y-49045447D01*
X109726863Y-49181185D01*
X109726856Y-49181190D01*
X109529310Y-49349910D01*
X109360590Y-49547456D01*
X109360585Y-49547463D01*
X109224847Y-49768970D01*
X109125427Y-50008989D01*
X109089044Y-50160536D01*
X109064779Y-50261606D01*
X109044396Y-50520600D01*
X105848398Y-50520600D01*
X105852368Y-50509255D01*
X105867500Y-50374954D01*
X105867500Y-48685046D01*
X105852368Y-48550745D01*
X105792789Y-48380478D01*
X105792787Y-48380475D01*
X105792787Y-48380474D01*
X105696817Y-48227739D01*
X105696816Y-48227737D01*
X105569262Y-48100183D01*
X105569260Y-48100182D01*
X105416525Y-48004212D01*
X105416522Y-48004211D01*
X105246255Y-47944632D01*
X105111954Y-47929500D01*
X103422046Y-47929500D01*
X103287745Y-47944632D01*
X103287742Y-47944632D01*
X103287742Y-47944633D01*
X103117477Y-48004211D01*
X103117474Y-48004212D01*
X102964739Y-48100182D01*
X102964737Y-48100183D01*
X102837183Y-48227737D01*
X102837182Y-48227739D01*
X102741212Y-48380474D01*
X102741211Y-48380477D01*
X102741211Y-48380478D01*
X102681632Y-48550745D01*
X102666500Y-48685046D01*
X102666500Y-50374954D01*
X73135718Y-50374954D01*
X73158255Y-50160536D01*
X73148247Y-49873941D01*
X73098450Y-49591528D01*
X73009833Y-49318794D01*
X72884121Y-49061047D01*
X72723762Y-48823304D01*
X72531875Y-48610192D01*
X72531872Y-48610190D01*
X72531870Y-48610187D01*
X72312211Y-48425871D01*
X72312198Y-48425861D01*
X72312197Y-48425860D01*
X72069002Y-48273895D01*
X71807025Y-48157255D01*
X71807023Y-48157254D01*
X71807017Y-48157252D01*
X71531373Y-48078213D01*
X71531367Y-48078212D01*
X71531364Y-48078211D01*
X71247385Y-48038300D01*
X69032396Y-48038300D01*
X68940303Y-48044739D01*
X68817934Y-48053296D01*
X68537424Y-48112920D01*
X68358381Y-48178086D01*
X68267950Y-48211001D01*
X68267948Y-48211001D01*
X68267948Y-48211002D01*
X68014747Y-48345630D01*
X67782751Y-48514185D01*
X67782748Y-48514188D01*
X67576457Y-48713401D01*
X67399909Y-48939370D01*
X67399908Y-48939373D01*
X67256522Y-49187726D01*
X67256519Y-49187732D01*
X67149096Y-49453613D01*
X67149095Y-49453617D01*
X67079721Y-49731858D01*
X67079721Y-49731861D01*
X67049745Y-50017064D01*
X59183245Y-50017064D01*
X59178247Y-49873941D01*
X59128450Y-49591528D01*
X59039833Y-49318794D01*
X58914121Y-49061047D01*
X58753762Y-48823304D01*
X58561875Y-48610192D01*
X58561872Y-48610190D01*
X58561870Y-48610187D01*
X58342211Y-48425871D01*
X58342198Y-48425861D01*
X58342197Y-48425860D01*
X58099002Y-48273895D01*
X57837025Y-48157255D01*
X57837023Y-48157254D01*
X57837017Y-48157252D01*
X57561373Y-48078213D01*
X57561367Y-48078212D01*
X57561364Y-48078211D01*
X57277385Y-48038300D01*
X55062396Y-48038300D01*
X54970303Y-48044739D01*
X54847934Y-48053296D01*
X54567424Y-48112920D01*
X54388381Y-48178086D01*
X54297950Y-48211001D01*
X54297948Y-48211001D01*
X54297948Y-48211002D01*
X54044747Y-48345630D01*
X53812751Y-48514185D01*
X53812748Y-48514188D01*
X53606457Y-48713401D01*
X53429909Y-48939370D01*
X53429908Y-48939373D01*
X53286522Y-49187726D01*
X53286519Y-49187732D01*
X53179096Y-49453613D01*
X53179095Y-49453617D01*
X53109721Y-49731858D01*
X53109721Y-49731861D01*
X53079745Y-50017064D01*
X23600500Y-50017064D01*
X23600500Y-47498000D01*
X27706085Y-47498000D01*
X27725719Y-47760007D01*
X27784184Y-48016156D01*
X27784185Y-48016158D01*
X27880171Y-48260727D01*
X27880174Y-48260735D01*
X28011539Y-48488265D01*
X28011541Y-48488268D01*
X28011542Y-48488269D01*
X28175357Y-48693686D01*
X28367958Y-48872393D01*
X28367964Y-48872397D01*
X28585033Y-49020393D01*
X28585040Y-49020397D01*
X28585043Y-49020399D01*
X28669460Y-49061052D01*
X28821757Y-49134395D01*
X28821770Y-49134400D01*
X29072822Y-49211839D01*
X29072825Y-49211839D01*
X29072827Y-49211840D01*
X29332631Y-49251000D01*
X29332636Y-49251000D01*
X29595364Y-49251000D01*
X29595369Y-49251000D01*
X29855173Y-49211840D01*
X29855175Y-49211839D01*
X29855177Y-49211839D01*
X30106229Y-49134400D01*
X30106231Y-49134398D01*
X30106238Y-49134397D01*
X30106243Y-49134394D01*
X30106247Y-49134393D01*
X30342952Y-49020402D01*
X30342952Y-49020401D01*
X30342958Y-49020399D01*
X30560042Y-48872393D01*
X30752643Y-48693686D01*
X30916458Y-48488269D01*
X31002754Y-48338800D01*
X31047825Y-48260735D01*
X31047827Y-48260731D01*
X31143816Y-48016155D01*
X31202281Y-47760004D01*
X31221915Y-47498000D01*
X31202491Y-47238804D01*
X37808087Y-47238804D01*
X37826896Y-47441788D01*
X37882683Y-47637859D01*
X37882688Y-47637871D01*
X37951422Y-47775911D01*
X38349564Y-47377770D01*
X38411877Y-47343745D01*
X38482692Y-47348809D01*
X38539528Y-47391356D01*
X38550926Y-47409661D01*
X38584504Y-47475561D01*
X38585158Y-47476844D01*
X38585161Y-47476848D01*
X38674751Y-47566438D01*
X38674753Y-47566439D01*
X38674755Y-47566441D01*
X38741937Y-47600672D01*
X38793551Y-47649419D01*
X38810617Y-47718334D01*
X38787716Y-47785536D01*
X38773829Y-47802033D01*
X38375782Y-48200080D01*
X38420387Y-48227698D01*
X38610479Y-48301340D01*
X38810872Y-48338800D01*
X39014728Y-48338800D01*
X39215120Y-48301340D01*
X39405214Y-48227697D01*
X39405218Y-48227695D01*
X39449817Y-48200080D01*
X39051770Y-47802033D01*
X39017744Y-47739721D01*
X39022809Y-47668906D01*
X39065356Y-47612070D01*
X39083654Y-47600676D01*
X39150845Y-47566441D01*
X39240441Y-47476845D01*
X39274673Y-47409660D01*
X39323418Y-47358048D01*
X39392333Y-47340981D01*
X39459535Y-47363881D01*
X39476033Y-47377770D01*
X39874175Y-47775912D01*
X39874176Y-47775911D01*
X39942910Y-47637876D01*
X39942916Y-47637860D01*
X39998703Y-47441788D01*
X40017513Y-47238804D01*
X40017513Y-47238795D01*
X39998703Y-47035811D01*
X39942916Y-46839740D01*
X39942913Y-46839732D01*
X39874175Y-46701687D01*
X39476033Y-47099829D01*
X39413721Y-47133854D01*
X39342905Y-47128789D01*
X39286070Y-47086242D01*
X39274673Y-47067940D01*
X39240441Y-47000755D01*
X39240439Y-47000753D01*
X39240438Y-47000751D01*
X39150848Y-46911161D01*
X39150843Y-46911158D01*
X39083661Y-46876926D01*
X39032046Y-46828178D01*
X39014981Y-46759263D01*
X39037882Y-46692061D01*
X39051770Y-46675564D01*
X39449816Y-46277518D01*
X39405216Y-46249903D01*
X39215120Y-46176259D01*
X39014728Y-46138800D01*
X38810872Y-46138800D01*
X38610479Y-46176259D01*
X38420388Y-46249900D01*
X38420382Y-46249903D01*
X38375782Y-46277517D01*
X38773829Y-46675566D01*
X38807854Y-46737878D01*
X38802789Y-46808694D01*
X38760242Y-46865529D01*
X38741937Y-46876927D01*
X38674756Y-46911158D01*
X38674751Y-46911161D01*
X38585161Y-47000751D01*
X38585157Y-47000756D01*
X38550926Y-47067938D01*
X38502177Y-47119553D01*
X38433262Y-47136618D01*
X38366061Y-47113716D01*
X38349564Y-47099829D01*
X37951423Y-46701687D01*
X37882688Y-46839727D01*
X37882683Y-46839740D01*
X37826896Y-47035811D01*
X37808087Y-47238795D01*
X37808087Y-47238804D01*
X31202491Y-47238804D01*
X31202281Y-47235996D01*
X31143816Y-46979845D01*
X31047827Y-46735269D01*
X31047826Y-46735268D01*
X31047825Y-46735264D01*
X30916460Y-46507734D01*
X30905906Y-46494500D01*
X30752643Y-46302314D01*
X30752011Y-46301728D01*
X30656827Y-46213410D01*
X30560042Y-46123607D01*
X30536850Y-46107795D01*
X30342959Y-45975602D01*
X30342958Y-45975601D01*
X30342955Y-45975600D01*
X30342953Y-45975598D01*
X30342952Y-45975597D01*
X30106247Y-45861606D01*
X30106229Y-45861599D01*
X29855177Y-45784160D01*
X29739704Y-45766755D01*
X29595369Y-45745000D01*
X29332631Y-45745000D01*
X29202728Y-45764580D01*
X29072822Y-45784160D01*
X28821770Y-45861599D01*
X28821757Y-45861604D01*
X28585040Y-45975602D01*
X28585033Y-45975606D01*
X28367964Y-46123602D01*
X28367959Y-46123606D01*
X28175357Y-46302313D01*
X28011539Y-46507734D01*
X27880174Y-46735264D01*
X27880171Y-46735272D01*
X27784185Y-46979841D01*
X27784184Y-46979843D01*
X27725719Y-47235992D01*
X27706085Y-47498000D01*
X23600500Y-47498000D01*
X23600500Y-44583754D01*
X37312300Y-44583754D01*
X37327432Y-44718055D01*
X37361864Y-44816455D01*
X37387011Y-44888322D01*
X37387012Y-44888325D01*
X37482982Y-45041060D01*
X37482983Y-45041062D01*
X37610537Y-45168616D01*
X37610539Y-45168617D01*
X37763274Y-45264587D01*
X37763275Y-45264587D01*
X37763278Y-45264589D01*
X37933545Y-45324168D01*
X38067846Y-45339300D01*
X39757754Y-45339300D01*
X39892055Y-45324168D01*
X40062322Y-45264589D01*
X40215062Y-45168616D01*
X40342616Y-45041062D01*
X40438589Y-44888322D01*
X40498168Y-44718055D01*
X40506534Y-44643800D01*
X43028590Y-44643800D01*
X43049003Y-44929224D01*
X43109831Y-45208846D01*
X43209832Y-45476960D01*
X43209837Y-45476970D01*
X43346968Y-45728107D01*
X43346972Y-45728112D01*
X43346974Y-45728115D01*
X43478861Y-45904296D01*
X43518462Y-45957196D01*
X43518470Y-45957205D01*
X43720794Y-46159529D01*
X43720803Y-46159537D01*
X43720805Y-46159539D01*
X43949885Y-46331026D01*
X43949887Y-46331027D01*
X43949892Y-46331031D01*
X44201029Y-46468162D01*
X44201039Y-46468167D01*
X44469154Y-46568169D01*
X44748772Y-46628996D01*
X45034200Y-46649410D01*
X45319628Y-46628996D01*
X45599246Y-46568169D01*
X45867361Y-46468167D01*
X45897344Y-46451794D01*
X46118507Y-46331031D01*
X46118509Y-46331029D01*
X46118515Y-46331026D01*
X46347595Y-46159539D01*
X46549939Y-45957195D01*
X46721426Y-45728115D01*
X46721429Y-45728109D01*
X46721431Y-45728107D01*
X46858562Y-45476970D01*
X46858567Y-45476961D01*
X46958569Y-45208846D01*
X47019396Y-44929228D01*
X47039810Y-44643800D01*
X48108590Y-44643800D01*
X48129003Y-44929224D01*
X48189831Y-45208846D01*
X48289832Y-45476960D01*
X48289837Y-45476970D01*
X48426968Y-45728107D01*
X48426972Y-45728112D01*
X48426974Y-45728115D01*
X48558861Y-45904296D01*
X48598462Y-45957196D01*
X48598470Y-45957205D01*
X48800794Y-46159529D01*
X48800803Y-46159537D01*
X48800805Y-46159539D01*
X49029885Y-46331026D01*
X49029887Y-46331027D01*
X49029892Y-46331031D01*
X49281029Y-46468162D01*
X49281039Y-46468167D01*
X49549154Y-46568169D01*
X49828772Y-46628996D01*
X50114200Y-46649410D01*
X50399628Y-46628996D01*
X50679246Y-46568169D01*
X50947361Y-46468167D01*
X50977344Y-46451794D01*
X51198507Y-46331031D01*
X51198509Y-46331029D01*
X51198515Y-46331026D01*
X51427595Y-46159539D01*
X51629939Y-45957195D01*
X51801426Y-45728115D01*
X51801429Y-45728109D01*
X51801431Y-45728107D01*
X51938562Y-45476970D01*
X51938567Y-45476961D01*
X52038569Y-45208846D01*
X52099396Y-44929228D01*
X52119810Y-44643800D01*
X52114322Y-44567064D01*
X53079745Y-44567064D01*
X53089752Y-44853653D01*
X53139550Y-45136073D01*
X53228168Y-45408809D01*
X53261413Y-45476970D01*
X53353879Y-45666553D01*
X53514238Y-45904296D01*
X53697469Y-46107795D01*
X53706129Y-46117412D01*
X53925788Y-46301728D01*
X53925796Y-46301734D01*
X53925803Y-46301740D01*
X54168998Y-46453705D01*
X54430975Y-46570345D01*
X54706636Y-46649389D01*
X54990615Y-46689300D01*
X54990617Y-46689300D01*
X57205597Y-46689300D01*
X57205604Y-46689300D01*
X57420071Y-46674303D01*
X57700575Y-46614680D01*
X57970050Y-46516599D01*
X58223253Y-46381969D01*
X58455254Y-46213410D01*
X58661539Y-46014203D01*
X58838093Y-45788225D01*
X58866539Y-45738954D01*
X88125500Y-45738954D01*
X88140632Y-45873255D01*
X88176445Y-45975602D01*
X88200211Y-46043522D01*
X88200212Y-46043525D01*
X88296182Y-46196260D01*
X88296183Y-46196262D01*
X88423737Y-46323816D01*
X88423739Y-46323817D01*
X88576474Y-46419787D01*
X88576475Y-46419787D01*
X88576478Y-46419789D01*
X88746745Y-46479368D01*
X88881046Y-46494500D01*
X90950954Y-46494500D01*
X91085255Y-46479368D01*
X91255522Y-46419789D01*
X91408262Y-46323816D01*
X91535816Y-46196262D01*
X91631789Y-46043522D01*
X91677605Y-45912586D01*
X91718980Y-45854899D01*
X91784981Y-45828736D01*
X91849781Y-45840010D01*
X91966000Y-45894202D01*
X91966000Y-45400861D01*
X91986002Y-45332740D01*
X92039658Y-45286247D01*
X92109932Y-45276143D01*
X92150562Y-45289297D01*
X92157020Y-45292686D01*
X92157030Y-45292693D01*
X92262626Y-45332740D01*
X92306889Y-45349527D01*
X92306896Y-45349529D01*
X92399156Y-45360730D01*
X92426081Y-45364000D01*
X92426085Y-45364000D01*
X92505915Y-45364000D01*
X92505919Y-45364000D01*
X92554623Y-45358086D01*
X92625103Y-45349529D01*
X92625105Y-45349528D01*
X92625108Y-45349528D01*
X92774970Y-45292693D01*
X92774982Y-45292684D01*
X92781438Y-45289297D01*
X92851051Y-45275347D01*
X92917155Y-45301246D01*
X92958763Y-45358772D01*
X92966000Y-45400861D01*
X92966000Y-45894202D01*
X93113464Y-45825440D01*
X93298363Y-45695972D01*
X93323538Y-45670797D01*
X93385850Y-45636771D01*
X93456665Y-45641835D01*
X93513502Y-45684380D01*
X93521754Y-45696891D01*
X93532468Y-45715449D01*
X93532470Y-45715452D01*
X93532471Y-45715453D01*
X93699790Y-45925264D01*
X93699793Y-45925266D01*
X93699794Y-45925268D01*
X93896504Y-46107789D01*
X93896507Y-46107791D01*
X93896511Y-46107795D01*
X94044330Y-46208576D01*
X94118237Y-46258965D01*
X94118245Y-46258970D01*
X94360016Y-46375400D01*
X94360018Y-46375400D01*
X94360023Y-46375403D01*
X94575616Y-46441905D01*
X94616452Y-46454502D01*
X94616459Y-46454504D01*
X94881821Y-46494500D01*
X94881825Y-46494500D01*
X95150175Y-46494500D01*
X95150179Y-46494500D01*
X95415541Y-46454504D01*
X95671977Y-46375403D01*
X95913761Y-46258967D01*
X96135489Y-46107795D01*
X96332210Y-45925264D01*
X96499529Y-45715453D01*
X96633709Y-45483047D01*
X96665965Y-45400861D01*
X96686111Y-45349528D01*
X96731751Y-45233239D01*
X96791467Y-44971609D01*
X96811521Y-44704000D01*
X96791467Y-44436391D01*
X96731751Y-44174761D01*
X96718707Y-44141526D01*
X96633712Y-43924959D01*
X96633710Y-43924955D01*
X96601285Y-43868794D01*
X96510778Y-43712031D01*
X96499531Y-43692550D01*
X96499529Y-43692547D01*
X96332210Y-43482736D01*
X96299144Y-43452055D01*
X96135495Y-43300210D01*
X96135488Y-43300204D01*
X96006476Y-43212245D01*
X95913761Y-43149033D01*
X95913758Y-43149032D01*
X95913756Y-43149030D01*
X95913755Y-43149029D01*
X95671982Y-43032599D01*
X95671979Y-43032598D01*
X95671977Y-43032597D01*
X95561507Y-42998521D01*
X95415547Y-42953497D01*
X95415542Y-42953496D01*
X95415541Y-42953496D01*
X95150179Y-42913500D01*
X94881821Y-42913500D01*
X94616459Y-42953496D01*
X94616458Y-42953496D01*
X94616452Y-42953497D01*
X94360016Y-43032599D01*
X94118245Y-43149029D01*
X94118237Y-43149034D01*
X93896517Y-43300200D01*
X93896504Y-43300210D01*
X93699794Y-43482731D01*
X93532468Y-43692550D01*
X93521753Y-43711110D01*
X93470370Y-43760102D01*
X93400656Y-43773537D01*
X93334745Y-43747149D01*
X93323540Y-43737203D01*
X93298368Y-43712031D01*
X93298364Y-43712028D01*
X93113464Y-43582559D01*
X92965999Y-43513795D01*
X92966000Y-44007138D01*
X92945998Y-44075259D01*
X92892342Y-44121752D01*
X92822068Y-44131856D01*
X92781445Y-44118705D01*
X92774972Y-44115308D01*
X92774970Y-44115307D01*
X92738780Y-44101581D01*
X92625110Y-44058472D01*
X92625103Y-44058470D01*
X92505925Y-44044000D01*
X92505919Y-44044000D01*
X92426081Y-44044000D01*
X92426074Y-44044000D01*
X92306896Y-44058470D01*
X92306889Y-44058472D01*
X92157027Y-44115308D01*
X92150555Y-44118705D01*
X92080942Y-44132652D01*
X92014840Y-44106749D01*
X91973235Y-44049220D01*
X91966000Y-44007138D01*
X91965999Y-43513795D01*
X91849781Y-43567988D01*
X91779589Y-43578649D01*
X91714777Y-43549668D01*
X91677603Y-43495408D01*
X91631789Y-43364478D01*
X91631787Y-43364475D01*
X91631787Y-43364474D01*
X91535817Y-43211739D01*
X91535816Y-43211737D01*
X91408262Y-43084183D01*
X91408260Y-43084182D01*
X91255525Y-42988212D01*
X91255522Y-42988211D01*
X91220225Y-42975860D01*
X91085255Y-42928632D01*
X90950954Y-42913500D01*
X88881046Y-42913500D01*
X88746745Y-42928632D01*
X88746742Y-42928632D01*
X88746742Y-42928633D01*
X88576477Y-42988211D01*
X88576474Y-42988212D01*
X88423739Y-43084182D01*
X88423737Y-43084183D01*
X88296183Y-43211737D01*
X88296182Y-43211739D01*
X88200212Y-43364474D01*
X88200211Y-43364477D01*
X88147963Y-43513795D01*
X88140632Y-43534745D01*
X88125500Y-43669046D01*
X88125500Y-45738954D01*
X58866539Y-45738954D01*
X58981477Y-45539875D01*
X59088903Y-45273987D01*
X59146978Y-45041062D01*
X59158278Y-44995741D01*
X59158278Y-44995738D01*
X59158279Y-44995735D01*
X59188255Y-44710536D01*
X59178247Y-44423941D01*
X59128450Y-44141528D01*
X59039833Y-43868794D01*
X58926877Y-43637200D01*
X75463111Y-43637200D01*
X75482936Y-43863802D01*
X75541809Y-44083523D01*
X75541811Y-44083527D01*
X75637944Y-44289684D01*
X75659928Y-44321082D01*
X76129707Y-43851303D01*
X76192020Y-43817278D01*
X76262835Y-43822342D01*
X76319671Y-43864889D01*
X76324798Y-43872274D01*
X76337157Y-43891505D01*
X76386314Y-43967996D01*
X76386315Y-43967997D01*
X76386316Y-43967998D01*
X76494977Y-44062152D01*
X76516911Y-44072169D01*
X76570565Y-44118662D01*
X76590567Y-44186782D01*
X76570565Y-44254903D01*
X76553663Y-44275877D01*
X76084193Y-44745347D01*
X76084193Y-44745348D01*
X76115590Y-44767332D01*
X76321748Y-44863465D01*
X76321753Y-44863467D01*
X76541474Y-44922340D01*
X76768076Y-44942165D01*
X76994679Y-44922340D01*
X77214400Y-44863467D01*
X77214405Y-44863465D01*
X77420556Y-44767335D01*
X77451959Y-44745346D01*
X77388767Y-44682154D01*
X79967577Y-44682154D01*
X79982709Y-44816455D01*
X80019760Y-44922340D01*
X80042288Y-44986722D01*
X80042289Y-44986725D01*
X80138259Y-45139460D01*
X80138260Y-45139462D01*
X80265814Y-45267016D01*
X80265816Y-45267017D01*
X80418551Y-45362987D01*
X80418552Y-45362987D01*
X80418555Y-45362989D01*
X80588822Y-45422568D01*
X80723123Y-45437700D01*
X82813031Y-45437700D01*
X82947332Y-45422568D01*
X83117599Y-45362989D01*
X83270339Y-45267016D01*
X83397893Y-45139462D01*
X83493866Y-44986722D01*
X83553445Y-44816455D01*
X83568577Y-44682154D01*
X83568577Y-42592246D01*
X83568242Y-42589277D01*
X83567616Y-42583718D01*
X83553445Y-42457945D01*
X83493866Y-42287678D01*
X83493864Y-42287675D01*
X83493864Y-42287674D01*
X83397894Y-42134939D01*
X83397893Y-42134937D01*
X83270339Y-42007383D01*
X83270337Y-42007382D01*
X83117602Y-41911412D01*
X83117599Y-41911411D01*
X83117599Y-41911410D01*
X82947332Y-41851832D01*
X82813031Y-41836700D01*
X80723123Y-41836700D01*
X80588822Y-41851832D01*
X80588819Y-41851832D01*
X80588819Y-41851833D01*
X80418554Y-41911411D01*
X80418551Y-41911412D01*
X80265816Y-42007382D01*
X80265814Y-42007383D01*
X80138260Y-42134937D01*
X80138259Y-42134939D01*
X80042289Y-42287674D01*
X80042288Y-42287677D01*
X79999159Y-42410934D01*
X79982709Y-42457945D01*
X79969778Y-42572710D01*
X79967912Y-42589277D01*
X79967577Y-42592246D01*
X79967577Y-44682154D01*
X77388767Y-44682154D01*
X76982490Y-44275878D01*
X76948465Y-44213565D01*
X76953529Y-44142750D01*
X76996076Y-44085914D01*
X77019237Y-44072171D01*
X77041177Y-44062152D01*
X77149838Y-43967998D01*
X77211354Y-43872275D01*
X77265007Y-43825786D01*
X77335280Y-43815681D01*
X77399861Y-43845174D01*
X77406446Y-43851304D01*
X77876223Y-44321082D01*
X77898212Y-44289679D01*
X77994342Y-44083528D01*
X77994344Y-44083523D01*
X78053217Y-43863802D01*
X78073042Y-43637200D01*
X78053217Y-43410597D01*
X77994344Y-43190876D01*
X77994342Y-43190871D01*
X77898209Y-42984713D01*
X77876224Y-42953316D01*
X77406445Y-43423095D01*
X77344133Y-43457120D01*
X77273317Y-43452055D01*
X77216482Y-43409508D01*
X77211352Y-43402120D01*
X77149838Y-43306402D01*
X77142680Y-43300200D01*
X77041177Y-43212248D01*
X77041175Y-43212247D01*
X77041173Y-43212245D01*
X77019242Y-43202230D01*
X76965587Y-43155737D01*
X76945585Y-43087616D01*
X76965587Y-43019496D01*
X76982490Y-42998521D01*
X77451959Y-42529051D01*
X77420561Y-42507067D01*
X77214404Y-42410934D01*
X77214400Y-42410932D01*
X76994679Y-42352059D01*
X76768077Y-42332234D01*
X76541474Y-42352059D01*
X76321753Y-42410932D01*
X76321749Y-42410934D01*
X76115591Y-42507067D01*
X76084193Y-42529051D01*
X76553663Y-42998521D01*
X76587688Y-43060834D01*
X76582624Y-43131649D01*
X76540077Y-43188485D01*
X76516912Y-43202230D01*
X76494979Y-43212246D01*
X76494978Y-43212247D01*
X76386315Y-43306402D01*
X76324801Y-43402121D01*
X76271145Y-43448614D01*
X76200871Y-43458717D01*
X76136290Y-43429224D01*
X76129707Y-43423095D01*
X75659928Y-42953316D01*
X75637944Y-42984714D01*
X75541811Y-43190872D01*
X75541809Y-43190876D01*
X75482936Y-43410597D01*
X75463111Y-43637200D01*
X58926877Y-43637200D01*
X58914121Y-43611047D01*
X58753762Y-43373304D01*
X58561875Y-43160192D01*
X58561872Y-43160190D01*
X58561870Y-43160187D01*
X58342211Y-42975871D01*
X58342198Y-42975861D01*
X58342197Y-42975860D01*
X58099002Y-42823895D01*
X57837025Y-42707255D01*
X57837023Y-42707254D01*
X57837017Y-42707252D01*
X57561373Y-42628213D01*
X57561367Y-42628212D01*
X57561364Y-42628211D01*
X57277385Y-42588300D01*
X55062396Y-42588300D01*
X54970303Y-42594739D01*
X54847934Y-42603296D01*
X54567424Y-42662920D01*
X54412162Y-42719431D01*
X54297950Y-42761001D01*
X54297948Y-42761001D01*
X54297948Y-42761002D01*
X54044747Y-42895630D01*
X53812751Y-43064185D01*
X53812748Y-43064188D01*
X53812745Y-43064190D01*
X53812746Y-43064190D01*
X53659430Y-43212246D01*
X53606457Y-43263401D01*
X53429909Y-43489370D01*
X53429908Y-43489373D01*
X53286522Y-43737726D01*
X53286519Y-43737732D01*
X53179096Y-44003613D01*
X53179095Y-44003617D01*
X53109721Y-44281858D01*
X53109721Y-44281861D01*
X53079745Y-44567064D01*
X52114322Y-44567064D01*
X52099396Y-44358372D01*
X52038569Y-44078754D01*
X51938567Y-43810639D01*
X51938562Y-43810629D01*
X51801431Y-43559492D01*
X51801427Y-43559487D01*
X51794077Y-43549668D01*
X51629939Y-43330405D01*
X51629937Y-43330403D01*
X51629929Y-43330394D01*
X51427605Y-43128070D01*
X51427596Y-43128062D01*
X51373566Y-43087616D01*
X51198515Y-42956574D01*
X51198513Y-42956573D01*
X51198512Y-42956572D01*
X51198507Y-42956568D01*
X50947370Y-42819437D01*
X50947360Y-42819432D01*
X50679246Y-42719431D01*
X50399624Y-42658603D01*
X50114200Y-42638190D01*
X49828775Y-42658603D01*
X49549153Y-42719431D01*
X49281039Y-42819432D01*
X49281029Y-42819437D01*
X49029892Y-42956568D01*
X49029887Y-42956572D01*
X48800803Y-43128062D01*
X48800794Y-43128070D01*
X48598470Y-43330394D01*
X48598462Y-43330403D01*
X48426972Y-43559487D01*
X48426968Y-43559492D01*
X48289837Y-43810629D01*
X48289832Y-43810639D01*
X48189831Y-44078753D01*
X48129003Y-44358375D01*
X48108590Y-44643800D01*
X47039810Y-44643800D01*
X47019396Y-44358372D01*
X46958569Y-44078754D01*
X46858567Y-43810639D01*
X46858562Y-43810629D01*
X46721431Y-43559492D01*
X46721427Y-43559487D01*
X46714077Y-43549668D01*
X46549939Y-43330405D01*
X46549937Y-43330403D01*
X46549929Y-43330394D01*
X46347605Y-43128070D01*
X46347596Y-43128062D01*
X46293566Y-43087616D01*
X46118515Y-42956574D01*
X46118513Y-42956573D01*
X46118512Y-42956572D01*
X46118507Y-42956568D01*
X45867370Y-42819437D01*
X45867360Y-42819432D01*
X45599246Y-42719431D01*
X45319624Y-42658603D01*
X45034200Y-42638190D01*
X44748775Y-42658603D01*
X44469153Y-42719431D01*
X44201039Y-42819432D01*
X44201029Y-42819437D01*
X43949892Y-42956568D01*
X43949887Y-42956572D01*
X43720803Y-43128062D01*
X43720794Y-43128070D01*
X43518470Y-43330394D01*
X43518462Y-43330403D01*
X43346972Y-43559487D01*
X43346968Y-43559492D01*
X43209837Y-43810629D01*
X43209832Y-43810639D01*
X43109831Y-44078753D01*
X43049003Y-44358375D01*
X43028590Y-44643800D01*
X40506534Y-44643800D01*
X40513300Y-44583754D01*
X40513300Y-42893846D01*
X40498168Y-42759545D01*
X40438589Y-42589278D01*
X40438587Y-42589275D01*
X40438587Y-42589274D01*
X40342617Y-42436539D01*
X40342616Y-42436537D01*
X40215062Y-42308983D01*
X40215060Y-42308982D01*
X40062325Y-42213012D01*
X40062322Y-42213011D01*
X40062321Y-42213011D01*
X39892055Y-42153432D01*
X39757754Y-42138300D01*
X38067846Y-42138300D01*
X37933545Y-42153432D01*
X37933542Y-42153432D01*
X37933542Y-42153433D01*
X37763277Y-42213011D01*
X37763274Y-42213012D01*
X37610539Y-42308982D01*
X37610537Y-42308983D01*
X37482983Y-42436537D01*
X37482982Y-42436539D01*
X37387012Y-42589274D01*
X37387011Y-42589277D01*
X37345730Y-42707252D01*
X37327432Y-42759545D01*
X37312300Y-42893846D01*
X37312300Y-44583754D01*
X23600500Y-44583754D01*
X23600500Y-40483754D01*
X53083500Y-40483754D01*
X53098632Y-40618055D01*
X53158211Y-40788321D01*
X53158211Y-40788322D01*
X53158212Y-40788325D01*
X53254182Y-40941060D01*
X53254183Y-40941062D01*
X53381737Y-41068616D01*
X53381739Y-41068617D01*
X53534474Y-41164587D01*
X53534475Y-41164587D01*
X53534478Y-41164589D01*
X53704745Y-41224168D01*
X53839046Y-41239300D01*
X58428954Y-41239300D01*
X58563255Y-41224168D01*
X58733522Y-41164589D01*
X58886262Y-41068616D01*
X59013816Y-40941062D01*
X59109789Y-40788322D01*
X59169368Y-40618055D01*
X59184500Y-40483754D01*
X67053500Y-40483754D01*
X67068632Y-40618055D01*
X67128211Y-40788321D01*
X67128211Y-40788322D01*
X67128212Y-40788325D01*
X67224182Y-40941060D01*
X67224183Y-40941062D01*
X67351737Y-41068616D01*
X67351739Y-41068617D01*
X67504474Y-41164587D01*
X67504475Y-41164587D01*
X67504478Y-41164589D01*
X67674745Y-41224168D01*
X67809046Y-41239300D01*
X72398954Y-41239300D01*
X72533255Y-41224168D01*
X72703522Y-41164589D01*
X72856262Y-41068616D01*
X72983816Y-40941062D01*
X73079789Y-40788322D01*
X73139368Y-40618055D01*
X73154500Y-40483754D01*
X73154500Y-39644000D01*
X109044396Y-39644000D01*
X109064779Y-39902994D01*
X109125427Y-40155610D01*
X109224846Y-40395628D01*
X109224847Y-40395629D01*
X109360585Y-40617136D01*
X109360591Y-40617144D01*
X109364859Y-40622141D01*
X109393891Y-40686930D01*
X109383286Y-40757130D01*
X109356503Y-40791760D01*
X109357962Y-40793219D01*
X109353588Y-40797592D01*
X109222313Y-40957552D01*
X109124768Y-41140045D01*
X109064698Y-41338072D01*
X109049500Y-41492385D01*
X109049500Y-42795614D01*
X109064698Y-42949927D01*
X109064699Y-42949933D01*
X109064700Y-42949934D01*
X109072565Y-42975861D01*
X109124768Y-43147954D01*
X109222289Y-43330403D01*
X109222315Y-43330450D01*
X109353590Y-43490410D01*
X109513550Y-43621685D01*
X109696046Y-43719232D01*
X109894066Y-43779300D01*
X109894070Y-43779300D01*
X109894072Y-43779301D01*
X109981789Y-43787940D01*
X110048392Y-43794500D01*
X110048401Y-43794500D01*
X111651599Y-43794500D01*
X111651608Y-43794500D01*
X111739331Y-43785859D01*
X111805927Y-43779301D01*
X111805928Y-43779300D01*
X111805934Y-43779300D01*
X112003954Y-43719232D01*
X112186450Y-43621685D01*
X112346410Y-43490410D01*
X112477685Y-43330450D01*
X112575232Y-43147954D01*
X112635300Y-42949934D01*
X112638889Y-42913500D01*
X112648153Y-42819433D01*
X112650500Y-42795608D01*
X112650500Y-41492392D01*
X112635300Y-41338066D01*
X112575232Y-41140046D01*
X112477685Y-40957550D01*
X112346410Y-40797590D01*
X112346407Y-40797588D01*
X112346406Y-40797586D01*
X112342027Y-40793207D01*
X112344025Y-40791208D01*
X112310952Y-40742394D01*
X112309229Y-40671419D01*
X112335142Y-40622139D01*
X112339412Y-40617140D01*
X112475154Y-40395628D01*
X112574573Y-40155610D01*
X112635221Y-39902994D01*
X112655604Y-39644000D01*
X112635221Y-39385006D01*
X112574573Y-39132390D01*
X112475154Y-38892372D01*
X112339412Y-38670860D01*
X112339409Y-38670856D01*
X112170689Y-38473310D01*
X111973143Y-38304590D01*
X111973136Y-38304585D01*
X111843260Y-38224998D01*
X111751628Y-38168846D01*
X111511610Y-38069427D01*
X111258994Y-38008779D01*
X111210458Y-38004959D01*
X111064856Y-37993500D01*
X111064853Y-37993500D01*
X110635147Y-37993500D01*
X110635144Y-37993500D01*
X110441006Y-38008779D01*
X110188389Y-38069427D01*
X109948370Y-38168847D01*
X109726863Y-38304585D01*
X109726856Y-38304590D01*
X109529310Y-38473310D01*
X109360590Y-38670856D01*
X109360585Y-38670863D01*
X109224847Y-38892370D01*
X109224846Y-38892372D01*
X109125427Y-39132390D01*
X109064779Y-39385006D01*
X109044396Y-39644000D01*
X73154500Y-39644000D01*
X73154500Y-37893846D01*
X73139368Y-37759545D01*
X73079789Y-37589278D01*
X73079787Y-37589275D01*
X73079787Y-37589274D01*
X72983817Y-37436539D01*
X72983816Y-37436537D01*
X72856262Y-37308983D01*
X72856260Y-37308982D01*
X72703525Y-37213012D01*
X72703522Y-37213011D01*
X72703521Y-37213011D01*
X72533255Y-37153432D01*
X72398954Y-37138300D01*
X67809046Y-37138300D01*
X67674745Y-37153432D01*
X67674742Y-37153432D01*
X67674742Y-37153433D01*
X67504477Y-37213011D01*
X67504474Y-37213012D01*
X67351739Y-37308982D01*
X67351737Y-37308983D01*
X67224183Y-37436537D01*
X67224182Y-37436539D01*
X67128212Y-37589274D01*
X67128211Y-37589277D01*
X67117600Y-37619603D01*
X67068632Y-37759545D01*
X67053500Y-37893846D01*
X67053500Y-40483754D01*
X59184500Y-40483754D01*
X59184500Y-37893846D01*
X59169368Y-37759545D01*
X59109789Y-37589278D01*
X59109787Y-37589275D01*
X59109787Y-37589274D01*
X59013817Y-37436539D01*
X59013816Y-37436537D01*
X58886262Y-37308983D01*
X58886260Y-37308982D01*
X58733525Y-37213012D01*
X58733522Y-37213011D01*
X58733521Y-37213011D01*
X58563255Y-37153432D01*
X58428954Y-37138300D01*
X53839046Y-37138300D01*
X53704745Y-37153432D01*
X53704742Y-37153432D01*
X53704742Y-37153433D01*
X53534477Y-37213011D01*
X53534474Y-37213012D01*
X53381739Y-37308982D01*
X53381737Y-37308983D01*
X53254183Y-37436537D01*
X53254182Y-37436539D01*
X53158212Y-37589274D01*
X53158211Y-37589277D01*
X53147600Y-37619603D01*
X53098632Y-37759545D01*
X53083500Y-37893846D01*
X53083500Y-40483754D01*
X23600500Y-40483754D01*
X23600500Y-36028856D01*
X35981500Y-36028856D01*
X35990274Y-36140342D01*
X35996779Y-36222994D01*
X36057427Y-36475610D01*
X36156846Y-36715628D01*
X36156847Y-36715629D01*
X36292585Y-36937136D01*
X36292590Y-36937143D01*
X36461310Y-37134689D01*
X36553015Y-37213012D01*
X36658860Y-37303412D01*
X36880372Y-37439154D01*
X37120390Y-37538573D01*
X37373006Y-37599221D01*
X37632000Y-37619604D01*
X37890994Y-37599221D01*
X38143610Y-37538573D01*
X38383628Y-37439154D01*
X38605140Y-37303412D01*
X38802689Y-37134689D01*
X38951343Y-36960637D01*
X39010789Y-36921832D01*
X39081784Y-36921324D01*
X39136245Y-36953376D01*
X39139432Y-36956563D01*
X39259902Y-37047919D01*
X39400552Y-37103385D01*
X39400558Y-37103386D01*
X39488937Y-37113999D01*
X39488943Y-37114000D01*
X39732000Y-37114000D01*
X39732000Y-36377058D01*
X39752002Y-36308937D01*
X39805658Y-36262444D01*
X39875932Y-36252340D01*
X39910340Y-36262444D01*
X39989685Y-36298680D01*
X39989690Y-36298680D01*
X39989691Y-36298681D01*
X40042960Y-36306340D01*
X40096237Y-36314000D01*
X40167763Y-36314000D01*
X40274315Y-36298680D01*
X40353658Y-36262444D01*
X40423931Y-36252340D01*
X40488512Y-36281833D01*
X40526896Y-36341559D01*
X40532000Y-36377058D01*
X40532000Y-37114000D01*
X40775057Y-37114000D01*
X40775062Y-37113999D01*
X40863441Y-37103386D01*
X40863447Y-37103385D01*
X41004097Y-37047919D01*
X41124565Y-36956565D01*
X41215919Y-36836097D01*
X41271385Y-36695447D01*
X41271386Y-36695441D01*
X41281999Y-36607062D01*
X41282000Y-36607057D01*
X41282000Y-36214000D01*
X40700039Y-36214000D01*
X40631918Y-36193998D01*
X40585425Y-36140342D01*
X40575321Y-36070068D01*
X40589247Y-36032724D01*
X40587750Y-36032040D01*
X40589203Y-36028856D01*
X44851500Y-36028856D01*
X44860274Y-36140342D01*
X44866779Y-36222994D01*
X44927427Y-36475610D01*
X45026846Y-36715628D01*
X45026847Y-36715629D01*
X45162585Y-36937136D01*
X45162590Y-36937143D01*
X45331310Y-37134689D01*
X45423015Y-37213012D01*
X45528860Y-37303412D01*
X45750372Y-37439154D01*
X45990390Y-37538573D01*
X46243006Y-37599221D01*
X46502000Y-37619604D01*
X46760994Y-37599221D01*
X47013610Y-37538573D01*
X47253628Y-37439154D01*
X47475140Y-37303412D01*
X47672689Y-37134689D01*
X47821343Y-36960637D01*
X47880789Y-36921832D01*
X47951784Y-36921324D01*
X48006245Y-36953376D01*
X48009432Y-36956563D01*
X48129902Y-37047919D01*
X48270552Y-37103385D01*
X48270558Y-37103386D01*
X48358937Y-37113999D01*
X48358943Y-37114000D01*
X48602000Y-37114000D01*
X48602000Y-36377058D01*
X48622002Y-36308937D01*
X48675658Y-36262444D01*
X48745932Y-36252340D01*
X48780340Y-36262444D01*
X48859685Y-36298680D01*
X48859690Y-36298680D01*
X48859691Y-36298681D01*
X48912960Y-36306340D01*
X48966237Y-36314000D01*
X49037763Y-36314000D01*
X49144315Y-36298680D01*
X49223658Y-36262444D01*
X49293931Y-36252340D01*
X49358512Y-36281833D01*
X49396896Y-36341559D01*
X49402000Y-36377058D01*
X49402000Y-37114000D01*
X49645057Y-37114000D01*
X49645062Y-37113999D01*
X49733441Y-37103386D01*
X49733447Y-37103385D01*
X49874097Y-37047919D01*
X49994565Y-36956565D01*
X50085919Y-36836097D01*
X50141385Y-36695447D01*
X50141386Y-36695441D01*
X50151999Y-36607062D01*
X50152000Y-36607057D01*
X50152000Y-36214000D01*
X49570039Y-36214000D01*
X49501918Y-36193998D01*
X49455425Y-36140342D01*
X49445321Y-36070068D01*
X49459247Y-36032724D01*
X49457750Y-36032040D01*
X49461489Y-36023849D01*
X49461493Y-36023844D01*
X49502000Y-35885889D01*
X49502000Y-35742111D01*
X49461493Y-35604156D01*
X49461491Y-35604153D01*
X49457750Y-35595960D01*
X49460146Y-35594865D01*
X49444039Y-35539988D01*
X49464048Y-35471869D01*
X49517708Y-35425381D01*
X49570039Y-35414000D01*
X50152000Y-35414000D01*
X50152000Y-35020942D01*
X50151999Y-35020937D01*
X50141386Y-34932558D01*
X50141385Y-34932552D01*
X50085919Y-34791902D01*
X49994565Y-34671434D01*
X49874097Y-34580080D01*
X49733447Y-34524614D01*
X49733441Y-34524613D01*
X49645062Y-34514000D01*
X49402000Y-34514000D01*
X49402000Y-35250941D01*
X49381998Y-35319062D01*
X49328342Y-35365555D01*
X49258068Y-35375659D01*
X49223658Y-35365555D01*
X49144315Y-35329320D01*
X49144308Y-35329318D01*
X49037768Y-35314000D01*
X49037763Y-35314000D01*
X48966237Y-35314000D01*
X48966231Y-35314000D01*
X48859691Y-35329318D01*
X48859684Y-35329320D01*
X48780342Y-35365555D01*
X48710068Y-35375658D01*
X48645487Y-35346165D01*
X48607104Y-35286439D01*
X48602000Y-35250941D01*
X48602000Y-34514000D01*
X48358937Y-34514000D01*
X48270558Y-34524613D01*
X48270552Y-34524614D01*
X48129902Y-34580080D01*
X48009434Y-34671435D01*
X48006241Y-34674628D01*
X48002608Y-34676611D01*
X48002568Y-34676642D01*
X48002563Y-34676635D01*
X47943927Y-34708650D01*
X47873111Y-34703581D01*
X47821339Y-34667358D01*
X47816777Y-34662017D01*
X47731631Y-34562323D01*
X47672689Y-34493310D01*
X47475143Y-34324590D01*
X47475136Y-34324585D01*
X47330890Y-34236192D01*
X47253628Y-34188846D01*
X47013610Y-34089427D01*
X46760994Y-34028779D01*
X46502000Y-34008396D01*
X46501999Y-34008396D01*
X46243006Y-34028779D01*
X45990389Y-34089427D01*
X45820669Y-34159727D01*
X45754583Y-34187102D01*
X45750370Y-34188847D01*
X45528863Y-34324585D01*
X45528856Y-34324590D01*
X45331310Y-34493310D01*
X45162590Y-34690856D01*
X45162585Y-34690863D01*
X45026847Y-34912370D01*
X44927427Y-35152389D01*
X44866779Y-35405006D01*
X44851500Y-35599144D01*
X44851500Y-36028856D01*
X40589203Y-36028856D01*
X40591489Y-36023849D01*
X40591493Y-36023844D01*
X40632000Y-35885889D01*
X40632000Y-35742111D01*
X40591493Y-35604156D01*
X40591491Y-35604153D01*
X40587750Y-35595960D01*
X40590146Y-35594865D01*
X40574039Y-35539988D01*
X40594048Y-35471869D01*
X40647708Y-35425381D01*
X40700039Y-35414000D01*
X41282000Y-35414000D01*
X41282000Y-35020943D01*
X41281999Y-35020937D01*
X41271386Y-34932558D01*
X41271385Y-34932552D01*
X41215919Y-34791902D01*
X41124565Y-34671434D01*
X41004097Y-34580080D01*
X40863447Y-34524614D01*
X40863441Y-34524613D01*
X40775062Y-34514000D01*
X40532000Y-34514000D01*
X40532000Y-35250941D01*
X40511998Y-35319062D01*
X40458342Y-35365555D01*
X40388068Y-35375659D01*
X40353658Y-35365555D01*
X40274315Y-35329320D01*
X40274308Y-35329318D01*
X40167768Y-35314000D01*
X40167763Y-35314000D01*
X40096237Y-35314000D01*
X40096231Y-35314000D01*
X39989691Y-35329318D01*
X39989684Y-35329320D01*
X39910342Y-35365555D01*
X39840068Y-35375658D01*
X39775487Y-35346165D01*
X39737104Y-35286439D01*
X39732000Y-35250941D01*
X39732000Y-34514000D01*
X39488937Y-34514000D01*
X39400558Y-34524613D01*
X39400552Y-34524614D01*
X39259902Y-34580080D01*
X39139434Y-34671435D01*
X39136241Y-34674628D01*
X39132608Y-34676611D01*
X39132568Y-34676642D01*
X39132563Y-34676635D01*
X39073927Y-34708650D01*
X39003111Y-34703581D01*
X38951339Y-34667358D01*
X38946777Y-34662017D01*
X38861631Y-34562323D01*
X38802689Y-34493310D01*
X38605143Y-34324590D01*
X38605136Y-34324585D01*
X38460890Y-34236192D01*
X38383628Y-34188846D01*
X38143610Y-34089427D01*
X37890994Y-34028779D01*
X37632000Y-34008396D01*
X37373006Y-34028779D01*
X37120389Y-34089427D01*
X36950669Y-34159727D01*
X36884583Y-34187102D01*
X36880370Y-34188847D01*
X36658863Y-34324585D01*
X36658856Y-34324590D01*
X36461310Y-34493310D01*
X36292590Y-34690856D01*
X36292585Y-34690863D01*
X36156847Y-34912370D01*
X36057427Y-35152389D01*
X35996779Y-35405006D01*
X35981500Y-35599144D01*
X35981500Y-36028856D01*
X23600500Y-36028856D01*
X23600500Y-32000000D01*
X25594675Y-32000000D01*
X25606127Y-32233118D01*
X25613962Y-32392587D01*
X25613963Y-32392601D01*
X25632409Y-32516952D01*
X25671636Y-32781400D01*
X25703182Y-32907338D01*
X25767144Y-33162689D01*
X25849096Y-33391728D01*
X25899562Y-33532772D01*
X26067619Y-33888097D01*
X26126749Y-33986750D01*
X26269696Y-34225243D01*
X26503834Y-34540942D01*
X26503841Y-34540950D01*
X26503842Y-34540951D01*
X26767808Y-34832192D01*
X27059049Y-35096158D01*
X27059057Y-35096165D01*
X27374756Y-35330303D01*
X27374760Y-35330305D01*
X27374761Y-35330306D01*
X27711903Y-35532381D01*
X28067228Y-35700438D01*
X28437316Y-35832857D01*
X28818600Y-35928364D01*
X29207409Y-35986038D01*
X29542590Y-36002504D01*
X29599996Y-36005325D01*
X29600000Y-36005325D01*
X29600004Y-36005325D01*
X29655384Y-36002604D01*
X29992591Y-35986038D01*
X30381400Y-35928364D01*
X30762684Y-35832857D01*
X31132772Y-35700438D01*
X31488097Y-35532381D01*
X31825239Y-35330306D01*
X32065131Y-35152390D01*
X32140942Y-35096165D01*
X32140943Y-35096163D01*
X32140951Y-35096158D01*
X32432192Y-34832192D01*
X32696158Y-34540951D01*
X32708275Y-34524614D01*
X32930303Y-34225243D01*
X32930302Y-34225243D01*
X32930306Y-34225239D01*
X33132381Y-33888097D01*
X33300438Y-33532772D01*
X33432857Y-33162684D01*
X33528364Y-32781400D01*
X33586038Y-32392591D01*
X33590154Y-32308800D01*
X56668390Y-32308800D01*
X56688803Y-32594224D01*
X56749631Y-32873846D01*
X56849632Y-33141960D01*
X56849637Y-33141970D01*
X56986768Y-33393107D01*
X56986772Y-33393112D01*
X56986774Y-33393115D01*
X57070427Y-33504863D01*
X57158262Y-33622196D01*
X57158270Y-33622205D01*
X57360594Y-33824529D01*
X57360603Y-33824537D01*
X57360605Y-33824539D01*
X57589685Y-33996026D01*
X57589687Y-33996027D01*
X57589692Y-33996031D01*
X57840829Y-34133162D01*
X57840839Y-34133167D01*
X58108954Y-34233169D01*
X58388572Y-34293996D01*
X58674000Y-34314410D01*
X58959428Y-34293996D01*
X59239046Y-34233169D01*
X59507161Y-34133167D01*
X59609741Y-34077154D01*
X59758307Y-33996031D01*
X59758309Y-33996029D01*
X59758315Y-33996026D01*
X59987395Y-33824539D01*
X60189739Y-33622195D01*
X60361226Y-33393115D01*
X60361229Y-33393109D01*
X60361231Y-33393107D01*
X60498362Y-33141970D01*
X60498367Y-33141961D01*
X60598369Y-32873846D01*
X60659196Y-32594228D01*
X60679610Y-32308800D01*
X61748390Y-32308800D01*
X61768803Y-32594224D01*
X61829631Y-32873846D01*
X61929632Y-33141960D01*
X61929637Y-33141970D01*
X62066768Y-33393107D01*
X62066772Y-33393112D01*
X62066774Y-33393115D01*
X62150427Y-33504863D01*
X62238262Y-33622196D01*
X62238270Y-33622205D01*
X62440594Y-33824529D01*
X62440603Y-33824537D01*
X62440605Y-33824539D01*
X62669685Y-33996026D01*
X62669687Y-33996027D01*
X62669692Y-33996031D01*
X62920829Y-34133162D01*
X62920839Y-34133167D01*
X63188954Y-34233169D01*
X63468572Y-34293996D01*
X63754000Y-34314410D01*
X64039428Y-34293996D01*
X64319046Y-34233169D01*
X64587161Y-34133167D01*
X64689741Y-34077154D01*
X64838307Y-33996031D01*
X64838309Y-33996029D01*
X64838315Y-33996026D01*
X65067395Y-33824539D01*
X65269739Y-33622195D01*
X65441226Y-33393115D01*
X65441229Y-33393109D01*
X65441231Y-33393107D01*
X65578362Y-33141970D01*
X65578367Y-33141961D01*
X65678369Y-32873846D01*
X65684715Y-32844674D01*
X68138200Y-32844674D01*
X68153293Y-33031641D01*
X68213187Y-33274639D01*
X68311277Y-33504863D01*
X68445032Y-33716380D01*
X68610984Y-33903701D01*
X68610988Y-33903704D01*
X68804830Y-34061971D01*
X68804829Y-34061971D01*
X69021557Y-34187099D01*
X69021562Y-34187102D01*
X69255558Y-34275846D01*
X69288200Y-34282509D01*
X69288200Y-32617527D01*
X69308202Y-32549406D01*
X69361858Y-32502913D01*
X69432132Y-32492809D01*
X69443223Y-32494916D01*
X69600538Y-32532200D01*
X69600541Y-32532200D01*
X69731887Y-32532200D01*
X69810156Y-32523051D01*
X69862339Y-32516952D01*
X69919107Y-32496289D01*
X69989958Y-32491786D01*
X70051998Y-32526304D01*
X70085529Y-32588884D01*
X70088200Y-32614691D01*
X70088200Y-34280050D01*
X70088201Y-34280051D01*
X70239619Y-34236192D01*
X70239630Y-34236188D01*
X70465718Y-34128908D01*
X70671671Y-33986750D01*
X70671681Y-33986742D01*
X70852164Y-33813384D01*
X71002511Y-33613310D01*
X71118806Y-33391728D01*
X71118807Y-33391727D01*
X71198056Y-33154344D01*
X71238198Y-32907338D01*
X71238200Y-32907324D01*
X71238200Y-32853804D01*
X73087700Y-32853804D01*
X73094560Y-32951915D01*
X73102696Y-33068265D01*
X73102696Y-33068269D01*
X73102697Y-33068271D01*
X73162320Y-33348775D01*
X73260401Y-33618250D01*
X73327715Y-33744851D01*
X73395030Y-33871452D01*
X73563585Y-34103448D01*
X73563587Y-34103450D01*
X73563590Y-34103454D01*
X73762797Y-34309739D01*
X73762801Y-34309742D01*
X73988770Y-34486290D01*
X73988772Y-34486290D01*
X73988775Y-34486293D01*
X74237125Y-34629677D01*
X74237130Y-34629679D01*
X74237132Y-34629680D01*
X74503013Y-34737103D01*
X74503017Y-34737104D01*
X74781260Y-34806478D01*
X74781261Y-34806478D01*
X74781265Y-34806479D01*
X75066464Y-34836455D01*
X75353059Y-34826447D01*
X75635472Y-34776650D01*
X75908206Y-34688033D01*
X76165953Y-34562321D01*
X76403696Y-34401962D01*
X76616808Y-34210075D01*
X76728342Y-34077154D01*
X78537700Y-34077154D01*
X78552832Y-34211455D01*
X78576835Y-34280051D01*
X78612411Y-34381722D01*
X78612412Y-34381725D01*
X78708382Y-34534460D01*
X78708383Y-34534462D01*
X78835937Y-34662016D01*
X78835939Y-34662017D01*
X78988674Y-34757987D01*
X78988675Y-34757987D01*
X78988678Y-34757989D01*
X79158945Y-34817568D01*
X79293246Y-34832700D01*
X81883154Y-34832700D01*
X82017455Y-34817568D01*
X82187722Y-34757989D01*
X82340462Y-34662016D01*
X82468016Y-34534462D01*
X82563989Y-34381722D01*
X82623568Y-34211455D01*
X82638700Y-34077154D01*
X82638700Y-32000000D01*
X110594675Y-32000000D01*
X110606127Y-32233118D01*
X110613962Y-32392587D01*
X110613963Y-32392601D01*
X110632409Y-32516952D01*
X110671636Y-32781400D01*
X110703182Y-32907338D01*
X110767144Y-33162689D01*
X110849096Y-33391728D01*
X110899562Y-33532772D01*
X111067619Y-33888097D01*
X111126749Y-33986750D01*
X111269696Y-34225243D01*
X111503834Y-34540942D01*
X111503841Y-34540950D01*
X111503842Y-34540951D01*
X111767808Y-34832192D01*
X112059049Y-35096158D01*
X112059057Y-35096165D01*
X112374756Y-35330303D01*
X112374760Y-35330305D01*
X112374761Y-35330306D01*
X112711903Y-35532381D01*
X113067228Y-35700438D01*
X113437316Y-35832857D01*
X113818600Y-35928364D01*
X114207409Y-35986038D01*
X114542590Y-36002504D01*
X114599996Y-36005325D01*
X114600000Y-36005325D01*
X114600004Y-36005325D01*
X114655384Y-36002604D01*
X114992591Y-35986038D01*
X115381400Y-35928364D01*
X115762684Y-35832857D01*
X116132772Y-35700438D01*
X116488097Y-35532381D01*
X116825239Y-35330306D01*
X117065131Y-35152390D01*
X117140942Y-35096165D01*
X117140943Y-35096163D01*
X117140951Y-35096158D01*
X117432192Y-34832192D01*
X117696158Y-34540951D01*
X117708275Y-34524614D01*
X117930303Y-34225243D01*
X117930302Y-34225243D01*
X117930306Y-34225239D01*
X118132381Y-33888097D01*
X118300438Y-33532772D01*
X118432857Y-33162684D01*
X118528364Y-32781400D01*
X118586038Y-32392591D01*
X118605325Y-32000000D01*
X118605264Y-31998767D01*
X118596782Y-31826106D01*
X118586038Y-31607409D01*
X118528364Y-31218600D01*
X118432857Y-30837316D01*
X118300438Y-30467228D01*
X118132381Y-30111903D01*
X117930306Y-29774761D01*
X117930305Y-29774760D01*
X117930303Y-29774756D01*
X117696165Y-29459057D01*
X117674806Y-29435491D01*
X117432192Y-29167808D01*
X117140951Y-28903842D01*
X117140950Y-28903841D01*
X117140942Y-28903834D01*
X116825243Y-28669696D01*
X116501484Y-28475643D01*
X116488097Y-28467619D01*
X116132772Y-28299562D01*
X116101266Y-28288289D01*
X115762689Y-28167144D01*
X115666995Y-28143174D01*
X115381400Y-28071636D01*
X115352816Y-28067396D01*
X114992601Y-28013963D01*
X114992594Y-28013962D01*
X114992591Y-28013962D01*
X114796295Y-28004318D01*
X114600004Y-27994675D01*
X114599996Y-27994675D01*
X114375662Y-28005696D01*
X114207409Y-28013962D01*
X114207406Y-28013962D01*
X114207398Y-28013963D01*
X113818606Y-28071635D01*
X113818604Y-28071635D01*
X113818600Y-28071636D01*
X113627958Y-28119389D01*
X113437310Y-28167144D01*
X113067230Y-28299561D01*
X112711899Y-28467621D01*
X112374756Y-28669696D01*
X112059057Y-28903834D01*
X111767808Y-29167808D01*
X111503834Y-29459057D01*
X111269696Y-29774756D01*
X111067621Y-30111899D01*
X110899561Y-30467230D01*
X110767144Y-30837310D01*
X110738990Y-30949708D01*
X110671636Y-31218600D01*
X110671635Y-31218604D01*
X110671635Y-31218606D01*
X110613963Y-31607398D01*
X110613962Y-31607412D01*
X110594736Y-31998767D01*
X110594675Y-32000000D01*
X82638700Y-32000000D01*
X82638700Y-29487246D01*
X82623568Y-29352945D01*
X82563989Y-29182678D01*
X82563987Y-29182675D01*
X82563987Y-29182674D01*
X82468017Y-29029939D01*
X82468016Y-29029937D01*
X82340462Y-28902383D01*
X82340460Y-28902382D01*
X82187725Y-28806412D01*
X82187722Y-28806411D01*
X82134392Y-28787750D01*
X82017455Y-28746832D01*
X81883154Y-28731700D01*
X79293246Y-28731700D01*
X79158945Y-28746832D01*
X79158942Y-28746832D01*
X79158942Y-28746833D01*
X78988677Y-28806411D01*
X78988674Y-28806412D01*
X78835939Y-28902382D01*
X78835937Y-28902383D01*
X78708383Y-29029937D01*
X78708382Y-29029939D01*
X78612412Y-29182674D01*
X78612411Y-29182677D01*
X78552833Y-29352942D01*
X78552832Y-29352945D01*
X78537700Y-29487246D01*
X78537700Y-34077154D01*
X76728342Y-34077154D01*
X76801140Y-33990397D01*
X76953105Y-33747202D01*
X77069745Y-33485225D01*
X77148789Y-33209564D01*
X77188700Y-32925585D01*
X77188700Y-30710596D01*
X77173703Y-30496129D01*
X77114080Y-30215625D01*
X77015999Y-29946150D01*
X76881369Y-29692947D01*
X76857939Y-29660698D01*
X76712814Y-29460951D01*
X76712811Y-29460948D01*
X76712810Y-29460946D01*
X76513603Y-29254661D01*
X76513598Y-29254657D01*
X76287629Y-29078109D01*
X76287626Y-29078108D01*
X76287627Y-29078108D01*
X76287625Y-29078107D01*
X76039275Y-28934723D01*
X76039273Y-28934722D01*
X76039267Y-28934719D01*
X75773386Y-28827296D01*
X75773382Y-28827295D01*
X75495139Y-28757921D01*
X75209930Y-28727944D01*
X74923346Y-28737952D01*
X74640926Y-28787750D01*
X74368190Y-28876368D01*
X74110452Y-29002076D01*
X74110448Y-29002078D01*
X73872703Y-29162438D01*
X73659587Y-29354329D01*
X73475271Y-29573988D01*
X73475261Y-29574001D01*
X73323296Y-29817195D01*
X73323294Y-29817199D01*
X73206654Y-30079177D01*
X73206652Y-30079182D01*
X73127613Y-30354826D01*
X73127612Y-30354832D01*
X73127611Y-30354836D01*
X73087700Y-30638815D01*
X73087700Y-32853804D01*
X71238200Y-32853804D01*
X71238200Y-32182200D01*
X70520585Y-32182200D01*
X70452464Y-32162198D01*
X70405971Y-32108542D01*
X70395867Y-32038268D01*
X70399878Y-32020063D01*
X70401712Y-32013934D01*
X70431834Y-31913323D01*
X70442028Y-31738294D01*
X70411584Y-31565633D01*
X70411583Y-31565630D01*
X70408337Y-31558104D01*
X70399723Y-31487632D01*
X70430577Y-31423690D01*
X70491102Y-31386579D01*
X70524033Y-31382200D01*
X71238200Y-31382200D01*
X71238200Y-30719726D01*
X71223106Y-30532758D01*
X71163212Y-30289760D01*
X71065122Y-30059536D01*
X70931367Y-29848019D01*
X70765415Y-29660698D01*
X70765411Y-29660695D01*
X70571569Y-29502428D01*
X70571570Y-29502428D01*
X70354842Y-29377300D01*
X70354833Y-29377295D01*
X70120837Y-29288552D01*
X70120829Y-29288549D01*
X70088201Y-29281888D01*
X70088200Y-29281889D01*
X70088200Y-30946872D01*
X70068198Y-31014993D01*
X70014542Y-31061486D01*
X69944268Y-31071590D01*
X69933150Y-31069477D01*
X69775862Y-31032200D01*
X69644516Y-31032200D01*
X69644513Y-31032200D01*
X69514059Y-31047448D01*
X69457294Y-31068109D01*
X69386441Y-31072612D01*
X69324400Y-31038094D01*
X69290871Y-30975514D01*
X69288200Y-30949708D01*
X69288200Y-29284348D01*
X69288199Y-29284347D01*
X69136775Y-29328209D01*
X68910681Y-29435491D01*
X68704728Y-29577649D01*
X68704718Y-29577657D01*
X68524235Y-29751015D01*
X68373888Y-29951089D01*
X68257593Y-30172671D01*
X68257592Y-30172672D01*
X68178343Y-30410055D01*
X68138201Y-30657061D01*
X68138200Y-30657075D01*
X68138200Y-31382200D01*
X68855815Y-31382200D01*
X68923936Y-31402202D01*
X68970429Y-31455858D01*
X68980533Y-31526132D01*
X68976522Y-31544337D01*
X68957640Y-31607409D01*
X68944566Y-31651078D01*
X68934372Y-31826100D01*
X68934372Y-31826106D01*
X68964815Y-31998765D01*
X68964816Y-31998769D01*
X68968063Y-32006296D01*
X68976677Y-32076768D01*
X68945823Y-32140710D01*
X68885298Y-32177821D01*
X68852367Y-32182200D01*
X68138200Y-32182200D01*
X68138200Y-32844674D01*
X65684715Y-32844674D01*
X65739196Y-32594228D01*
X65759610Y-32308800D01*
X65739196Y-32023372D01*
X65678369Y-31743754D01*
X65578367Y-31475639D01*
X65550001Y-31423690D01*
X65441231Y-31224492D01*
X65441227Y-31224487D01*
X65436825Y-31218606D01*
X65269739Y-30995405D01*
X65269737Y-30995403D01*
X65269729Y-30995394D01*
X65067405Y-30793070D01*
X65067396Y-30793062D01*
X64969430Y-30719726D01*
X64838315Y-30621574D01*
X64838313Y-30621573D01*
X64838312Y-30621572D01*
X64838307Y-30621568D01*
X64587170Y-30484437D01*
X64587160Y-30484432D01*
X64319046Y-30384431D01*
X64039424Y-30323603D01*
X63754000Y-30303190D01*
X63468575Y-30323603D01*
X63188953Y-30384431D01*
X62920839Y-30484432D01*
X62920829Y-30484437D01*
X62669692Y-30621568D01*
X62669687Y-30621572D01*
X62440603Y-30793062D01*
X62440594Y-30793070D01*
X62238270Y-30995394D01*
X62238262Y-30995403D01*
X62066772Y-31224487D01*
X62066768Y-31224492D01*
X61929637Y-31475629D01*
X61929632Y-31475639D01*
X61829631Y-31743753D01*
X61768803Y-32023375D01*
X61748390Y-32308800D01*
X60679610Y-32308800D01*
X60659196Y-32023372D01*
X60598369Y-31743754D01*
X60498367Y-31475639D01*
X60470001Y-31423690D01*
X60361231Y-31224492D01*
X60361227Y-31224487D01*
X60356825Y-31218606D01*
X60189739Y-30995405D01*
X60189737Y-30995403D01*
X60189729Y-30995394D01*
X59987405Y-30793070D01*
X59987396Y-30793062D01*
X59889430Y-30719726D01*
X59758315Y-30621574D01*
X59758313Y-30621573D01*
X59758312Y-30621572D01*
X59758307Y-30621568D01*
X59507170Y-30484437D01*
X59507160Y-30484432D01*
X59239046Y-30384431D01*
X58959424Y-30323603D01*
X58674000Y-30303190D01*
X58388575Y-30323603D01*
X58108953Y-30384431D01*
X57840839Y-30484432D01*
X57840829Y-30484437D01*
X57589692Y-30621568D01*
X57589687Y-30621572D01*
X57360603Y-30793062D01*
X57360594Y-30793070D01*
X57158270Y-30995394D01*
X57158262Y-30995403D01*
X56986772Y-31224487D01*
X56986768Y-31224492D01*
X56849637Y-31475629D01*
X56849632Y-31475639D01*
X56749631Y-31743753D01*
X56688803Y-32023375D01*
X56668390Y-32308800D01*
X33590154Y-32308800D01*
X33605325Y-32000000D01*
X33605264Y-31998767D01*
X33596782Y-31826106D01*
X33586038Y-31607409D01*
X33528364Y-31218600D01*
X33432857Y-30837316D01*
X33300438Y-30467228D01*
X33132381Y-30111903D01*
X32930306Y-29774761D01*
X32930305Y-29774760D01*
X32930303Y-29774756D01*
X32696165Y-29459057D01*
X32674806Y-29435491D01*
X32432192Y-29167808D01*
X32140951Y-28903842D01*
X32140950Y-28903841D01*
X32140942Y-28903834D01*
X31825243Y-28669696D01*
X31501484Y-28475643D01*
X31488097Y-28467619D01*
X31132772Y-28299562D01*
X31101266Y-28288289D01*
X30762689Y-28167144D01*
X30666995Y-28143174D01*
X30381400Y-28071636D01*
X30352816Y-28067396D01*
X29992601Y-28013963D01*
X29992594Y-28013962D01*
X29992591Y-28013962D01*
X29796295Y-28004318D01*
X29600004Y-27994675D01*
X29599996Y-27994675D01*
X29375662Y-28005696D01*
X29207409Y-28013962D01*
X29207406Y-28013962D01*
X29207398Y-28013963D01*
X28818606Y-28071635D01*
X28818604Y-28071635D01*
X28818600Y-28071636D01*
X28627958Y-28119389D01*
X28437310Y-28167144D01*
X28067230Y-28299561D01*
X27711899Y-28467621D01*
X27374756Y-28669696D01*
X27059057Y-28903834D01*
X26767808Y-29167808D01*
X26503834Y-29459057D01*
X26269696Y-29774756D01*
X26067621Y-30111899D01*
X25899561Y-30467230D01*
X25767144Y-30837310D01*
X25738990Y-30949708D01*
X25671636Y-31218600D01*
X25671635Y-31218604D01*
X25671635Y-31218606D01*
X25613963Y-31607398D01*
X25613962Y-31607412D01*
X25594736Y-31998767D01*
X25594675Y-32000000D01*
X23600500Y-32000000D01*
X23600500Y-31999999D01*
X23618897Y-31531744D01*
X23619285Y-31526828D01*
X23634035Y-31402202D01*
X23674075Y-31063907D01*
X23674841Y-31059069D01*
X23765786Y-30601861D01*
X23766934Y-30597079D01*
X23893472Y-30148405D01*
X23894981Y-30143761D01*
X24056339Y-29706382D01*
X24058209Y-29701867D01*
X24253381Y-29278507D01*
X24255607Y-29274138D01*
X24483382Y-28867417D01*
X24485940Y-28863241D01*
X24744926Y-28475643D01*
X24747825Y-28471650D01*
X25036420Y-28105568D01*
X25039615Y-28101827D01*
X25356062Y-27759498D01*
X25359498Y-27756062D01*
X25701827Y-27439615D01*
X25705568Y-27436420D01*
X26071650Y-27147825D01*
X26075643Y-27144926D01*
X26105092Y-27125248D01*
X26463241Y-26885940D01*
X26467417Y-26883382D01*
X26874138Y-26655607D01*
X26878507Y-26653381D01*
X27301867Y-26458209D01*
X27306382Y-26456339D01*
X27743761Y-26294981D01*
X27748405Y-26293472D01*
X28197079Y-26166934D01*
X28201861Y-26165786D01*
X28659069Y-26074841D01*
X28663907Y-26074075D01*
X29023196Y-26031550D01*
X29126828Y-26019285D01*
X29131744Y-26018897D01*
X29600000Y-26000500D01*
X29692710Y-26000500D01*
X114507290Y-26000500D01*
X114600000Y-26000500D01*
X115068253Y-26018897D01*
G37*
G04 #@! TD.AperFunction*
D38*
X121600000Y-67056000D02*
X121600000Y-117000000D01*
X22600000Y-117000000D02*
X22600000Y-32000000D01*
X29600000Y-25000000D02*
G75*
G03*
X22600000Y-32000000I0J-7000000D01*
G01*
X114600000Y-124000000D02*
G75*
G03*
X121600000Y-117000000I0J7000000D01*
G01*
X29600000Y-25000000D02*
X114600000Y-25000000D01*
X121600000Y-32000000D02*
X121600000Y-67056000D01*
X121600000Y-32000000D02*
G75*
G03*
X114600000Y-25000000I-7000000J0D01*
G01*
X22600000Y-117000000D02*
G75*
G03*
X29600000Y-124000000I7000000J0D01*
G01*
X114600000Y-124000000D02*
X29600000Y-124000000D01*
M02*
