M48
METRIC,TZ
T1C0.400
T2C0.500
T3C0.710
T4C0.800
T5C1.000
T6C1.200
T7C1.300
T8C1.320
T9C1.397
T10C1.500
T11C2.200
T12C3.200
%
G90
G05
T1
X25222Y-37109
X25222Y-39649
X25222Y-42189
X25908Y-57709
X25908Y-60249
X25908Y-62789
X25959Y-67208
X25959Y-69748
X25959Y-72288
X25959Y-74828
X25959Y-77368
X26010Y-80010
X26010Y-82550
X26010Y-85090
X26010Y-87630
X26010Y-90297
X26137Y-102337
X26137Y-104623
X26137Y-107163
X26137Y-109703
X29210Y-60376
X32309Y-60376
X35382Y-119812
X36347Y-28753
X38887Y-28753
X41427Y-28753
X43120Y-80651
X43120Y-84461
X45390Y-28753
X47117Y-121260
X47930Y-28753
X48790Y-59436
X49470Y-89916
X49470Y-94996
X50089Y-121260
X50470Y-28753
X52527Y-60757
X52629Y-121260
X55169Y-121260
X55626Y-28753
X57709Y-121260
X58166Y-28753
X60249Y-121260
X60706Y-28753
X62729Y-80702
X62789Y-121260
X62887Y-85090
X63221Y-28778
X68272Y-59487
X68926Y-89941
X68926Y-94863
X71958Y-121310
X72009Y-60808
X74498Y-121310
X77038Y-121310
X79578Y-121310
X82118Y-121310
X83557Y-80550
X83557Y-84360
X84658Y-121310
X88951Y-59487
X89831Y-89916
X89831Y-94996
X92837Y-60782
X97079Y-29337
X97079Y-31877
X97079Y-34595
X100432Y-52476
X103013Y-80677
X103013Y-84487
X103734Y-40894
X104343Y-54915
X105385Y-43231
X106070Y-27864
X108610Y-27864
X108709Y-59487
X109490Y-89916
X109490Y-94996
X112446Y-60808
X115697Y-60808
X117856Y-38329
X117856Y-40869
X117856Y-43409
X117856Y-46965
X117881Y-49581
X117881Y-52121
X117881Y-54661
X118999Y-61290
X118999Y-63830
X118999Y-66370
X118999Y-68910
X118999Y-71450
X119024Y-74117
X119024Y-76657
X119024Y-80772
X119024Y-83312
X119024Y-85852
X119024Y-88392
X119024Y-90932
X119050Y-93599
X119050Y-96139
X119050Y-99466
X119050Y-112090
T2
X27200Y-32000
X27200Y-117000
X27903Y-30303
X27903Y-33697
X27903Y-115303
X27903Y-118697
X29600Y-29600
X29600Y-34400
X29600Y-114600
X29600Y-119400
X31297Y-30303
X31297Y-33697
X31297Y-115303
X31297Y-118697
X32000Y-32000
X32000Y-117000
X112200Y-32000
X112200Y-117000
X112903Y-30303
X112903Y-33697
X112903Y-115303
X112903Y-118697
X114600Y-29600
X114600Y-34400
X114600Y-114600
X114600Y-119400
X116297Y-30303
X116297Y-33697
X116297Y-115303
X116297Y-118697
X117000Y-32000
X117000Y-117000
T3
X38659Y-112243
X41199Y-104623
X41199Y-117323
T4
X25883Y-95479
X25897Y-92304
X30883Y-95479
X30897Y-92304
X38913Y-43739
X38913Y-47239
X91237Y-115381
X91237Y-120381
X104267Y-49530
X104267Y-52030
T5
X33274Y-105918
X33274Y-108418
X37632Y-35814
X40132Y-35814
X46502Y-35814
X49002Y-35814
X76768Y-43637
X81768Y-43637
X110850Y-39644
X110850Y-42144
X110850Y-50521
X110850Y-53021
T6
X45034Y-44644
X50114Y-44644
X58674Y-32309
X63754Y-32309
X111342Y-105029
X116342Y-105029
T7
X26060Y-99974
X31140Y-99974
X95733Y-114808
X95733Y-119888
X101803Y-114808
X101803Y-119888
X107823Y-114808
X107823Y-119888
T8
X89916Y-44704
X92466Y-44704
X95016Y-44704
T9
X29464Y-47498
X29464Y-52498
T10
X37786Y-72269
X43236Y-72269
X48686Y-72269
X56134Y-39189
X56134Y-44639
X56134Y-50089
X57330Y-72371
X62780Y-72371
X68230Y-72371
X69688Y-31782
X70104Y-39189
X70104Y-44639
X70104Y-50089
X75138Y-31782
X78005Y-72320
X80588Y-31782
X83455Y-72320
X88905Y-72320
X97592Y-72371
X103042Y-72371
X108492Y-72371
T11
X49913Y-105324
X49913Y-115484
X60073Y-105324
X60073Y-115484
X73279Y-105388
X73279Y-115548
X83439Y-105388
X83439Y-115548
T12
X29600Y-32000
X29600Y-117000
X114600Y-32000
X114600Y-117000
T0
M30
