G04 #@! TF.GenerationSoftware,KiCad,Pcbnew,7.0.7+dfsg-1*
G04 #@! TF.CreationDate,2024-09-08T18:11:18+02:00*
G04 #@! TF.ProjectId,motion-board-evoII,6d6f7469-6f6e-42d6-926f-6172642d6576,rev?*
G04 #@! TF.SameCoordinates,Original*
G04 #@! TF.FileFunction,Paste,Top*
G04 #@! TF.FilePolarity,Positive*
%FSLAX46Y46*%
G04 Gerber Fmt 4.6, Leading zero omitted, Abs format (unit mm)*
G04 Created by KiCad (PCBNEW 7.0.7+dfsg-1) date 2024-09-08 18:11:18*
%MOMM*%
%LPD*%
G01*
G04 APERTURE LIST*
G04 Aperture macros list*
%AMRoundRect*
0 Rectangle with rounded corners*
0 $1 Rounding radius*
0 $2 $3 $4 $5 $6 $7 $8 $9 X,Y pos of 4 corners*
0 Add a 4 corners polygon primitive as box body*
4,1,4,$2,$3,$4,$5,$6,$7,$8,$9,$2,$3,0*
0 Add four circle primitives for the rounded corners*
1,1,$1+$1,$2,$3*
1,1,$1+$1,$4,$5*
1,1,$1+$1,$6,$7*
1,1,$1+$1,$8,$9*
0 Add four rect primitives between the rounded corners*
20,1,$1+$1,$2,$3,$4,$5,0*
20,1,$1+$1,$4,$5,$6,$7,0*
20,1,$1+$1,$6,$7,$8,$9,0*
20,1,$1+$1,$8,$9,$2,$3,0*%
G04 Aperture macros list end*
%ADD10RoundRect,0.250000X-0.337500X-0.475000X0.337500X-0.475000X0.337500X0.475000X-0.337500X0.475000X0*%
%ADD11RoundRect,0.250000X0.550000X-1.500000X0.550000X1.500000X-0.550000X1.500000X-0.550000X-1.500000X0*%
%ADD12RoundRect,0.250000X0.350000X0.450000X-0.350000X0.450000X-0.350000X-0.450000X0.350000X-0.450000X0*%
%ADD13RoundRect,0.250000X1.500000X0.550000X-1.500000X0.550000X-1.500000X-0.550000X1.500000X-0.550000X0*%
%ADD14RoundRect,0.250000X-0.350000X-0.450000X0.350000X-0.450000X0.350000X0.450000X-0.350000X0.450000X0*%
%ADD15RoundRect,0.250000X-0.412500X-1.100000X0.412500X-1.100000X0.412500X1.100000X-0.412500X1.100000X0*%
%ADD16RoundRect,0.250000X0.475000X-0.337500X0.475000X0.337500X-0.475000X0.337500X-0.475000X-0.337500X0*%
%ADD17RoundRect,0.250000X-0.450000X0.325000X-0.450000X-0.325000X0.450000X-0.325000X0.450000X0.325000X0*%
%ADD18RoundRect,0.250000X-1.500000X-0.650000X1.500000X-0.650000X1.500000X0.650000X-1.500000X0.650000X0*%
%ADD19RoundRect,0.250000X1.500000X0.650000X-1.500000X0.650000X-1.500000X-0.650000X1.500000X-0.650000X0*%
%ADD20R,1.850000X1.900000*%
%ADD21R,0.600000X1.250000*%
%ADD22RoundRect,0.250000X-0.475000X0.337500X-0.475000X-0.337500X0.475000X-0.337500X0.475000X0.337500X0*%
G04 APERTURE END LIST*
D10*
X144305200Y-43510200D03*
X146380200Y-43510200D03*
D11*
X60299600Y-34196000D03*
X60299600Y-28796000D03*
D10*
X161674900Y-36169600D03*
X163749900Y-36169600D03*
D12*
X124469400Y-94157800D03*
X122469400Y-94157800D03*
D13*
X128531600Y-64058800D03*
X123131600Y-64058800D03*
D14*
X154346400Y-29133800D03*
X156346400Y-29133800D03*
D15*
X143229800Y-47574200D03*
X146354800Y-47574200D03*
D16*
X75590400Y-80060800D03*
X75590400Y-77985800D03*
D17*
X122478800Y-89484200D03*
X122478800Y-91534200D03*
D16*
X100076000Y-80056900D03*
X100076000Y-77981900D03*
D18*
X156808800Y-95046800D03*
X161808800Y-95046800D03*
D19*
X151989307Y-95031780D03*
X146989307Y-95031780D03*
D20*
X155244800Y-43764200D03*
X155244800Y-48124200D03*
D21*
X154377800Y-39308200D03*
X155327800Y-39308200D03*
X156277800Y-39308200D03*
X156277800Y-36808200D03*
X155327800Y-36808200D03*
X154377800Y-36808200D03*
D16*
X124409200Y-80031500D03*
X124409200Y-77956500D03*
D14*
X59163200Y-59867800D03*
X61163200Y-59867800D03*
D15*
X160705000Y-32054800D03*
X163830000Y-32054800D03*
D10*
X152103000Y-80213200D03*
X154178000Y-80213200D03*
D22*
X150418800Y-35784100D03*
X150418800Y-37859100D03*
D14*
X58817000Y-56108600D03*
X60817000Y-56108600D03*
D12*
X156422600Y-32105600D03*
X154422600Y-32105600D03*
M02*
