G04 #@! TF.GenerationSoftware,KiCad,Pcbnew,7.0.7+dfsg-1*
G04 #@! TF.CreationDate,2024-09-08T18:11:18+02:00*
G04 #@! TF.ProjectId,motion-board-evoII,6d6f7469-6f6e-42d6-926f-6172642d6576,rev?*
G04 #@! TF.SameCoordinates,Original*
G04 #@! TF.FileFunction,Paste,Bot*
G04 #@! TF.FilePolarity,Positive*
%FSLAX46Y46*%
G04 Gerber Fmt 4.6, Leading zero omitted, Abs format (unit mm)*
G04 Created by KiCad (PCBNEW 7.0.7+dfsg-1) date 2024-09-08 18:11:18*
%MOMM*%
%LPD*%
G01*
G04 APERTURE LIST*
G04 Aperture macros list*
%AMRoundRect*
0 Rectangle with rounded corners*
0 $1 Rounding radius*
0 $2 $3 $4 $5 $6 $7 $8 $9 X,Y pos of 4 corners*
0 Add a 4 corners polygon primitive as box body*
4,1,4,$2,$3,$4,$5,$6,$7,$8,$9,$2,$3,0*
0 Add four circle primitives for the rounded corners*
1,1,$1+$1,$2,$3*
1,1,$1+$1,$4,$5*
1,1,$1+$1,$6,$7*
1,1,$1+$1,$8,$9*
0 Add four rect primitives between the rounded corners*
20,1,$1+$1,$2,$3,$4,$5,0*
20,1,$1+$1,$4,$5,$6,$7,0*
20,1,$1+$1,$6,$7,$8,$9,0*
20,1,$1+$1,$8,$9,$2,$3,0*%
G04 Aperture macros list end*
%ADD10RoundRect,0.250000X-0.350000X-0.450000X0.350000X-0.450000X0.350000X0.450000X-0.350000X0.450000X0*%
%ADD11RoundRect,0.250000X0.337500X0.475000X-0.337500X0.475000X-0.337500X-0.475000X0.337500X-0.475000X0*%
%ADD12R,1.100000X0.600000*%
%ADD13RoundRect,0.250000X-0.337500X-0.475000X0.337500X-0.475000X0.337500X0.475000X-0.337500X0.475000X0*%
%ADD14RoundRect,0.250000X1.500000X0.550000X-1.500000X0.550000X-1.500000X-0.550000X1.500000X-0.550000X0*%
%ADD15RoundRect,0.250000X0.350000X0.450000X-0.350000X0.450000X-0.350000X-0.450000X0.350000X-0.450000X0*%
%ADD16RoundRect,0.250000X-0.475000X0.337500X-0.475000X-0.337500X0.475000X-0.337500X0.475000X0.337500X0*%
%ADD17RoundRect,0.250000X0.475000X-0.337500X0.475000X0.337500X-0.475000X0.337500X-0.475000X-0.337500X0*%
%ADD18RoundRect,0.250000X-0.450000X0.350000X-0.450000X-0.350000X0.450000X-0.350000X0.450000X0.350000X0*%
%ADD19RoundRect,0.250000X0.450000X-0.350000X0.450000X0.350000X-0.450000X0.350000X-0.450000X-0.350000X0*%
%ADD20R,0.650000X1.850000*%
G04 APERTURE END LIST*
D10*
X129733800Y-36550600D03*
X131733800Y-36550600D03*
D11*
X59817000Y-58216800D03*
X57742000Y-58216800D03*
D12*
X130692800Y-52816800D03*
X130692800Y-50916800D03*
X132892800Y-51866800D03*
D13*
X118600400Y-57581800D03*
X120675400Y-57581800D03*
D10*
X125822200Y-42214800D03*
X127822200Y-42214800D03*
D14*
X153906200Y-45720000D03*
X148506200Y-45720000D03*
X70416400Y-78689200D03*
X65016400Y-78689200D03*
X94927400Y-78689200D03*
X89527400Y-78689200D03*
D15*
X59817000Y-60756800D03*
X57817000Y-60756800D03*
X125866400Y-60248800D03*
X123866400Y-60248800D03*
D10*
X123841000Y-57531000D03*
X125841000Y-57531000D03*
D11*
X66370200Y-58267600D03*
X64295200Y-58267600D03*
D16*
X51663600Y-81626400D03*
X51663600Y-83701400D03*
D12*
X134043600Y-41671200D03*
X134043600Y-43571200D03*
X131843600Y-42621200D03*
D17*
X124866400Y-83028700D03*
X124866400Y-80953700D03*
X100126800Y-83050200D03*
X100126800Y-80975200D03*
D18*
X135000000Y-37176200D03*
X135000000Y-39176200D03*
D19*
X72745600Y-61518800D03*
X72745600Y-59518800D03*
D16*
X151333200Y-60074900D03*
X151333200Y-62149900D03*
D10*
X137125200Y-52552600D03*
X139125200Y-52552600D03*
D19*
X69596000Y-61493400D03*
X69596000Y-59493400D03*
D15*
X66344800Y-60680600D03*
X64344800Y-60680600D03*
D20*
X143548100Y-49078600D03*
X141008100Y-49078600D03*
X138468100Y-49078600D03*
X138468100Y-40278600D03*
X141008100Y-40278600D03*
X143548100Y-40278600D03*
D13*
X72178400Y-26568400D03*
X74253400Y-26568400D03*
D17*
X75590400Y-83050200D03*
X75590400Y-80975200D03*
D14*
X119387600Y-78689200D03*
X113987600Y-78689200D03*
D20*
X120701400Y-45409400D03*
X123241400Y-45409400D03*
X125781400Y-45409400D03*
X125781400Y-54209400D03*
X123241400Y-54209400D03*
X120701400Y-54209400D03*
D11*
X145628000Y-37261800D03*
X143553000Y-37261800D03*
M02*
